<?xml version="1.0" encoding="UTF-8"?>
<svg id="Layer_2" xmlns="http://www.w3.org/2000/svg" viewBox="0 0 421.79 150">
  <defs>
    <style>
      .cls-1 {
        fill: #36e3cd;
      }

      .cls-2 {
        fill: #df233e;
      }

      .cls-3 {
        fill: #fff;
      }

      .cls-4 {
        fill: #00051b;
      }
    </style>
  </defs>
  <g id="_x34_04-ERROR_PAGE">
    <g id="_x34_04_x5F_design">
      <g>
        <g>
          <g>
            <polygon class="cls-1" points="116.47 15.09 67.12 15.09 32.41 64.74 68.56 64.74 83.57 41.17 83.57 92.48 50.88 92.48 58.47 80.57 21.35 80.57 11.57 94.55 11.57 123.1 81.09 123.1 81.09 131.65 116.47 131.65 116.47 123.1 133.43 123.1 133.43 92.48 116.47 92.48 116.47 15.09"/>
            <rect class="cls-1" x="81.09" y="141.73" width="35.38" height="8.27"/>
            <path class="cls-1" d="M208.95,116.28c-4,0-7.48-.79-10.45-2.38-2.97-1.58-5.24-3.55-6.83-5.9-1.59-2.34-2.86-5.45-3.83-9.31-.97-3.86-1.59-7.58-1.86-11.17-.28-3.58-.41-7.86-.41-12.83s.13-9.1.4-12.65h-34.66c-.33,4.04-.5,8.25-.5,12.65,0,11.04,1.03,20.93,3.1,29.69,2.07,8.76,5.31,16.59,9.72,23.48,4.41,6.9,10.45,12.21,18.1,15.93,7.66,3.72,16.72,5.59,27.21,5.59s19.55-1.86,27.21-5.59c7.65-3.72,13.69-9.03,18.1-15.93,2.56-4,4.71-8.32,6.48-12.94h-43.63c-2.43.9-5.15,1.35-8.16,1.35Z"/>
            <path class="cls-1" d="M191.67,41.38c1.58-2.34,3.86-4.31,6.83-5.9,2.97-1.58,6.45-2.38,10.45-2.38s7.48.79,10.45,2.38c2.96,1.59,5.24,3.55,6.83,5.9,1.59,2.35,2.86,5.45,3.83,9.31.97,3.86,1.59,7.59,1.87,11.17.27,3.59.41,7.86.41,12.83s-.14,9.24-.41,12.83c-.28,3.59-.9,7.31-1.87,11.17-.19.77-.4,1.5-.61,2.2h35.3c1.56-7.87,2.35-16.61,2.35-26.2,0-11.03-1.04-20.93-3.11-29.69-2.07-8.76-5.31-16.58-9.72-23.48-4.42-6.89-10.45-12.21-18.1-15.93-7.66-3.72-16.73-5.59-27.21-5.59s-19.55,1.86-27.21,5.59c-7.66,3.72-13.69,9.04-18.1,15.93-4.42,6.9-7.66,14.73-9.72,23.48-.07.28-.12.57-.18.85h35.65c.68-1.71,1.44-3.2,2.3-4.47Z"/>
            <polygon class="cls-1" points="58.78 64.74 22.63 64.74 11.57 80.57 48.69 80.57 58.78 64.74"/>
            <rect class="cls-1" x="88.28" y="131.65" width="35.38" height="10.07"/>
            <polygon class="cls-1" points="128.34 1.03 88.82 1.03 78.99 15.09 128.34 15.09 128.34 1.03"/>
            <polygon class="cls-1" points="395.64 15.09 346.3 15.09 311.59 64.74 347.73 64.74 362.74 41.17 362.74 92.48 330.05 92.48 337.65 80.57 300.52 80.57 290.74 94.55 290.74 123.1 360.26 123.1 360.26 131.65 395.64 131.65 395.64 123.1 412.61 123.1 412.61 92.48 395.64 92.48 395.64 15.09"/>
            <rect class="cls-1" x="360.26" y="141.73" width="35.38" height="8.27"/>
            <polygon class="cls-1" points="337.95 64.74 301.81 64.74 290.74 80.57 327.87 80.57 337.95 64.74"/>
            <rect class="cls-1" x="367.46" y="131.65" width="35.38" height="10.07"/>
            <polygon class="cls-1" points="407.51 1.03 368 1.03 358.17 15.09 407.51 15.09 407.51 1.03"/>
            <path class="cls-1" d="M178.29,61.86c.27-3.59.9-7.31,1.86-11.17.44-1.78.96-3.38,1.53-4.84h-35.65c-1.14,5.03-1.95,10.42-2.42,16.19h34.66c0-.06,0-.12.01-.18Z"/>
            <path class="cls-1" d="M271.48,100.89h-35.3c-.87,2.85-1.94,5.23-3.21,7.11-1.59,2.35-3.86,4.31-6.82,5.9-.73.39-1.49.73-2.29,1.03h43.63c1.28-3.35,2.37-6.86,3.24-10.54.27-1.14.52-2.31.75-3.49Z"/>
          </g>
          <g>
            <polygon class="cls-2" points="104.9 15.09 55.55 15.09 20.84 64.74 56.99 64.74 72 41.17 72 92.48 39.31 92.48 46.9 80.57 9.78 80.57 0 94.55 0 123.1 69.52 123.1 69.52 131.65 104.9 131.65 104.9 123.1 121.86 123.1 121.86 92.48 104.9 92.48 104.9 15.09"/>
            <rect class="cls-2" x="69.52" y="141.73" width="35.38" height="8.27"/>
            <path class="cls-2" d="M197.38,116.28c-4,0-7.48-.79-10.45-2.38-2.97-1.58-5.24-3.55-6.83-5.9-1.59-2.34-2.86-5.45-3.83-9.31-.97-3.86-1.59-7.58-1.86-11.17-.28-3.58-.41-7.86-.41-12.83s.13-9.1.4-12.65h-34.66c-.33,4.04-.5,8.25-.5,12.65,0,11.04,1.03,20.93,3.1,29.69,2.07,8.76,5.31,16.59,9.72,23.48,4.41,6.9,10.45,12.21,18.1,15.93,7.66,3.72,16.72,5.59,27.21,5.59s19.55-1.86,27.21-5.59c7.65-3.72,13.69-9.03,18.1-15.93,2.56-4,4.71-8.32,6.48-12.94h-43.63c-2.43.9-5.15,1.35-8.16,1.35Z"/>
            <path class="cls-2" d="M180.1,41.38c1.58-2.34,3.86-4.31,6.83-5.9,2.97-1.58,6.45-2.38,10.45-2.38s7.48.79,10.45,2.38c2.96,1.59,5.24,3.55,6.83,5.9,1.59,2.35,2.86,5.45,3.83,9.31.97,3.86,1.59,7.59,1.87,11.17.27,3.59.41,7.86.41,12.83s-.14,9.24-.41,12.83c-.28,3.59-.9,7.31-1.87,11.17-.19.77-.4,1.5-.61,2.2h35.3c1.56-7.87,2.35-16.61,2.35-26.2,0-11.03-1.04-20.93-3.11-29.69-2.07-8.76-5.31-16.58-9.72-23.48-4.42-6.89-10.45-12.21-18.1-15.93-7.66-3.72-16.73-5.59-27.21-5.59s-19.55,1.86-27.21,5.59c-7.66,3.72-13.69,9.04-18.1,15.93-4.42,6.9-7.66,14.73-9.72,23.48-.07.28-.12.57-.18.85h35.65c.68-1.71,1.44-3.2,2.3-4.47Z"/>
            <polygon class="cls-2" points="47.21 64.74 11.07 64.74 0 80.57 37.13 80.57 47.21 64.74"/>
            <rect class="cls-2" x="76.71" y="131.65" width="35.38" height="10.07"/>
            <polygon class="cls-2" points="116.77 1.03 77.25 1.03 67.43 15.09 116.77 15.09 116.77 1.03"/>
            <polygon class="cls-2" points="384.07 15.09 334.73 15.09 300.02 64.74 336.16 64.74 351.18 41.17 351.18 92.48 318.49 92.48 326.08 80.57 288.95 80.57 279.18 94.55 279.18 123.1 348.69 123.1 348.69 131.65 384.07 131.65 384.07 123.1 401.04 123.1 401.04 92.48 384.07 92.48 384.07 15.09"/>
            <rect class="cls-2" x="348.69" y="141.73" width="35.38" height="8.27"/>
            <polygon class="cls-2" points="326.39 64.74 290.24 64.74 279.18 80.57 316.3 80.57 326.39 64.74"/>
            <rect class="cls-2" x="355.89" y="131.65" width="35.38" height="10.07"/>
            <polygon class="cls-2" points="395.95 1.03 356.43 1.03 346.6 15.09 395.95 15.09 395.95 1.03"/>
            <path class="cls-2" d="M166.72,61.86c.27-3.59.9-7.31,1.86-11.17.44-1.78.96-3.38,1.53-4.84h-35.65c-1.14,5.03-1.95,10.42-2.42,16.19h34.66c0-.06,0-.12.01-.18Z"/>
            <path class="cls-2" d="M259.91,100.89h-35.3c-.87,2.85-1.94,5.23-3.21,7.11-1.59,2.35-3.86,4.31-6.83,5.9-.73.39-1.49.73-2.29,1.03h43.63c1.28-3.35,2.37-6.86,3.24-10.54.27-1.14.52-2.31.75-3.49Z"/>
          </g>
          <g>
            <polygon class="cls-3" points="109.99 15.09 60.65 15.09 25.94 64.74 62.08 64.74 77.09 41.17 77.09 92.48 44.4 92.48 52 80.57 14.87 80.57 5.09 94.55 5.09 123.1 74.61 123.1 74.61 131.65 109.99 131.65 109.99 123.1 126.95 123.1 126.95 92.48 109.99 92.48 109.99 15.09"/>
            <rect class="cls-3" x="74.61" y="141.73" width="35.38" height="8.27"/>
            <path class="cls-3" d="M202.47,116.28c-4,0-7.48-.79-10.45-2.38-2.97-1.58-5.24-3.55-6.83-5.9-1.59-2.34-2.86-5.45-3.83-9.31-.97-3.86-1.59-7.58-1.86-11.17-.28-3.58-.41-7.86-.41-12.83s.13-9.1.4-12.65h-34.66c-.33,4.04-.5,8.25-.5,12.65,0,11.04,1.03,20.93,3.1,29.69,2.07,8.76,5.31,16.59,9.72,23.48,4.41,6.9,10.45,12.21,18.1,15.93,7.66,3.72,16.72,5.59,27.21,5.59s19.55-1.86,27.21-5.59c7.65-3.72,13.69-9.03,18.1-15.93,2.56-4,4.71-8.32,6.48-12.94h-43.63c-2.43.9-5.15,1.35-8.16,1.35Z"/>
            <path class="cls-3" d="M185.19,41.38c1.58-2.34,3.86-4.31,6.83-5.9,2.97-1.58,6.45-2.38,10.45-2.38s7.48.79,10.45,2.38c2.96,1.59,5.24,3.55,6.83,5.9,1.59,2.35,2.86,5.45,3.83,9.31.97,3.86,1.59,7.59,1.87,11.17.27,3.59.41,7.86.41,12.83s-.14,9.24-.41,12.83c-.28,3.59-.9,7.31-1.87,11.17-.19.77-.4,1.5-.61,2.2h35.3c1.56-7.87,2.35-16.61,2.35-26.2,0-11.03-1.04-20.93-3.11-29.69-2.07-8.76-5.31-16.58-9.72-23.48-4.42-6.89-10.45-12.21-18.1-15.93-7.66-3.72-16.73-5.59-27.21-5.59s-19.55,1.86-27.21,5.59c-7.66,3.72-13.69,9.04-18.1,15.93-4.42,6.9-7.66,14.73-9.72,23.48-.07.28-.12.57-.18.85h35.65c.68-1.71,1.44-3.2,2.3-4.47Z"/>
            <polygon class="cls-3" points="52.3 64.74 16.16 64.74 5.09 80.57 42.22 80.57 52.3 64.74"/>
            <rect class="cls-3" x="81.81" y="131.65" width="35.38" height="10.07"/>
            <polygon class="cls-3" points="121.86 1.03 82.34 1.03 72.52 15.09 121.86 15.09 121.86 1.03"/>
            <polygon class="cls-3" points="389.17 15.09 339.82 15.09 305.11 64.74 341.26 64.74 356.27 41.17 356.27 92.48 323.58 92.48 331.17 80.57 294.05 80.57 284.27 94.55 284.27 123.1 353.79 123.1 353.79 131.65 389.17 131.65 389.17 123.1 406.13 123.1 406.13 92.48 389.17 92.48 389.17 15.09"/>
            <rect class="cls-3" x="353.79" y="141.73" width="35.38" height="8.27"/>
            <polygon class="cls-3" points="331.48 64.74 295.33 64.74 284.27 80.57 321.39 80.57 331.48 64.74"/>
            <rect class="cls-3" x="360.98" y="131.65" width="35.38" height="10.07"/>
            <polygon class="cls-3" points="401.04 1.03 361.52 1.03 351.69 15.09 401.04 15.09 401.04 1.03"/>
            <path class="cls-3" d="M171.81,61.86c.27-3.59.9-7.31,1.86-11.17.44-1.78.96-3.38,1.53-4.84h-35.65c-1.14,5.03-1.95,10.42-2.42,16.19h34.66c0-.06,0-.12.01-.18Z"/>
            <path class="cls-3" d="M265,100.89h-35.3c-.87,2.85-1.94,5.23-3.21,7.11-1.59,2.35-3.86,4.31-6.83,5.9-.73.39-1.49.73-2.29,1.03h43.63c1.28-3.35,2.37-6.86,3.24-10.54.27-1.14.52-2.31.75-3.49Z"/>
          </g>
        </g>
        <g>
          <rect class="cls-3" x="18.26" y="44.45" width="40.52" height="1.4"/>
          <rect class="cls-4" x="18.26" y="45.85" width="40.52" height="1.4"/>
          <rect class="cls-2" x="13.27" y="44.45" width="1.4" height="1.4"/>
          <rect class="cls-2" x="9.29" y="44.45" width="1.4" height="1.4"/>
          <rect class="cls-2" x=".27" y="44.45" width="5.62" height="1.4"/>
        </g>
        <g>
          <rect class="cls-3" x="279.48" y="88.47" width="40.52" height="1.4"/>
          <rect class="cls-4" x="279.48" y="89.87" width="40.52" height="1.4"/>
          <rect class="cls-2" x="274.48" y="88.47" width="1.4" height="1.4"/>
          <rect class="cls-2" x="270.51" y="88.47" width="1.4" height="1.4"/>
        </g>
        <g>
          <rect class="cls-3" x="96.12" y="141.73" width="40.52" height="1.4" transform="translate(232.75 284.85) rotate(180)"/>
          <rect class="cls-4" x="96.12" y="143.12" width="40.52" height="1.4" transform="translate(232.75 287.65) rotate(180)"/>
          <rect class="cls-1" x="140.23" y="141.73" width="1.4" height="1.4" transform="translate(281.86 284.85) rotate(180)"/>
          <rect class="cls-1" x="144.21" y="141.73" width="1.4" height="1.4" transform="translate(289.82 284.85) rotate(180)"/>
          <rect class="cls-1" x="149.01" y="141.73" width="5.62" height="1.4" transform="translate(303.63 284.85) rotate(180)"/>
        </g>
        <rect class="cls-3" x="223.85" y="9.66" width="40.52" height="1.4" transform="translate(488.23 20.71) rotate(180)"/>
        <rect class="cls-3" x="371.01" y="44.45" width="40.52" height="1.4" transform="translate(782.54 90.3) rotate(180)"/>
        <rect class="cls-3" x="378.67" y="107.91" width="40.52" height="1.4" transform="translate(797.86 217.22) rotate(180)"/>
        <rect class="cls-3" x="142.39" y="128.8" width="40.52" height="1.4" transform="translate(325.3 259) rotate(180)"/>
        <rect class="cls-1" x="269.05" y="52.21" width="1.76" height="1.76"/>
        <rect class="cls-1" x="274.39" y="52.21" width="1.76" height="1.76"/>
        <rect class="cls-2" x="339.49" y="6.3" width="1.76" height="1.76"/>
        <rect class="cls-3" x="414.87" y="44.27" width="1.76" height="1.76"/>
        <rect class="cls-3" x="420.03" y="44.27" width="1.76" height="1.76"/>
        <rect class="cls-2" x="344.84" y="6.3" width="1.76" height="1.76"/>
      </g>
    </g>
  </g>
</svg>