<?xml version="1.0" encoding="UTF-8"?>
<svg id="Layer_2" xmlns="http://www.w3.org/2000/svg" viewBox="0 0 45 45">
  <defs>
    <style>
      .cls-1 {
        fill: #d31e41;
      }
    </style>
  </defs>
  <g id="QUIZ">
    <g id="NO">
      <g id="Layer_1-2">
        <path class="cls-1" d="M22.5,0C10.07,0,0,10.07,0,22.5s10.07,22.5,22.5,22.5,22.5-10.07,22.5-22.5S34.93,0,22.5,0ZM31.99,29.13c.66.77.66,1.9,0,2.66-.73.86-2.03.96-2.88.22l-6.61-6.61-6.61,6.59c-.07.08-.14.15-.22.22-.86.73-2.15.63-2.88-.22-.73-.86-.63-2.15.22-2.88l6.61-6.61-6.61-6.61c-.8-.8-.79-2.1.01-2.89.8-.8,2.1-.79,2.89.01l6.59,6.61,6.63-6.61c.07-.08.14-.15.22-.22.86-.73,2.15-.63,2.88.22.73.86.63,2.15-.22,2.88l-6.61,6.61,6.59,6.63Z"/>
      </g>
    </g>
  </g>
</svg>