<?xml version="1.0" encoding="UTF-8"?>
<svg id="Layer_2" xmlns="http://www.w3.org/2000/svg" xmlns:xlink="http://www.w3.org/1999/xlink" viewBox="0 0 22.8 22.8">
  <defs>
    <style>
      .cls-1 {
        mask: url(#mask);
      }

      .cls-2 {
        fill: #597a97;
      }

      .cls-3 {
        fill: #fff;
      }
    </style>
    <mask id="mask" x="-.53" y="-.53" width="23.86" height="23.86" maskUnits="userSpaceOnUse">
      <g id="custom">
        <rect id="bg" class="cls-3" x="-.53" y="-.53" width="23.86" height="23.86"/>
      </g>
    </mask>
  </defs>
  <g id="MENU-OFERTA">
    <g class="cls-1">
      <g id="search_x5F_icon">
        <g id="g834">
          <g id="g836">
            <g id="g838">
              <g id="g844">
                <path class="cls-2" d="M12.33,12.73c-.1,0-.21-.04-.28-.12-.16-.16-.16-.41,0-.57,1.61-1.61,1.61-4.22,0-5.83-.16-.16-.16-.41,0-.57.16-.16.41-.16.57,0,1.92,1.92,1.92,5.04,0,6.96-.08.08-.18.12-.28.12Z"/>
              </g>
              <g id="g848">
                <path class="cls-2" d="M20.24,22.8c-.49,0-.95-.19-1.3-.54l-3.08-3.08c-.07-.08-.12-.18-.12-.28s.04-.21.12-.28l2.75-2.75c.16-.16.41-.16.57,0l3.08,3.08c.71.71.71,1.88,0,2.59h0s-.73.73-.73.73c-.35.35-.81.54-1.3.54ZM16.71,18.9l2.8,2.8c.39.39,1.07.39,1.46,0l.73-.73c.4-.4.4-1.06,0-1.46l-2.8-2.8-2.19,2.19ZM21.98,21.25h0,0Z"/>
              </g>
              <g id="g852">
                <path class="cls-2" d="M9.13,18.26c-2.34,0-4.68-.89-6.46-2.67-1.72-1.72-2.67-4.02-2.67-6.46S.95,4.4,2.67,2.68C4.4.95,6.69,0,9.13,0s4.73.95,6.46,2.68c2.23,2.23,3.14,5.4,2.45,8.47-.05.21-.26.35-.48.3-.22-.05-.35-.26-.3-.48.63-2.81-.2-5.7-2.24-7.73-1.57-1.57-3.67-2.44-5.89-2.44s-4.32.87-5.89,2.44c-1.57,1.57-2.44,3.67-2.44,5.89s.87,4.32,2.44,5.89c3.25,3.25,8.54,3.25,11.78,0,.16-.16.41-.16.57,0l2.09,2.09c.16.16.16.41,0,.57s-.41.16-.57,0l-1.81-1.81c-1.74,1.6-3.96,2.39-6.17,2.39Z"/>
              </g>
            </g>
          </g>
        </g>
      </g>
    </g>
  </g>
</svg>