<?xml version="1.0" encoding="UTF-8"?>
<svg id="Layer_2" xmlns="http://www.w3.org/2000/svg" viewBox="0 0 152.15 42.23">
  <defs>
    <style>
      .cls-1 {
        fill: #5eb461;
      }

      .cls-2 {
        fill: #fff;
      }
    </style>
  </defs>
  <g id="MENU">
    <g id="wide">
      <g id="APSAP_x5F_LEARNING_x5F_logo">
        <path class="cls-1" d="M2.63,10.78L32.15,0v4.33c0,2.08-1.28,3.94-3.22,4.67l-11.75,4.46,14.97,3.31v10.91c0,1.68-1.05,3.18-2.63,3.76L0,42.23v-10.32c0-2.11,1.32-3.99,3.3-4.7l13.88-5.02L0,19.52v-4.99C0,12.86,1.05,11.36,2.63,10.78Z"/>
        <path class="cls-1" d="M5.87,2.99c0,1.67-1.28,3.01-2.92,3.01S0,4.66,0,2.99,1.3,0,2.96,0s2.91,1.34,2.91,2.99ZM.49,3.02c0,1.45,1.07,2.58,2.47,2.58,1.37.02,2.44-1.14,2.44-2.61S4.32.4,2.94.4.49,1.54.49,3.02ZM4.14,1.88c-.13-.07-.48-.22-.94-.22-.91,0-1.36.58-1.36,1.36s.48,1.37,1.37,1.37c.39,0,.76-.11.98-.25l.12.37c-.34.22-.79.3-1.19.3-1.13,0-1.78-.78-1.78-1.76,0-1.11.87-1.81,1.85-1.81.5,0,.93.15,1.07.26l-.12.38Z"/>
        <path class="cls-1" d="M48.93,28.14h-5.64v-8.49h5.64c.6,0,1.09-.49,1.09-1.09v-1.39h-9.67v13.45h9.67v-1.39c0-.6-.49-1.09-1.09-1.09Z"/>
        <path class="cls-1" d="M70.81,28.14h-5.63v-3.1h6.73v-2.48h-6.73v-2.91h5.63c.6,0,1.09-.49,1.09-1.09v-1.39h-9.68v10.97h-6.27v-10.97h-2.95v5.39h-6.82v2.48h6.82v5.58h18.89v-1.39c0-.6-.49-1.09-1.09-1.09Z"/>
        <path class="cls-1" d="M112.77,18.27v7.41l-6.25-8.5h-3.23v13.45h1.86c.6,0,1.09-.49,1.09-1.09v-7.82l6.18,8.46c.21.28.53.45.88.45h2.44v-13.45h-1.88c-.6,0-1.09.49-1.09,1.09Z"/>
        <rect class="cls-1" x="118.78" y="17.18" width="2.95" height="13.45"/>
        <path class="cls-1" d="M134.1,25.68l-6.25-8.5h-3.23v13.45h1.86c.6,0,1.09-.49,1.09-1.09v-7.82l6.18,8.46c.21.28.53.45.88.45h2.44v-13.45h-1.88c-.6,0-1.09.49-1.09,1.09v7.41Z"/>
        <path class="cls-1" d="M149.21,27.32l-.13.1c-.54.45-1.65.93-2.83.93-2.45,0-4.29-1.91-4.29-4.44s1.8-4.44,4.29-4.44c1.44,0,2.52.83,3.11,1.69l2.44-1.27c-.77-1.22-2.41-2.94-5.55-2.94-4.3,0-7.3,2.86-7.3,6.96s3,6.96,7.3,6.96c2.36,0,4.34-.85,5.9-2.54v-5.13h-6.12v2.5h3.18v1.62Z"/>
        <path class="cls-1" d="M78.44,17.18l-5.06,13.45h2.6c.47,0,.88-.3,1.03-.74l.45-1.3h6.08l.45,1.3c.15.44.57.74,1.03.74h2.6l-5.06-13.45h-4.12ZM78.22,26.11l2.29-6.77,2.27,6.77h-4.56Z"/>
        <path class="cls-1" d="M98.34,25.24c1.3-.74,2.05-2.1,2.05-3.71,0-2.17-1.41-4.36-4.57-4.36h-6.74v13.45h1.86c.6,0,1.09-.49,1.09-1.09v-9.88h3.24c1.24,0,2.11.77,2.11,1.88s-.87,1.86-2.11,1.86h-1.81l4.31,6.73c.2.32.55.51.92.51h2.67l-3.34-5.2.32-.18Z"/>
        <path class="cls-2" d="M45.57.31l-5.06,13.45h2.6c.47,0,.88-.3,1.03-.74l.45-1.3h6.08l.45,1.3c.15.44.57.74,1.03.74h2.6L49.69.31h-4.12ZM45.35,9.24l2.29-6.77,2.27,6.77h-4.56Z"/>
        <path class="cls-2" d="M72.47,5.44c-1.51-.32-2.7-.58-2.7-1.49,0-.5.24-1.33,1.88-1.33,1.11,0,2.26.29,3.25.82.5.27,1.09.14,1.42-.3l.99-1.35c-1.41-1.1-3.22-1.68-5.27-1.68-2.17,0-3.9.83-4.74,2.26l-.3.52-.3-.52c-.77-1.32-2.18-2.05-3.97-2.05h-6.74v13.45h1.86c.6,0,1.09-.49,1.09-1.09v-3.66h3.79c1.95,0,3.47-.89,4.17-2.45l.23-.52.36.45c1.01,1.26,2.97,1.67,4.54,1.99,1.53.32,2.74.57,2.74,1.54,0,.71-.62,1.47-2.34,1.47-1.29,0-2.54-.36-3.62-1.04-.51-.32-1.17-.19-1.5.3l-.89,1.31c1.49,1.3,3.45,1.95,5.82,1.95,3.47,0,5.55-1.64,5.55-4.38,0-3.06-2.94-3.69-5.3-4.19ZM62.17,6.53h-3.24v-3.73h3.24c1.24,0,2.11.77,2.11,1.88s-.87,1.86-2.11,1.86Z"/>
        <path class="cls-2" d="M82.79.31l-5.06,13.45h2.6c.46,0,.88-.3,1.03-.74l.45-1.3h6.08l.45,1.3c.15.44.57.74,1.03.74h2.6L86.91.31h-4.12ZM82.57,9.24l2.29-6.77,2.27,6.77h-4.56Z"/>
        <path class="cls-2" d="M96.06,12.67v-3.66h3.79c3.16,0,4.57-2.18,4.57-4.34s-1.41-4.36-4.57-4.36h-6.74v13.45h1.86c.6,0,1.09-.49,1.09-1.09ZM96.06,2.79h3.24c1.24,0,2.11.77,2.11,1.88s-.87,1.86-2.11,1.86h-3.24v-3.73Z"/>
      </g>
    </g>
  </g>
</svg>