<svg aria-hidden="true" style="position: absolute; width: 0; height: 0; overflow: hidden;" version="1.1" xmlns="http://www.w3.org/2000/svg" xmlns:xlink="http://www.w3.org/1999/xlink">
<defs>
<symbol id="icon-create-account" viewBox="0 0 32 32">
<path d="M16 16.088c-1.945 0-3.533-1.625-3.533-3.62s1.581-3.62 3.533-3.62 3.533 1.625 3.533 3.62-1.581 3.62-3.533 3.62zM16 9.468c-1.6 0-2.905 1.343-2.905 2.993s1.305 2.993 2.905 2.993 2.905-1.343 2.905-2.993-1.305-2.993-2.905-2.993z"></path>
<path d="M21.641 21.967h-11.282c-0.176 0-0.314-0.138-0.314-0.314v-0.082c0-3.369 2.673-6.118 5.954-6.118s5.954 2.742 5.954 6.118v0.082c0 0.176-0.138 0.314-0.314 0.314zM10.679 21.34h10.642c-0.119-2.918-2.46-5.252-5.321-5.252s-5.202 2.334-5.321 5.252z"></path>
<path d="M16.621 5.158h-1.236c-0.176 0-0.314-0.138-0.314-0.314s0.138-0.314 0.314-0.314h1.236c0.176 0 0.314 0.138 0.314 0.314s-0.138 0.314-0.314 0.314z"></path>
<path d="M28.373 32h-24.747c-2.002 0-3.627-1.669-3.627-3.721v-1.92c0-0.176 0.138-0.314 0.314-0.314h31.373c0.176 0 0.314 0.138 0.314 0.314v1.92c0 2.052-1.625 3.721-3.627 3.721zM0.627 26.673v1.606c0 1.707 1.343 3.093 2.999 3.093h24.747c1.656 0 2.999-1.387 2.999-3.093v-1.606h-30.745z"></path>
<path d="M26.623 26.673h-23.755c-0.176 0-0.314-0.138-0.314-0.314v-22.118c0-2.34 1.857-4.242 4.135-4.242h18.616c2.278 0 4.135 1.901 4.135 4.242v15.278c0 0.176-0.138 0.314-0.314 0.314s-0.314-0.138-0.314-0.314v-15.278c0-1.995-1.575-3.614-3.507-3.614h-18.616c-1.933 0-3.507 1.625-3.507 3.614v21.804h23.442c0.176 0 0.314 0.138 0.314 0.314s-0.138 0.314-0.314 0.314z"></path>
</symbol>
<symbol id="icon-login" viewBox="0 0 23 32">
<path d="M20.003 32h-17.075c-1.616 0-2.927-1.317-2.927-2.927v-22.143c0-1.616 1.317-2.927 2.927-2.927h6.589v0.525h-6.589c-1.327 0-2.403 1.081-2.403 2.403v22.138c0 1.327 1.081 2.403 2.403 2.403h17.070c1.327 0 2.403-1.081 2.403-2.403v-22.138c0-1.327-1.081-2.403-2.403-2.403h-6.636v-0.525h6.636c1.616 0 2.927 1.317 2.927 2.927v22.138c0 1.616-1.317 2.927-2.927 2.927z"></path>
<path d="M14.395 7.192h-5.86v-4.265c0-1.616 1.317-2.927 2.927-2.927s2.927 1.317 2.927 2.927v4.265zM9.060 6.668h4.81v-3.74c0-1.327-1.081-2.403-2.403-2.403s-2.403 1.081-2.403 2.403v3.74z"></path>
<path d="M11.468 17.93c-1.726 0-3.132-1.406-3.132-3.132s1.406-3.132 3.132-3.132 3.132 1.406 3.132 3.132-1.406 3.132-3.132 3.132zM11.468 12.197c-1.437 0-2.607 1.17-2.607 2.607s1.17 2.607 2.607 2.607 2.607-1.17 2.607-2.607-1.17-2.607-2.607-2.607z"></path>
<path d="M16.661 22.599h-0.525c0-2.576-2.098-4.674-4.674-4.674s-4.674 2.098-4.674 4.674h-0.525c0-2.864 2.329-5.199 5.199-5.199s5.199 2.329 5.199 5.199z"></path>
<path d="M5.199 26.14h12.538v0.525h-12.538v-0.525z"></path>
</symbol>
<symbol id="icon-success-icon-3" viewBox="0 0 33 32">
<path d="M19.719 19.122c-0.075 0-0.149-0.019-0.214-0.053l-2.827-1.476-2.827 1.476c-0.155 0.081-0.345 0.068-0.488-0.034s-0.214-0.28-0.186-0.454l0.519-3.181-2.324-2.318c-0.124-0.124-0.168-0.308-0.115-0.475 0.056-0.168 0.199-0.289 0.373-0.317l3.222-0.494 1.411-2.833c0.078-0.158 0.239-0.258 0.416-0.258s0.339 0.099 0.416 0.258l1.41 2.833 3.222 0.494c0.174 0.028 0.317 0.149 0.373 0.317s0.009 0.351-0.115 0.475l-2.324 2.318 0.519 3.181c0.028 0.174-0.044 0.348-0.186 0.454-0.081 0.059-0.177 0.087-0.273 0.087zM16.674 16.606c0.075 0 0.149 0.019 0.214 0.053l2.218 1.156-0.407-2.501c-0.025-0.149 0.025-0.298 0.131-0.404l1.839-1.836-2.551-0.391c-0.149-0.022-0.28-0.118-0.348-0.252l-1.103-2.212-1.103 2.212c-0.068 0.137-0.196 0.23-0.348 0.252l-2.551 0.391 1.839 1.836c0.106 0.106 0.155 0.258 0.13 0.404l-0.407 2.501 2.218-1.156c0.068-0.034 0.143-0.053 0.214-0.053z"></path>
<path d="M25.991 3.206c-0.090 0-0.183-0.028-0.264-0.081-0.211-0.146-0.267-0.435-0.121-0.649l1.563-2.274c0.146-0.211 0.435-0.267 0.649-0.121 0.211 0.146 0.267 0.435 0.121 0.649l-1.563 2.274c-0.090 0.131-0.236 0.202-0.385 0.202z"></path>
<path d="M7.36 3.206c-0.149 0-0.295-0.071-0.385-0.202l-1.563-2.274c-0.146-0.211-0.093-0.503 0.121-0.649 0.211-0.146 0.503-0.093 0.649 0.121l1.563 2.274c0.146 0.211 0.093 0.503-0.121 0.649-0.081 0.056-0.174 0.081-0.264 0.081z"></path>
<path d="M16.674 32c-0.258 0-0.466-0.208-0.466-0.466v-2.678c0-0.258 0.208-0.466 0.466-0.466s0.466 0.208 0.466 0.466v2.678c0 0.258-0.208 0.466-0.466 0.466z"></path>
<path d="M32.885 21.12c-0.071 0-0.146-0.016-0.214-0.053l-2.364-1.218c-0.23-0.118-0.32-0.398-0.202-0.628s0.398-0.32 0.628-0.202l2.364 1.218c0.23 0.118 0.32 0.398 0.202 0.628-0.084 0.162-0.245 0.252-0.413 0.252z"></path>
<path d="M0.466 21.12c-0.168 0-0.332-0.093-0.413-0.252-0.118-0.23-0.028-0.509 0.202-0.628l2.364-1.218c0.23-0.118 0.51-0.028 0.628 0.202s0.028 0.509-0.202 0.628l-2.364 1.218c-0.068 0.034-0.14 0.053-0.214 0.053z"></path>
<path d="M22.645 26.442c-0.584 0-1.165-0.143-1.712-0.429l-4.259-2.221-4.259 2.221c-1.249 0.652-2.734 0.544-3.877-0.283-1.159-0.836-1.734-2.237-1.504-3.654l0.78-4.778-3.414-3.402c-1.010-1.007-1.361-2.476-0.917-3.837 0.441-1.348 1.578-2.318 2.973-2.532l4.741-0.73 2.153-4.325c0.634-1.274 1.908-2.066 3.324-2.066s2.691 0.792 3.324 2.066l2.153 4.325 4.741 0.73c1.392 0.214 2.532 1.184 2.973 2.532 0.444 1.361 0.093 2.83-0.916 3.837l-3.393 3.38c-0.18 0.18-0.478 0.18-0.659 0-0.18-0.183-0.18-0.478 0-0.659l3.393-3.38c0.77-0.767 1.028-1.849 0.69-2.886-0.336-1.028-1.168-1.74-2.228-1.901l-4.98-0.764c-0.149-0.022-0.28-0.118-0.348-0.252l-2.262-4.542c-0.485-0.972-1.414-1.55-2.492-1.55s-2.007 0.581-2.492 1.55l-2.262 4.542c-0.068 0.137-0.196 0.23-0.348 0.252l-4.98 0.764c-1.059 0.162-1.892 0.873-2.228 1.901-0.339 1.038-0.081 2.119 0.69 2.886l3.585 3.573c0.106 0.106 0.155 0.258 0.13 0.404l-0.817 5.014c-0.177 1.081 0.245 2.11 1.128 2.746 0.87 0.628 1.951 0.705 2.902 0.211l4.477-2.333c0.134-0.071 0.295-0.071 0.432 0l4.477 2.333c0.718 0.376 1.522 0.423 2.265 0.134 0.764-0.295 1.361-0.904 1.637-1.665 0.087-0.242 0.354-0.367 0.596-0.28s0.367 0.354 0.28 0.596c-0.37 1.013-1.162 1.821-2.175 2.215-0.432 0.168-0.876 0.252-1.32 0.252z"></path>
</symbol>
<symbol id="icon-success-icon-2" viewBox="0 0 32 32">
<path d="M8.513 11.551c-0.693 0-1.317-0.454-1.519-1.146-0.242-0.842 0.245-1.721 1.084-1.963 1.727-0.497 3.24-1.497 4.374-2.889 0.162-0.199 0.457-0.23 0.656-0.068s0.23 0.457 0.068 0.656c-1.255 1.541-2.927 2.647-4.837 3.197-0.348 0.099-0.547 0.463-0.447 0.811 0.093 0.326 0.416 0.525 0.749 0.463 0.022-0.003 0.040-0.009 0.059-0.016 0.882-0.255 1.727-0.615 2.513-1.075 0.221-0.13 0.506-0.056 0.637 0.168s0.056 0.506-0.168 0.637c-0.854 0.497-1.771 0.892-2.728 1.165-0.047 0.012-0.096 0.025-0.143 0.034-0.103 0.019-0.202 0.028-0.301 0.028z"></path>
<path d="M16.003 13.198h-5.285c-0.143 0-0.28-0.068-0.37-0.18s-0.118-0.264-0.084-0.404l1.504-5.776c0.357-1.376 1.6-2.336 3.020-2.336 0.879 0 1.69 0.354 2.287 0.997 0.854 0.923 2.203 1.187 3.275 0.646 0.301-0.152 0.587-0.342 0.848-0.556l0.171-0.143c0.336-0.277 0.755-0.404 1.187-0.357s0.817 0.264 1.081 0.609c0.525 0.68 0.407 1.647-0.264 2.206l-0.152 0.124c-1.575 1.308-3.613 1.948-5.692 1.73l-1.094 3.129c-0.065 0.186-0.242 0.311-0.441 0.311zM11.321 12.266h4.353l1.109-3.172c0.075-0.211 0.286-0.342 0.513-0.308 1.942 0.301 3.868-0.255 5.337-1.476l0.149-0.124c0.28-0.233 0.332-0.643 0.121-0.92-0.109-0.143-0.267-0.233-0.447-0.252-0.177-0.019-0.351 0.031-0.491 0.146l-0.171 0.143c-0.314 0.261-0.659 0.488-1.025 0.671-1.442 0.727-3.24 0.379-4.377-0.845-0.419-0.45-0.988-0.699-1.603-0.699-0.997 0-1.867 0.674-2.119 1.637l-1.351 5.195z"></path>
<path d="M10.147 32c-0.124 0-0.242-0.050-0.329-0.137l-1.811-1.811c-0.183-0.183-0.183-0.478 0-0.659l12.468-12.468c0.174-0.174 0.485-0.174 0.659 0l2.355 2.355 3.122-3.122-0.854-0.854c-0.121-0.121-0.168-0.301-0.118-0.463 0.050-0.165 0.186-0.289 0.354-0.323l5.443-1.094c0.152-0.031 0.311 0.016 0.423 0.127s0.158 0.267 0.127 0.423l-1.097 5.443c-0.034 0.168-0.158 0.304-0.323 0.354s-0.342 0.006-0.463-0.118l-1.022-1.022-5.263 5.263c-0.183 0.183-0.478 0.183-0.659 0l-2.355-2.355-3.271 3.271c-0.183 0.183-0.478 0.183-0.659 0-0.183-0.183-0.183-0.478 0-0.659l3.601-3.601c0.174-0.174 0.485-0.174 0.659 0l2.355 2.355 5.263-5.263c0.087-0.087 0.205-0.137 0.329-0.137v0c0.124 0 0.242 0.050 0.329 0.137l0.739 0.736 0.786-3.902-3.902 0.786 0.569 0.569c0.183 0.183 0.183 0.478 0 0.659l-3.781 3.781c-0.174 0.174-0.485 0.174-0.659 0l-2.355-2.355-11.809 11.809 1.153 1.153 3.153-3.153c0.183-0.183 0.478-0.183 0.659 0 0.183 0.183 0.183 0.478 0 0.659l-3.483 3.483c-0.087 0.087-0.205 0.137-0.329 0.137z"></path>
<path d="M16.429 5.434c-1.497 0-2.718-1.218-2.718-2.718s1.221-2.715 2.718-2.715 2.718 1.218 2.718 2.718-1.218 2.718-2.718 2.718zM16.429 0.932c-0.985 0-1.786 0.802-1.786 1.786s0.802 1.786 1.786 1.786 1.786-0.802 1.786-1.786-0.802-1.786-1.786-1.786z"></path>
<path d="M7.506 26.473c-0.078 0-0.158-0.006-0.236-0.016-0.55-0.075-1.003-0.376-1.274-0.826-0.27-0.454-0.317-0.994-0.127-1.488l0.388-1.019c0.090-0.239 0.36-0.36 0.603-0.27 0.239 0.093 0.36 0.36 0.27 0.603l-0.388 1.019c-0.087 0.224-0.065 0.472 0.059 0.68s0.329 0.345 0.569 0.376c0.376 0.050 0.711-0.124 0.867-0.432 1.249-2.476 4.934-9.765 4.934-9.765 0.081-0.155 0.239-0.255 0.416-0.255h1.497c0.137 0 0.267 0.059 0.354 0.165 0.090 0.103 0.127 0.242 0.106 0.376l-0.764 4.8c-0.031 0.205 0.025 0.41 0.158 0.569s0.329 0.245 0.534 0.245c0.314 0 0.593-0.211 0.677-0.516l1.435-5.154c0.158-0.565 0.044-1.159-0.311-1.628s-0.895-0.736-1.485-0.736h-0.684c-0.258 0-0.466-0.208-0.466-0.466s0.208-0.466 0.466-0.466h0.684c0.882 0 1.693 0.404 2.228 1.103 0.534 0.702 0.702 1.591 0.466 2.439l-1.435 5.154c-0.196 0.705-0.845 1.196-1.575 1.196-0.478 0-0.932-0.208-1.243-0.575-0.311-0.363-0.447-0.845-0.373-1.32l0.677-4.259h-0.665c-0.662 1.311-3.697 7.307-4.806 9.507-0.298 0.59-0.907 0.957-1.56 0.957z"></path>
<path d="M8.491 19.035c-0.056 0-0.112-0.009-0.165-0.031-0.239-0.093-0.36-0.36-0.27-0.603l2.224-5.838c0.090-0.239 0.36-0.36 0.603-0.27 0.239 0.093 0.36 0.36 0.27 0.603l-2.224 5.838c-0.071 0.186-0.249 0.301-0.435 0.301z"></path>
<path d="M5.953 18.178c-0.345 0-0.668-0.134-0.91-0.376v0s-4.666-4.669-4.666-4.669c-0.5-0.5-0.5-1.317 0-1.821l3.386-3.386c0.242-0.242 0.565-0.376 0.91-0.376s0.668 0.134 0.91 0.376l4.666 4.666c0.5 0.5 0.5 1.317 0 1.821l-3.386 3.386c-0.242 0.242-0.565 0.376-0.91 0.376zM5.701 17.14c0.134 0.134 0.367 0.134 0.503 0l3.386-3.386c0.137-0.14 0.137-0.364 0-0.503l-4.666-4.666c-0.134-0.134-0.367-0.134-0.503 0l-3.386 3.386c-0.14 0.14-0.14 0.364 0 0.503l4.666 4.666z"></path>
<path d="M4.527 12.542c-0.118 0-0.239-0.047-0.329-0.137l-2.125-2.125c-0.183-0.183-0.183-0.478 0-0.659s0.478-0.183 0.659 0l2.125 2.125c0.183 0.183 0.183 0.478 0 0.659-0.090 0.090-0.211 0.137-0.329 0.137z"></path>
<path d="M8.071 16.090c-0.118 0-0.239-0.047-0.329-0.137l-2.125-2.125c-0.183-0.183-0.183-0.478 0-0.659s0.478-0.183 0.659 0l2.125 2.125c0.183 0.183 0.183 0.478 0 0.659-0.090 0.090-0.211 0.137-0.329 0.137z"></path>
<path d="M5.235 14.313c-0.357 0-0.693-0.14-0.944-0.391v0s-0.193-0.193-0.193-0.193c-0.252-0.252-0.391-0.587-0.391-0.944s0.14-0.693 0.391-0.944l0.808-0.808c0.174-0.174 0.485-0.174 0.659 0l1.423 1.42c0.087 0.087 0.137 0.205 0.137 0.329s-0.050 0.242-0.137 0.329l-0.808 0.808c-0.252 0.252-0.587 0.391-0.944 0.391zM4.952 13.263c0.152 0.152 0.416 0.152 0.569 0l0.478-0.478-0.761-0.761-0.478 0.478c-0.075 0.075-0.118 0.177-0.118 0.286s0.040 0.208 0.118 0.286l0.193 0.193z"></path>
<path d="M15.428 26.743c-0.124 0-0.245-0.050-0.329-0.137-0.022-0.022-0.043-0.044-0.059-0.068-0.019-0.028-0.031-0.053-0.043-0.081s-0.022-0.059-0.028-0.087c0-0.031-0.006-0.062-0.006-0.093 0-0.121 0.050-0.242 0.137-0.329 0.019-0.022 0.043-0.040 0.068-0.056 0.025-0.019 0.053-0.031 0.081-0.044s0.059-0.022 0.087-0.028c0.062-0.012 0.124-0.012 0.183 0 0.031 0.006 0.059 0.016 0.087 0.028s0.056 0.025 0.081 0.044c0.025 0.016 0.050 0.034 0.071 0.056 0.087 0.087 0.137 0.208 0.137 0.329 0 0.031 0 0.062-0.009 0.093-0.006 0.028-0.016 0.059-0.028 0.087s-0.025 0.053-0.043 0.081c-0.016 0.025-0.037 0.047-0.056 0.068-0.087 0.087-0.208 0.137-0.329 0.137z"></path>
<path d="M7.59 21.4c-0.031 0-0.062-0.003-0.090-0.009-0.031-0.006-0.059-0.016-0.087-0.028s-0.056-0.025-0.081-0.044c-0.025-0.016-0.050-0.034-0.071-0.056-0.087-0.087-0.137-0.208-0.137-0.329s0.050-0.242 0.137-0.329c0.022-0.022 0.047-0.044 0.071-0.059s0.053-0.031 0.081-0.044 0.056-0.019 0.087-0.025c0.149-0.031 0.311 0.019 0.419 0.127 0.087 0.087 0.137 0.205 0.137 0.329 0 0.028 0 0.059-0.009 0.090-0.006 0.028-0.016 0.059-0.025 0.087-0.012 0.028-0.028 0.056-0.043 0.081-0.019 0.025-0.037 0.050-0.059 0.071s-0.043 0.040-0.071 0.056c-0.025 0.019-0.053 0.031-0.081 0.044s-0.056 0.022-0.087 0.028c-0.028 0.006-0.059 0.009-0.090 0.009z"></path>
</symbol>
<symbol id="icon-success-icon-1" viewBox="0 0 32 32">
<path d="M9.845 7.504c-0.954 0-1.857-0.414-2.485-1.136-0.053-0.063-0.107-0.129-0.16-0.198 0 0 0 0 0 0-0.417-0.568-0.637-1.239-0.637-1.945 0-1.81 1.471-3.282 3.282-3.282s3.282 1.471 3.282 3.282c0 0.706-0.22 1.377-0.637 1.945-0.053 0.072-0.107 0.138-0.163 0.204-0.621 0.718-1.528 1.133-2.482 1.133zM7.956 5.606c0.038 0.050 0.075 0.097 0.116 0.144 0.449 0.518 1.092 0.813 1.773 0.813s1.327-0.295 1.773-0.809c0.044-0.050 0.082-0.097 0.119-0.147 0.295-0.402 0.452-0.882 0.452-1.384 0-1.293-1.051-2.34-2.34-2.34s-2.34 1.051-2.34 2.34c0 0.502 0.157 0.982 0.455 1.387z"></path>
<path d="M13.594 10.504c-0.104 0-0.207-0.034-0.295-0.104-0.204-0.163-0.235-0.458-0.072-0.662l5.214-6.516c0.235-0.292 0.342-0.659 0.298-1.032-0.041-0.373-0.226-0.706-0.518-0.941s-0.659-0.342-1.032-0.298c-0.373 0.041-0.706 0.226-0.941 0.518l-3.909 4.885c-0.163 0.204-0.458 0.235-0.662 0.072s-0.235-0.458-0.072-0.662l3.909-4.885c0.392-0.489 0.951-0.797 1.572-0.866s1.233 0.11 1.722 0.499c0.489 0.392 0.797 0.951 0.866 1.572s-0.107 1.236-0.499 1.725l-5.214 6.516c-0.094 0.116-0.229 0.176-0.367 0.176z"></path>
<path d="M13.594 26.064c-0.26 0-0.471-0.21-0.471-0.471v-15.564c0-0.26 0.21-0.471 0.471-0.471s0.471 0.21 0.471 0.471v15.564c0 0.26-0.21 0.471-0.471 0.471z"></path>
<path d="M6.096 26.064c-0.26 0-0.471-0.21-0.471-0.471v-15.395l-5.111-6.387c-0.392-0.489-0.568-1.104-0.499-1.726s0.376-1.18 0.866-1.572c0.489-0.392 1.101-0.568 1.722-0.499 0.624 0.069 1.183 0.376 1.572 0.866l3.909 4.885c0.163 0.204 0.129 0.499-0.072 0.662-0.204 0.163-0.499 0.129-0.662-0.072l-3.909-4.888c-0.235-0.292-0.568-0.477-0.941-0.518-0.37-0.041-0.74 0.066-1.032 0.298-0.292 0.235-0.477 0.568-0.518 0.941s0.066 0.74 0.301 1.032l5.214 6.516c0.066 0.085 0.104 0.188 0.104 0.295v15.561c0 0.26-0.21 0.471-0.471 0.471z"></path>
<path d="M9.845 26.064c-0.26 0-0.471-0.21-0.471-0.471v-8.251c0-0.26 0.21-0.471 0.471-0.471s0.471 0.21 0.471 0.471v8.251c0 0.26-0.21 0.471-0.471 0.471z"></path>
<path d="M27.47 31.689h-9.374c-0.26 0-0.471-0.21-0.471-0.471v-15.395l-4.389-5.487c-0.132-0.157-0.151-0.386-0.031-0.565 0.144-0.216 0.436-0.276 0.653-0.132 0.041 0.028 0.078 0.060 0.107 0.097l4.499 5.625c0.066 0.085 0.104 0.188 0.104 0.295v15.090h8.904c0.26 0 0.471 0.21 0.471 0.471s-0.21 0.471-0.471 0.471z"></path>
<path d="M21.845 13.126c-0.954 0-1.86-0.414-2.485-1.136-0.053-0.063-0.107-0.129-0.16-0.198 0 0 0 0 0 0-0.417-0.568-0.637-1.239-0.637-1.945 0-1.81 1.471-3.282 3.282-3.282s3.282 1.471 3.282 3.282c0 0.706-0.22 1.377-0.637 1.945-0.053 0.072-0.107 0.138-0.163 0.204-0.621 0.718-1.528 1.133-2.482 1.133zM19.956 11.231c0.038 0.050 0.075 0.097 0.116 0.144 0.445 0.518 1.092 0.813 1.773 0.813s1.327-0.295 1.773-0.809c0.044-0.050 0.082-0.097 0.119-0.147 0.295-0.402 0.452-0.882 0.452-1.384 0-1.293-1.051-2.34-2.34-2.34s-2.34 1.051-2.34 2.34c0 0.502 0.157 0.982 0.455 1.387z"></path>
<path d="M25.594 16.129c-0.104 0-0.207-0.035-0.295-0.104-0.204-0.163-0.235-0.458-0.072-0.662l5.214-6.516c0.235-0.292 0.342-0.659 0.301-1.032s-0.226-0.706-0.518-0.941c-0.292-0.235-0.662-0.342-1.032-0.298-0.373 0.041-0.706 0.226-0.941 0.518l-3.909 4.885c-0.163 0.204-0.458 0.235-0.662 0.072s-0.235-0.458-0.072-0.662l3.909-4.885c0.392-0.489 0.951-0.797 1.572-0.866s1.233 0.11 1.722 0.499c0.489 0.392 0.797 0.951 0.866 1.572 0.069 0.624-0.11 1.236-0.499 1.726l-5.214 6.516c-0.094 0.116-0.229 0.176-0.367 0.176z"></path>
<path d="M25.594 31.689c-0.26 0-0.471-0.21-0.471-0.471v-15.564c0-0.26 0.21-0.471 0.471-0.471s0.471 0.21 0.471 0.471v15.564c0 0.26-0.21 0.471-0.471 0.471z"></path>
<path d="M19.718 12.154c-0.138 0-0.276-0.060-0.367-0.176l-3.721-4.653c-0.163-0.204-0.129-0.499 0.072-0.662 0.204-0.163 0.499-0.129 0.662 0.072l3.721 4.653c0.163 0.204 0.129 0.499-0.072 0.662-0.088 0.069-0.191 0.104-0.295 0.104z"></path>
<path d="M21.845 31.689c-0.26 0-0.471-0.21-0.471-0.471v-8.251c0-0.26 0.21-0.471 0.471-0.471s0.471 0.21 0.471 0.471v8.251c0 0.26-0.21 0.471-0.471 0.471z"></path>
<path d="M10.221 32c-0.43 0-0.781-0.351-0.781-0.781s0.351-0.781 0.781-0.781 0.781 0.351 0.781 0.781-0.351 0.781-0.781 0.781zM10.221 30.751c-0.257 0-0.467 0.21-0.467 0.467s0.21 0.467 0.467 0.467 0.467-0.21 0.467-0.467-0.21-0.467-0.467-0.467z"></path>
<path d="M18.096 31.689h-5.060c-0.26 0-0.471-0.21-0.471-0.471s0.21-0.471 0.471-0.471h5.060c0.26 0 0.471 0.21 0.471 0.471s-0.21 0.471-0.471 0.471z"></path>
<path d="M7.407 31.689h-5.81c-0.26 0-0.471-0.21-0.471-0.471v-5.625c0-0.26 0.21-0.471 0.471-0.471h16.499c0.26 0 0.471 0.21 0.471 0.471s-0.21 0.471-0.471 0.471h-16.028v4.684h5.343c0.26 0 0.471 0.21 0.471 0.471s-0.21 0.471-0.471 0.471z"></path>
</symbol>
<symbol id="icon-certificate" viewBox="0 0 32 32">
<path d="M16 26.686c-1.638 0-2.974-1.336-2.974-2.974s1.33-2.974 2.974-2.974 2.974 1.336 2.974 2.974-1.33 2.974-2.974 2.974zM16 21.365c-1.293 0-2.347 1.054-2.347 2.347s1.054 2.347 2.347 2.347 2.347-1.054 2.347-2.347-1.054-2.347-2.347-2.347z"></path>
<path d="M18.66 32c-0.113 0-0.226-0.063-0.282-0.176l-2.378-4.756-2.378 4.756c-0.075 0.157-0.264 0.22-0.42 0.138-0.157-0.075-0.22-0.264-0.138-0.42l2.66-5.314c0.107-0.213 0.452-0.213 0.558 0l2.66 5.314c0.075 0.157 0.013 0.345-0.138 0.42-0.044 0.025-0.094 0.031-0.138 0.031z"></path>
<path d="M29.026 24.025h-5.051c-0.176 0-0.314-0.138-0.314-0.314s0.138-0.314 0.314-0.314h5.051c1.293 0 2.347-1.054 2.347-2.347v-18.077c0-1.293-1.054-2.347-2.347-2.347h-26.052c-1.293 0-2.347 1.054-2.347 2.347v18.077c0 1.293 1.054 2.347 2.347 2.347h5.051c0.176 0 0.314 0.138 0.314 0.314s-0.138 0.314-0.314 0.314h-5.051c-1.638 0-2.974-1.336-2.974-2.974v-18.077c0-1.638 1.33-2.974 2.974-2.974h26.058c1.638 0 2.974 1.336 2.974 2.974v18.077c0 1.638-1.33 2.974-2.974 2.974z"></path>
<path d="M26.372 10.999h-20.744c-0.176 0-0.314-0.138-0.314-0.314s0.138-0.314 0.314-0.314h20.737c0.176 0 0.314 0.138 0.314 0.314s-0.138 0.314-0.314 0.314z"></path>
<path d="M21.314 16.314h-10.635c-0.176 0-0.314-0.138-0.314-0.314s0.138-0.314 0.314-0.314h10.635c0.176 0 0.314 0.138 0.314 0.314s-0.138 0.314-0.314 0.314z"></path>
<path d="M10.679 5.992c-0.038 0-0.082-0.006-0.119-0.013s-0.082-0.019-0.119-0.038c-0.038-0.013-0.075-0.031-0.107-0.056-0.038-0.019-0.069-0.050-0.094-0.075-0.119-0.119-0.182-0.282-0.182-0.446 0-0.082 0.013-0.163 0.044-0.238s0.082-0.144 0.138-0.207c0.025-0.025 0.056-0.050 0.094-0.075 0.031-0.025 0.069-0.044 0.107-0.056 0.038-0.019 0.082-0.031 0.119-0.038 0.082-0.013 0.163-0.013 0.245 0 0.038 0.006 0.082 0.019 0.119 0.038 0.038 0.013 0.069 0.031 0.107 0.056 0.031 0.025 0.069 0.050 0.094 0.075 0.056 0.063 0.107 0.132 0.138 0.207s0.044 0.157 0.044 0.238c0 0.169-0.063 0.326-0.182 0.446-0.025 0.025-0.063 0.056-0.094 0.075-0.038 0.025-0.069 0.044-0.107 0.056-0.038 0.019-0.082 0.031-0.119 0.038-0.044 0-0.082 0.013-0.126 0.013z"></path>
<path d="M16 5.992c-0.044 0-0.082-0.006-0.126-0.013-0.038-0.006-0.075-0.019-0.113-0.038-0.038-0.013-0.075-0.031-0.113-0.056-0.031-0.019-0.063-0.050-0.094-0.075-0.025-0.031-0.056-0.063-0.075-0.094-0.025-0.038-0.044-0.075-0.056-0.113-0.019-0.038-0.031-0.075-0.038-0.113 0-0.044-0.013-0.082-0.013-0.125 0-0.163 0.069-0.326 0.182-0.446 0.232-0.232 0.659-0.232 0.891 0 0.113 0.119 0.182 0.282 0.182 0.446s-0.069 0.326-0.182 0.446c-0.031 0.025-0.063 0.056-0.094 0.075-0.038 0.025-0.075 0.044-0.113 0.056-0.038 0.019-0.075 0.031-0.119 0.038-0.038 0-0.082 0.013-0.119 0.013z"></path>
<path d="M21.314 5.992c-0.163 0-0.326-0.069-0.439-0.182-0.119-0.119-0.188-0.282-0.188-0.446s0.069-0.326 0.188-0.446c0.232-0.232 0.653-0.232 0.885 0 0.031 0.031 0.056 0.063 0.082 0.1 0.019 0.031 0.038 0.069 0.056 0.107 0.013 0.038 0.025 0.075 0.038 0.119 0 0.038 0.013 0.082 0.013 0.119 0 0.163-0.069 0.326-0.188 0.446-0.113 0.113-0.276 0.182-0.445 0.182z"></path>
</symbol>
<symbol id="icon-pickup-man" viewBox="0 0 24 32">
<path d="M19.862 32h-15.703c-0.132 0-0.236-0.104-0.236-0.235v-7.979c0-0.132 0.104-0.235 0.236-0.235h15.699c0.132 0 0.235 0.104 0.235 0.235v7.979c0 0.132-0.104 0.235-0.235 0.235zM4.394 31.529h15.228v-7.508h-15.228v7.508z"></path>
<path d="M13.975 27.945h-3.923c-0.132 0-0.236-0.104-0.236-0.235v-3.923c0-0.132 0.104-0.235 0.236-0.235s0.236 0.104 0.236 0.235v3.688h3.452v-3.688c0-0.132 0.104-0.235 0.236-0.235s0.236 0.104 0.236 0.235v3.923c0 0.132-0.104 0.235-0.236 0.235z"></path>
<path d="M13.975 10.282h-3.923c-2.294 0-4.159-1.865-4.159-4.159 0-0.132 0.104-0.236 0.236-0.236h11.775c0.132 0 0.235 0.104 0.235 0.236 0 2.294-1.865 4.159-4.159 4.159zM6.368 6.359c0.122 1.926 1.729 3.452 3.683 3.452h3.923c1.955 0 3.561-1.531 3.683-3.452h-11.29z"></path>
<path d="M4.159 32h-3.923c-0.132 0-0.235-0.104-0.235-0.235v-7.979c0-3.377 2.746-6.123 6.123-6.123h3.923c0.132 0 0.236 0.104 0.236 0.235s-0.104 0.235-0.236 0.235h-3.923c-3.118 0-5.652 2.534-5.652 5.652v7.743h3.688c0.132 0 0.236 0.104 0.236 0.235s-0.104 0.235-0.236 0.235z"></path>
<path d="M23.786 32h-3.923c-0.132 0-0.235-0.104-0.235-0.235s0.104-0.235 0.235-0.235h3.688v-7.743c0-3.118-2.534-5.652-5.652-5.652h-3.923c-0.132 0-0.236-0.104-0.236-0.235s0.104-0.235 0.236-0.235h3.923c3.377 0 6.123 2.746 6.123 6.123v7.979c0 0.132-0.104 0.236-0.235 0.236z"></path>
<path d="M4.159 27.945h-3.923c-0.132 0-0.235-0.104-0.235-0.235s0.104-0.235 0.235-0.235h3.923c0.132 0 0.236 0.104 0.236 0.235s-0.104 0.235-0.236 0.235z"></path>
<path d="M23.786 27.945h-3.923c-0.132 0-0.235-0.104-0.235-0.235s0.104-0.235 0.235-0.235h3.923c0.132 0 0.235 0.104 0.235 0.235s-0.104 0.235-0.235 0.235z"></path>
<path d="M12.011 20.098c-1.21 0-2.2-0.984-2.2-2.2v-0.198c-2.284-0.881-3.829-3.043-3.919-5.468-1.102-0.118-1.969-1.050-1.969-2.185s0.862-2.068 1.964-2.185v-1.738c0-3.377 2.746-6.123 6.123-6.123s6.123 2.746 6.123 6.123v1.738c1.102 0.118 1.964 1.055 1.964 2.185s-0.862 2.068-1.969 2.185c-0.090 2.426-1.634 4.583-3.919 5.468v0.198c0 1.21-0.984 2.2-2.2 2.2zM12.011 0.471c-3.118 0-5.652 2.534-5.652 5.652v1.964c0 0.132-0.104 0.236-0.236 0.236-0.951 0-1.729 0.772-1.729 1.729s0.772 1.729 1.729 1.729c0.132 0 0.236 0.104 0.236 0.236 0 2.374 1.512 4.503 3.768 5.303 0.094 0.033 0.155 0.122 0.155 0.221v0.363c0 0.951 0.772 1.729 1.729 1.729s1.729-0.772 1.729-1.729v-0.363c0-0.099 0.061-0.188 0.155-0.221 2.256-0.801 3.768-2.934 3.768-5.303 0-0.132 0.104-0.236 0.235-0.236 0.951 0 1.729-0.772 1.729-1.729s-0.772-1.729-1.729-1.729c-0.132 0-0.235-0.104-0.235-0.236v-1.964c0-3.118-2.534-5.652-5.652-5.652z"></path>
</symbol>
<symbol id="icon-warning" viewBox="0 0 35 32">
<path d="M0.48 5.478l13.914 24.653c0.998 1.773 3.245 2.394 5.011 1.395 0.582-0.326 1.069-0.813 1.395-1.395l13.914-24.653c1.005-1.76 0.39-3.994-1.37-4.998-0.557-0.314-1.184-0.48-1.818-0.48h-27.859c-2.022 0-3.667 1.632-3.667 3.654 0 0.64 0.166 1.267 0.48 1.818zM19.36 17.805c0 0.973-0.787 1.76-1.76 1.76s-1.76-0.787-1.76-1.76v-5.28c0-0.973 0.787-1.76 1.76-1.76s1.76 0.787 1.76 1.76v5.28zM17.594 5.478c0.973 0 1.76 0.787 1.76 1.76s-0.787 1.76-1.76 1.76c-0.973 0-1.76-0.787-1.76-1.76s0.787-1.76 1.76-1.76z"></path>
</symbol>
<symbol id="icon-upload-file" viewBox="0 0 32 32">
<path d="M29.735 32h-27.47c-1.249 0-2.265-1.016-2.265-2.265v-17.707c0-0.176 0.138-0.314 0.314-0.314h31.373c0.176 0 0.314 0.138 0.314 0.314v17.707c0 1.249-1.016 2.265-2.265 2.265zM0.627 12.342v17.393c0 0.904 0.734 1.638 1.638 1.638h27.47c0.904 0 1.638-0.734 1.638-1.638v-17.393h-30.745z"></path>
<path d="M31.686 12.342c-0.176 0-0.314-0.138-0.314-0.314v-5.86c0-0.904-0.734-1.638-1.638-1.638h-17.638c-0.176 0-0.314-0.138-0.314-0.314 0-1.983-1.613-3.589-3.589-3.589h-5.929c-0.904 0-1.638 0.734-1.638 1.638v9.763c0 0.176-0.138 0.314-0.314 0.314s-0.314-0.138-0.314-0.314v-9.763c0-1.249 1.016-2.265 2.265-2.265h5.923c2.221 0 4.047 1.726 4.21 3.903h17.336c1.249 0 2.265 1.016 2.265 2.265v5.86c0 0.176-0.138 0.314-0.314 0.314z"></path>
<path d="M27.784 12.342c-0.176 0-0.314-0.138-0.314-0.314v-3.589h-22.94v3.589c0 0.176-0.138 0.314-0.314 0.314s-0.314-0.138-0.314-0.314v-3.903c0-0.176 0.138-0.314 0.314-0.314h23.561c0.176 0 0.314 0.138 0.314 0.314v3.903c0 0.176-0.138 0.314-0.314 0.314z"></path>
<path d="M19.903 20.216c-0.082 0-0.163-0.031-0.22-0.094l-3.683-3.683-3.683 3.683c-0.126 0.125-0.32 0.125-0.445 0s-0.126-0.32 0-0.445l3.903-3.903c0.119-0.119 0.326-0.119 0.445 0l3.903 3.903c0.125 0.125 0.125 0.32 0 0.445-0.063 0.063-0.144 0.094-0.22 0.094z"></path>
<path d="M16 24.125c-0.176 0-0.314-0.138-0.314-0.314v-7.812c0-0.176 0.138-0.314 0.314-0.314s0.314 0.138 0.314 0.314v7.812c0 0.176-0.138 0.314-0.314 0.314z"></path>
<path d="M21.86 28.028h-11.714c-0.176 0-0.314-0.138-0.314-0.314v-1.951c0-0.176 0.138-0.314 0.314-0.314s0.314 0.138 0.314 0.314v1.638h11.087v-1.638c0-0.176 0.138-0.314 0.314-0.314s0.314 0.138 0.314 0.314v1.951c0 0.176-0.138 0.314-0.314 0.314z"></path>
</symbol>
<symbol id="icon-exam" viewBox="0 0 32 32">
<path d="M26.886 25.732h-21.773c-2.824 0-5.114-2.253-5.114-5.020v-15.693c0-2.767 2.296-5.020 5.114-5.020h21.766c2.824 0 5.114 2.253 5.114 5.020v7.843c0 0.176-0.138 0.314-0.314 0.314s-0.314-0.138-0.314-0.314v-7.843c0-2.422-2.014-4.392-4.486-4.392h-21.766c-2.472 0-4.486 1.97-4.486 4.392v15.693c0 2.422 2.014 4.392 4.486 4.392h21.766c2.472 0 4.486-1.97 4.486-4.392 0-0.176 0.138-0.314 0.314-0.314s0.314 0.138 0.314 0.314c0 2.767-2.296 5.020-5.114 5.020z"></path>
<path d="M23.203 32h-14.406c-0.176 0-0.314-0.138-0.314-0.314s0.138-0.314 0.314-0.314h14.406c0.176 0 0.314 0.138 0.314 0.314s-0.138 0.314-0.314 0.314z"></path>
<path d="M15.686 25.412h0.627v6.274h-0.627v-6.274z"></path>
<path d="M26.723 9.18h-9.525c-0.176 0-0.314-0.138-0.314-0.314s0.138-0.314 0.314-0.314h9.525c0.176 0 0.314 0.138 0.314 0.314s-0.138 0.314-0.314 0.314z"></path>
<path d="M7.975 10.604c-0.383 0-0.753-0.144-1.035-0.408l-1.726-1.738c-0.125-0.126-0.119-0.32 0-0.446 0.125-0.125 0.32-0.119 0.446 0l1.719 1.732c0.169 0.157 0.408 0.245 0.653 0.226s0.471-0.132 0.621-0.32l3.746-4.442c0.113-0.132 0.314-0.151 0.445-0.038s0.151 0.307 0.038 0.439l-3.74 4.436c-0.257 0.314-0.646 0.514-1.067 0.546-0.031 0-0.069 0-0.1 0z"></path>
<path d="M26.723 18.83h-9.525c-0.176 0-0.314-0.138-0.314-0.314s0.138-0.314 0.314-0.314h9.525c0.176 0 0.314 0.138 0.314 0.314s-0.138 0.314-0.314 0.314z"></path>
<path d="M7.975 20.242c-0.383 0-0.753-0.144-1.035-0.408l-1.726-1.726c-0.125-0.125-0.125-0.32 0-0.445s0.32-0.125 0.446 0l1.719 1.719c0.169 0.163 0.408 0.245 0.659 0.226 0.245-0.019 0.471-0.132 0.621-0.32l3.746-4.442c0.113-0.132 0.314-0.151 0.446-0.038s0.151 0.307 0.038 0.439l-3.74 4.436c-0.257 0.314-0.646 0.515-1.067 0.546-0.031 0-0.069 0-0.1 0z"></path>
</symbol>
<symbol id="icon-quiz" viewBox="0 0 34 32">
<path d="M16.834 15.46c-0.176 0-0.314-0.138-0.314-0.314v-1.851c0-0.176 0.138-0.314 0.314-0.314 0.734 0 1.424-0.295 1.933-0.828s0.765-1.236 0.728-1.976c-0.075-1.387-1.217-2.491-2.604-2.522-0.019 0-0.038 0-0.056 0-1.324 0-2.453 0.979-2.635 2.29-0.019 0.119-0.025 0.245-0.025 0.37 0 0.176-0.138 0.314-0.314 0.314s-0.314-0.138-0.314-0.314c0-0.157 0.013-0.307 0.031-0.458 0.232-1.65 1.644-2.861 3.325-2.83 1.713 0.038 3.131 1.405 3.219 3.112 0.050 0.91-0.27 1.776-0.897 2.441-0.552 0.584-1.28 0.935-2.071 1.010v1.55c0 0.176-0.138 0.314-0.314 0.314z"></path>
<path d="M16.834 20.367c-0.163 0-0.326-0.069-0.439-0.182-0.031-0.031-0.056-0.063-0.082-0.1-0.019-0.031-0.044-0.069-0.056-0.107-0.019-0.038-0.025-0.075-0.038-0.119 0-0.038-0.013-0.082-0.013-0.119 0-0.082 0.019-0.163 0.050-0.238 0.031-0.082 0.075-0.151 0.138-0.207 0.232-0.232 0.653-0.232 0.885 0 0.056 0.056 0.1 0.125 0.138 0.207 0.031 0.075 0.044 0.157 0.044 0.238 0 0.163-0.069 0.326-0.182 0.445-0.031 0.025-0.063 0.050-0.094 0.075-0.038 0.025-0.069 0.044-0.107 0.056-0.038 0.019-0.082 0.031-0.119 0.038-0.044 0.006-0.082 0.013-0.125 0.013z"></path>
<path d="M19.727 32h-5.779c-0.176 0-0.314-0.138-0.314-0.314v-5.396c0-0.176 0.138-0.314 0.314-0.314h5.779c0.176 0 0.314 0.138 0.314 0.314v5.396c0 0.176-0.138 0.314-0.314 0.314zM14.262 31.373h5.151v-4.769h-5.151v4.769z"></path>
<path d="M23.504 32h-13.333c-0.176 0-0.314-0.138-0.314-0.314s0.138-0.314 0.314-0.314h13.333c0.176 0 0.314 0.138 0.314 0.314s-0.138 0.314-0.314 0.314z"></path>
<path d="M26.284 20.053h-2.271c-0.985 0-1.788-0.803-1.788-1.788v-2.265c0-0.985 0.803-1.788 1.788-1.788h2.271c0.985 0 1.788 0.803 1.788 1.788v2.265c0 0.985-0.803 1.788-1.788 1.788zM24.019 14.839c-0.64 0-1.161 0.521-1.161 1.161v2.265c0 0.64 0.521 1.161 1.161 1.161h2.271c0.64 0 1.161-0.521 1.161-1.161v-2.265c0-0.64-0.521-1.161-1.161-1.161h-2.271z"></path>
<path d="M9.656 20.053h-2.271c-0.985 0-1.788-0.803-1.788-1.788v-2.265c0-0.985 0.803-1.788 1.788-1.788h2.271c0.985 0 1.788 0.803 1.788 1.788v2.265c0 0.985-0.803 1.788-1.788 1.788zM7.391 14.839c-0.64 0-1.161 0.521-1.161 1.161v2.265c0 0.64 0.521 1.161 1.161 1.161h2.271c0.64 0 1.161-0.521 1.161-1.161v-2.265c0-0.64-0.521-1.161-1.161-1.161h-2.271z"></path>
<path d="M29.158 26.604h-24.646c-2.491 0-4.511-2.027-4.511-4.511v-17.581c0-2.485 2.027-4.511 4.511-4.511h24.646c2.491 0 4.511 2.027 4.511 4.511v10.635c0 0.176-0.138 0.314-0.314 0.314s-0.314-0.138-0.314-0.314v-10.635c0-2.146-1.744-3.884-3.884-3.884h-24.646c-2.14 0-3.884 1.744-3.884 3.884v17.575c0 2.146 1.744 3.884 3.884 3.884h24.646c2.114 0 3.859-1.719 3.884-3.834 0-0.176 0.126-0.314 0.32-0.307 0.176 0 0.314 0.144 0.307 0.32-0.031 2.453-2.058 4.449-4.511 4.449z"></path>
</symbol>
<symbol id="icon-bills" viewBox="0 0 32 32">
<path d="M27.696 32c-2.372 0-4.304-1.933-4.304-4.304v-11.696c0-0.176 0.138-0.314 0.314-0.314h7.975c0.176 0 0.314 0.138 0.314 0.314v11.696c0 2.372-1.933 4.304-4.304 4.304zM24.025 16.314v11.382c0 2.027 1.65 3.677 3.677 3.677s3.677-1.65 3.677-3.677v-11.382h-7.347z"></path>
<path d="M27.696 32h-23.391c-2.372 0-4.304-1.933-4.304-4.304v-27.382c0-0.126 0.075-0.238 0.188-0.289s0.245-0.025 0.339 0.056l5.641 5.126 5.635-5.126c0.119-0.107 0.301-0.107 0.42 0l5.641 5.126 5.634-5.126c0.094-0.082 0.226-0.107 0.339-0.056s0.188 0.163 0.188 0.289v15.686c0 0.176-0.138 0.314-0.314 0.314s-0.314-0.138-0.314-0.314v-14.977l-5.327 4.838c-0.119 0.107-0.301 0.107-0.42 0l-5.641-5.12-5.641 5.126c-0.119 0.107-0.301 0.107-0.42 0l-5.321-4.844v26.673c0 2.027 1.65 3.677 3.677 3.677h23.398c0.176 0 0.314 0.138 0.314 0.314s-0.138 0.314-0.314 0.314z"></path>
<path d="M18.391 12.806h-12.762c-0.176 0-0.314-0.138-0.314-0.314s0.138-0.314 0.314-0.314h12.762c0.176 0 0.314 0.138 0.314 0.314s-0.138 0.314-0.314 0.314z"></path>
<path d="M18.391 19.821h-12.762c-0.176 0-0.314-0.138-0.314-0.314s0.138-0.314 0.314-0.314h12.762c0.176 0 0.314 0.138 0.314 0.314s-0.138 0.314-0.314 0.314z"></path>
</symbol>
<symbol id="icon-done" viewBox="0 0 32 32">
<path d="M13.754 21.192v0c-0.242 0-0.471-0.097-0.64-0.266l-4.082-4.082c-0.35-0.35-0.35-0.93 0-1.28s0.93-0.35 1.28 0l3.441 3.441 7.946-7.946c0.35-0.35 0.93-0.35 1.28 0s0.35 0.93 0 1.28l-8.586 8.586c-0.169 0.169-0.399 0.266-0.64 0.266z"></path>
<path d="M16 32c-8.827 0-16-7.173-16-16s7.173-16 16-16 16 7.173 16 16-7.173 16-16 16zM16 1.811c-7.825 0-14.189 6.364-14.189 14.189s6.364 14.189 14.189 14.189 14.189-6.364 14.189-14.189-6.364-14.189-14.189-14.189z"></path>
</symbol>
<symbol id="icon-upload" viewBox="0 0 32 32">
<path d="M16 26.88c-0.495 0-0.906-0.411-0.906-0.906v-14.841c0-0.495 0.411-0.906 0.906-0.906s0.906 0.411 0.906 0.906v14.841c0 0.495-0.411 0.906-0.906 0.906z"></path>
<path d="M19.84 15.879c-0.229 0-0.459-0.085-0.64-0.266l-3.2-3.2-3.2 3.2c-0.35 0.35-0.93 0.35-1.28 0s-0.35-0.93 0-1.28l3.84-3.84c0.338-0.338 0.942-0.338 1.28 0l3.84 3.84c0.35 0.35 0.35 0.93 0 1.28-0.181 0.181-0.411 0.266-0.64 0.266z"></path>
<path d="M24.96 22.279h-3.84c-0.495 0-0.906-0.411-0.906-0.906s0.411-0.906 0.906-0.906h3.84c2.983 0 5.229-2.355 5.229-5.494 0-2.717-1.666-4.878-4.142-5.386-0.435-0.085-0.737-0.471-0.725-0.918 0-0.036 0-0.133 0.012-0.169 0-2.258-1.896-4.142-4.214-4.142-0.459 0-0.93 0.085-1.425 0.266-0.362 0.133-0.773 0.024-1.014-0.278-1.304-1.618-3.212-2.548-5.241-2.548-1.823 0-3.538 0.725-4.83 2.029-1.28 1.304-1.956 3.019-1.932 4.854 0 0.435-0.302 0.821-0.725 0.906-2.475 0.495-4.142 2.657-4.142 5.386 0 3.128 2.246 5.494 5.229 5.494h3.84c0.495 0 0.906 0.411 0.906 0.906s-0.411 0.906-0.906 0.906h-3.84c-3.949 0-7.040-3.212-7.040-7.306 0-3.285 1.98-6.062 4.891-6.98 0.133-2.053 0.978-3.961 2.427-5.434 1.63-1.654 3.804-2.572 6.122-2.572s4.613 0.99 6.243 2.741c3.707-0.954 7.1 1.751 7.426 5.253 2.91 0.918 4.891 3.683 4.891 6.968 0 4.094-3.091 7.306-7.040 7.306z"></path>
<path d="M23.68 32h-15.36c-0.495 0-0.906-0.411-0.906-0.906v-2.56c0-0.495 0.411-0.906 0.906-0.906s0.906 0.411 0.906 0.906v1.654h13.537v-1.654c0-0.495 0.411-0.906 0.906-0.906s0.906 0.411 0.906 0.906v2.56c0 0.495-0.411 0.906-0.906 0.906z"></path>
</symbol>
<symbol id="icon-documents-verification" viewBox="0 0 32 32">
<path d="M23.454 32h-22.488c-0.533 0-0.966-0.433-0.966-0.966v-30.067c0-0.533 0.433-0.966 0.966-0.966h22.494c0.533 0 0.966 0.433 0.966 0.966v13.239c0 0.176-0.138 0.314-0.314 0.314s-0.314-0.138-0.314-0.314v-13.239c0-0.188-0.151-0.339-0.339-0.339h-22.494c-0.188 0-0.339 0.151-0.339 0.339v30.074c0 0.188 0.151 0.339 0.339 0.339h22.488c0.176 0 0.314 0.138 0.314 0.314s-0.138 0.314-0.314 0.314z"></path>
<path d="M12.436 14.544h-7.536c-0.176 0-0.314-0.138-0.314-0.314s0.138-0.314 0.314-0.314h7.536c0.176 0 0.314 0.138 0.314 0.314s-0.138 0.314-0.314 0.314z"></path>
<path d="M12.436 10.642h-7.536c-0.176 0-0.314-0.138-0.314-0.314s0.138-0.314 0.314-0.314h7.536c0.176 0 0.314 0.138 0.314 0.314s-0.138 0.314-0.314 0.314z"></path>
<path d="M19.464 6.739h-14.563c-0.176 0-0.314-0.138-0.314-0.314s0.138-0.314 0.314-0.314h14.563c0.176 0 0.314 0.138 0.314 0.314s-0.138 0.314-0.314 0.314z"></path>
<path d="M12.436 18.428h-7.536c-0.176 0-0.314-0.138-0.314-0.314s0.138-0.314 0.314-0.314h7.536c0.176 0 0.314 0.138 0.314 0.314s-0.138 0.314-0.314 0.314z"></path>
<path d="M12.436 21.678h-7.536c-0.176 0-0.314-0.138-0.314-0.314s0.138-0.314 0.314-0.314h7.536c0.176 0 0.314 0.138 0.314 0.314s-0.138 0.314-0.314 0.314z"></path>
<path d="M12.436 25.587h-7.536c-0.176 0-0.314-0.138-0.314-0.314s0.138-0.314 0.314-0.314h7.536c0.176 0 0.314 0.138 0.314 0.314s-0.138 0.314-0.314 0.314z"></path>
<path d="M24.163 32c-0.056 0-0.107-0.013-0.157-0.044l-2.234-1.28c-3.426-1.958-5.578-5.609-5.603-9.518l-0.038-4.536c0-0.082 0.031-0.163 0.088-0.22s0.138-0.094 0.22-0.094c1.462-0.013 2.792-0.866 3.395-2.177 0.050-0.113 0.163-0.182 0.282-0.182l7.818-0.056c0.094-0.013 0.232 0.069 0.289 0.176 0.621 1.305 1.97 2.14 3.426 2.127 0.169 0 0.314 0.138 0.314 0.314l0.031 4.536c0.031 3.909-2.064 7.586-5.459 9.6l-2.215 1.311c-0.050 0.031-0.107 0.044-0.157 0.044zM16.759 16.922l0.031 4.235c0.025 3.689 2.052 7.128 5.289 8.979l2.077 1.186 2.058-1.217c3.206-1.895 5.183-5.365 5.151-9.054v0s-0.031-4.235-0.031-4.235c-1.512-0.094-2.88-0.966-3.589-2.296l-7.429 0.056c-0.69 1.336-2.046 2.227-3.558 2.347z"></path>
<path d="M23.41 24.828s-0.006 0-0.013 0c-0.088 0-0.176-0.044-0.232-0.113l-1.675-2.058c-0.107-0.132-0.088-0.333 0.044-0.439s0.333-0.088 0.439 0.044l1.449 1.782 3.288-3.495c0.119-0.125 0.32-0.132 0.445-0.013s0.132 0.32 0.013 0.445l-3.533 3.758c-0.056 0.063-0.144 0.1-0.226 0.1z"></path>
</symbol>
<symbol id="icon-central" viewBox="0 0 32 32">
<path d="M28.594 32c-1.879 0-3.406-1.528-3.406-3.406 0-0.757 0.248-1.452 0.661-2.016l-4.865-4.865c-1.335 1.163-3.076 1.872-4.982 1.872s-3.647-0.709-4.982-1.872l-4.865 4.865c0.413 0.564 0.661 1.259 0.661 2.016 0 1.879-1.528 3.406-3.406 3.406s-3.406-1.528-3.406-3.406 1.528-3.406 3.406-3.406c0.75 0 1.452 0.248 2.016 0.661l4.865-4.865c-1.163-1.335-1.872-3.076-1.872-4.982s0.709-3.647 1.872-4.982l-4.865-4.865c-0.564 0.413-1.259 0.661-2.016 0.661-1.879 0-3.406-1.528-3.406-3.406s1.528-3.406 3.406-3.406 3.406 1.528 3.406 3.406c0 0.757-0.248 1.452-0.661 2.016l4.865 4.865c1.335-1.163 3.076-1.872 4.982-1.872s3.661 0.709 4.996 1.886l4.865-4.859c-0.427-0.571-0.674-1.273-0.674-2.030 0-1.879 1.528-3.406 3.406-3.406s3.406 1.528 3.406 3.406-1.528 3.406-3.406 3.406c-0.743 0-1.438-0.241-1.996-0.647l-4.865 4.865c1.156 1.335 1.858 3.069 1.858 4.969s-0.709 3.647-1.872 4.982l4.865 4.865c0.564-0.413 1.259-0.661 2.016-0.661 1.879 0 3.406 1.528 3.406 3.406s-1.528 3.406-3.406 3.406zM28.594 26.219c-1.308 0-2.374 1.067-2.374 2.374s1.067 2.374 2.374 2.374 2.374-1.067 2.374-2.374-1.067-2.374-2.374-2.374zM3.406 26.219c-1.308 0-2.374 1.067-2.374 2.374s1.067 2.374 2.374 2.374 2.374-1.067 2.374-2.374-1.067-2.374-2.374-2.374zM13.302 21.966c1.645 0.743 3.751 0.743 5.395 0v-0.833c0-1.135-0.922-2.051-2.058-2.051h-1.287c-1.135 0-2.058 0.922-2.058 2.051v0.833zM16 9.449c-3.613 0-6.551 2.938-6.551 6.551 0 2.23 1.115 4.198 2.822 5.381v-0.241c0-1.218 0.716-2.278 1.741-2.78-0.674-0.564-1.101-1.418-1.101-2.36 0-1.7 1.383-3.083 3.083-3.083s3.090 1.383 3.090 3.083c0 0.95-0.427 1.796-1.101 2.36 1.032 0.502 1.748 1.555 1.748 2.78v0.241c1.707-1.184 2.822-3.159 2.822-5.381 0-3.613-2.939-6.551-6.551-6.551zM16 13.949c-1.135 0-2.051 0.922-2.051 2.051s0.922 2.051 2.051 2.051 2.058-0.922 2.058-2.051-0.922-2.051-2.058-2.051zM28.594 1.032c-1.308 0-2.374 1.067-2.374 2.374s1.067 2.374 2.374 2.374 2.374-1.067 2.374-2.374-1.067-2.374-2.374-2.374zM3.406 1.032c-1.308 0-2.374 1.067-2.374 2.374s1.067 2.374 2.374 2.374 2.374-1.067 2.374-2.374-1.067-2.374-2.374-2.374z"></path>
</symbol>
<symbol id="icon-notes" viewBox="0 0 32 32">
<path d="M21.251 32h-10.495v-1.032h4.735v-4.218h-12.353c-1.734 0-3.138-1.411-3.138-3.138v-17.844c0-1.734 1.411-3.145 3.138-3.145h4.473v-2.622h16.778v2.622h4.473c1.734 0 3.138 1.411 3.138 3.138v17.844c0 1.734-1.411 3.138-3.138 3.138h-12.346v4.218h4.735v1.032zM3.138 3.654c-1.163 0-2.106 0.943-2.106 2.106v17.844c0 1.163 0.943 2.106 2.106 2.106h25.717c1.163 0 2.106-0.943 2.106-2.106v-17.837c0-1.163-0.943-2.106-2.106-2.106h-4.473v17.844h-16.771v-17.851h-4.473zM8.643 20.473h14.713v-19.441h-14.713v19.441zM18.622 16.516h-5.251v-1.032h5.251v1.032zM18.622 11.265h-5.251v-1.032h5.251v1.032zM18.622 6.021h-5.251v-1.032h5.251v1.032z"></path>
</symbol>
<symbol id="icon-trident" viewBox="0 0 32 32">
<path d="M32.159 32h-32.159v-1.473c0-2.919 2.434-5.291 5.429-5.291 2.289 0 4.246 1.418 5.014 3.416 1.051-2.026 3.181-3.416 5.643-3.416s4.592 1.39 5.643 3.416c0.768-1.992 2.725-3.416 5.014-3.416 2.995 0 5.429 2.372 5.429 5.291v1.473zM22.408 30.963h8.714v-0.436c0-2.345-1.971-4.253-4.392-4.253s-4.322 1.909-4.322 4.253v0.436zM10.81 30.963h10.533c-0.263-2.628-2.524-4.689-5.27-4.689s-5 2.061-5.27 4.689zM1.037 30.963h8.714v-0.436c0-2.345-1.936-4.253-4.322-4.253s-4.392 1.909-4.392 4.253v0.436zM26.73 24.365c-1.888 0-3.423-1.515-3.423-3.382s1.535-3.382 3.423-3.382 3.423 1.515 3.423 3.382-1.535 3.382-3.423 3.382zM26.73 18.638c-1.314 0-2.386 1.051-2.386 2.345s1.072 2.345 2.386 2.345 2.386-1.051 2.386-2.345-1.072-2.345-2.386-2.345zM16.080 24.365c-2.421 0-4.392-1.943-4.392-4.336s1.971-4.336 4.392-4.336 4.392 1.943 4.392 4.336-1.971 4.336-4.392 4.336zM16.080 16.73c-1.847 0-3.354 1.48-3.354 3.299s1.508 3.299 3.354 3.299 3.354-1.48 3.354-3.299-1.508-3.299-3.354-3.299zM5.429 24.365c-1.888 0-3.423-1.515-3.423-3.382s1.535-3.382 3.423-3.382 3.423 1.515 3.423 3.382-1.535 3.382-3.423 3.382zM5.429 18.638c-1.314 0-2.386 1.051-2.386 2.345s1.072 2.345 2.386 2.345 2.386-1.051 2.386-2.345-1.072-2.345-2.386-2.345z"></path>
<path d="M23.583 6.757l-1.826-1.75-1.826 1.75-0.719-0.747 2.545-2.434 2.545 2.434-0.719 0.747zM18.147 3.174l-1.833-1.743-1.833 1.743-0.712-0.754 2.545-2.428 2.545 2.428-0.712 0.754z"></path>
<path d="M27.166 17.905h-1.037v-5.422h-4.675v-8.036h1.037v7.006h4.675v6.459zM16.882 15.927h-1.037v-15.568h1.037v15.568z"></path>
<path d="M8.52 6.771l-0.671-0.788 2.31-1.971 2.317 1.971-0.671 0.788-1.646-1.397-1.639 1.397z"></path>
<path d="M6.031 17.905h-1.037v-6.459h4.371v-6.999h1.037v8.036h-4.371v5.422z"></path>
</symbol>
<symbol id="icon-progress" viewBox="0 0 34 32">
<path d="M30.92 26.371h-27.589c-1.837 0-3.331-1.493-3.331-3.331v-16.895c0-1.837 1.493-3.331 3.331-3.331h5.347c0.282 0 0.516 0.234 0.516 0.516s-0.234 0.516-0.516 0.516h-5.347c-1.266 0-2.299 1.032-2.299 2.299v16.895c0 1.266 1.032 2.299 2.299 2.299h27.589c1.266 0 2.299-1.032 2.299-2.299v-16.895c0-1.266-1.032-2.299-2.299-2.299h-5.347c-0.282 0-0.516-0.234-0.516-0.516s0.234-0.516 0.516-0.516h5.347c1.837 0 3.331 1.493 3.331 3.331v16.895c0 1.837-1.493 3.331-3.331 3.331z"></path>
<path d="M17.129 20.741c-0.282 0-0.516-0.234-0.516-0.516v-8.444c0-0.282 0.234-0.516 0.516-0.516s0.516 0.234 0.516 0.516v8.444c0 0.282-0.234 0.516-0.516 0.516z"></path>
<path d="M8.678 17.927c-1.837 0-3.331-1.493-3.331-3.331s1.493-3.331 3.331-3.331 3.331 1.493 3.331 3.331-1.493 3.331-3.331 3.331zM8.678 12.291c-1.266 0-2.299 1.032-2.299 2.299s1.032 2.299 2.299 2.299 2.299-1.032 2.299-2.299-1.032-2.299-2.299-2.299z"></path>
<path d="M17.129 6.662c-1.837 0-3.331-1.493-3.331-3.331s1.493-3.331 3.331-3.331 3.331 1.493 3.331 3.331-1.493 3.331-3.331 3.331zM17.129 1.032c-1.266 0-2.299 1.032-2.299 2.299s1.032 2.299 2.299 2.299 2.299-1.032 2.299-2.299-1.032-2.299-2.299-2.299z"></path>
<path d="M11.492 26.371h-5.629c-0.282 0-0.516-0.234-0.516-0.516v-2.815c0-1.837 1.493-3.331 3.331-3.331s3.331 1.493 3.331 3.331v2.815c0 0.282-0.234 0.516-0.516 0.516zM6.379 25.338h4.597v-2.299c0-1.266-1.032-2.299-2.299-2.299s-2.299 1.032-2.299 2.299v2.299z"></path>
<path d="M25.572 17.927c-1.837 0-3.331-1.493-3.331-3.331s1.493-3.331 3.331-3.331 3.331 1.493 3.331 3.331-1.493 3.331-3.331 3.331zM25.572 12.291c-1.266 0-2.299 1.032-2.299 2.299s1.032 2.299 2.299 2.299 2.299-1.032 2.299-2.299-1.032-2.299-2.299-2.299z"></path>
<path d="M28.387 26.371h-5.629c-0.282 0-0.516-0.234-0.516-0.516v-2.815c0-1.837 1.493-3.331 3.331-3.331s3.331 1.493 3.331 3.331v2.815c0 0.282-0.234 0.516-0.516 0.516zM23.274 25.338h4.597v-2.299c0-1.266-1.032-2.299-2.299-2.299s-2.299 1.032-2.299 2.299v2.299z"></path>
<path d="M11.492 32h-1.411c-0.282 0-0.516-0.234-0.516-0.516s0.234-0.516 0.516-0.516h1.411c1.266 0 2.299-1.032 2.299-2.299v-2.815c0-0.282 0.234-0.516 0.516-0.516s0.516 0.234 0.516 0.516v2.815c0 1.837-1.493 3.331-3.331 3.331z"></path>
<path d="M24.162 32h-1.411c-1.837 0-3.331-1.493-3.331-3.331v-2.815c0-0.282 0.234-0.516 0.516-0.516s0.516 0.234 0.516 0.516v2.815c0 1.266 1.032 2.299 2.299 2.299h1.411c0.282 0 0.516 0.234 0.516 0.516s-0.234 0.516-0.516 0.516z"></path>
<path d="M23.322 32h-11.823c-0.282 0-0.516-0.234-0.516-0.516s0.234-0.516 0.516-0.516h11.823c0.282 0 0.516 0.234 0.516 0.516s-0.234 0.516-0.516 0.516z"></path>
</symbol>
<symbol id="icon-lock" viewBox="0 0 24 32">
<path d="M12.128 32c-6.696 0-12.128-5.284-12.128-11.765v-7.126c0-0.296 0.242-0.538 0.538-0.538h23.193c0.296 0 0.538 0.242 0.538 0.538v7.126c0 6.494-5.445 11.765-12.128 11.765zM1.076 13.647v6.588c0 5.889 4.961 10.689 11.066 10.689s11.066-4.8 11.066-10.689v-6.588h-22.131z"></path>
<path d="M20.612 13.647c-0.296 0-0.538-0.242-0.538-0.538v-4.356c0-4.235-3.563-7.677-7.946-7.677s-7.933 3.442-7.933 7.677v4.356c0 0.296-0.242 0.538-0.538 0.538s-0.538-0.242-0.538-0.538v-4.356c0-4.827 4.047-8.753 9.008-8.753s9.022 3.926 9.022 8.753v4.356c0 0.296-0.242 0.538-0.538 0.538z"></path>
<path d="M14.79 20.168c0 1.412-1.183 2.568-2.649 2.568s-2.649-1.143-2.649-2.568 1.183-2.568 2.649-2.568 2.649 1.143 2.649 2.568z"></path>
<path d="M12.128 23.274c-1.761 0-3.187-1.398-3.187-3.106s1.425-3.106 3.187-3.106 3.187 1.398 3.187 3.106-1.425 3.106-3.187 3.106zM12.128 18.138c-1.17 0-2.111 0.914-2.111 2.030s0.955 2.030 2.111 2.030 2.111-0.914 2.111-2.030-0.955-2.030-2.111-2.030z"></path>
<path d="M12.128 26.138c-0.296 0-0.538-0.242-0.538-0.538v-2.864c0-0.296 0.242-0.538 0.538-0.538s0.538 0.242 0.538 0.538v2.864c0 0.296-0.242 0.538-0.538 0.538z"></path>
</symbol>
<symbol id="icon-play" viewBox="0 0 32 32">
<path d="M16 32c-8.815 0-16-7.185-16-16s7.185-16 16-16 16 7.185 16 16c0 3.154-0.938 6.231-2.708 8.877-0.185 0.277-0.569 0.354-0.846 0.169s-0.354-0.569-0.169-0.846c1.631-2.446 2.508-5.292 2.508-8.2-0.015-8.138-6.646-14.769-14.785-14.769s-14.769 6.631-14.769 14.769 6.631 14.769 14.769 14.769c2.708 0 5.338-0.738 7.646-2.123 0.292-0.169 0.662-0.077 0.846 0.2 0.169 0.292 0.077 0.662-0.215 0.846-2.492 1.508-5.354 2.308-8.277 2.308z"></path>
<path d="M13.954 21.692l7.354-4.262c1.092-0.631 1.092-2.215 0-2.846l-7.354-4.262c-1.092-0.631-2.446 0.154-2.446 1.415v8.538c0 1.262 1.369 2.046 2.446 1.415z"></path>
</symbol>
<symbol id="icon-logo" viewBox="0 0 24 32">
<path d="M1.994 8.167l22.37-8.167v3.284c0 1.575-0.975 2.983-2.442 3.545l-8.901 3.382 11.343 2.511v8.266c0 1.275-0.798 2.412-1.994 2.846l-22.37 8.167v-7.818c0-1.595 0.999-3.018 2.501-3.564l10.521-3.806-13.022-2.018v-3.781c0-1.27 0.798-2.407 1.994-2.846z"></path>
<path d="M4.45 2.265c0 1.265-0.97 2.279-2.215 2.279s-2.235-1.014-2.235-2.279 0.985-2.265 2.245-2.265 2.206 1.014 2.206 2.265zM0.369 2.289c0 1.098 0.807 1.954 1.871 1.954 1.039 0.015 1.846-0.862 1.846-1.979s-0.812-1.964-1.856-1.964-1.861 0.871-1.861 1.989zM3.136 1.428c-0.094-0.049-0.369-0.167-0.714-0.167-0.689 0-1.029 0.443-1.029 1.029s0.359 1.039 1.039 1.039c0.295 0 0.576-0.084 0.743-0.192l0.089 0.281c-0.256 0.167-0.596 0.226-0.906 0.226-0.852 0-1.344-0.591-1.344-1.334 0-0.837 0.66-1.369 1.403-1.369 0.384 0 0.709 0.108 0.807 0.197l-0.089 0.286z"></path>
</symbol>
<symbol id="icon-group" viewBox="0 0 32 32">
<path d="M31.652 32c-0.195 0-0.348-0.153-0.348-0.348v-8.202c0-1.043-0.717-1.885-1.6-1.885h-2.901v10.087c0 0.195-0.153 0.348-0.348 0.348h-3.896c-0.195 0-0.348-0.153-0.348-0.348v-11.576h-3.27v8.598c0 0.195-0.153 0.348-0.348 0.348h-5.197c-0.195 0-0.348-0.153-0.348-0.348v-8.598h-3.27v11.576c0 0.195-0.153 0.348-0.348 0.348h-3.896c-0.195 0-0.348-0.153-0.348-0.348v-10.087h-2.894c-0.883 0-1.6 0.849-1.6 1.885v8.202c0 0.195-0.153 0.348-0.348 0.348s-0.348-0.153-0.348-0.348v-8.202c0-1.071 0.577-1.99 1.405-2.379-0.842-0.584-1.405-1.642-1.405-2.838v-8.946c0-1.301 0.668-2.435 1.635-2.977-0.967-0.55-1.635-1.677-1.635-2.984 0-1.83 1.322-3.325 2.95-3.325s2.943 1.496 2.943 3.325c0 1.308-0.668 2.435-1.635 2.984 0.967 0.543 1.635 1.677 1.635 2.977v2.637h1.6c1.162 0 2.122 0.974 2.275 2.233h2.637v-4.125c0-1.697 0.918-3.151 2.219-3.763-0.932-0.557-1.572-1.67-1.572-2.943 0-1.837 1.322-3.325 2.943-3.325s2.943 1.496 2.943 3.325c0 1.273-0.64 2.386-1.572 2.943 1.301 0.612 2.219 2.073 2.219 3.763v4.125h2.637c0.153-1.259 1.113-2.233 2.275-2.233h1.6v-2.637c0-1.301 0.668-2.435 1.635-2.977-0.967-0.55-1.635-1.677-1.635-2.984 0-1.837 1.322-3.325 2.943-3.325s2.95 1.496 2.95 3.325c0 1.308-0.668 2.435-1.635 2.984 0.967 0.543 1.635 1.677 1.635 2.977v8.946c0 1.197-0.563 2.247-1.405 2.838 0.828 0.39 1.405 1.315 1.405 2.379v8.202c0 0.195-0.153 0.348-0.348 0.348zM22.908 31.304h3.2v-10.087c0-0.195 0.153-0.348 0.348-0.348h2.595c1.238 0 2.254-1.183 2.254-2.63v-2.323c-0.543 0.723-1.35 1.183-2.254 1.183h-3.896c-1.238 0-2.247 1.183-2.247 2.63v11.576zM5.892 31.304h3.2v-11.576c0-1.454-1.009-2.63-2.254-2.63h-3.896c-0.904 0-1.711-0.459-2.254-1.183v2.323c0 1.454 1.009 2.63 2.254 2.63h2.595c0.195 0 0.348 0.153 0.348 0.348v10.087zM13.753 28.327h4.501v-8.25h-4.501v8.25zM9.774 19.381h12.459c0.097-1.050 0.626-1.962 1.391-2.49-0.73-0.348-1.273-1.113-1.384-2.031h-12.473c-0.111 0.918-0.654 1.683-1.384 2.031 0.758 0.529 1.294 1.433 1.391 2.49zM25.155 16.397h3.896c1.238 0 2.254-1.183 2.254-2.637v-4.473c0-1.454-1.009-2.63-2.254-2.63s-2.247 1.183-2.247 2.63v2.637h0.953c0.195 0 0.348 0.153 0.348 0.348s-0.153 0.348-0.348 0.348h-3.249c-0.883 0-1.6 0.849-1.6 1.885s0.717 1.885 1.6 1.885h0.647zM6.838 16.397h0.647c0.883 0 1.6-0.849 1.6-1.885s-0.717-1.885-1.6-1.885h-3.249c-0.195 0-0.348-0.153-0.348-0.348s0.153-0.348 0.348-0.348h0.953v-2.637c0-1.454-1.009-2.63-2.247-2.63s-2.254 1.183-2.254 2.63v4.473c0 1.454 1.009 2.637 2.254 2.637h3.896zM13.099 14.163h5.802v-4.125c0-1.864-1.301-3.381-2.901-3.381s-2.901 1.517-2.901 3.381v4.125zM29.050 0.696c-1.238 0-2.247 1.183-2.247 2.63s1.009 2.637 2.247 2.637 2.254-1.183 2.254-2.637-1.009-2.63-2.254-2.63zM16 0.696c-1.238 0-2.247 1.183-2.247 2.63s1.009 2.637 2.247 2.637 2.247-1.183 2.247-2.637-1.009-2.63-2.247-2.63zM2.95 0.696c-1.238 0-2.254 1.183-2.254 2.63s1.009 2.637 2.254 2.637 2.247-1.183 2.247-2.637-1.009-2.63-2.247-2.63z"></path>
</symbol>
<symbol id="icon-certification" viewBox="0 0 32 32">
<path d="M18.865 32l-2.931-0.741-2.931 0.741v-4.732l-13.004 0.658v-7.281l13.357 0.672h5.161l13.35-0.672v7.281l-13.004-0.658v4.732zM13.696 27.247v3.859l2.238-0.568 2.238 0.568v-3.859h-4.482zM18.865 26.575l12.311 0.617v-5.826l-12.311 0.623v4.586zM0.693 21.366v5.826l12.311-0.623v-4.586l-12.311-0.617zM13.696 26.555h4.482v-4.552h-4.482v4.552zM31.868 17.417h-4.572v-3.235c0-1.157 0.845-2.113 1.94-2.286v-4.933l-5.314 2.356h0.187v8.092h-16.343v-8.092h0.187l-6.519-2.889 14.5-6.429 14.5 6.429-0.506 0.229v5.238c1.095 0.166 1.94 1.129 1.94 2.286v3.235zM27.989 16.724h3.187v-2.543c0-0.894-0.714-1.621-1.593-1.621s-1.593 0.727-1.593 1.621v2.543zM8.459 16.724h14.957v-7.177l-7.482 3.318-7.482-3.318v7.177zM3.145 6.429l12.796 5.674 12.013-5.328h-12.242v-0.693h12.242l-12.020-5.328-12.789 5.674z"></path>
</symbol>
<symbol id="icon-examination" viewBox="0 0 32 32">
<path d="M23.791 32h-15.583c-0.195 0-0.348-0.153-0.348-0.348s0.153-0.348 0.348-0.348c1.955 0 3.548-1.593 3.548-3.548v-3.61h-11.409c-0.195 0-0.348-0.153-0.348-0.348v-23.45c0-0.195 0.153-0.348 0.348-0.348h31.304c0.195 0 0.348 0.153 0.348 0.348v23.443c0 0.195-0.153 0.348-0.348 0.348h-11.409v3.61c0 1.955 1.593 3.548 3.548 3.548 0.195 0 0.348 0.153 0.348 0.348s-0.153 0.348-0.348 0.348zM10.532 31.304h10.936c-1.155-0.758-1.92-2.066-1.92-3.548v-3.61h-7.096v3.61c0 1.482-0.765 2.79-1.92 3.548zM0.696 23.443h30.609v-22.748h-30.609v22.748zM27.757 18.296h-15.652c-0.195 0-0.348-0.153-0.348-0.348s0.153-0.348 0.348-0.348h15.652c0.195 0 0.348 0.153 0.348 0.348s-0.153 0.348-0.348 0.348zM8.209 18.296h-3.896c-0.195 0-0.348-0.153-0.348-0.348v-3.896c0-0.195 0.153-0.348 0.348-0.348h3.896c0.195 0 0.348 0.153 0.348 0.348v3.896c0 0.195-0.153 0.348-0.348 0.348zM4.654 17.6h3.2v-3.2h-3.2v3.2zM21.843 14.4h-9.739c-0.195 0-0.348-0.153-0.348-0.348s0.153-0.348 0.348-0.348h9.739c0.195 0 0.348 0.153 0.348 0.348s-0.153 0.348-0.348 0.348zM27.757 10.504h-15.652c-0.195 0-0.348-0.153-0.348-0.348s0.153-0.348 0.348-0.348h15.652c0.195 0 0.348 0.153 0.348 0.348s-0.153 0.348-0.348 0.348zM5.871 10.017c-0.090 0-0.181-0.035-0.243-0.104l-1.461-1.461c-0.139-0.139-0.139-0.355 0-0.494s0.355-0.139 0.494 0l1.217 1.217 2.678-2.678c0.139-0.139 0.355-0.139 0.494 0s0.139 0.355 0 0.494l-2.922 2.922c-0.070 0.070-0.16 0.104-0.243 0.104zM21.843 6.609h-9.739c-0.195 0-0.348-0.153-0.348-0.348s0.153-0.348 0.348-0.348h9.739c0.195 0 0.348 0.153 0.348 0.348s-0.153 0.348-0.348 0.348z"></path>
</symbol>
<symbol id="icon-live" viewBox="0 0 32 32">
<path d="M27.696 24.558h-6.381c-0.176 0-0.314-0.138-0.314-0.314s0.138-0.314 0.314-0.314h6.381c2.027 0 3.677-1.65 3.677-3.677v-15.95c0-2.027-1.65-3.677-3.677-3.677h-23.391c-2.027 0-3.677 1.65-3.677 3.677v15.95c0 2.027 1.65 3.677 3.677 3.677h11.696c0.176 0 0.314 0.138 0.314 0.314s-0.138 0.314-0.314 0.314h-11.696c-2.372 0-4.304-1.933-4.304-4.304v-15.95c0-2.372 1.933-4.304 4.304-4.304h23.398c2.372 0 4.304 1.933 4.304 4.304v15.95c0 2.372-1.933 4.304-4.304 4.304z"></path>
<path d="M21.314 32h-10.635c-0.176 0-0.314-0.138-0.314-0.314s0.138-0.314 0.314-0.314h10.635c0.176 0 0.314 0.138 0.314 0.314s-0.138 0.314-0.314 0.314z"></path>
<path d="M9.355 11.263c-1.638 0-2.974-1.336-2.974-2.974s1.33-2.974 2.974-2.974 2.974 1.336 2.974 2.974-1.33 2.974-2.974 2.974zM9.355 5.942c-1.293 0-2.347 1.054-2.347 2.347s1.054 2.347 2.347 2.347 2.347-1.054 2.347-2.347-1.054-2.347-2.347-2.347z"></path>
<path d="M19.991 16.577c-0.904 0-1.644-0.734-1.644-1.644v-7.975c0-0.904 0.734-1.644 1.644-1.644 0.358 0 0.696 0.113 0.985 0.326l5.314 3.991c0.42 0.314 0.659 0.791 0.659 1.318s-0.238 1.004-0.659 1.318l-5.314 3.991c-0.289 0.213-0.627 0.326-0.985 0.326zM19.991 5.942c-0.558 0-1.016 0.458-1.016 1.016v7.975c0 0.558 0.458 1.016 1.016 1.016 0.22 0 0.433-0.069 0.609-0.201l5.314-3.991c0.257-0.194 0.408-0.489 0.408-0.816s-0.151-0.621-0.408-0.816v0s-5.314-3.991-5.314-3.991c-0.176-0.132-0.389-0.201-0.609-0.201z"></path>
<path d="M16 32c-0.176 0-0.314-0.138-0.314-0.314v-7.442c0-0.176 0.138-0.314 0.314-0.314s0.314 0.138 0.314 0.314v7.442c0 0.176-0.138 0.314-0.314 0.314z"></path>
<path d="M13.34 19.238h-7.975c-0.176 0-0.314-0.138-0.314-0.314v-1.33c0-2.372 1.933-4.304 4.304-4.304s4.304 1.933 4.304 4.304v1.33c0 0.176-0.138 0.314-0.314 0.314zM5.678 18.61h7.347v-1.016c0-2.027-1.65-3.677-3.677-3.677s-3.677 1.65-3.677 3.677v1.016z"></path>
</symbol>
<symbol id="icon-widearrowdown" viewBox="0 0 102 32">
<path d="M51 32c-0.18 0-0.36-0.040-0.52-0.14l-50-30c-0.48-0.28-0.62-0.9-0.34-1.38s0.9-0.62 1.38-0.34l49.48 29.7 49.48-29.7c0.48-0.28 1.080-0.14 1.38 0.34 0.28 0.48 0.14 1.080-0.34 1.38l-50 30c-0.16 0.1-0.34 0.14-0.52 0.14z"></path>
</symbol>
<symbol id="icon-interactive" viewBox="0 0 32 32">
<path d="M21.089 32h-7.14c-0.088 0-0.169-0.038-0.232-0.1l-2.359-2.541c-0.878-0.947-1.362-2.177-1.362-3.464 0-1.845 0.979-3.533 2.554-4.436l1.104-0.634v-8.458c0-1.261 1.023-2.284 2.284-2.284s2.284 1.023 2.284 2.284v7.134l3.382 1.838c1.625 0.891 2.635 2.604 2.635 4.455 0 0.954-0.27 1.889-0.772 2.698l-2.102 3.357c-0.056 0.094-0.157 0.144-0.264 0.144zM14.086 31.373h6.827l2.008-3.213c0.445-0.709 0.678-1.525 0.678-2.366 0-1.625-0.885-3.125-2.309-3.909l-3.545-1.926c-0.1-0.056-0.163-0.163-0.163-0.276v-7.316c0-0.91-0.74-1.656-1.656-1.656s-1.656 0.74-1.656 1.656v12.034c0 0.176-0.138 0.314-0.314 0.314s-0.314-0.138-0.314-0.314v-2.855l-0.791 0.458c-1.38 0.791-2.234 2.271-2.234 3.865 0 1.161 0.427 2.24 1.192 3.068l2.271 2.441z"></path>
<path d="M13.961 20.355s-0.063 0-0.094-0.013c-3.031-0.941-5.070-3.708-5.070-6.883 0-3.972 3.231-7.209 7.203-7.209s7.203 3.231 7.203 7.209c0 3.018-1.907 5.741-4.737 6.776-0.163 0.056-0.345-0.025-0.402-0.188s0.025-0.345 0.188-0.402c2.585-0.941 4.329-3.426 4.329-6.187 0-3.627-2.949-6.582-6.576-6.582s-6.576 2.949-6.576 6.582c0 2.905 1.857 5.427 4.631 6.287 0.163 0.050 0.257 0.226 0.207 0.395-0.044 0.132-0.163 0.22-0.301 0.22z"></path>
<path d="M29.816 4.367c-1.205 0-2.184-0.979-2.184-2.184s0.979-2.184 2.184-2.184 2.184 0.979 2.184 2.184-0.979 2.184-2.184 2.184zM29.816 0.627c-0.86 0-1.556 0.696-1.556 1.556s0.696 1.556 1.556 1.556 1.556-0.696 1.556-1.556-0.696-1.556-1.556-1.556z"></path>
<path d="M29.816 25.914c-1.205 0-2.184-0.979-2.184-2.184s0.979-2.184 2.184-2.184 2.184 0.979 2.184 2.184-0.979 2.184-2.184 2.184zM29.816 22.174c-0.86 0-1.556 0.696-1.556 1.556s0.696 1.556 1.556 1.556 1.556-0.696 1.556-1.556-0.696-1.556-1.556-1.556z"></path>
<path d="M21.973 10.171c-0.082 0-0.163-0.031-0.226-0.094-0.119-0.126-0.119-0.326 0.006-0.446l6.544-6.331c0.125-0.119 0.326-0.119 0.445 0.006s0.119 0.326-0.006 0.446l-6.544 6.331c-0.063 0.056-0.138 0.088-0.22 0.088z"></path>
<path d="M28.518 22.883c-0.082 0-0.163-0.031-0.226-0.094l-6.168-6.224c-0.119-0.125-0.119-0.32 0-0.445 0.119-0.119 0.32-0.119 0.445 0l6.168 6.224c0.119 0.125 0.119 0.32 0 0.445-0.063 0.063-0.138 0.088-0.22 0.088z"></path>
<path d="M2.184 4.367c-1.205 0-2.184-0.979-2.184-2.184s0.979-2.184 2.184-2.184 2.184 0.979 2.184 2.184-0.979 2.184-2.184 2.184zM2.184 0.627c-0.86 0-1.556 0.696-1.556 1.556s0.696 1.556 1.556 1.556 1.556-0.696 1.556-1.556-0.696-1.556-1.556-1.556z"></path>
<path d="M2.184 25.914c-1.205 0-2.184-0.979-2.184-2.184s0.979-2.184 2.184-2.184 2.184 0.979 2.184 2.184-0.979 2.184-2.184 2.184zM2.184 22.174c-0.86 0-1.556 0.696-1.556 1.556s0.696 1.556 1.556 1.556 1.556-0.696 1.556-1.556-0.696-1.556-1.556-1.556z"></path>
<path d="M10.096 10.089c-0.075 0-0.157-0.031-0.213-0.088l-6.613-6.243c-0.126-0.119-0.132-0.32-0.013-0.446s0.32-0.132 0.446-0.013l6.607 6.249c0.126 0.119 0.132 0.32 0.013 0.446-0.063 0.063-0.144 0.1-0.226 0.1z"></path>
<path d="M3.482 22.883c-0.082 0-0.157-0.031-0.22-0.088-0.126-0.119-0.126-0.32 0-0.445l6.155-6.224c0.119-0.126 0.32-0.126 0.446 0 0.126 0.119 0.126 0.32 0 0.445l-6.155 6.224c-0.063 0.063-0.144 0.094-0.226 0.094z"></path>
</symbol>
<symbol id="icon-trainer" viewBox="0 0 32 32">
<path d="M5.528 5.854c-1.613 0-2.93-1.311-2.93-2.93s1.318-2.924 2.93-2.924 2.93 1.311 2.93 2.93-1.311 2.93-2.93 2.93zM5.528 0.627c-1.267 0-2.303 1.029-2.303 2.303s1.029 2.303 2.303 2.303 2.303-1.029 2.303-2.303-1.029-2.303-2.303-2.303z"></path>
<path d="M19.884 9.744h-14.344c-0.176 0-0.314-0.138-0.314-0.314s0.138-0.314 0.314-0.314h14.344c0.176 0 0.314 0.138 0.314 0.314s-0.138 0.314-0.314 0.314z"></path>
<path d="M31.68 18.855h-15.68c-0.176 0-0.314-0.138-0.314-0.314v-18.227c0-0.176 0.138-0.314 0.314-0.314h15.68c0.176 0 0.314 0.138 0.314 0.314v18.227c0 0.176-0.138 0.314-0.314 0.314zM16.307 18.227h15.053v-17.6h-15.053v17.6z"></path>
<path d="M10.742 18.855h-10.428c-0.176 0-0.314-0.138-0.314-0.314v-3.896c0-3.049 2.478-5.528 5.528-5.528h5.214c0.176 0 0.314 0.138 0.314 0.314v9.117c0 0.176-0.138 0.314-0.314 0.314zM0.627 18.227h9.801v-8.489h-4.9c-2.704 0-4.9 2.196-4.9 4.9v3.583z"></path>
<path d="M15.994 32c-2.372 0-4.298-1.933-4.298-4.304s1.933-4.304 4.298-4.304 4.298 1.933 4.298 4.304-1.933 4.304-4.298 4.304zM15.994 24.025c-2.027 0-3.671 1.65-3.671 3.677s1.65 3.677 3.671 3.677 3.671-1.65 3.671-3.677-1.65-3.677-3.671-3.677z"></path>
<path d="M27.702 32c-2.372 0-4.298-1.933-4.298-4.304s1.926-4.304 4.298-4.304 4.298 1.933 4.298 4.304-1.933 4.304-4.298 4.304zM27.702 24.025c-2.027 0-3.671 1.65-3.671 3.677s1.65 3.677 3.671 3.677 3.671-1.65 3.671-3.677-1.65-3.677-3.671-3.677z"></path>
<path d="M4.298 32c-2.372 0-4.298-1.933-4.298-4.304s1.933-4.304 4.298-4.304 4.298 1.933 4.298 4.304-1.926 4.304-4.298 4.304zM4.298 24.025c-2.027 0-3.671 1.65-3.671 3.677s1.65 3.677 3.671 3.677 3.671-1.65 3.671-3.677-1.65-3.677-3.671-3.677z"></path>
</symbol>
<symbol id="icon-access" viewBox="0 0 32 32">
<path d="M25.042 26.686h-18.083c-3.84 0-6.958-3.125-6.958-6.958v-10.905c0-3.84 3.125-6.958 6.958-6.958h0.797c0.176 0 0.314 0.138 0.314 0.314s-0.138 0.314-0.314 0.314h-0.797c-3.489 0-6.331 2.836-6.331 6.331v10.905c0 3.489 2.842 6.331 6.331 6.331h18.083c3.495 0 6.331-2.842 6.331-6.331v-10.905c0-1.694-0.659-3.282-1.857-4.48s-2.786-1.857-4.48-1.857h-0.866c-0.176 0-0.314-0.138-0.314-0.314s0.138-0.314 0.314-0.314h0.866c1.857 0 3.608 0.722 4.919 2.039s2.039 3.062 2.039 4.919v10.899c0 3.84-3.125 6.958-6.958 6.958z"></path>
<path d="M22.381 32h-12.762c-0.176 0-0.314-0.138-0.314-0.314s0.138-0.314 0.314-0.314h12.762c0.176 0 0.314 0.138 0.314 0.314s-0.138 0.314-0.314 0.314z"></path>
<path d="M24.91 21.697c-1.092 0-1.976-0.885-1.976-1.976s0.885-1.976 1.976-1.976 1.976 0.885 1.976 1.976-0.885 1.976-1.976 1.976zM24.91 18.372c-0.74 0-1.349 0.602-1.349 1.349s0.602 1.349 1.349 1.349 1.349-0.602 1.349-1.349-0.602-1.349-1.349-1.349zM18.924 21.697c-1.092 0-1.976-0.885-1.976-1.976s0.885-1.976 1.976-1.976 1.976 0.885 1.976 1.976-0.885 1.976-1.976 1.976zM18.924 18.372c-0.74 0-1.349 0.602-1.349 1.349s0.602 1.349 1.349 1.349 1.349-0.602 1.349-1.349-0.602-1.349-1.349-1.349zM12.944 21.697c-1.092 0-1.976-0.885-1.976-1.976s0.885-1.976 1.976-1.976 1.976 0.885 1.976 1.976-0.885 1.976-1.976 1.976zM12.944 18.372c-0.74 0-1.349 0.602-1.349 1.349s0.602 1.349 1.349 1.349 1.349-0.602 1.349-1.349-0.602-1.349-1.349-1.349zM6.958 21.697c-1.092 0-1.976-0.885-1.976-1.976s0.885-1.976 1.976-1.976 1.976 0.885 1.976 1.976-0.885 1.976-1.976 1.976zM6.958 18.372c-0.74 0-1.349 0.602-1.349 1.349s0.602 1.349 1.349 1.349 1.349-0.602 1.349-1.349-0.602-1.349-1.349-1.349z"></path>
<path d="M20.988 14.783c-0.176 0-0.314-0.138-0.314-0.314 0-2.322-1.907-4.204-4.248-4.204h-0.847c-2.34 0-4.248 1.889-4.248 4.204 0 0.176-0.138 0.314-0.314 0.314s-0.314-0.138-0.314-0.314c0-2.667 2.19-4.831 4.875-4.831h0.847c2.692 0 4.875 2.171 4.875 4.831 0 0.176-0.138 0.314-0.314 0.314z"></path>
<path d="M15.937 5.942c-1.638 0-2.974-1.336-2.974-2.974s1.336-2.968 2.974-2.968 2.974 1.336 2.974 2.974-1.33 2.974-2.974 2.974zM15.937 0.627c-1.293 0-2.347 1.054-2.347 2.347s1.054 2.347 2.347 2.347 2.347-1.054 2.347-2.347-1.054-2.347-2.347-2.347z"></path>
</symbol>
<symbol id="icon-logout" viewBox="0 0 32 32">
<path d="M13.389 32h-8.898c-2.47 0-4.491-2.007-4.491-4.491v-23.018c0-2.484 2.007-4.491 4.491-4.491h8.898c2.47 0 4.491 2.007 4.491 4.491v3.663c0 0.309-0.253 0.561-0.561 0.561s-0.561-0.253-0.561-0.561v-3.663c0-1.853-1.516-3.368-3.368-3.368h-8.898c-1.853 0-3.368 1.516-3.368 3.368v23.032c0 1.853 1.516 3.368 3.368 3.368h8.898c1.853 0 3.368-1.516 3.368-3.368v-3.593c0-0.309 0.253-0.561 0.561-0.561s0.561 0.253 0.561 0.561v3.593c0 2.47-2.007 4.491-4.491 4.491z"></path>
<path d="M23.803 24.744c-0.239 0-0.477-0.042-0.702-0.14-0.688-0.281-1.109-0.926-1.109-1.67v-1.432c0-0.309 0.253-0.561 0.561-0.561s0.561 0.253 0.561 0.561v1.432c0 0.421 0.323 0.589 0.421 0.632s0.449 0.154 0.758-0.14l5.993-5.965c0.393-0.393 0.604-0.898 0.604-1.46s-0.211-1.067-0.604-1.46l-5.993-5.965c-0.295-0.295-0.646-0.182-0.758-0.14-0.098 0.042-0.421 0.211-0.421 0.632v5.628c0 1.025-0.842 1.867-1.867 1.867h-15.453c-0.309 0-0.561-0.253-0.561-0.561s0.253-0.561 0.561-0.561h15.439c0.407 0 0.744-0.337 0.744-0.744v-5.628c0-0.744 0.421-1.375 1.109-1.67 0.688-0.281 1.446-0.14 1.979 0.393l5.993 5.965c0.604 0.604 0.94 1.403 0.94 2.246s-0.337 1.656-0.94 2.246l-5.993 5.965c-0.351 0.351-0.8 0.533-1.263 0.533z"></path>
</symbol>
<symbol id="icon-tablepeople" viewBox="0 0 33 32">
<path d="M3.229 11.529c0.843 0 1.514 0.686 1.514 1.514s-0.686 1.514-1.514 1.514-1.514-0.686-1.514-1.514 0.686-1.514 1.514-1.514zM3.229 10.386c-1.471 0-2.657 1.186-2.657 2.657s1.186 2.657 2.657 2.657 2.657-1.186 2.657-2.657-1.186-2.657-2.657-2.657v0z"></path>
<path d="M7.229 32h-1.329c-3.257 0-5.9-2.643-5.9-5.9v-5.057c0-1.786 1.457-3.229 3.229-3.229s3.229 1.457 3.229 3.229v1.329c0 1.157 0.943 2.086 2.086 2.086h2.4c0.314 0 0.571 0.257 0.571 0.571s-0.257 0.571-0.571 0.571h-2.4c-1.786 0-3.229-1.457-3.229-3.229v-1.329c0-1.157-0.943-2.086-2.086-2.086s-2.086 0.943-2.086 2.086v5.057c0 2.629 2.129 4.757 4.757 4.757h1.329c0.314 0 0.571 0.257 0.571 0.571s-0.257 0.571-0.571 0.571z"></path>
<path d="M29.343 11.529c0.843 0 1.514 0.686 1.514 1.514s-0.686 1.514-1.514 1.514-1.514-0.686-1.514-1.514 0.686-1.514 1.514-1.514zM29.343 10.386c-1.471 0-2.657 1.186-2.657 2.657s1.186 2.657 2.657 2.657 2.657-1.186 2.657-2.657-1.186-2.657-2.657-2.657v0z"></path>
<path d="M26.671 32h-1.329c-0.314 0-0.571-0.257-0.571-0.571s0.257-0.571 0.571-0.571h1.329c2.614 0 4.757-2.129 4.757-4.757v-5.057c0-1.157-0.943-2.086-2.086-2.086s-2.086 0.943-2.086 2.086v1.329c0 1.786-1.457 3.229-3.229 3.229h-2.4c-0.314 0-0.571-0.257-0.571-0.571s0.257-0.571 0.571-0.571h2.4c1.157 0 2.086-0.943 2.086-2.086v-1.329c0-1.786 1.457-3.229 3.229-3.229s3.229 1.457 3.229 3.229v5.057c0 3.257-2.643 5.9-5.9 5.9z"></path>
<path d="M20.471 16.857v13.429h-8.371v-13.429h8.371zM21.614 15.714h-10.657v15.714h10.657v-15.714z"></path>
<path d="M21.614 12.557c-0.314 0-0.571-0.257-0.571-0.571v-1.329c0-1.157-0.943-2.086-2.086-2.086h-5.329c-1.157 0-2.086 0.943-2.086 2.086v1.329c0 0.314-0.257 0.571-0.571 0.571s-0.571-0.257-0.571-0.571v-1.329c0-1.786 1.457-3.229 3.229-3.229h5.329c1.786 0 3.229 1.457 3.229 3.229v1.329c0 0.314-0.257 0.571-0.571 0.571z"></path>
<path d="M16.286 1.143c0.843 0 1.514 0.686 1.514 1.514s-0.686 1.514-1.514 1.514-1.514-0.686-1.514-1.514 0.686-1.514 1.514-1.514zM16.286 0c-1.471 0-2.657 1.186-2.657 2.657s1.186 2.657 2.657 2.657 2.657-1.186 2.657-2.657-1.186-2.657-2.657-2.657v0z"></path>
</symbol>
<symbol id="icon-document" viewBox="0 0 31 32">
<path d="M7.719 17.193c3.635 0 6.596 2.947 6.596 6.568s-2.961 6.568-6.596 6.568-6.596-2.961-6.596-6.582 2.961-6.568 6.596-6.568zM7.719 16.070c-4.267 0-7.719 3.439-7.719 7.691s3.453 7.691 7.719 7.691 7.719-3.439 7.719-7.691-3.453-7.691-7.719-7.691v0z"></path>
<path d="M28.94 32h-21.221c-0.309 0-0.561-0.253-0.561-0.561s0.253-0.561 0.561-0.561h21.221c0.758 0 1.361-0.604 1.361-1.361v-22.316l-6.091-6.077h-14.554c-0.758 0-1.361 0.603-1.361 1.361v13.586c0 0.309-0.253 0.561-0.561 0.561s-0.561-0.253-0.561-0.561v-13.586c0-1.375 1.123-2.484 2.498-2.484h14.793c0.154 0 0.295 0.056 0.393 0.168l6.428 6.4c0.112 0.112 0.168 0.253 0.168 0.393v22.554c0 1.375-1.123 2.484-2.498 2.484z"></path>
<path d="M25.572 3.27l2.596 2.582h-2.596v-2.582zM24.449 0.561v6.4h6.428l-6.428-6.4z"></path>
<path d="M26.372 18.54h-13.544c-0.309 0-0.561-0.253-0.561-0.561s0.253-0.561 0.561-0.561h13.544c0.309 0 0.561 0.253 0.561 0.561s-0.253 0.561-0.561 0.561z"></path>
<path d="M26.372 12.786h-14.147c-0.309 0-0.561-0.253-0.561-0.561s0.253-0.561 0.561-0.561h14.147c0.309 0 0.561 0.253 0.561 0.561s-0.253 0.561-0.561 0.561z"></path>
<path d="M26.372 24.309h-10.933c-0.309 0-0.561-0.253-0.561-0.561s0.253-0.561 0.561-0.561h10.933c0.309 0 0.561 0.253 0.561 0.561s-0.253 0.561-0.561 0.561z"></path>
<path d="M6.372 27.074c-0.14 0-0.281-0.056-0.393-0.168l-1.937-1.923c-0.225-0.225-0.225-0.575 0-0.8s0.575-0.225 0.8 0l1.937 1.923c0.225 0.225 0.225 0.575 0 0.8-0.112 0.112-0.253 0.168-0.393 0.168z"></path>
<path d="M6.372 27.074c-0.14 0-0.295-0.056-0.393-0.168-0.225-0.225-0.225-0.575 0-0.8l4.505-4.491c0.225-0.225 0.575-0.225 0.8 0s0.225 0.575 0 0.8l-4.505 4.491c-0.112 0.112-0.253 0.168-0.393 0.168z"></path>
</symbol>
<symbol id="icon-notification" viewBox="0 0 31 32">
<path d="M0.571 13.886c-0.314 0-0.571-0.257-0.571-0.571 0-4.343 2.343-8.5 6.257-11.114 0.257-0.171 0.614-0.1 0.8 0.157 0.171 0.257 0.1 0.614-0.157 0.786-3.657 2.443-5.757 6.143-5.757 10.171 0 0.314-0.257 0.571-0.571 0.571z"></path>
<path d="M30.571 13.886c-0.314 0-0.571-0.257-0.571-0.571 0-4.029-2.1-7.729-5.743-10.171-0.257-0.171-0.329-0.529-0.157-0.786s0.529-0.329 0.8-0.157c3.914 2.614 6.257 6.771 6.257 11.129 0 0.314-0.257 0.571-0.571 0.571z"></path>
<path d="M15.571 6.471c4.329 0 7.857 3.071 7.857 6.843v7.457c0 0.629 0.514 1.143 1.143 1.143 1 0 1.857 0.7 1.857 1.514s-0.857 1.514-1.857 1.514h-18c-1 0-1.857-0.7-1.857-1.514s0.857-1.514 1.857-1.514c0.629 0 1.143-0.514 1.143-1.143v-7.457c0-3.771 3.529-6.843 7.857-6.843zM15.571 5.329c-4.986 0-9 3.571-9 7.986v7.457c-1.643 0-3 1.2-3 2.657s1.357 2.657 3 2.657h18c1.657 0 3-1.2 3-2.657s-1.357-2.657-3-2.657v-7.457c0-4.4-4.043-7.986-9-7.986v0z"></path>
<path d="M15.571 1.143c1.029 0 1.857 0.686 1.857 1.514s-0.829 1.514-1.857 1.514-1.857-0.686-1.857-1.514 0.829-1.514 1.857-1.514zM15.571 0c-1.657 0-3 1.186-3 2.657s1.343 2.657 3 2.657 3-1.186 3-2.657-1.343-2.657-3-2.657v0z"></path>
<path d="M15.571 32c-1.971 0-3.571-1.457-3.571-3.229v-2.657c0-0.314 0.257-0.571 0.571-0.571s0.571 0.257 0.571 0.571v2.657c0 1.157 1.086 2.086 2.429 2.086s2.429-0.943 2.429-2.086v-2.657c0-0.314 0.257-0.571 0.571-0.571s0.571 0.257 0.571 0.571v2.657c0 1.786-1.6 3.229-3.571 3.229z"></path>
</symbol>
<symbol id="icon-profile" viewBox="0 0 32 32">
<path d="M16.010 17.517c-2.519 0-4.573-2.065-4.573-4.604s2.054-4.604 4.573-4.604 4.573 2.065 4.573 4.604-2.054 4.604-4.573 4.604zM16.010 9.352c-1.951 0-3.541 1.6-3.541 3.572s1.59 3.572 3.541 3.572 3.541-1.6 3.541-3.572-1.59-3.572-3.541-3.572z"></path>
<path d="M22.132 23.68h-12.243c-0.289 0-0.516-0.227-0.516-0.516 0-3.685 2.973-6.679 6.637-6.679s6.637 2.994 6.637 6.679c0 0.289-0.227 0.516-0.516 0.516zM10.426 22.648h11.169c-0.258-2.87-2.663-5.13-5.585-5.13s-5.326 2.261-5.585 5.13z"></path>
<path d="M28.408 7.226c-1.992 0-3.613-1.621-3.613-3.613s1.621-3.613 3.613-3.613 3.613 1.621 3.613 3.613-1.621 3.613-3.613 3.613zM28.408 1.032c-1.425 0-2.581 1.156-2.581 2.581s1.156 2.581 2.581 2.581 2.581-1.156 2.581-2.581-1.156-2.581-2.581-2.581z"></path>
<path d="M3.613 32c-1.992 0-3.613-1.621-3.613-3.613s1.621-3.613 3.613-3.613 3.613 1.621 3.613 3.613-1.621 3.613-3.613 3.613zM3.613 25.806c-1.425 0-2.581 1.156-2.581 2.581s1.156 2.581 2.581 2.581 2.581-1.156 2.581-2.581-1.156-2.581-2.581-2.581z"></path>
<path d="M3.613 7.226c-1.992 0-3.613-1.621-3.613-3.613s1.621-3.613 3.613-3.613 3.613 1.621 3.613 3.613-1.621 3.613-3.613 3.613zM3.613 1.032c-1.425 0-2.581 1.156-2.581 2.581s1.156 2.581 2.581 2.581 2.581-1.156 2.581-2.581-1.156-2.581-2.581-2.581z"></path>
<path d="M28.408 32c-1.992 0-3.613-1.621-3.613-3.613s1.621-3.613 3.613-3.613 3.613 1.621 3.613 3.613-1.621 3.613-3.613 3.613zM28.408 25.806c-1.425 0-2.581 1.156-2.581 2.581s1.156 2.581 2.581 2.581 2.581-1.156 2.581-2.581-1.156-2.581-2.581-2.581z"></path>
<path d="M16.010 30.937c-8.237 0-14.947-6.699-14.947-14.937s6.71-14.937 14.947-14.937c6.988 0 12.975 4.738 14.555 11.53 0.062 0.279-0.103 0.557-0.382 0.619s-0.557-0.114-0.619-0.382c-1.476-6.317-7.050-10.735-13.554-10.735-7.67 0-13.915 6.235-13.915 13.905s6.245 13.905 13.915 13.905c6.503 0 12.077-4.418 13.554-10.735 0.062-0.279 0.341-0.454 0.619-0.382 0.279 0.062 0.454 0.341 0.382 0.619-1.579 6.792-7.566 11.53-14.555 11.53z"></path>
</symbol>
<symbol id="icon-magnifier" viewBox="0 0 32 32">
<path d="M17.305 17.867c-0.14 0-0.295-0.056-0.393-0.168-0.225-0.225-0.225-0.575 0-0.8 2.26-2.26 2.26-5.923 0-8.182-0.225-0.225-0.225-0.575 0-0.8s0.575-0.225 0.8 0c2.695 2.695 2.695 7.074 0 9.768-0.112 0.112-0.253 0.168-0.393 0.168z"></path>
<path d="M28.407 32c-0.688 0-1.333-0.267-1.825-0.758l-4.323-4.323c-0.098-0.112-0.168-0.253-0.168-0.393s0.056-0.295 0.168-0.393l3.86-3.86c0.225-0.225 0.575-0.225 0.8 0l4.323 4.323c0.996 0.997 0.996 2.639 0 3.635v0s-1.025 1.025-1.025 1.025c-0.491 0.491-1.137 0.758-1.825 0.758zM23.453 26.526l3.93 3.93c0.547 0.547 1.502 0.547 2.049 0l1.025-1.025c0.561-0.561 0.561-1.488 0-2.049l-3.93-3.93-3.074 3.074zM30.849 29.825v0 0z"></path>
<path d="M12.814 25.628c-3.284 0-6.568-1.249-9.067-3.747-2.414-2.414-3.747-5.642-3.747-9.067s1.333-6.639 3.747-9.053c2.428-2.428 5.642-3.761 9.067-3.761s6.639 1.333 9.067 3.761c3.13 3.13 4.407 7.579 3.439 11.888-0.070 0.295-0.365 0.491-0.674 0.421s-0.491-0.365-0.421-0.674c0.884-3.944-0.281-8-3.144-10.849-2.203-2.204-5.151-3.425-8.267-3.425s-6.063 1.221-8.267 3.425c-2.204 2.204-3.425 5.151-3.425 8.267s1.221 6.063 3.425 8.267c4.561 4.561 11.986 4.561 16.533 0 0.225-0.225 0.575-0.225 0.8 0l2.933 2.933c0.225 0.225 0.225 0.575 0 0.8s-0.575 0.225-0.8 0l-2.54-2.54c-2.442 2.246-5.558 3.354-8.66 3.354z"></path>
</symbol>
<symbol id="icon-instagram" viewBox="0 0 32 32">
<path d="M4.109 0.001h23.784c2.26 0 4.107 1.848 4.107 4.108v23.784c0 2.259-1.847 4.106-4.107 4.106h-23.784c-2.26 0-4.109-1.847-4.109-4.106v-23.784c0-2.26 1.849-4.108 4.109-4.108zM23.312 3.555c-0.793 0-1.441 0.65-1.441 1.443v3.447c0 0.793 0.647 1.441 1.441 1.441h3.616c0.792 0 1.441-0.648 1.441-1.441v-3.447c0-0.793-0.649-1.443-1.441-1.443h-3.616zM28.382 13.533h-2.816c0.267 0.872 0.412 1.792 0.412 2.748 0 5.321-4.455 9.636-9.948 9.636-5.492 0-9.947-4.316-9.947-9.636 0-0.956 0.146-1.876 0.412-2.748h-2.938v13.518c0 0.7 0.572 1.27 1.271 1.27h22.283c0.7 0 1.27-0.57 1.27-1.27v-13.518zM16.030 9.704c-3.548 0-6.426 2.787-6.426 6.228 0 3.438 2.878 6.227 6.426 6.227 3.55 0 6.428-2.789 6.428-6.227 0-3.441-2.878-6.228-6.428-6.228z"></path>
</symbol>
<symbol id="icon-youtube" viewBox="0 0 32 32">
<path d="M30.753 6.673c-1.155-1.373-3.288-1.933-7.361-1.933h-14.785c-4.166 0-6.335 0.596-7.486 2.058-1.122 1.425-1.122 3.525-1.122 6.432v5.54c0 5.631 1.331 8.49 8.608 8.49h14.785c3.532 0 5.489-0.494 6.755-1.706 1.298-1.243 1.852-3.272 1.852-6.784v-5.54c0-3.065-0.087-5.178-1.247-6.557zM20.544 16.765l-6.714 3.509c-0.15 0.078-0.314 0.117-0.478 0.117-0.186 0-0.371-0.050-0.535-0.149-0.309-0.187-0.497-0.522-0.497-0.883v-6.995c0-0.36 0.188-0.695 0.496-0.882s0.692-0.2 1.012-0.034l6.714 3.486c0.342 0.177 0.556 0.53 0.557 0.915s-0.213 0.738-0.554 0.916z"></path>
</symbol>
<symbol id="icon-facebook" viewBox="0 0 18 32">
<path d="M17.558 5.664c0 0.566-0.283 0.85-0.85 0.85h-3.115c-0.566 0-1.133 0.142-1.416 0.708-0.142 0.283-0.283 0.566-0.283 0.85v3.54h4.531c0.708 0 0.85 0.283 0.85 0.85v4.814c0 0.566-0.283 0.85-0.85 0.85h-4.673v13.027c0 0.425-0.142 0.708-0.425 0.85h-5.805c-0.425-0.142-0.566-0.425-0.566-0.85v-13.027h-4.106c-0.566 0-0.85-0.283-0.85-0.85v-4.956c0-0.566 0.283-0.85 0.85-0.85h4.106v-4.248c0.142-1.841 0.566-3.54 1.841-4.956 0.991-1.133 2.407-1.841 3.823-2.124 0.425-0.142 0.708-0.142 1.133-0.142h5.097c0.566 0.425 0.708 0.708 0.708 1.133v4.531z"></path>
</symbol>
<symbol id="icon-courseshat" viewBox="0 0 38 32">
<path d="M37.13 27.386h-0.495v-17.455c0-1.342-0.764-2.508-1.992-3.045l-14.968-6.596c-0.857-0.382-1.848-0.382-2.705 0l-14.978 6.596c-1.228 0.547-1.992 1.714-1.992 3.045 0 1.342 0.764 2.508 1.992 3.045l3.747 1.652s0 0.021 0 0.041v9.28c0 1.982 1.187 3.747 3.025 4.501l7.69 3.169c0.599 0.248 1.239 0.372 1.868 0.372s1.27-0.124 1.868-0.372l7.69-3.169c1.156-0.475 2.075-1.363 2.591-2.508 0.114-0.258 0-0.568-0.258-0.681s-0.568 0-0.681 0.258c-0.403 0.898-1.135 1.6-2.044 1.972l-7.69 3.169c-0.31 0.124-0.63 0.196-0.96 0.237v-7.050c0-0.289-0.227-0.516-0.516-0.516s-0.516 0.227-0.516 0.516v7.050c-0.33-0.041-0.65-0.114-0.96-0.237l-7.69-3.169c-1.445-0.599-2.385-1.992-2.385-3.551v-8.867l10.199 4.501c0.434 0.186 0.898 0.289 1.352 0.289s0.929-0.093 1.352-0.289l10.199-4.501v5.801c0 0.289 0.227 0.516 0.516 0.516s0.516-0.227 0.516-0.516v-6.214s0-0.021 0-0.041l3.747-1.652c0.361-0.165 0.681-0.382 0.96-0.64v15.050h-0.495c-0.289 0-0.516 0.227-0.516 0.516s0.227 0.516 0.516 0.516h0.495v2.281c0 0.289 0.227 0.516 0.516 0.516s0.516-0.227 0.516-0.516v-2.281h0.495c0.289 0 0.516-0.227 0.516-0.516s-0.227-0.516-0.516-0.516zM34.219 12.036l-14.968 6.606c-0.599 0.258-1.28 0.258-1.879 0l-14.968-6.606c-0.846-0.372-1.373-1.177-1.373-2.106 0-0.919 0.526-1.724 1.373-2.106l14.968-6.596c0.599-0.258 1.28-0.258 1.879 0l14.968 6.606c0.846 0.372 1.373 1.177 1.373 2.106s-0.526 1.724-1.373 2.106zM22.472 9.363c0 0.289-0.227 0.516-0.516 0.516h-3.128v3.128c0 0.289-0.227 0.516-0.516 0.516s-0.516-0.227-0.516-0.516v-3.128h-3.128c-0.289 0-0.516-0.227-0.516-0.516s0.227-0.516 0.516-0.516h3.128v-3.128c0-0.289 0.227-0.516 0.516-0.516s0.516 0.227 0.516 0.516v3.128h3.128c0.289 0 0.516 0.227 0.516 0.516z"></path>
</symbol>
</defs>
</svg>
