<svg aria-hidden="true" style="position: absolute; width: 0; height: 0; overflow: hidden;" version="1.1" xmlns="http://www.w3.org/2000/svg" xmlns:xlink="http://www.w3.org/1999/xlink">
<defs>
<symbol id="icon-interactive" viewBox="0 0 32 32">
<path d="M21.089 32h-7.14c-0.088 0-0.169-0.038-0.232-0.1l-2.359-2.541c-0.878-0.947-1.362-2.177-1.362-3.464 0-1.845 0.979-3.533 2.554-4.436l1.104-0.634v-8.458c0-1.261 1.023-2.284 2.284-2.284s2.284 1.023 2.284 2.284v7.134l3.382 1.838c1.625 0.891 2.635 2.604 2.635 4.455 0 0.954-0.27 1.889-0.772 2.698l-2.102 3.357c-0.056 0.094-0.157 0.144-0.264 0.144zM14.086 31.373h6.827l2.008-3.213c0.445-0.709 0.678-1.525 0.678-2.366 0-1.625-0.885-3.125-2.309-3.909l-3.545-1.926c-0.1-0.056-0.163-0.163-0.163-0.276v-7.316c0-0.91-0.74-1.656-1.656-1.656s-1.656 0.74-1.656 1.656v12.034c0 0.176-0.138 0.314-0.314 0.314s-0.314-0.138-0.314-0.314v-2.855l-0.791 0.458c-1.38 0.791-2.234 2.271-2.234 3.865 0 1.161 0.427 2.24 1.192 3.068l2.271 2.441z"></path>
<path d="M13.961 20.355s-0.063 0-0.094-0.013c-3.031-0.941-5.070-3.708-5.070-6.883 0-3.972 3.231-7.209 7.203-7.209s7.203 3.231 7.203 7.209c0 3.018-1.907 5.741-4.737 6.776-0.163 0.056-0.345-0.025-0.402-0.188s0.025-0.345 0.188-0.402c2.585-0.941 4.329-3.426 4.329-6.187 0-3.627-2.949-6.582-6.576-6.582s-6.576 2.949-6.576 6.582c0 2.905 1.857 5.427 4.631 6.287 0.163 0.050 0.257 0.226 0.207 0.395-0.044 0.132-0.163 0.22-0.301 0.22z"></path>
<path d="M29.816 4.367c-1.205 0-2.184-0.979-2.184-2.184s0.979-2.184 2.184-2.184 2.184 0.979 2.184 2.184-0.979 2.184-2.184 2.184zM29.816 0.627c-0.86 0-1.556 0.696-1.556 1.556s0.696 1.556 1.556 1.556 1.556-0.696 1.556-1.556-0.696-1.556-1.556-1.556z"></path>
<path d="M29.816 25.914c-1.205 0-2.184-0.979-2.184-2.184s0.979-2.184 2.184-2.184 2.184 0.979 2.184 2.184-0.979 2.184-2.184 2.184zM29.816 22.174c-0.86 0-1.556 0.696-1.556 1.556s0.696 1.556 1.556 1.556 1.556-0.696 1.556-1.556-0.696-1.556-1.556-1.556z"></path>
<path d="M21.973 10.171c-0.082 0-0.163-0.031-0.226-0.094-0.119-0.126-0.119-0.326 0.006-0.446l6.544-6.331c0.125-0.119 0.326-0.119 0.445 0.006s0.119 0.326-0.006 0.446l-6.544 6.331c-0.063 0.056-0.138 0.088-0.22 0.088z"></path>
<path d="M28.518 22.883c-0.082 0-0.163-0.031-0.226-0.094l-6.168-6.224c-0.119-0.125-0.119-0.32 0-0.445 0.119-0.119 0.32-0.119 0.445 0l6.168 6.224c0.119 0.125 0.119 0.32 0 0.445-0.063 0.063-0.138 0.088-0.22 0.088z"></path>
<path d="M2.184 4.367c-1.205 0-2.184-0.979-2.184-2.184s0.979-2.184 2.184-2.184 2.184 0.979 2.184 2.184-0.979 2.184-2.184 2.184zM2.184 0.627c-0.86 0-1.556 0.696-1.556 1.556s0.696 1.556 1.556 1.556 1.556-0.696 1.556-1.556-0.696-1.556-1.556-1.556z"></path>
<path d="M2.184 25.914c-1.205 0-2.184-0.979-2.184-2.184s0.979-2.184 2.184-2.184 2.184 0.979 2.184 2.184-0.979 2.184-2.184 2.184zM2.184 22.174c-0.86 0-1.556 0.696-1.556 1.556s0.696 1.556 1.556 1.556 1.556-0.696 1.556-1.556-0.696-1.556-1.556-1.556z"></path>
<path d="M10.096 10.089c-0.075 0-0.157-0.031-0.213-0.088l-6.613-6.243c-0.126-0.119-0.132-0.32-0.013-0.446s0.32-0.132 0.446-0.013l6.607 6.249c0.126 0.119 0.132 0.32 0.013 0.446-0.063 0.063-0.144 0.1-0.226 0.1z"></path>
<path d="M3.482 22.883c-0.082 0-0.157-0.031-0.22-0.088-0.126-0.119-0.126-0.32 0-0.445l6.155-6.224c0.119-0.126 0.32-0.126 0.446 0 0.126 0.119 0.126 0.32 0 0.445l-6.155 6.224c-0.063 0.063-0.144 0.094-0.226 0.094z"></path>
</symbol>
<symbol id="icon-trainer" viewBox="0 0 32 32">
<path d="M5.528 5.854c-1.613 0-2.93-1.311-2.93-2.93s1.318-2.924 2.93-2.924 2.93 1.311 2.93 2.93-1.311 2.93-2.93 2.93zM5.528 0.627c-1.267 0-2.303 1.029-2.303 2.303s1.029 2.303 2.303 2.303 2.303-1.029 2.303-2.303-1.029-2.303-2.303-2.303z"></path>
<path d="M19.884 9.744h-14.344c-0.176 0-0.314-0.138-0.314-0.314s0.138-0.314 0.314-0.314h14.344c0.176 0 0.314 0.138 0.314 0.314s-0.138 0.314-0.314 0.314z"></path>
<path d="M31.68 18.855h-15.68c-0.176 0-0.314-0.138-0.314-0.314v-18.227c0-0.176 0.138-0.314 0.314-0.314h15.68c0.176 0 0.314 0.138 0.314 0.314v18.227c0 0.176-0.138 0.314-0.314 0.314zM16.307 18.227h15.053v-17.6h-15.053v17.6z"></path>
<path d="M10.742 18.855h-10.428c-0.176 0-0.314-0.138-0.314-0.314v-3.896c0-3.049 2.478-5.528 5.528-5.528h5.214c0.176 0 0.314 0.138 0.314 0.314v9.117c0 0.176-0.138 0.314-0.314 0.314zM0.627 18.227h9.801v-8.489h-4.9c-2.704 0-4.9 2.196-4.9 4.9v3.583z"></path>
<path d="M15.994 32c-2.372 0-4.298-1.933-4.298-4.304s1.933-4.304 4.298-4.304 4.298 1.933 4.298 4.304-1.933 4.304-4.298 4.304zM15.994 24.025c-2.027 0-3.671 1.65-3.671 3.677s1.65 3.677 3.671 3.677 3.671-1.65 3.671-3.677-1.65-3.677-3.671-3.677z"></path>
<path d="M27.702 32c-2.372 0-4.298-1.933-4.298-4.304s1.926-4.304 4.298-4.304 4.298 1.933 4.298 4.304-1.933 4.304-4.298 4.304zM27.702 24.025c-2.027 0-3.671 1.65-3.671 3.677s1.65 3.677 3.671 3.677 3.671-1.65 3.671-3.677-1.65-3.677-3.671-3.677z"></path>
<path d="M4.298 32c-2.372 0-4.298-1.933-4.298-4.304s1.933-4.304 4.298-4.304 4.298 1.933 4.298 4.304-1.926 4.304-4.298 4.304zM4.298 24.025c-2.027 0-3.671 1.65-3.671 3.677s1.65 3.677 3.671 3.677 3.671-1.65 3.671-3.677-1.65-3.677-3.671-3.677z"></path>
</symbol>
<symbol id="icon-access" viewBox="0 0 32 32">
<path d="M25.042 26.686h-18.083c-3.84 0-6.958-3.125-6.958-6.958v-10.905c0-3.84 3.125-6.958 6.958-6.958h0.797c0.176 0 0.314 0.138 0.314 0.314s-0.138 0.314-0.314 0.314h-0.797c-3.489 0-6.331 2.836-6.331 6.331v10.905c0 3.489 2.842 6.331 6.331 6.331h18.083c3.495 0 6.331-2.842 6.331-6.331v-10.905c0-1.694-0.659-3.282-1.857-4.48s-2.786-1.857-4.48-1.857h-0.866c-0.176 0-0.314-0.138-0.314-0.314s0.138-0.314 0.314-0.314h0.866c1.857 0 3.608 0.722 4.919 2.039s2.039 3.062 2.039 4.919v10.899c0 3.84-3.125 6.958-6.958 6.958z"></path>
<path d="M22.381 32h-12.762c-0.176 0-0.314-0.138-0.314-0.314s0.138-0.314 0.314-0.314h12.762c0.176 0 0.314 0.138 0.314 0.314s-0.138 0.314-0.314 0.314z"></path>
<path d="M24.91 21.697c-1.092 0-1.976-0.885-1.976-1.976s0.885-1.976 1.976-1.976 1.976 0.885 1.976 1.976-0.885 1.976-1.976 1.976zM24.91 18.372c-0.74 0-1.349 0.602-1.349 1.349s0.602 1.349 1.349 1.349 1.349-0.602 1.349-1.349-0.602-1.349-1.349-1.349zM18.924 21.697c-1.092 0-1.976-0.885-1.976-1.976s0.885-1.976 1.976-1.976 1.976 0.885 1.976 1.976-0.885 1.976-1.976 1.976zM18.924 18.372c-0.74 0-1.349 0.602-1.349 1.349s0.602 1.349 1.349 1.349 1.349-0.602 1.349-1.349-0.602-1.349-1.349-1.349zM12.944 21.697c-1.092 0-1.976-0.885-1.976-1.976s0.885-1.976 1.976-1.976 1.976 0.885 1.976 1.976-0.885 1.976-1.976 1.976zM12.944 18.372c-0.74 0-1.349 0.602-1.349 1.349s0.602 1.349 1.349 1.349 1.349-0.602 1.349-1.349-0.602-1.349-1.349-1.349zM6.958 21.697c-1.092 0-1.976-0.885-1.976-1.976s0.885-1.976 1.976-1.976 1.976 0.885 1.976 1.976-0.885 1.976-1.976 1.976zM6.958 18.372c-0.74 0-1.349 0.602-1.349 1.349s0.602 1.349 1.349 1.349 1.349-0.602 1.349-1.349-0.602-1.349-1.349-1.349z"></path>
<path d="M20.988 14.783c-0.176 0-0.314-0.138-0.314-0.314 0-2.322-1.907-4.204-4.248-4.204h-0.847c-2.34 0-4.248 1.889-4.248 4.204 0 0.176-0.138 0.314-0.314 0.314s-0.314-0.138-0.314-0.314c0-2.667 2.19-4.831 4.875-4.831h0.847c2.692 0 4.875 2.171 4.875 4.831 0 0.176-0.138 0.314-0.314 0.314z"></path>
<path d="M15.937 5.942c-1.638 0-2.974-1.336-2.974-2.974s1.336-2.968 2.974-2.968 2.974 1.336 2.974 2.974-1.33 2.974-2.974 2.974zM15.937 0.627c-1.293 0-2.347 1.054-2.347 2.347s1.054 2.347 2.347 2.347 2.347-1.054 2.347-2.347-1.054-2.347-2.347-2.347z"></path>
</symbol>
<symbol id="icon-logout" viewBox="0 0 32 32">
<path d="M13.389 32h-8.898c-2.47 0-4.491-2.007-4.491-4.491v-23.018c0-2.484 2.007-4.491 4.491-4.491h8.898c2.47 0 4.491 2.007 4.491 4.491v3.663c0 0.309-0.253 0.561-0.561 0.561s-0.561-0.253-0.561-0.561v-3.663c0-1.853-1.516-3.368-3.368-3.368h-8.898c-1.853 0-3.368 1.516-3.368 3.368v23.032c0 1.853 1.516 3.368 3.368 3.368h8.898c1.853 0 3.368-1.516 3.368-3.368v-3.593c0-0.309 0.253-0.561 0.561-0.561s0.561 0.253 0.561 0.561v3.593c0 2.47-2.007 4.491-4.491 4.491z"></path>
<path d="M23.803 24.744c-0.239 0-0.477-0.042-0.702-0.14-0.688-0.281-1.109-0.926-1.109-1.67v-1.432c0-0.309 0.253-0.561 0.561-0.561s0.561 0.253 0.561 0.561v1.432c0 0.421 0.323 0.589 0.421 0.632s0.449 0.154 0.758-0.14l5.993-5.965c0.393-0.393 0.604-0.898 0.604-1.46s-0.211-1.067-0.604-1.46l-5.993-5.965c-0.295-0.295-0.646-0.182-0.758-0.14-0.098 0.042-0.421 0.211-0.421 0.632v5.628c0 1.025-0.842 1.867-1.867 1.867h-15.453c-0.309 0-0.561-0.253-0.561-0.561s0.253-0.561 0.561-0.561h15.439c0.407 0 0.744-0.337 0.744-0.744v-5.628c0-0.744 0.421-1.375 1.109-1.67 0.688-0.281 1.446-0.14 1.979 0.393l5.993 5.965c0.604 0.604 0.94 1.403 0.94 2.246s-0.337 1.656-0.94 2.246l-5.993 5.965c-0.351 0.351-0.8 0.533-1.263 0.533z"></path>
</symbol>
<symbol id="icon-tablepeople" viewBox="0 0 33 32">
<path d="M3.229 11.529c0.843 0 1.514 0.686 1.514 1.514s-0.686 1.514-1.514 1.514-1.514-0.686-1.514-1.514 0.686-1.514 1.514-1.514zM3.229 10.386c-1.471 0-2.657 1.186-2.657 2.657s1.186 2.657 2.657 2.657 2.657-1.186 2.657-2.657-1.186-2.657-2.657-2.657v0z"></path>
<path d="M7.229 32h-1.329c-3.257 0-5.9-2.643-5.9-5.9v-5.057c0-1.786 1.457-3.229 3.229-3.229s3.229 1.457 3.229 3.229v1.329c0 1.157 0.943 2.086 2.086 2.086h2.4c0.314 0 0.571 0.257 0.571 0.571s-0.257 0.571-0.571 0.571h-2.4c-1.786 0-3.229-1.457-3.229-3.229v-1.329c0-1.157-0.943-2.086-2.086-2.086s-2.086 0.943-2.086 2.086v5.057c0 2.629 2.129 4.757 4.757 4.757h1.329c0.314 0 0.571 0.257 0.571 0.571s-0.257 0.571-0.571 0.571z"></path>
<path d="M29.343 11.529c0.843 0 1.514 0.686 1.514 1.514s-0.686 1.514-1.514 1.514-1.514-0.686-1.514-1.514 0.686-1.514 1.514-1.514zM29.343 10.386c-1.471 0-2.657 1.186-2.657 2.657s1.186 2.657 2.657 2.657 2.657-1.186 2.657-2.657-1.186-2.657-2.657-2.657v0z"></path>
<path d="M26.671 32h-1.329c-0.314 0-0.571-0.257-0.571-0.571s0.257-0.571 0.571-0.571h1.329c2.614 0 4.757-2.129 4.757-4.757v-5.057c0-1.157-0.943-2.086-2.086-2.086s-2.086 0.943-2.086 2.086v1.329c0 1.786-1.457 3.229-3.229 3.229h-2.4c-0.314 0-0.571-0.257-0.571-0.571s0.257-0.571 0.571-0.571h2.4c1.157 0 2.086-0.943 2.086-2.086v-1.329c0-1.786 1.457-3.229 3.229-3.229s3.229 1.457 3.229 3.229v5.057c0 3.257-2.643 5.9-5.9 5.9z"></path>
<path d="M20.471 16.857v13.429h-8.371v-13.429h8.371zM21.614 15.714h-10.657v15.714h10.657v-15.714z"></path>
<path d="M21.614 12.557c-0.314 0-0.571-0.257-0.571-0.571v-1.329c0-1.157-0.943-2.086-2.086-2.086h-5.329c-1.157 0-2.086 0.943-2.086 2.086v1.329c0 0.314-0.257 0.571-0.571 0.571s-0.571-0.257-0.571-0.571v-1.329c0-1.786 1.457-3.229 3.229-3.229h5.329c1.786 0 3.229 1.457 3.229 3.229v1.329c0 0.314-0.257 0.571-0.571 0.571z"></path>
<path d="M16.286 1.143c0.843 0 1.514 0.686 1.514 1.514s-0.686 1.514-1.514 1.514-1.514-0.686-1.514-1.514 0.686-1.514 1.514-1.514zM16.286 0c-1.471 0-2.657 1.186-2.657 2.657s1.186 2.657 2.657 2.657 2.657-1.186 2.657-2.657-1.186-2.657-2.657-2.657v0z"></path>
</symbol>
<symbol id="icon-document" viewBox="0 0 31 32">
<path d="M7.719 17.193c3.635 0 6.596 2.947 6.596 6.568s-2.961 6.568-6.596 6.568-6.596-2.961-6.596-6.582 2.961-6.568 6.596-6.568zM7.719 16.070c-4.267 0-7.719 3.439-7.719 7.691s3.453 7.691 7.719 7.691 7.719-3.439 7.719-7.691-3.453-7.691-7.719-7.691v0z"></path>
<path d="M28.94 32h-21.221c-0.309 0-0.561-0.253-0.561-0.561s0.253-0.561 0.561-0.561h21.221c0.758 0 1.361-0.604 1.361-1.361v-22.316l-6.091-6.077h-14.554c-0.758 0-1.361 0.603-1.361 1.361v13.586c0 0.309-0.253 0.561-0.561 0.561s-0.561-0.253-0.561-0.561v-13.586c0-1.375 1.123-2.484 2.498-2.484h14.793c0.154 0 0.295 0.056 0.393 0.168l6.428 6.4c0.112 0.112 0.168 0.253 0.168 0.393v22.554c0 1.375-1.123 2.484-2.498 2.484z"></path>
<path d="M25.572 3.27l2.596 2.582h-2.596v-2.582zM24.449 0.561v6.4h6.428l-6.428-6.4z"></path>
<path d="M26.372 18.54h-13.544c-0.309 0-0.561-0.253-0.561-0.561s0.253-0.561 0.561-0.561h13.544c0.309 0 0.561 0.253 0.561 0.561s-0.253 0.561-0.561 0.561z"></path>
<path d="M26.372 12.786h-14.147c-0.309 0-0.561-0.253-0.561-0.561s0.253-0.561 0.561-0.561h14.147c0.309 0 0.561 0.253 0.561 0.561s-0.253 0.561-0.561 0.561z"></path>
<path d="M26.372 24.309h-10.933c-0.309 0-0.561-0.253-0.561-0.561s0.253-0.561 0.561-0.561h10.933c0.309 0 0.561 0.253 0.561 0.561s-0.253 0.561-0.561 0.561z"></path>
<path d="M6.372 27.074c-0.14 0-0.281-0.056-0.393-0.168l-1.937-1.923c-0.225-0.225-0.225-0.575 0-0.8s0.575-0.225 0.8 0l1.937 1.923c0.225 0.225 0.225 0.575 0 0.8-0.112 0.112-0.253 0.168-0.393 0.168z"></path>
<path d="M6.372 27.074c-0.14 0-0.295-0.056-0.393-0.168-0.225-0.225-0.225-0.575 0-0.8l4.505-4.491c0.225-0.225 0.575-0.225 0.8 0s0.225 0.575 0 0.8l-4.505 4.491c-0.112 0.112-0.253 0.168-0.393 0.168z"></path>
</symbol>
<symbol id="icon-notification" viewBox="0 0 31 32">
<path d="M0.571 13.886c-0.314 0-0.571-0.257-0.571-0.571 0-4.343 2.343-8.5 6.257-11.114 0.257-0.171 0.614-0.1 0.8 0.157 0.171 0.257 0.1 0.614-0.157 0.786-3.657 2.443-5.757 6.143-5.757 10.171 0 0.314-0.257 0.571-0.571 0.571z"></path>
<path d="M30.571 13.886c-0.314 0-0.571-0.257-0.571-0.571 0-4.029-2.1-7.729-5.743-10.171-0.257-0.171-0.329-0.529-0.157-0.786s0.529-0.329 0.8-0.157c3.914 2.614 6.257 6.771 6.257 11.129 0 0.314-0.257 0.571-0.571 0.571z"></path>
<path d="M15.571 6.471c4.329 0 7.857 3.071 7.857 6.843v7.457c0 0.629 0.514 1.143 1.143 1.143 1 0 1.857 0.7 1.857 1.514s-0.857 1.514-1.857 1.514h-18c-1 0-1.857-0.7-1.857-1.514s0.857-1.514 1.857-1.514c0.629 0 1.143-0.514 1.143-1.143v-7.457c0-3.771 3.529-6.843 7.857-6.843zM15.571 5.329c-4.986 0-9 3.571-9 7.986v7.457c-1.643 0-3 1.2-3 2.657s1.357 2.657 3 2.657h18c1.657 0 3-1.2 3-2.657s-1.357-2.657-3-2.657v-7.457c0-4.4-4.043-7.986-9-7.986v0z"></path>
<path d="M15.571 1.143c1.029 0 1.857 0.686 1.857 1.514s-0.829 1.514-1.857 1.514-1.857-0.686-1.857-1.514 0.829-1.514 1.857-1.514zM15.571 0c-1.657 0-3 1.186-3 2.657s1.343 2.657 3 2.657 3-1.186 3-2.657-1.343-2.657-3-2.657v0z"></path>
<path d="M15.571 32c-1.971 0-3.571-1.457-3.571-3.229v-2.657c0-0.314 0.257-0.571 0.571-0.571s0.571 0.257 0.571 0.571v2.657c0 1.157 1.086 2.086 2.429 2.086s2.429-0.943 2.429-2.086v-2.657c0-0.314 0.257-0.571 0.571-0.571s0.571 0.257 0.571 0.571v2.657c0 1.786-1.6 3.229-3.571 3.229z"></path>
</symbol>
<symbol id="icon-profile" viewBox="0 0 32 32">
<path d="M16.010 17.517c-2.519 0-4.573-2.065-4.573-4.604s2.054-4.604 4.573-4.604 4.573 2.065 4.573 4.604-2.054 4.604-4.573 4.604zM16.010 9.352c-1.951 0-3.541 1.6-3.541 3.572s1.59 3.572 3.541 3.572 3.541-1.6 3.541-3.572-1.59-3.572-3.541-3.572z"></path>
<path d="M22.132 23.68h-12.243c-0.289 0-0.516-0.227-0.516-0.516 0-3.685 2.973-6.679 6.637-6.679s6.637 2.994 6.637 6.679c0 0.289-0.227 0.516-0.516 0.516zM10.426 22.648h11.169c-0.258-2.87-2.663-5.13-5.585-5.13s-5.326 2.261-5.585 5.13z"></path>
<path d="M28.408 7.226c-1.992 0-3.613-1.621-3.613-3.613s1.621-3.613 3.613-3.613 3.613 1.621 3.613 3.613-1.621 3.613-3.613 3.613zM28.408 1.032c-1.425 0-2.581 1.156-2.581 2.581s1.156 2.581 2.581 2.581 2.581-1.156 2.581-2.581-1.156-2.581-2.581-2.581z"></path>
<path d="M3.613 32c-1.992 0-3.613-1.621-3.613-3.613s1.621-3.613 3.613-3.613 3.613 1.621 3.613 3.613-1.621 3.613-3.613 3.613zM3.613 25.806c-1.425 0-2.581 1.156-2.581 2.581s1.156 2.581 2.581 2.581 2.581-1.156 2.581-2.581-1.156-2.581-2.581-2.581z"></path>
<path d="M3.613 7.226c-1.992 0-3.613-1.621-3.613-3.613s1.621-3.613 3.613-3.613 3.613 1.621 3.613 3.613-1.621 3.613-3.613 3.613zM3.613 1.032c-1.425 0-2.581 1.156-2.581 2.581s1.156 2.581 2.581 2.581 2.581-1.156 2.581-2.581-1.156-2.581-2.581-2.581z"></path>
<path d="M28.408 32c-1.992 0-3.613-1.621-3.613-3.613s1.621-3.613 3.613-3.613 3.613 1.621 3.613 3.613-1.621 3.613-3.613 3.613zM28.408 25.806c-1.425 0-2.581 1.156-2.581 2.581s1.156 2.581 2.581 2.581 2.581-1.156 2.581-2.581-1.156-2.581-2.581-2.581z"></path>
<path d="M16.010 30.937c-8.237 0-14.947-6.699-14.947-14.937s6.71-14.937 14.947-14.937c6.988 0 12.975 4.738 14.555 11.53 0.062 0.279-0.103 0.557-0.382 0.619s-0.557-0.114-0.619-0.382c-1.476-6.317-7.050-10.735-13.554-10.735-7.67 0-13.915 6.235-13.915 13.905s6.245 13.905 13.915 13.905c6.503 0 12.077-4.418 13.554-10.735 0.062-0.279 0.341-0.454 0.619-0.382 0.279 0.062 0.454 0.341 0.382 0.619-1.579 6.792-7.566 11.53-14.555 11.53z"></path>
</symbol>
<symbol id="icon-magnifier" viewBox="0 0 32 32">
<path d="M17.305 17.867c-0.14 0-0.295-0.056-0.393-0.168-0.225-0.225-0.225-0.575 0-0.8 2.26-2.26 2.26-5.923 0-8.182-0.225-0.225-0.225-0.575 0-0.8s0.575-0.225 0.8 0c2.695 2.695 2.695 7.074 0 9.768-0.112 0.112-0.253 0.168-0.393 0.168z"></path>
<path d="M28.407 32c-0.688 0-1.333-0.267-1.825-0.758l-4.323-4.323c-0.098-0.112-0.168-0.253-0.168-0.393s0.056-0.295 0.168-0.393l3.86-3.86c0.225-0.225 0.575-0.225 0.8 0l4.323 4.323c0.996 0.997 0.996 2.639 0 3.635v0s-1.025 1.025-1.025 1.025c-0.491 0.491-1.137 0.758-1.825 0.758zM23.453 26.526l3.93 3.93c0.547 0.547 1.502 0.547 2.049 0l1.025-1.025c0.561-0.561 0.561-1.488 0-2.049l-3.93-3.93-3.074 3.074zM30.849 29.825v0 0z"></path>
<path d="M12.814 25.628c-3.284 0-6.568-1.249-9.067-3.747-2.414-2.414-3.747-5.642-3.747-9.067s1.333-6.639 3.747-9.053c2.428-2.428 5.642-3.761 9.067-3.761s6.639 1.333 9.067 3.761c3.13 3.13 4.407 7.579 3.439 11.888-0.070 0.295-0.365 0.491-0.674 0.421s-0.491-0.365-0.421-0.674c0.884-3.944-0.281-8-3.144-10.849-2.203-2.204-5.151-3.425-8.267-3.425s-6.063 1.221-8.267 3.425c-2.204 2.204-3.425 5.151-3.425 8.267s1.221 6.063 3.425 8.267c4.561 4.561 11.986 4.561 16.533 0 0.225-0.225 0.575-0.225 0.8 0l2.933 2.933c0.225 0.225 0.225 0.575 0 0.8s-0.575 0.225-0.8 0l-2.54-2.54c-2.442 2.246-5.558 3.354-8.66 3.354z"></path>
</symbol>
<symbol id="icon-instagram" viewBox="0 0 32 32">
<path d="M4.109 0.001h23.784c2.26 0 4.107 1.848 4.107 4.108v23.784c0 2.259-1.847 4.106-4.107 4.106h-23.784c-2.26 0-4.109-1.847-4.109-4.106v-23.784c0-2.26 1.849-4.108 4.109-4.108zM23.312 3.555c-0.793 0-1.441 0.65-1.441 1.443v3.447c0 0.793 0.647 1.441 1.441 1.441h3.616c0.792 0 1.441-0.648 1.441-1.441v-3.447c0-0.793-0.649-1.443-1.441-1.443h-3.616zM28.382 13.533h-2.816c0.267 0.872 0.412 1.792 0.412 2.748 0 5.321-4.455 9.636-9.948 9.636-5.492 0-9.947-4.316-9.947-9.636 0-0.956 0.146-1.876 0.412-2.748h-2.938v13.518c0 0.7 0.572 1.27 1.271 1.27h22.283c0.7 0 1.27-0.57 1.27-1.27v-13.518zM16.030 9.704c-3.548 0-6.426 2.787-6.426 6.228 0 3.438 2.878 6.227 6.426 6.227 3.55 0 6.428-2.789 6.428-6.227 0-3.441-2.878-6.228-6.428-6.228z"></path>
</symbol>
<symbol id="icon-youtube" viewBox="0 0 32 32">
<path d="M30.753 6.673c-1.155-1.373-3.288-1.933-7.361-1.933h-14.785c-4.166 0-6.335 0.596-7.486 2.058-1.122 1.425-1.122 3.525-1.122 6.432v5.54c0 5.631 1.331 8.49 8.608 8.49h14.785c3.532 0 5.489-0.494 6.755-1.706 1.298-1.243 1.852-3.272 1.852-6.784v-5.54c0-3.065-0.087-5.178-1.247-6.557zM20.544 16.765l-6.714 3.509c-0.15 0.078-0.314 0.117-0.478 0.117-0.186 0-0.371-0.050-0.535-0.149-0.309-0.187-0.497-0.522-0.497-0.883v-6.995c0-0.36 0.188-0.695 0.496-0.882s0.692-0.2 1.012-0.034l6.714 3.486c0.342 0.177 0.556 0.53 0.557 0.915s-0.213 0.738-0.554 0.916z"></path>
</symbol>
<symbol id="icon-facebook" viewBox="0 0 18 32">
<path d="M17.558 5.664c0 0.566-0.283 0.85-0.85 0.85h-3.115c-0.566 0-1.133 0.142-1.416 0.708-0.142 0.283-0.283 0.566-0.283 0.85v3.54h4.531c0.708 0 0.85 0.283 0.85 0.85v4.814c0 0.566-0.283 0.85-0.85 0.85h-4.673v13.027c0 0.425-0.142 0.708-0.425 0.85h-5.805c-0.425-0.142-0.566-0.425-0.566-0.85v-13.027h-4.106c-0.566 0-0.85-0.283-0.85-0.85v-4.956c0-0.566 0.283-0.85 0.85-0.85h4.106v-4.248c0.142-1.841 0.566-3.54 1.841-4.956 0.991-1.133 2.407-1.841 3.823-2.124 0.425-0.142 0.708-0.142 1.133-0.142h5.097c0.566 0.425 0.708 0.708 0.708 1.133v4.531z"></path>
</symbol>
<symbol id="icon-courseshat" viewBox="0 0 38 32">
<path d="M37.13 27.386h-0.495v-17.455c0-1.342-0.764-2.508-1.992-3.045l-14.968-6.596c-0.857-0.382-1.848-0.382-2.705 0l-14.978 6.596c-1.228 0.547-1.992 1.714-1.992 3.045 0 1.342 0.764 2.508 1.992 3.045l3.747 1.652s0 0.021 0 0.041v9.28c0 1.982 1.187 3.747 3.025 4.501l7.69 3.169c0.599 0.248 1.239 0.372 1.868 0.372s1.27-0.124 1.868-0.372l7.69-3.169c1.156-0.475 2.075-1.363 2.591-2.508 0.114-0.258 0-0.568-0.258-0.681s-0.568 0-0.681 0.258c-0.403 0.898-1.135 1.6-2.044 1.972l-7.69 3.169c-0.31 0.124-0.63 0.196-0.96 0.237v-7.050c0-0.289-0.227-0.516-0.516-0.516s-0.516 0.227-0.516 0.516v7.050c-0.33-0.041-0.65-0.114-0.96-0.237l-7.69-3.169c-1.445-0.599-2.385-1.992-2.385-3.551v-8.867l10.199 4.501c0.434 0.186 0.898 0.289 1.352 0.289s0.929-0.093 1.352-0.289l10.199-4.501v5.801c0 0.289 0.227 0.516 0.516 0.516s0.516-0.227 0.516-0.516v-6.214s0-0.021 0-0.041l3.747-1.652c0.361-0.165 0.681-0.382 0.96-0.64v15.050h-0.495c-0.289 0-0.516 0.227-0.516 0.516s0.227 0.516 0.516 0.516h0.495v2.281c0 0.289 0.227 0.516 0.516 0.516s0.516-0.227 0.516-0.516v-2.281h0.495c0.289 0 0.516-0.227 0.516-0.516s-0.227-0.516-0.516-0.516zM34.219 12.036l-14.968 6.606c-0.599 0.258-1.28 0.258-1.879 0l-14.968-6.606c-0.846-0.372-1.373-1.177-1.373-2.106 0-0.919 0.526-1.724 1.373-2.106l14.968-6.596c0.599-0.258 1.28-0.258 1.879 0l14.968 6.606c0.846 0.372 1.373 1.177 1.373 2.106s-0.526 1.724-1.373 2.106zM22.472 9.363c0 0.289-0.227 0.516-0.516 0.516h-3.128v3.128c0 0.289-0.227 0.516-0.516 0.516s-0.516-0.227-0.516-0.516v-3.128h-3.128c-0.289 0-0.516-0.227-0.516-0.516s0.227-0.516 0.516-0.516h3.128v-3.128c0-0.289 0.227-0.516 0.516-0.516s0.516 0.227 0.516 0.516v3.128h3.128c0.289 0 0.516 0.227 0.516 0.516z"></path>
</symbol>
</defs>
</svg>
