<?xml version="1.0" encoding="UTF-8"?>
<svg id="Layer_2" xmlns="http://www.w3.org/2000/svg" xmlns:xlink="http://www.w3.org/1999/xlink" viewBox="0 0 1600 1400">
  <defs>
    <style>
      .cls-1 {
        fill: url(#linear-gradient-8);
      }

      .cls-2 {
        fill: url(#linear-gradient-7);
      }

      .cls-3 {
        fill: url(#linear-gradient-5);
      }

      .cls-4 {
        fill: url(#linear-gradient-6);
      }

      .cls-5 {
        fill: url(#linear-gradient-9);
      }

      .cls-6 {
        fill: url(#linear-gradient-4);
      }

      .cls-7 {
        fill: url(#linear-gradient-3);
      }

      .cls-8 {
        fill: url(#linear-gradient-2);
      }

      .cls-9 {
        fill: url(#linear-gradient);
      }

      .cls-10 {
        fill: url(#linear-gradient-43);
      }

      .cls-11 {
        fill: url(#linear-gradient-40);
      }

      .cls-12 {
        fill: url(#linear-gradient-41);
      }

      .cls-13 {
        fill: url(#linear-gradient-42);
      }

      .cls-14 {
        fill: url(#linear-gradient-49);
      }

      .cls-15 {
        fill: url(#linear-gradient-48);
      }

      .cls-16 {
        fill: url(#linear-gradient-45);
      }

      .cls-17 {
        fill: url(#linear-gradient-47);
      }

      .cls-18 {
        fill: url(#linear-gradient-44);
      }

      .cls-19 {
        fill: url(#linear-gradient-46);
      }

      .cls-20 {
        fill: url(#linear-gradient-10);
      }

      .cls-21 {
        fill: url(#linear-gradient-11);
      }

      .cls-22 {
        fill: url(#linear-gradient-12);
      }

      .cls-23 {
        fill: url(#linear-gradient-13);
      }

      .cls-24 {
        fill: url(#linear-gradient-19);
      }

      .cls-25 {
        fill: url(#linear-gradient-14);
      }

      .cls-26 {
        fill: url(#linear-gradient-21);
      }

      .cls-27 {
        fill: url(#linear-gradient-20);
      }

      .cls-28 {
        fill: url(#linear-gradient-22);
      }

      .cls-29 {
        fill: url(#linear-gradient-23);
      }

      .cls-30 {
        fill: url(#linear-gradient-28);
      }

      .cls-31 {
        fill: url(#linear-gradient-25);
      }

      .cls-32 {
        fill: url(#linear-gradient-32);
      }

      .cls-33 {
        fill: url(#linear-gradient-31);
      }

      .cls-34 {
        fill: url(#linear-gradient-33);
      }

      .cls-35 {
        fill: url(#linear-gradient-30);
      }

      .cls-36 {
        fill: url(#linear-gradient-15);
      }

      .cls-37 {
        fill: url(#linear-gradient-16);
      }

      .cls-38 {
        fill: url(#linear-gradient-17);
      }

      .cls-39 {
        fill: url(#linear-gradient-18);
      }

      .cls-40 {
        fill: url(#linear-gradient-35);
      }

      .cls-41 {
        fill: url(#linear-gradient-34);
      }

      .cls-42 {
        fill: url(#linear-gradient-36);
      }

      .cls-43 {
        fill: url(#linear-gradient-38);
      }

      .cls-44 {
        fill: url(#linear-gradient-27);
      }

      .cls-45 {
        fill: url(#linear-gradient-24);
      }

      .cls-46 {
        fill: url(#linear-gradient-26);
      }

      .cls-47 {
        fill: url(#linear-gradient-29);
      }

      .cls-48 {
        fill: url(#linear-gradient-37);
      }

      .cls-49 {
        fill: url(#linear-gradient-39);
      }

      .cls-50 {
        fill: url(#linear-gradient-57);
      }

      .cls-51 {
        fill: url(#linear-gradient-58);
      }

      .cls-52 {
        fill: url(#linear-gradient-59);
      }

      .cls-53 {
        fill: url(#linear-gradient-53);
      }

      .cls-54 {
        fill: url(#linear-gradient-54);
      }

      .cls-55 {
        fill: url(#linear-gradient-55);
      }

      .cls-56 {
        fill: url(#linear-gradient-56);
      }

      .cls-57 {
        fill: url(#linear-gradient-50);
      }

      .cls-58 {
        fill: url(#linear-gradient-51);
      }

      .cls-59 {
        fill: url(#linear-gradient-52);
      }

      .cls-60 {
        fill: url(#linear-gradient-67);
      }

      .cls-61 {
        fill: url(#linear-gradient-68);
      }

      .cls-62 {
        fill: url(#linear-gradient-69);
      }

      .cls-63 {
        fill: url(#linear-gradient-63);
      }

      .cls-64 {
        fill: url(#linear-gradient-64);
      }

      .cls-65 {
        fill: url(#linear-gradient-65);
      }

      .cls-66 {
        fill: url(#linear-gradient-66);
      }

      .cls-67 {
        fill: url(#linear-gradient-60);
      }

      .cls-68 {
        fill: url(#linear-gradient-61);
      }

      .cls-69 {
        fill: url(#linear-gradient-62);
      }

      .cls-70 {
        fill: url(#linear-gradient-78);
      }

      .cls-71 {
        fill: url(#linear-gradient-75);
      }

      .cls-72 {
        fill: url(#linear-gradient-72);
      }

      .cls-73 {
        fill: url(#linear-gradient-77);
      }

      .cls-74 {
        fill: url(#linear-gradient-74);
      }

      .cls-75 {
        fill: url(#linear-gradient-76);
      }

      .cls-76 {
        fill: url(#linear-gradient-71);
      }

      .cls-77 {
        fill: url(#linear-gradient-73);
      }

      .cls-78 {
        fill: url(#linear-gradient-70);
      }

      .cls-79 {
        opacity: .5;
      }
    </style>
    <linearGradient id="linear-gradient" x1="800" y1="314.33" x2="800" y2="1187.99" gradientUnits="userSpaceOnUse">
      <stop offset="0" stop-color="#ababab" stop-opacity="0"/>
      <stop offset="1" stop-color="#d2d2d2"/>
    </linearGradient>
    <linearGradient id="linear-gradient-2" x1="800" y1="314.33" x2="800" y2="1187.99" xlink:href="#linear-gradient"/>
    <linearGradient id="linear-gradient-3" x1="800" y1="314.33" x2="800" y2="1187.99" xlink:href="#linear-gradient"/>
    <linearGradient id="linear-gradient-4" x1="800" y1="314.33" x2="800" y2="1187.99" xlink:href="#linear-gradient"/>
    <linearGradient id="linear-gradient-5" x1="800" y1="314.33" x2="800" y2="1187.99" xlink:href="#linear-gradient"/>
    <linearGradient id="linear-gradient-6" x1="800" y1="314.33" x2="800" y2="1187.99" xlink:href="#linear-gradient"/>
    <linearGradient id="linear-gradient-7" x1="800" y1="314.33" x2="800" xlink:href="#linear-gradient"/>
    <linearGradient id="linear-gradient-8" x1="800" y1="314.33" x2="800" y2="1187.99" xlink:href="#linear-gradient"/>
    <linearGradient id="linear-gradient-9" x1="800" y1="314.33" x2="800" y2="1187.99" xlink:href="#linear-gradient"/>
    <linearGradient id="linear-gradient-10" x1="800" y1="314.33" x2="800" y2="1187.99" xlink:href="#linear-gradient"/>
    <linearGradient id="linear-gradient-11" x1="800" y1="314.33" x2="800" y2="1187.99" xlink:href="#linear-gradient"/>
    <linearGradient id="linear-gradient-12" x1="800" y1="314.33" x2="800" y2="1187.99" xlink:href="#linear-gradient"/>
    <linearGradient id="linear-gradient-13" x1="800" y1="314.33" x2="800" y2="1187.99" xlink:href="#linear-gradient"/>
    <linearGradient id="linear-gradient-14" x1="800" y1="314.33" x2="800" y2="1187.99" xlink:href="#linear-gradient"/>
    <linearGradient id="linear-gradient-15" x1="800" y1="314.33" x2="800" y2="1187.99" xlink:href="#linear-gradient"/>
    <linearGradient id="linear-gradient-16" x1="800" y1="314.33" x2="800" y2="1187.99" xlink:href="#linear-gradient"/>
    <linearGradient id="linear-gradient-17" x1="800" y1="314.33" x2="800" y2="1187.99" xlink:href="#linear-gradient"/>
    <linearGradient id="linear-gradient-18" x1="800" y1="314.33" x2="800" y2="1187.99" xlink:href="#linear-gradient"/>
    <linearGradient id="linear-gradient-19" x1="800" y1="314.33" x2="800" y2="1187.99" xlink:href="#linear-gradient"/>
    <linearGradient id="linear-gradient-20" x1="800" y1="314.33" x2="800" y2="1187.99" xlink:href="#linear-gradient"/>
    <linearGradient id="linear-gradient-21" x1="800" y1="314.33" x2="800" y2="1187.99" xlink:href="#linear-gradient"/>
    <linearGradient id="linear-gradient-22" x1="800" y1="314.33" x2="800" y2="1187.99" xlink:href="#linear-gradient"/>
    <linearGradient id="linear-gradient-23" x1="800" y1="314.33" x2="800" y2="1187.99" xlink:href="#linear-gradient"/>
    <linearGradient id="linear-gradient-24" x1="800" y1="314.33" x2="800" y2="1187.99" xlink:href="#linear-gradient"/>
    <linearGradient id="linear-gradient-25" x1="800" y1="314.33" x2="800" y2="1187.99" xlink:href="#linear-gradient"/>
    <linearGradient id="linear-gradient-26" x1="800" y1="314.33" x2="800" y2="1187.99" xlink:href="#linear-gradient"/>
    <linearGradient id="linear-gradient-27" x1="800" y1="314.33" x2="800" y2="1187.99" xlink:href="#linear-gradient"/>
    <linearGradient id="linear-gradient-28" x1="800" y1="314.33" x2="800" y2="1187.99" xlink:href="#linear-gradient"/>
    <linearGradient id="linear-gradient-29" x1="800" y1="314.33" x2="800" y2="1187.99" xlink:href="#linear-gradient"/>
    <linearGradient id="linear-gradient-30" x1="800" y1="314.33" x2="800" y2="1187.99" xlink:href="#linear-gradient"/>
    <linearGradient id="linear-gradient-31" x1="800" y1="314.33" x2="800" y2="1187.99" xlink:href="#linear-gradient"/>
    <linearGradient id="linear-gradient-32" x1="800" y1="314.33" x2="800" y2="1187.99" xlink:href="#linear-gradient"/>
    <linearGradient id="linear-gradient-33" x1="800" y1="314.33" x2="800" y2="1187.99" xlink:href="#linear-gradient"/>
    <linearGradient id="linear-gradient-34" x1="800" y1="314.33" x2="800" y2="1187.99" xlink:href="#linear-gradient"/>
    <linearGradient id="linear-gradient-35" x1="800" y1="314.33" x2="800" y2="1187.99" xlink:href="#linear-gradient"/>
    <linearGradient id="linear-gradient-36" x1="800" y1="314.33" x2="800" y2="1187.99" xlink:href="#linear-gradient"/>
    <linearGradient id="linear-gradient-37" x1="800" y1="314.33" x2="800" y2="1187.99" xlink:href="#linear-gradient"/>
    <linearGradient id="linear-gradient-38" x1="800" y1="314.33" x2="800" xlink:href="#linear-gradient"/>
    <linearGradient id="linear-gradient-39" x1="800" y1="314.33" x2="800" y2="1187.99" xlink:href="#linear-gradient"/>
    <linearGradient id="linear-gradient-40" x1="800" y1="314.33" x2="800" y2="1187.99" xlink:href="#linear-gradient"/>
    <linearGradient id="linear-gradient-41" x1="800" y1="314.33" x2="800" y2="1187.99" xlink:href="#linear-gradient"/>
    <linearGradient id="linear-gradient-42" x1="800" y1="314.33" x2="800" y2="1187.99" xlink:href="#linear-gradient"/>
    <linearGradient id="linear-gradient-43" x1="800" y1="314.33" x2="800" y2="1187.99" xlink:href="#linear-gradient"/>
    <linearGradient id="linear-gradient-44" x1="800" y1="314.33" x2="800" y2="1187.99" xlink:href="#linear-gradient"/>
    <linearGradient id="linear-gradient-45" x1="800" y1="314.33" x2="800" y2="1187.99" xlink:href="#linear-gradient"/>
    <linearGradient id="linear-gradient-46" x1="800" y1="314.33" x2="800" y2="1187.99" xlink:href="#linear-gradient"/>
    <linearGradient id="linear-gradient-47" x1="800" y1="314.33" x2="800" y2="1187.99" xlink:href="#linear-gradient"/>
    <linearGradient id="linear-gradient-48" x1="800" y1="314.33" x2="800" y2="1187.99" xlink:href="#linear-gradient"/>
    <linearGradient id="linear-gradient-49" x1="800" y1="314.33" x2="800" y2="1187.99" xlink:href="#linear-gradient"/>
    <linearGradient id="linear-gradient-50" x1="800" y1="314.33" x2="800" y2="1187.99" xlink:href="#linear-gradient"/>
    <linearGradient id="linear-gradient-51" x1="800" y1="314.33" x2="800" y2="1187.99" xlink:href="#linear-gradient"/>
    <linearGradient id="linear-gradient-52" x1="800" y1="314.33" x2="800" y2="1187.99" xlink:href="#linear-gradient"/>
    <linearGradient id="linear-gradient-53" x1="800" y1="314.33" x2="800" y2="1187.99" xlink:href="#linear-gradient"/>
    <linearGradient id="linear-gradient-54" x1="800" y1="314.33" x2="800" y2="1187.99" xlink:href="#linear-gradient"/>
    <linearGradient id="linear-gradient-55" x1="800" y1="314.33" x2="800" y2="1187.99" xlink:href="#linear-gradient"/>
    <linearGradient id="linear-gradient-56" x1="800" y1="314.33" x2="800" y2="1187.99" xlink:href="#linear-gradient"/>
    <linearGradient id="linear-gradient-57" x1="800" y1="314.33" x2="800" y2="1187.99" xlink:href="#linear-gradient"/>
    <linearGradient id="linear-gradient-58" x1="800" y1="314.33" x2="800" y2="1187.99" xlink:href="#linear-gradient"/>
    <linearGradient id="linear-gradient-59" x1="800" y1="314.33" x2="800" y2="1187.99" xlink:href="#linear-gradient"/>
    <linearGradient id="linear-gradient-60" x1="800" y1="314.33" x2="800" y2="1187.99" xlink:href="#linear-gradient"/>
    <linearGradient id="linear-gradient-61" x1="800" y1="314.33" x2="800" y2="1187.99" xlink:href="#linear-gradient"/>
    <linearGradient id="linear-gradient-62" x1="800" y1="314.33" x2="800" y2="1187.99" xlink:href="#linear-gradient"/>
    <linearGradient id="linear-gradient-63" x1="800" y1="314.33" x2="800" y2="1187.99" xlink:href="#linear-gradient"/>
    <linearGradient id="linear-gradient-64" x1="800" y1="314.33" x2="800" y2="1187.99" xlink:href="#linear-gradient"/>
    <linearGradient id="linear-gradient-65" x1="800" y1="314.33" x2="800" y2="1187.99" xlink:href="#linear-gradient"/>
    <linearGradient id="linear-gradient-66" x1="800" y1="314.33" x2="800" y2="1187.99" xlink:href="#linear-gradient"/>
    <linearGradient id="linear-gradient-67" x1="800" y1="314.33" x2="800" y2="1187.99" xlink:href="#linear-gradient"/>
    <linearGradient id="linear-gradient-68" x1="800" y1="314.33" x2="800" y2="1187.99" xlink:href="#linear-gradient"/>
    <linearGradient id="linear-gradient-69" x1="800" y1="314.33" x2="800" y2="1187.99" xlink:href="#linear-gradient"/>
    <linearGradient id="linear-gradient-70" x1="800" y1="314.33" x2="800" y2="1187.99" xlink:href="#linear-gradient"/>
    <linearGradient id="linear-gradient-71" x1="800" y1="314.33" x2="800" y2="1187.99" xlink:href="#linear-gradient"/>
    <linearGradient id="linear-gradient-72" x1="800" y1="314.33" x2="800" y2="1187.99" xlink:href="#linear-gradient"/>
    <linearGradient id="linear-gradient-73" x1="800" y1="314.33" x2="800" y2="1187.99" xlink:href="#linear-gradient"/>
    <linearGradient id="linear-gradient-74" x1="800" y1="314.33" x2="800" y2="1187.99" xlink:href="#linear-gradient"/>
    <linearGradient id="linear-gradient-75" x1="800" y1="314.33" x2="800" y2="1187.99" xlink:href="#linear-gradient"/>
    <linearGradient id="linear-gradient-76" x1="800" y1="314.33" x2="800" y2="1187.99" xlink:href="#linear-gradient"/>
    <linearGradient id="linear-gradient-77" x1="800" y1="314.33" x2="800" y2="1187.99" xlink:href="#linear-gradient"/>
    <linearGradient id="linear-gradient-78" x1="800" y1="314.33" x2="800" y2="1187.99" xlink:href="#linear-gradient"/>
  </defs>
  <g id="NOTIFICARE-01">
    <g id="note_x5F_wide">
      <g id="back_x5F_texture-1_x5F_wide">
        <g id="back_x5F_texture_x5F_01" class="cls-79">
          <g>
            <path class="cls-9" d="M1600,1238.37c-102.27-104.76-231.57-175.3-386.88-159.03-209.08,21.9-388.2,154.05-571.77,239.05-92.84,42.99-193.38,80.46-298.38,81.59-138.53,1.48-252.24-68.66-342.97-161.61v-4.93c90.73,92.95,204.44,163.09,342.97,161.61,105-1.13,205.54-38.6,298.38-81.59,183.57-85,362.69-217.16,571.77-239.05,155.31-16.26,284.62,54.27,386.88,159.03v4.93Z"/>
            <path class="cls-8" d="M1600,1224.44c-102.27-104.76-231.57-175.3-386.88-159.03-209.08,21.9-388.2,154.05-571.77,239.05-92.84,42.99-193.38,80.46-298.38,81.59-138.53,1.49-252.24-68.66-342.97-161.61v-4.93c90.73,92.95,204.44,163.09,342.97,161.61,105-1.13,205.54-38.6,298.38-81.59,183.57-85.01,362.69-217.16,571.77-239.05,155.31-16.26,284.62,54.27,386.88,159.03v4.93Z"/>
            <path class="cls-7" d="M1600,1210.52c-102.27-104.76-231.57-175.3-386.88-159.03-209.08,21.9-388.2,154.05-571.77,239.05-92.84,42.99-193.38,80.46-298.38,81.59-138.53,1.48-252.24-68.66-342.97-161.61v-4.93c90.73,92.95,204.44,163.09,342.97,161.61,105-1.13,205.54-38.6,298.38-81.59,183.57-85.01,362.69-217.16,571.77-239.05,155.31-16.26,284.62,54.27,386.88,159.03v4.93Z"/>
            <path class="cls-6" d="M1600,1196.6c-102.27-104.76-231.57-175.3-386.88-159.03-209.08,21.9-388.2,154.05-571.77,239.05-92.84,42.99-193.38,80.46-298.38,81.59-138.53,1.49-252.24-68.66-342.97-161.61v-4.93c90.73,92.95,204.44,163.1,342.97,161.61,105-1.13,205.54-38.6,298.38-81.59,183.57-85.01,362.69-217.16,571.77-239.05,155.31-16.26,284.62,54.27,386.88,159.03v4.93Z"/>
            <path class="cls-3" d="M1600,1182.68c-102.27-104.76-231.57-175.3-386.88-159.03-209.08,21.9-388.2,154.05-571.77,239.05-92.84,42.99-193.38,80.46-298.38,81.59-138.53,1.48-252.24-68.66-342.97-161.61v-4.93c90.73,92.95,204.44,163.09,342.97,161.61,105-1.13,205.54-38.6,298.38-81.59,183.57-85.01,362.69-217.16,571.77-239.05,155.31-16.26,284.62,54.27,386.88,159.03v4.93Z"/>
            <path class="cls-4" d="M1600,1168.75c-102.27-104.76-231.57-175.3-386.88-159.03-209.08,21.9-388.2,154.05-571.77,239.05-92.84,42.99-193.38,80.46-298.38,81.59-138.53,1.49-252.24-68.66-342.97-161.61v-4.93c90.73,92.95,204.44,163.09,342.97,161.61,105-1.13,205.54-38.6,298.38-81.59,183.57-85.01,362.69-217.16,571.77-239.05,155.31-16.26,284.62,54.27,386.88,159.03v4.93Z"/>
            <path class="cls-2" d="M1600,1154.83c-102.27-104.76-231.57-175.3-386.88-159.03-209.08,21.9-388.2,154.05-571.77,239.05-92.84,42.99-193.38,80.46-298.38,81.59-138.53,1.49-252.24-68.66-342.97-161.61v-4.93c90.73,92.95,204.44,163.09,342.97,161.61,105-1.13,205.54-38.6,298.38-81.59,183.57-85.01,362.69-217.16,571.77-239.05,155.31-16.26,284.62,54.27,386.88,159.03v4.93Z"/>
            <path class="cls-1" d="M1600,1140.91c-102.27-104.76-231.57-175.3-386.88-159.03-209.08,21.9-388.2,154.05-571.77,239.05-92.84,42.99-193.38,80.46-298.38,81.59-138.53,1.48-252.24-68.66-342.97-161.61v-4.93c90.73,92.95,204.44,163.09,342.97,161.61,105-1.13,205.54-38.6,298.38-81.59,183.57-85,362.69-217.16,571.77-239.05,155.31-16.26,284.62,54.27,386.88,159.03v4.93Z"/>
            <path class="cls-5" d="M1600,1126.98c-102.27-104.76-231.57-175.3-386.88-159.03-209.08,21.9-388.2,154.05-571.77,239.05-92.84,42.99-193.38,80.46-298.38,81.59-138.53,1.49-252.24-68.66-342.97-161.61v-4.93c90.73,92.95,204.44,163.1,342.97,161.61,105-1.13,205.54-38.6,298.38-81.59,183.57-85.01,362.69-217.16,571.77-239.05,155.31-16.26,284.62,54.27,386.88,159.03v4.93Z"/>
            <path class="cls-20" d="M1600,1113.06c-102.27-104.76-231.57-175.3-386.88-159.03-209.08,21.9-388.2,154.05-571.77,239.05-92.84,42.99-193.38,80.46-298.38,81.59-138.53,1.48-252.24-68.66-342.97-161.61v-4.93c90.73,92.95,204.44,163.09,342.97,161.61,105-1.13,205.54-38.6,298.38-81.59,183.57-85.01,362.69-217.16,571.77-239.05,155.31-16.26,284.62,54.27,386.88,159.03v4.93Z"/>
            <path class="cls-21" d="M1600,1099.14c-102.27-104.76-231.57-175.3-386.88-159.03-209.08,21.9-388.2,154.05-571.77,239.05-92.84,42.99-193.38,80.46-298.38,81.59-138.53,1.49-252.24-68.66-342.97-161.61v-4.93c90.73,92.95,204.44,163.1,342.97,161.61,105-1.13,205.54-38.6,298.38-81.59,183.57-85.01,362.69-217.16,571.77-239.05,155.31-16.26,284.62,54.27,386.88,159.03v4.93Z"/>
            <path class="cls-22" d="M1600,1085.21c-102.27-104.76-231.57-175.3-386.88-159.03-209.08,21.9-388.2,154.05-571.77,239.05-92.84,42.99-193.38,80.46-298.38,81.59-138.53,1.48-252.24-68.66-342.97-161.61v-4.93c90.73,92.95,204.44,163.09,342.97,161.61,105-1.13,205.54-38.6,298.38-81.59,183.57-85.01,362.69-217.16,571.77-239.05,155.31-16.26,284.62,54.27,386.88,159.03v4.93Z"/>
            <path class="cls-23" d="M1600,1071.29c-102.27-104.76-231.57-175.3-386.88-159.03-209.08,21.9-388.2,154.05-571.77,239.05-92.84,42.99-193.38,80.46-298.38,81.59-138.53,1.48-252.24-68.66-342.97-161.61v-4.93c90.73,92.95,204.44,163.09,342.97,161.61,105-1.13,205.54-38.6,298.38-81.59,183.57-85.01,362.69-217.16,571.77-239.05,155.31-16.26,284.62,54.27,386.88,159.03v4.93Z"/>
            <path class="cls-25" d="M1600,1057.37c-102.27-104.76-231.57-175.3-386.88-159.03-209.08,21.9-388.2,154.05-571.77,239.05-92.84,42.99-193.38,80.46-298.38,81.59-138.53,1.49-252.24-68.66-342.97-161.61v-4.93c90.73,92.95,204.44,163.09,342.97,161.61,105-1.13,205.54-38.6,298.38-81.59,183.57-85.01,362.69-217.16,571.77-239.05,155.31-16.26,284.62,54.27,386.88,159.03v4.93Z"/>
            <path class="cls-36" d="M1600,1043.45c-102.27-104.76-231.57-175.3-386.88-159.03-209.08,21.9-388.2,154.05-571.77,239.05-92.84,42.99-193.38,80.46-298.38,81.59-138.53,1.48-252.24-68.66-342.97-161.61v-4.93c90.73,92.95,204.44,163.09,342.97,161.61,105-1.13,205.54-38.6,298.38-81.59,183.57-85,362.69-217.16,571.77-239.05,155.31-16.26,284.62,54.27,386.88,159.03v4.93Z"/>
            <path class="cls-37" d="M1600,1029.52c-102.27-104.76-231.57-175.3-386.88-159.03-209.08,21.9-388.2,154.05-571.77,239.05-92.84,42.99-193.38,80.46-298.38,81.59-138.53,1.49-252.24-68.66-342.97-161.61v-4.93c90.73,92.95,204.44,163.09,342.97,161.61,105-1.13,205.54-38.6,298.38-81.59,183.57-85.01,362.69-217.16,571.77-239.05,155.31-16.26,284.62,54.27,386.88,159.03v4.93Z"/>
            <path class="cls-38" d="M1600,1015.6c-102.27-104.76-231.57-175.3-386.88-159.03-209.08,21.9-388.2,154.05-571.77,239.05-92.84,42.99-193.38,80.46-298.38,81.59-138.53,1.48-252.24-68.66-342.97-161.61v-4.93c90.73,92.95,204.44,163.09,342.97,161.61,105-1.13,205.54-38.6,298.38-81.59,183.57-85,362.69-217.16,571.77-239.05,155.31-16.26,284.62,54.27,386.88,159.03v4.93Z"/>
            <path class="cls-39" d="M1600,1001.68c-102.27-104.76-231.57-175.3-386.88-159.03-209.08,21.9-388.2,154.05-571.77,239.05-92.84,42.99-193.38,80.46-298.38,81.59-138.53,1.49-252.24-68.66-342.97-161.61v-4.93c90.73,92.95,204.44,163.1,342.97,161.61,105-1.13,205.54-38.6,298.38-81.59,183.57-85.01,362.69-217.16,571.77-239.05,155.31-16.26,284.62,54.27,386.88,159.03v4.93Z"/>
            <path class="cls-24" d="M1600,987.75c-102.27-104.76-231.57-175.3-386.88-159.03-209.08,21.9-388.2,154.05-571.77,239.05-92.84,42.99-193.38,80.46-298.38,81.59-138.53,1.48-252.24-68.66-342.97-161.61v-4.93c90.73,92.95,204.44,163.09,342.97,161.61,105-1.13,205.54-38.6,298.38-81.59,183.57-85.01,362.69-217.16,571.77-239.05,155.31-16.26,284.62,54.27,386.88,159.03v4.93Z"/>
            <path class="cls-27" d="M1600,973.83c-102.27-104.76-231.57-175.3-386.88-159.03-209.08,21.9-388.2,154.05-571.77,239.05-92.84,42.99-193.38,80.46-298.38,81.59-138.53,1.49-252.24-68.66-342.97-161.61v-4.93c90.73,92.95,204.44,163.1,342.97,161.61,105-1.13,205.54-38.6,298.38-81.59,183.57-85.01,362.69-217.16,571.77-239.05,155.31-16.26,284.62,54.27,386.88,159.03v4.93Z"/>
            <path class="cls-26" d="M1600,959.91c-102.27-104.76-231.57-175.3-386.88-159.03-209.08,21.9-388.2,154.05-571.77,239.05-92.84,42.99-193.38,80.46-298.38,81.59-138.53,1.48-252.24-68.66-342.97-161.61v-4.93c90.73,92.95,204.44,163.09,342.97,161.61,105-1.13,205.54-38.6,298.38-81.59,183.57-85.01,362.69-217.16,571.77-239.05,155.31-16.26,284.62,54.27,386.88,159.03v4.93Z"/>
            <path class="cls-28" d="M1600,945.98c-102.27-104.76-231.57-175.3-386.88-159.03-209.08,21.9-388.2,154.05-571.77,239.05-92.84,42.99-193.38,80.46-298.38,81.59-138.53,1.48-252.24-68.66-342.97-161.61v-4.93c90.73,92.95,204.44,163.09,342.97,161.61,105-1.13,205.54-38.6,298.38-81.59,183.57-85.01,362.69-217.16,571.77-239.05,155.31-16.26,284.62,54.27,386.88,159.03v4.93Z"/>
            <path class="cls-29" d="M1600,932.06c-102.27-104.76-231.57-175.3-386.88-159.03-209.08,21.9-388.2,154.05-571.77,239.05-92.84,42.99-193.38,80.46-298.38,81.59-138.53,1.49-252.24-68.66-342.97-161.61v-4.93c90.73,92.95,204.44,163.09,342.97,161.61,105-1.13,205.54-38.6,298.38-81.59,183.57-85.01,362.69-217.16,571.77-239.05,155.31-16.26,284.62,54.27,386.88,159.03v4.93Z"/>
            <path class="cls-45" d="M1600,918.14c-102.27-104.76-231.57-175.3-386.88-159.03-209.08,21.9-388.2,154.05-571.77,239.05-92.84,42.99-193.38,80.46-298.38,81.59-138.53,1.48-252.24-68.66-342.97-161.61v-4.93c90.73,92.95,204.44,163.09,342.97,161.61,105-1.13,205.54-38.6,298.38-81.59,183.57-85.01,362.69-217.16,571.77-239.05,155.31-16.26,284.62,54.27,386.88,159.03v4.93Z"/>
            <path class="cls-31" d="M1600,904.22c-102.27-104.76-231.57-175.3-386.88-159.03-209.08,21.9-388.2,154.05-571.77,239.05-92.84,42.99-193.38,80.46-298.38,81.59-138.53,1.49-252.24-68.66-342.97-161.61v-4.93c90.73,92.95,204.44,163.1,342.97,161.61,105-1.13,205.54-38.6,298.38-81.59,183.57-85.01,362.69-217.16,571.77-239.05,155.31-16.26,284.62,54.27,386.88,159.03v4.93Z"/>
            <path class="cls-46" d="M1600,890.29c-102.27-104.76-231.57-175.3-386.88-159.03-209.08,21.9-388.2,154.05-571.77,239.05-92.84,42.99-193.38,80.46-298.38,81.59-138.53,1.48-252.24-68.66-342.97-161.61v-4.93c90.73,92.95,204.44,163.09,342.97,161.61,105-1.13,205.54-38.6,298.38-81.59,183.57-85.01,362.69-217.16,571.77-239.05,155.31-16.26,284.62,54.27,386.88,159.03v4.93Z"/>
            <path class="cls-44" d="M1600,876.37c-102.27-104.76-231.57-175.3-386.88-159.03-209.08,21.9-388.2,154.05-571.77,239.05-92.84,42.99-193.38,80.46-298.38,81.59-138.53,1.49-252.24-68.66-342.97-161.61v-4.93c90.73,92.95,204.44,163.1,342.97,161.61,105-1.13,205.54-38.6,298.38-81.59,183.57-85.01,362.69-217.16,571.77-239.05,155.31-16.26,284.62,54.27,386.88,159.03v4.93Z"/>
            <path class="cls-30" d="M1600,862.45c-102.27-104.76-231.57-175.3-386.88-159.03-209.08,21.9-388.2,154.05-571.77,239.05-92.84,42.99-193.38,80.46-298.38,81.59-138.53,1.48-252.24-68.66-342.97-161.61v-4.93c90.73,92.95,204.44,163.09,342.97,161.61,105-1.13,205.54-38.6,298.38-81.59,183.57-85.01,362.69-217.16,571.77-239.05,155.31-16.26,284.62,54.27,386.88,159.03v4.93Z"/>
            <path class="cls-47" d="M1600,848.52c-102.27-104.76-231.57-175.3-386.88-159.03-209.08,21.9-388.2,154.05-571.77,239.05-92.84,42.99-193.38,80.46-298.38,81.59-138.53,1.48-252.24-68.66-342.97-161.61v-4.93c90.73,92.95,204.44,163.09,342.97,161.61,105-1.13,205.54-38.6,298.38-81.59,183.57-85.01,362.69-217.16,571.77-239.05,155.31-16.26,284.62,54.27,386.88,159.03v4.93Z"/>
            <path class="cls-35" d="M1600,834.6c-102.27-104.76-231.57-175.3-386.88-159.03-209.08,21.9-388.2,154.05-571.77,239.05-92.84,42.99-193.38,80.46-298.38,81.59-138.53,1.48-252.24-68.66-342.97-161.61v-4.93c90.73,92.95,204.44,163.09,342.97,161.61,105-1.13,205.54-38.6,298.38-81.59,183.57-85.01,362.69-217.16,571.77-239.05,155.31-16.26,284.62,54.27,386.88,159.03v4.93Z"/>
            <path class="cls-33" d="M1600,820.68c-102.27-104.76-231.57-175.3-386.88-159.03-209.08,21.9-388.2,154.05-571.77,239.05-92.84,42.99-193.38,80.46-298.38,81.59-138.53,1.48-252.24-68.66-342.97-161.61v-4.93c90.73,92.95,204.44,163.09,342.97,161.61,105-1.13,205.54-38.6,298.38-81.59,183.57-85.01,362.69-217.16,571.77-239.05,155.31-16.26,284.62,54.27,386.88,159.03v4.93Z"/>
            <path class="cls-32" d="M1600,806.75c-102.27-104.76-231.57-175.3-386.88-159.03-209.08,21.9-388.2,154.05-571.77,239.05-92.84,42.99-193.38,80.46-298.38,81.59-138.53,1.49-252.24-68.66-342.97-161.61v-4.93c90.73,92.95,204.44,163.09,342.97,161.61,105-1.13,205.54-38.6,298.38-81.59,183.57-85.01,362.69-217.16,571.77-239.05,155.31-16.26,284.62,54.27,386.88,159.03v4.93Z"/>
            <path class="cls-34" d="M1600,792.83c-102.27-104.76-231.57-175.3-386.88-159.03-209.08,21.9-388.2,154.05-571.77,239.05-92.84,42.99-193.38,80.46-298.38,81.59-138.53,1.48-252.24-68.66-342.97-161.61v-4.93c90.73,92.95,204.44,163.09,342.97,161.61,105-1.13,205.54-38.6,298.38-81.59,183.57-85.01,362.69-217.16,571.77-239.05,155.31-16.26,284.62,54.27,386.88,159.03v4.93Z"/>
            <path class="cls-41" d="M1600,778.91c-102.27-104.76-231.57-175.3-386.88-159.03-209.08,21.9-388.2,154.05-571.77,239.05-92.84,42.99-193.38,80.46-298.38,81.59-138.53,1.49-252.24-68.66-342.97-161.61v-4.93c90.73,92.95,204.44,163.1,342.97,161.61,105-1.13,205.54-38.6,298.38-81.59,183.57-85.01,362.69-217.16,571.77-239.05,155.31-16.26,284.62,54.27,386.88,159.03v4.93Z"/>
            <path class="cls-40" d="M1600,764.98c-102.27-104.76-231.57-175.3-386.88-159.03-209.08,21.9-388.2,154.05-571.77,239.05-92.84,42.99-193.38,80.46-298.38,81.59-138.53,1.48-252.24-68.66-342.97-161.61v-4.93c90.73,92.95,204.44,163.09,342.97,161.61,105-1.13,205.54-38.6,298.38-81.59,183.57-85.01,362.69-217.16,571.77-239.05,155.31-16.26,284.62,54.27,386.88,159.03v4.93Z"/>
            <path class="cls-42" d="M1600,751.06c-102.27-104.76-231.57-175.3-386.88-159.03-209.08,21.9-388.2,154.05-571.77,239.05-92.84,42.99-193.38,80.46-298.38,81.59-138.53,1.49-252.24-68.66-342.97-161.61v-4.93c90.73,92.95,204.44,163.09,342.97,161.61,105-1.13,205.54-38.6,298.38-81.59,183.57-85.01,362.69-217.16,571.77-239.05,155.31-16.26,284.62,54.27,386.88,159.03v4.93Z"/>
            <path class="cls-48" d="M1600,737.14c-102.27-104.76-231.57-175.3-386.88-159.03-209.08,21.9-388.2,154.05-571.77,239.05-92.84,42.99-193.38,80.46-298.38,81.59-138.53,1.48-252.24-68.66-342.97-161.61v-4.93c90.73,92.95,204.44,163.09,342.97,161.61,105-1.13,205.54-38.6,298.38-81.59,183.57-85.01,362.69-217.16,571.77-239.05,155.31-16.26,284.62,54.27,386.88,159.03v4.93Z"/>
            <path class="cls-43" d="M1600,723.22c-102.27-104.76-231.57-175.3-386.88-159.03-209.08,21.9-388.2,154.05-571.77,239.05-92.84,42.99-193.38,80.46-298.38,81.59-138.53,1.48-252.24-68.66-342.97-161.61v-4.93c90.73,92.95,204.44,163.09,342.97,161.61,105-1.13,205.54-38.6,298.38-81.59,183.57-85.01,362.69-217.16,571.77-239.05,155.31-16.26,284.62,54.27,386.88,159.03v4.93Z"/>
            <path class="cls-49" d="M1600,709.29c-102.27-104.76-231.57-175.3-386.88-159.03-209.08,21.9-388.2,154.05-571.77,239.05-92.84,42.99-193.38,80.46-298.38,81.59-138.53,1.49-252.24-68.66-342.97-161.61v-4.93c90.73,92.95,204.44,163.09,342.97,161.61,105-1.13,205.54-38.6,298.38-81.59,183.57-85.01,362.69-217.16,571.77-239.05,155.31-16.26,284.62,54.27,386.88,159.03v4.93Z"/>
            <path class="cls-11" d="M1600,695.37c-102.27-104.76-231.57-175.3-386.88-159.03-209.08,21.9-388.2,154.05-571.77,239.05-92.84,42.99-193.38,80.46-298.38,81.59-138.53,1.48-252.24-68.66-342.97-161.61v-4.93c90.73,92.95,204.44,163.09,342.97,161.61,105-1.13,205.54-38.6,298.38-81.59,183.57-85.01,362.69-217.16,571.77-239.05,155.31-16.26,284.62,54.27,386.88,159.03v4.93Z"/>
            <path class="cls-12" d="M1600,681.45c-102.27-104.76-231.57-175.3-386.88-159.03-209.08,21.9-388.2,154.05-571.77,239.05-92.84,42.99-193.38,80.46-298.38,81.59-138.53,1.49-252.24-68.66-342.97-161.61v-4.93c90.73,92.95,204.44,163.09,342.97,161.61,105-1.13,205.54-38.6,298.38-81.59,183.57-85.01,362.69-217.16,571.77-239.05,155.31-16.26,284.62,54.27,386.88,159.03v4.93Z"/>
            <path class="cls-13" d="M1600,667.52c-102.27-104.76-231.57-175.3-386.88-159.03-209.08,21.9-388.2,154.05-571.77,239.05-92.84,42.99-193.38,80.46-298.38,81.59-138.53,1.48-252.24-68.66-342.97-161.61v-4.93c90.73,92.95,204.44,163.09,342.97,161.61,105-1.13,205.54-38.6,298.38-81.59,183.57-85.01,362.69-217.16,571.77-239.05,155.31-16.26,284.62,54.27,386.88,159.03v4.93Z"/>
            <path class="cls-10" d="M1600,653.6c-102.27-104.76-231.57-175.3-386.88-159.03-209.08,21.9-388.2,154.05-571.77,239.05-92.84,42.99-193.38,80.46-298.38,81.59-138.53,1.49-252.24-68.66-342.97-161.61v-4.93c90.73,92.95,204.44,163.1,342.97,161.61,105-1.13,205.54-38.6,298.38-81.59,183.57-85.01,362.69-217.16,571.77-239.05,155.31-16.26,284.62,54.27,386.88,159.03v4.93Z"/>
            <path class="cls-18" d="M1600,639.68c-102.27-104.76-231.57-175.3-386.88-159.03-209.08,21.9-388.2,154.05-571.77,239.05-92.84,42.99-193.38,80.46-298.38,81.59-138.53,1.48-252.24-68.66-342.97-161.61v-4.93c90.73,92.95,204.44,163.09,342.97,161.61,105-1.13,205.54-38.6,298.38-81.59,183.57-85.01,362.69-217.16,571.77-239.05,155.31-16.26,284.62,54.27,386.88,159.03v4.93Z"/>
            <path class="cls-16" d="M1600,625.75c-102.27-104.76-231.57-175.3-386.88-159.03-209.08,21.9-388.2,154.05-571.77,239.05-92.84,42.99-193.38,80.46-298.38,81.59-138.53,1.49-252.24-68.66-342.97-161.61v-4.93c90.73,92.95,204.44,163.09,342.97,161.61,105-1.13,205.54-38.6,298.38-81.59,183.57-85.01,362.69-217.16,571.77-239.05,155.31-16.26,284.62,54.27,386.88,159.03v4.93Z"/>
            <path class="cls-19" d="M1600,611.83c-102.27-104.76-231.57-175.3-386.88-159.03-209.08,21.9-388.2,154.05-571.77,239.05-92.84,42.99-193.38,80.46-298.38,81.59-138.53,1.48-252.24-68.66-342.97-161.61v-4.93c90.73,92.95,204.44,163.09,342.97,161.61,105-1.13,205.54-38.6,298.38-81.59,183.57-85.01,362.69-217.16,571.77-239.05,155.31-16.26,284.62,54.27,386.88,159.03v4.93Z"/>
            <path class="cls-17" d="M1600,597.91c-102.27-104.76-231.57-175.3-386.88-159.03-209.08,21.9-388.2,154.05-571.77,239.05-92.84,42.99-193.38,80.46-298.38,81.59-138.53,1.48-252.24-68.66-342.97-161.61v-4.93c90.73,92.95,204.44,163.09,342.97,161.61,105-1.13,205.54-38.6,298.38-81.59,183.57-85,362.69-217.16,571.77-239.05,155.31-16.26,284.62,54.27,386.88,159.03v4.93Z"/>
            <path class="cls-15" d="M1600,583.99c-102.27-104.76-231.57-175.3-386.88-159.03-209.08,21.9-388.2,154.05-571.77,239.05-92.84,42.99-193.38,80.46-298.38,81.59-138.53,1.49-252.24-68.66-342.97-161.61v-4.93c90.73,92.95,204.44,163.09,342.97,161.61,105-1.13,205.54-38.6,298.38-81.59,183.57-85.01,362.69-217.16,571.77-239.05,155.31-16.26,284.62,54.27,386.88,159.03v4.93Z"/>
            <path class="cls-14" d="M1600,570.06c-102.27-104.76-231.57-175.3-386.88-159.03-209.08,21.9-388.2,154.05-571.77,239.05-92.84,42.99-193.38,80.46-298.38,81.59-138.53,1.48-252.24-68.66-342.97-161.61v-4.93c90.73,92.95,204.44,163.09,342.97,161.61,105-1.13,205.54-38.6,298.38-81.59,183.57-85.01,362.69-217.16,571.77-239.05,155.31-16.26,284.62,54.27,386.88,159.03v4.93Z"/>
            <path class="cls-57" d="M1600,556.14c-102.27-104.76-231.57-175.3-386.88-159.03-209.08,21.9-388.2,154.05-571.77,239.05-92.84,42.99-193.38,80.46-298.38,81.59-138.53,1.49-252.24-68.66-342.97-161.61v-4.93c90.73,92.95,204.44,163.09,342.97,161.61,105-1.13,205.54-38.6,298.38-81.59,183.57-85.01,362.69-217.16,571.77-239.05,155.31-16.26,284.62,54.27,386.88,159.03v4.93Z"/>
            <path class="cls-58" d="M1600,542.22c-102.27-104.76-231.57-175.3-386.88-159.03-209.08,21.9-388.2,154.05-571.77,239.05-92.84,42.99-193.38,80.46-298.38,81.59-138.53,1.48-252.24-68.66-342.97-161.61v-4.93c90.73,92.95,204.44,163.09,342.97,161.61,105-1.13,205.54-38.6,298.38-81.59,183.57-85.01,362.69-217.16,571.77-239.05,155.31-16.26,284.62,54.27,386.88,159.03v4.93Z"/>
            <path class="cls-59" d="M1600,528.29c-102.27-104.76-231.57-175.3-386.88-159.03-209.08,21.9-388.2,154.05-571.77,239.05-92.84,42.99-193.38,80.46-298.38,81.59-138.53,1.49-252.24-68.66-342.97-161.61v-4.93c90.73,92.95,204.44,163.1,342.97,161.61,105-1.13,205.54-38.6,298.38-81.59,183.57-85.01,362.69-217.16,571.77-239.05,155.31-16.26,284.62,54.27,386.88,159.03v4.93Z"/>
            <path class="cls-53" d="M1600,514.37c-102.27-104.76-231.57-175.3-386.88-159.03-209.08,21.9-388.2,154.05-571.77,239.05-92.84,42.99-193.38,80.46-298.38,81.59-138.53,1.48-252.24-68.66-342.97-161.61v-4.93c90.73,92.95,204.44,163.09,342.97,161.61,105-1.13,205.54-38.6,298.38-81.59,183.57-85.01,362.69-217.16,571.77-239.05,155.31-16.26,284.62,54.27,386.88,159.03v4.93Z"/>
            <path class="cls-54" d="M1600,500.45c-102.27-104.76-231.57-175.3-386.88-159.03-209.08,21.9-388.2,154.05-571.77,239.05-92.84,42.99-193.38,80.46-298.38,81.59-138.53,1.49-252.24-68.66-342.97-161.61v-4.93c90.73,92.95,204.44,163.09,342.97,161.61,105-1.13,205.54-38.6,298.38-81.59,183.57-85.01,362.69-217.16,571.77-239.05,155.31-16.26,284.62,54.27,386.88,159.03v4.93Z"/>
            <path class="cls-55" d="M1600,486.52c-102.27-104.76-231.57-175.3-386.88-159.03-209.08,21.9-388.2,154.05-571.77,239.05-92.84,42.99-193.38,80.46-298.38,81.59-138.53,1.48-252.24-68.66-342.97-161.61v-4.93c90.73,92.95,204.44,163.09,342.97,161.61,105-1.13,205.54-38.6,298.38-81.59,183.57-85.01,362.69-217.16,571.77-239.05,155.31-16.26,284.62,54.27,386.88,159.03v4.93Z"/>
            <path class="cls-56" d="M1600,472.6c-102.27-104.76-231.57-175.3-386.88-159.03-209.08,21.9-388.2,154.05-571.77,239.05-92.84,42.99-193.38,80.46-298.38,81.59-138.53,1.48-252.24-68.66-342.97-161.61v-4.93c90.73,92.95,204.44,163.09,342.97,161.61,105-1.13,205.54-38.6,298.38-81.59,183.57-85.01,362.69-217.16,571.77-239.05,155.31-16.26,284.62,54.27,386.88,159.03v4.93Z"/>
            <path class="cls-50" d="M1600,458.68c-102.27-104.76-231.57-175.3-386.88-159.03-209.08,21.9-388.2,154.05-571.77,239.05-92.84,42.99-193.38,80.46-298.38,81.59-138.53,1.49-252.24-68.66-342.97-161.61v-4.93c90.73,92.95,204.44,163.09,342.97,161.61,105-1.13,205.54-38.6,298.38-81.59,183.57-85.01,362.69-217.16,571.77-239.05,155.31-16.26,284.62,54.27,386.88,159.03v4.93Z"/>
            <path class="cls-51" d="M1600,444.76c-102.27-104.76-231.57-175.3-386.88-159.03-209.08,21.9-388.2,154.05-571.77,239.05-92.84,42.99-193.38,80.46-298.38,81.59-138.53,1.48-252.24-68.66-342.97-161.61v-4.93c90.73,92.95,204.44,163.09,342.97,161.61,105-1.13,205.54-38.6,298.38-81.59,183.57-85.01,362.69-217.16,571.77-239.05,155.31-16.26,284.62,54.27,386.88,159.03v4.93Z"/>
            <path class="cls-52" d="M1600,430.83c-102.27-104.76-231.57-175.3-386.88-159.03-209.08,21.9-388.2,154.05-571.77,239.05-92.84,42.99-193.38,80.46-298.38,81.59-138.53,1.49-252.24-68.66-342.97-161.61v-4.93c90.73,92.95,204.44,163.09,342.97,161.61,105-1.13,205.54-38.6,298.38-81.59,183.57-85.01,362.69-217.16,571.77-239.05,155.31-16.26,284.62,54.27,386.88,159.03v4.93Z"/>
            <path class="cls-67" d="M1600,416.91c-102.27-104.76-231.57-175.3-386.88-159.03-209.08,21.9-388.2,154.05-571.77,239.05-92.84,42.99-193.38,80.46-298.38,81.59-138.53,1.48-252.24-68.66-342.97-161.61v-4.93c90.73,92.95,204.44,163.09,342.97,161.61,105-1.13,205.54-38.6,298.38-81.59,183.57-85.01,362.69-217.16,571.77-239.05,155.31-16.26,284.62,54.27,386.88,159.03v4.93Z"/>
            <path class="cls-68" d="M1600,402.99c-102.27-104.76-231.57-175.3-386.88-159.03-209.08,21.9-388.2,154.05-571.77,239.05-92.84,42.99-193.38,80.46-298.38,81.59-138.53,1.49-252.24-68.66-342.97-161.61v-4.93c90.73,92.95,204.44,163.09,342.97,161.61,105-1.13,205.54-38.6,298.38-81.59,183.57-85.01,362.69-217.16,571.77-239.05,155.31-16.26,284.62,54.27,386.88,159.03v4.93Z"/>
            <path class="cls-69" d="M1600,389.06c-102.27-104.76-231.57-175.3-386.88-159.03-209.08,21.9-388.2,154.05-571.77,239.05-92.84,42.99-193.38,80.46-298.38,81.59-138.53,1.48-252.24-68.66-342.97-161.61v-4.93c90.73,92.95,204.44,163.09,342.97,161.61,105-1.13,205.54-38.6,298.38-81.59,183.57-85.01,362.69-217.16,571.77-239.05,155.31-16.26,284.62,54.27,386.88,159.03v4.93Z"/>
            <path class="cls-63" d="M1600,375.14c-102.27-104.76-231.57-175.3-386.88-159.03-209.08,21.9-388.2,154.05-571.77,239.05-92.84,42.99-193.38,80.46-298.38,81.59-138.53,1.48-252.24-68.66-342.97-161.61v-4.93c90.73,92.95,204.44,163.09,342.97,161.61,105-1.13,205.54-38.6,298.38-81.59,183.57-85,362.69-217.16,571.77-239.05,155.31-16.26,284.62,54.27,386.88,159.03v4.93Z"/>
            <path class="cls-64" d="M1600,361.22c-102.27-104.76-231.57-175.3-386.88-159.03-209.08,21.9-388.2,154.05-571.77,239.05-92.84,42.99-193.38,80.46-298.38,81.59-138.53,1.48-252.24-68.66-342.97-161.61v-4.93c90.73,92.95,204.44,163.09,342.97,161.61,105-1.13,205.54-38.6,298.38-81.59,183.57-85.01,362.69-217.16,571.77-239.05,155.31-16.26,284.62,54.27,386.88,159.03v4.93Z"/>
            <path class="cls-65" d="M1600,347.29c-102.27-104.76-231.57-175.3-386.88-159.03-209.08,21.9-388.2,154.05-571.77,239.05-92.84,42.99-193.38,80.46-298.38,81.59-138.53,1.48-252.24-68.66-342.97-161.61v-4.93c90.73,92.95,204.44,163.09,342.97,161.61,105-1.13,205.54-38.6,298.38-81.59,183.57-85.01,362.69-217.16,571.77-239.05,155.31-16.26,284.62,54.27,386.88,159.03v4.93Z"/>
            <path class="cls-66" d="M1600,333.37c-102.27-104.76-231.57-175.3-386.88-159.03-209.08,21.9-388.2,154.05-571.77,239.05-92.84,42.99-193.38,80.46-298.38,81.59-138.53,1.49-252.24-68.66-342.97-161.61v-4.93c90.73,92.95,204.44,163.09,342.97,161.61,105-1.13,205.54-38.6,298.38-81.59,183.57-85.01,362.69-217.16,571.77-239.05,155.31-16.26,284.62,54.27,386.88,159.03v4.93Z"/>
            <path class="cls-60" d="M1600,319.45c-102.27-104.76-231.57-175.3-386.88-159.03-209.08,21.9-388.2,154.05-571.77,239.05-92.84,42.99-193.38,80.46-298.38,81.59-138.53,1.48-252.24-68.66-342.97-161.61v-4.93c90.73,92.95,204.44,163.09,342.97,161.61,105-1.13,205.54-38.6,298.38-81.59,183.57-85.01,362.69-217.16,571.77-239.05,155.31-16.26,284.62,54.27,386.88,159.03v4.93Z"/>
            <path class="cls-61" d="M1600,305.53c-102.27-104.76-231.57-175.3-386.88-159.03-209.08,21.9-388.2,154.05-571.77,239.05-92.84,42.99-193.38,80.46-298.38,81.59-138.53,1.49-252.24-68.66-342.97-161.61v-4.93c90.73,92.95,204.44,163.1,342.97,161.61,105-1.13,205.54-38.6,298.38-81.59,183.57-85.01,362.69-217.16,571.77-239.05,155.31-16.26,284.62,54.27,386.88,159.03v4.93Z"/>
            <path class="cls-62" d="M1600,291.6c-102.27-104.76-231.57-175.3-386.88-159.03-209.08,21.9-388.2,154.05-571.77,239.05-92.84,42.99-193.38,80.46-298.38,81.59-138.53,1.48-252.24-68.66-342.97-161.61v-4.93c90.73,92.95,204.44,163.09,342.97,161.61,105-1.13,205.54-38.6,298.38-81.59,183.57-85.01,362.69-217.16,571.77-239.05,155.31-16.26,284.62,54.27,386.88,159.03v4.93Z"/>
            <path class="cls-78" d="M1600,277.68c-102.27-104.76-231.57-175.3-386.88-159.03-209.08,21.9-388.2,154.05-571.77,239.05-92.84,42.99-193.38,80.46-298.38,81.59-138.53,1.49-252.24-68.66-342.97-161.61v-4.93c90.73,92.95,204.44,163.09,342.97,161.61,105-1.13,205.54-38.6,298.38-81.59,183.57-85.01,362.69-217.16,571.77-239.05,155.31-16.26,284.62,54.27,386.88,159.03v4.93Z"/>
            <path class="cls-76" d="M1600,263.76c-102.27-104.76-231.57-175.3-386.88-159.03-209.08,21.9-388.2,154.05-571.77,239.05-92.84,42.99-193.38,80.46-298.38,81.59-138.53,1.48-252.24-68.66-342.97-161.61v-4.93c90.73,92.95,204.44,163.09,342.97,161.61,105-1.13,205.54-38.6,298.38-81.59,183.57-85.01,362.69-217.16,571.77-239.05,155.31-16.26,284.62,54.27,386.88,159.03v4.93Z"/>
            <path class="cls-72" d="M1600,249.83c-102.27-104.76-231.57-175.3-386.88-159.03-209.08,21.9-388.2,154.05-571.77,239.05-92.84,42.99-193.38,80.46-298.38,81.59-138.53,1.48-252.24-68.66-342.97-161.61v-4.93c90.73,92.95,204.44,163.09,342.97,161.61,105-1.13,205.54-38.6,298.38-81.59,183.57-85.01,362.69-217.16,571.77-239.05,155.31-16.26,284.62,54.27,386.88,159.03v4.93Z"/>
            <path class="cls-77" d="M1600,235.91c-102.27-104.76-231.57-175.3-386.88-159.03-209.08,21.9-388.2,154.05-571.77,239.05-92.84,42.99-193.38,80.46-298.38,81.59-138.53,1.49-252.24-68.66-342.97-161.61v-4.93c90.73,92.95,204.44,163.09,342.97,161.61,105-1.13,205.54-38.6,298.38-81.59,183.57-85.01,362.69-217.16,571.77-239.05,155.31-16.26,284.62,54.27,386.88,159.03v4.93Z"/>
            <path class="cls-74" d="M1600,221.99c-102.27-104.76-231.57-175.3-386.88-159.03-209.08,21.9-388.2,154.05-571.77,239.05-92.84,42.99-193.38,80.46-298.38,81.59-138.53,1.48-252.24-68.66-342.97-161.61v-4.93c90.73,92.95,204.44,163.09,342.97,161.61,105-1.13,205.54-38.6,298.38-81.59,183.57-85.01,362.69-217.16,571.77-239.05,155.31-16.26,284.62,54.27,386.88,159.03v4.93Z"/>
            <path class="cls-71" d="M1600,208.06c-102.27-104.76-231.57-175.3-386.88-159.03-209.08,21.9-388.2,154.05-571.77,239.05-92.84,42.99-193.38,80.46-298.38,81.59-138.53,1.49-252.24-68.66-342.97-161.61v-4.93c90.73,92.95,204.44,163.09,342.97,161.61,105-1.13,205.54-38.6,298.38-81.59,183.57-85.01,362.69-217.16,571.77-239.05,155.31-16.26,284.62,54.27,386.88,159.03v4.93Z"/>
            <path class="cls-75" d="M1600,194.14c-102.27-104.76-231.57-175.3-386.88-159.03-209.08,21.9-388.2,154.05-571.77,239.05-92.84,42.99-193.38,80.46-298.38,81.59-138.53,1.48-252.24-68.66-342.97-161.61v-4.93c90.73,92.95,204.44,163.09,342.97,161.61,105-1.13,205.54-38.6,298.38-81.59,183.57-85.01,362.69-217.16,571.77-239.05,155.31-16.26,284.62,54.27,386.88,159.03v4.93Z"/>
            <path class="cls-73" d="M1600,180.22c-102.27-104.76-231.57-175.3-386.88-159.03-209.08,21.9-388.2,154.05-571.77,239.05-92.84,42.99-193.38,80.46-298.38,81.59-138.53,1.49-252.24-68.66-342.97-161.61v-4.93c90.73,92.95,204.44,163.09,342.97,161.61,105-1.13,205.54-38.6,298.38-81.59,183.57-85.01,362.69-217.16,571.77-239.05C1368.43-.01,1497.73,70.52,1600,175.29v4.93Z"/>
            <path class="cls-70" d="M1600,166.29C1497.73,61.53,1368.43-9,1213.12,7.26c-209.08,21.9-388.2,154.05-571.77,239.05-92.84,42.99-193.38,80.46-298.38,81.59-138.53,1.48-252.24-68.66-342.97-161.61v-4.93c90.73,92.95,204.44,163.09,342.97,161.61,105-1.13,205.54-38.6,298.38-81.59C824.92,156.38,1004.04,24.23,1213.12,2.33c155.31-16.26,284.62,54.27,386.88,159.03v4.93Z"/>
          </g>
        </g>
      </g>
    </g>
  </g>
</svg>