<?xml version="1.0" encoding="UTF-8"?>
<svg id="Layer_2" xmlns="http://www.w3.org/2000/svg" viewBox="0 0 51 51">
  <defs>
    <style>
      .cls-1 {
        fill: #efeeee;
      }
    </style>
  </defs>
  <g id="LANDING_x5F_1">
    <g id="g2031">
      <g id="g2033">
        <g id="g2035">
          <g id="g2041">
            <path class="cls-1" d="M39.91,42.53H11.09c-6.12,0-11.09-4.98-11.09-11.09V14.06C0,7.94,4.98,2.97,11.09,2.97h1.27c.28,0,.5.22.5.5s-.22.5-.5.5h-1.27C5.53,3.97,1,8.49,1,14.06v17.38c0,5.56,4.53,10.09,10.09,10.09h28.82c5.57,0,10.09-4.53,10.09-10.09V14.06c0-2.7-1.05-5.23-2.96-7.14-1.91-1.91-4.44-2.96-7.14-2.96h-1.38c-.28,0-.5-.22-.5-.5s.22-.5.5-.5h1.38c2.96,0,5.75,1.15,7.84,3.25,2.09,2.1,3.25,4.88,3.25,7.84v17.37c0,6.12-4.98,11.09-11.09,11.09Z"/>
          </g>
          <g id="g2045">
            <path class="cls-1" d="M35.67,51H15.33c-.28,0-.5-.22-.5-.5s.22-.5.5-.5h20.34c.28,0,.5.22.5.5s-.22.5-.5.5Z"/>
          </g>
          <g id="g2049">
            <path class="cls-1" d="M39.7,34.58c-1.74,0-3.15-1.41-3.15-3.15s1.41-3.15,3.15-3.15,3.15,1.41,3.15,3.15-1.41,3.15-3.15,3.15ZM39.7,29.28c-1.18,0-2.15.96-2.15,2.15s.96,2.15,2.15,2.15,2.15-.96,2.15-2.15-.96-2.15-2.15-2.15ZM30.16,34.58c-1.74,0-3.15-1.41-3.15-3.15s1.41-3.15,3.15-3.15,3.15,1.41,3.15,3.15-1.41,3.15-3.15,3.15ZM30.16,29.28c-1.18,0-2.15.96-2.15,2.15s.96,2.15,2.15,2.15,2.15-.96,2.15-2.15-.96-2.15-2.15-2.15ZM20.63,34.58c-1.74,0-3.15-1.41-3.15-3.15s1.41-3.15,3.15-3.15,3.15,1.41,3.15,3.15-1.41,3.15-3.15,3.15ZM20.63,29.28c-1.18,0-2.15.96-2.15,2.15s.96,2.15,2.15,2.15,2.15-.96,2.15-2.15-.96-2.15-2.15-2.15ZM11.09,34.58c-1.74,0-3.15-1.41-3.15-3.15s1.41-3.15,3.15-3.15,3.15,1.41,3.15,3.15-1.41,3.15-3.15,3.15ZM11.09,29.28c-1.18,0-2.15.96-2.15,2.15s.96,2.15,2.15,2.15,2.15-.96,2.15-2.15-.96-2.15-2.15-2.15Z"/>
          </g>
          <g id="g2053">
            <path class="cls-1" d="M33.45,23.56c-.28,0-.5-.22-.5-.5,0-3.7-3.04-6.7-6.77-6.7h-1.35c-3.73,0-6.77,3.01-6.77,6.7,0,.28-.22.5-.5.5s-.5-.22-.5-.5c0-4.25,3.49-7.7,7.77-7.7h1.35c4.29,0,7.77,3.46,7.77,7.7,0,.28-.22.5-.5.5Z"/>
          </g>
          <g id="g2057">
            <path class="cls-1" d="M25.4,9.47c-2.61,0-4.74-2.13-4.74-4.74S22.79,0,25.4,0s4.74,2.13,4.74,4.74-2.12,4.74-4.74,4.74ZM25.4,1c-2.06,0-3.74,1.68-3.74,3.74s1.68,3.74,3.74,3.74,3.74-1.68,3.74-3.74-1.68-3.74-3.74-3.74Z"/>
          </g>
        </g>
      </g>
    </g>
  </g>
</svg>