<?xml version="1.0" encoding="UTF-8"?>
<svg id="Layer_2" xmlns="http://www.w3.org/2000/svg" viewBox="0 0 51 51">
  <defs>
    <style>
      .cls-1 {
        fill: #5eb461;
      }
    </style>
  </defs>
  <g id="FACTURI_x5F_2">
    <g id="note_x5F_wide_copy_8">
      <g id="invoice_x5F_icon">
        <g id="g2234">
          <g id="g2236">
            <g id="g2242">
              <path class="cls-1" d="M44.14,51c-3.78,0-6.86-3.08-6.86-6.86v-18.64c0-.28.22-.5.5-.5h12.71c.28,0,.5.22.5.5v18.64c0,3.78-3.08,6.86-6.86,6.86ZM38.29,26v18.14c0,3.23,2.63,5.86,5.86,5.86s5.86-2.63,5.86-5.86v-18.14h-11.71Z"/>
            </g>
            <g id="g2246">
              <path class="cls-1" d="M44.14,51H6.86c-3.78,0-6.86-3.08-6.86-6.86V.5C0,.3.12.12.3.04.48-.04.69,0,.84.13l8.99,8.17L18.81.13c.19-.17.48-.17.67,0l8.99,8.17L37.45.13c.15-.13.36-.17.54-.09.18.08.3.26.3.46v25c0,.28-.22.5-.5.5s-.5-.22-.5-.5V1.63l-8.49,7.71c-.19.17-.48.17-.67,0L19.14,1.18l-8.99,8.17c-.19.17-.48.17-.67,0L1,1.63v42.51c0,3.23,2.63,5.86,5.86,5.86h37.29c.28,0,.5.22.5.5s-.22.5-.5.5Z"/>
            </g>
            <g id="g2250">
              <path class="cls-1" d="M29.31,20.41H8.97c-.28,0-.5-.22-.5-.5s.22-.5.5-.5h20.34c.28,0,.5.22.5.5s-.22.5-.5.5Z"/>
            </g>
            <g id="g2254">
              <path class="cls-1" d="M29.31,31.59H8.97c-.28,0-.5-.22-.5-.5s.22-.5.5-.5h20.34c.28,0,.5.22.5.5s-.22.5-.5.5Z"/>
            </g>
          </g>
        </g>
      </g>
    </g>
  </g>
</svg>