<?xml version="1.0" encoding="UTF-8"?>
<svg id="Layer_2" xmlns="http://www.w3.org/2000/svg" viewBox="0 0 46.5 46.5">
  <defs>
    <style>
      .cls-1 {
        fill: #f9be13;
      }
    </style>
  </defs>
  <g id="COURSE_x5F_01">
    <g id="competente">
      <g id="competente_x5F_icon">
        <path class="cls-1" d="M41.55,46.5c-2.73,0-4.95-2.22-4.95-4.95,0-1.1.36-2.11.96-2.93l-7.07-7.07c-1.94,1.69-4.47,2.72-7.24,2.72s-5.3-1.03-7.24-2.72l-7.07,7.07c.6.82.96,1.83.96,2.93,0,2.73-2.22,4.95-4.95,4.95s-4.95-2.22-4.95-4.95,2.22-4.95,4.95-4.95c1.09,0,2.11.36,2.93.96l7.07-7.07c-1.69-1.94-2.72-4.47-2.72-7.24s1.03-5.3,2.72-7.24l-7.07-7.07c-.82.6-1.83.96-2.93.96C2.22,9.9,0,7.68,0,4.95S2.22,0,4.95,0s4.95,2.22,4.95,4.95c0,1.1-.36,2.11-.96,2.93l7.07,7.07c1.94-1.69,4.47-2.72,7.24-2.72s5.32,1.03,7.26,2.74l7.07-7.06c-.62-.83-.98-1.85-.98-2.95,0-2.73,2.22-4.95,4.95-4.95s4.95,2.22,4.95,4.95-2.22,4.95-4.95,4.95c-1.08,0-2.09-.35-2.9-.94l-7.07,7.07c1.68,1.94,2.7,4.46,2.7,7.22s-1.03,5.3-2.72,7.24l7.07,7.07c.82-.6,1.83-.96,2.93-.96,2.73,0,4.95,2.22,4.95,4.95s-2.22,4.95-4.95,4.95ZM41.55,38.1c-1.9,0-3.45,1.55-3.45,3.45s1.55,3.45,3.45,3.45,3.45-1.55,3.45-3.45-1.55-3.45-3.45-3.45ZM4.95,38.1c-1.9,0-3.45,1.55-3.45,3.45s1.55,3.45,3.45,3.45,3.45-1.55,3.45-3.45-1.55-3.45-3.45-3.45ZM19.33,31.92c2.39,1.08,5.45,1.08,7.84,0v-1.21c0-1.65-1.34-2.98-2.99-2.98h-1.87c-1.65,0-2.99,1.34-2.99,2.98v1.21ZM23.25,13.73c-5.25,0-9.52,4.27-9.52,9.52,0,3.24,1.62,6.1,4.1,7.82v-.35c0-1.77,1.04-3.31,2.53-4.04-.98-.82-1.6-2.06-1.6-3.43,0-2.47,2.01-4.48,4.48-4.48s4.49,2.01,4.49,4.48c0,1.38-.62,2.61-1.6,3.43,1.5.73,2.54,2.26,2.54,4.04v.35c2.48-1.72,4.1-4.59,4.1-7.82,0-5.25-4.27-9.52-9.52-9.52ZM23.25,20.27c-1.65,0-2.98,1.34-2.98,2.98s1.34,2.98,2.98,2.98,2.99-1.34,2.99-2.98-1.34-2.98-2.99-2.98ZM41.55,1.5c-1.9,0-3.45,1.55-3.45,3.45s1.55,3.45,3.45,3.45,3.45-1.55,3.45-3.45-1.55-3.45-3.45-3.45ZM4.95,1.5c-1.9,0-3.45,1.55-3.45,3.45s1.55,3.45,3.45,3.45,3.45-1.55,3.45-3.45-1.55-3.45-3.45-3.45Z"/>
      </g>
    </g>
  </g>
</svg>