<?xml version="1.0" encoding="UTF-8"?>
<svg id="Layer_2" xmlns="http://www.w3.org/2000/svg" viewBox="0 0 46 46.19">
  <defs>
    <style>
      .cls-1 {
        fill: #f9be13;
      }
    </style>
  </defs>
  <g id="COURSE_x5F_01">
    <g id="info_x5F_wide">
      <path class="cls-1" d="M27.23,46.19l-4.23-1.07-4.23,1.07v-6.83l-18.77.95v-10.51l19.28.97h7.45l19.27-.97v10.51l-18.77-.95v6.83ZM19.77,39.33v5.57l3.23-.82,3.23.82v-5.57h-6.47ZM27.23,38.36l17.77.89v-8.41l-17.77.9v6.62ZM1,30.84v8.41l17.77-.9v-6.62l-17.77-.89ZM19.77,38.33h6.47v-6.57h-6.47v6.57ZM46,25.14h-6.6v-4.67c0-1.67,1.22-3.05,2.8-3.3v-7.12l-7.67,3.4h.27v11.68H11.21v-11.68h.27L2.07,9.28,23,0l20.93,9.28-.73.33v7.56c1.58.24,2.8,1.63,2.8,3.3v4.67ZM40.4,24.14h4.6v-3.67c0-1.29-1.03-2.34-2.3-2.34s-2.3,1.05-2.3,2.34v3.67ZM12.21,24.14h21.59v-10.36l-10.8,4.79-10.8-4.79v10.36ZM4.54,9.28l18.47,8.19,17.34-7.69h-17.67v-1h17.67L23,1.09,4.54,9.28Z"/>
    </g>
  </g>
</svg>