<?xml version="1.0" encoding="UTF-8"?>
<svg id="Layer_2" xmlns="http://www.w3.org/2000/svg" viewBox="0 0 36.47 31">
  <defs>
    <style>
      .cls-1 {
        fill: #fff;
        fill-rule: evenodd;
      }
    </style>
  </defs>
  <g id="MENU">
    <g id="wide">
      <path class="cls-1" d="M35.97,26.53h-.48V9.62c0-1.3-.74-2.43-1.93-2.95L19.06.28c-.83-.37-1.79-.37-2.62,0L1.93,6.67C.74,7.2,0,8.33,0,9.62c0,1.3.74,2.43,1.93,2.95l3.63,1.6s0,.02,0,.04v8.99c0,1.92,1.15,3.63,2.93,4.36l7.45,3.07c.58.24,1.2.36,1.81.36s1.23-.12,1.81-.36l7.45-3.07c1.12-.46,2.01-1.32,2.51-2.43.11-.25,0-.55-.25-.66-.25-.11-.55,0-.66.25-.39.87-1.1,1.55-1.98,1.91l-7.45,3.07c-.3.12-.61.19-.93.23v-6.83c0-.28-.22-.5-.5-.5s-.5.22-.5.5v6.83c-.32-.04-.63-.11-.93-.23l-7.45-3.07c-1.4-.58-2.31-1.93-2.31-3.44v-8.59l9.88,4.36h0c.42.18.87.28,1.31.28s.9-.09,1.31-.28l9.88-4.36v5.62c0,.28.22.5.5.5s.5-.22.5-.5v-6.02s0-.02,0-.04l3.63-1.6c.35-.16.66-.37.93-.62v14.58h-.48c-.28,0-.5.22-.5.5s.22.5.5.5h.48v2.21c0,.28.22.5.5.5s.5-.22.5-.5v-2.21h.48c.28,0,.5-.22.5-.5s-.22-.5-.5-.5ZM33.15,11.66l-14.5,6.4c-.58.25-1.24.25-1.82,0L2.33,11.66c-.82-.36-1.33-1.14-1.33-2.04,0-.89.51-1.67,1.33-2.04L16.83,1.19c.58-.25,1.24-.25,1.82,0l14.5,6.4c.82.36,1.33,1.14,1.33,2.04s-.51,1.67-1.33,2.04ZM21.77,9.07c0,.28-.22.5-.5.5h-3.03v3.03c0,.28-.22.5-.5.5s-.5-.22-.5-.5v-3.03h-3.03c-.28,0-.5-.22-.5-.5s.22-.5.5-.5h3.03v-3.03c0-.28.22-.5.5-.5s.5.22.5.5v3.03h3.03c.28,0,.5.22.5.5Z"/>
    </g>
  </g>
</svg>