<?xml version="1.0" encoding="UTF-8"?>
<svg id="Layer_2" xmlns="http://www.w3.org/2000/svg" viewBox="0 0 51 51">
  <defs>
    <style>
      .cls-1 {
        fill: #5eb461;
      }
    </style>
  </defs>
  <g id="INCARCARE_DOCUMENTE">
    <g id="note_x5F_wide_copy_3">
      <g id="documents_x5F_icon">
        <g>
          <path class="cls-1" d="M37.38,51H1.54c-.85,0-1.54-.69-1.54-1.54V1.54C0,.69.69,0,1.54,0h35.85c.85,0,1.54.69,1.54,1.54v21.1c0,.28-.22.5-.5.5s-.5-.22-.5-.5V1.54c0-.3-.24-.54-.54-.54H1.54c-.3,0-.54.24-.54.54v47.93c0,.3.24.54.54.54h35.84c.28,0,.5.22.5.5s-.22.5-.5.5Z"/>
          <path class="cls-1" d="M19.82,23.18H7.81c-.28,0-.5-.22-.5-.5s.22-.5.5-.5h12.01c.28,0,.5.22.5.5s-.22.5-.5.5Z"/>
          <path class="cls-1" d="M19.82,16.96H7.81c-.28,0-.5-.22-.5-.5s.22-.5.5-.5h12.01c.28,0,.5.22.5.5s-.22.5-.5.5Z"/>
          <path class="cls-1" d="M31.02,10.74H7.81c-.28,0-.5-.22-.5-.5s.22-.5.5-.5h23.21c.28,0,.5.22.5.5s-.22.5-.5.5Z"/>
          <path class="cls-1" d="M19.82,29.37H7.81c-.28,0-.5-.22-.5-.5s.22-.5.5-.5h12.01c.28,0,.5.22.5.5s-.22.5-.5.5Z"/>
          <path class="cls-1" d="M19.82,34.55H7.81c-.28,0-.5-.22-.5-.5s.22-.5.5-.5h12.01c.28,0,.5.22.5.5s-.22.5-.5.5Z"/>
          <path class="cls-1" d="M19.82,40.78H7.81c-.28,0-.5-.22-.5-.5s.22-.5.5-.5h12.01c.28,0,.5.22.5.5s-.22.5-.5.5Z"/>
          <path class="cls-1" d="M38.51,51c-.09,0-.17-.02-.25-.07l-3.56-2.04c-5.46-3.12-8.89-8.94-8.93-15.17l-.06-7.23c0-.13.05-.26.14-.35.09-.09.22-.15.35-.15,2.33-.02,4.45-1.38,5.41-3.47.08-.18.26-.29.45-.29l12.46-.09c.15-.02.37.11.46.28.99,2.08,3.14,3.41,5.46,3.39.27,0,.5.22.5.5l.05,7.23c.05,6.23-3.29,12.09-8.7,15.3l-3.53,2.09c-.08.05-.17.07-.25.07ZM26.71,26.97l.05,6.75c.04,5.88,3.27,11.36,8.43,14.31l3.31,1.89,3.28-1.94c5.11-3.02,8.26-8.55,8.21-14.43h0s-.05-6.75-.05-6.75c-2.41-.15-4.59-1.54-5.72-3.66l-11.84.09c-1.1,2.13-3.26,3.55-5.67,3.74Z"/>
        </g>
        <path class="cls-1" d="M37.31,39.57s-.01,0-.02,0c-.14,0-.28-.07-.37-.18l-2.67-3.28c-.17-.21-.14-.53.07-.7.21-.17.53-.14.7.07l2.31,2.84,5.24-5.57c.19-.2.51-.21.71-.02.2.19.21.51.02.71l-5.63,5.99c-.09.1-.23.16-.36.16Z"/>
      </g>
    </g>
  </g>
</svg>