<?xml version="1.0" encoding="UTF-8"?>
<svg id="Layer_2" xmlns="http://www.w3.org/2000/svg" viewBox="0 0 22.4 22.8">
  <defs>
    <style>
      .cls-1 {
        fill: #ababab;
      }
    </style>
  </defs>
  <g id="MENU-USER">
    <g id="SELECTED">
      <g id="selected_x5F_wide">
        <g id="documents_x5F_icon">
          <g id="g1895">
            <g id="g1897">
              <g id="g1903">
                <path id="path1905" class="cls-1" d="M5.5,12.25c2.59,0,4.7,2.1,4.7,4.68s-2.11,4.68-4.7,4.68S.8,19.5.8,16.92s2.11-4.68,4.7-4.68M5.5,11.45c-3.04,0-5.5,2.45-5.5,5.48s2.46,5.48,5.5,5.48,5.5-2.45,5.5-5.48-2.46-5.48-5.5-5.48h0Z"/>
              </g>
              <g id="g1907">
                <path class="cls-1" d="M20.62,22.8H5.5c-.22,0-.4-.18-.4-.4s.18-.4.4-.4h15.12c.54,0,.97-.43.97-.97V5.13L17.25.8H6.88c-.54,0-.97.43-.97.97v9.68c0,.22-.18.4-.4.4s-.4-.18-.4-.4V1.77c0-.98.8-1.77,1.78-1.77h10.54c.11,0,.21.04.28.12l4.58,4.56c.08.08.12.18.12.28v16.07c0,.98-.8,1.77-1.78,1.77Z"/>
              </g>
              <g id="g1911">
                <path id="path1913" class="cls-1" d="M18.22,2.33l1.85,1.84h-1.85v-1.84M17.42.4v4.56h4.58L17.42.4h0Z"/>
              </g>
              <g id="g1915">
                <path class="cls-1" d="M18.79,13.21h-9.65c-.22,0-.4-.18-.4-.4s.18-.4.4-.4h9.65c.22,0,.4.18.4.4s-.18.4-.4.4Z"/>
              </g>
              <g id="g1919">
                <path class="cls-1" d="M18.79,9.11h-10.08c-.22,0-.4-.18-.4-.4s.18-.4.4-.4h10.08c.22,0,.4.18.4.4s-.18.4-.4.4Z"/>
              </g>
              <g id="g1923">
                <path class="cls-1" d="M18.79,17.32h-7.79c-.22,0-.4-.18-.4-.4s.18-.4.4-.4h7.79c.22,0,.4.18.4.4s-.18.4-.4.4Z"/>
              </g>
              <g id="g1927">
                <path class="cls-1" d="M4.54,19.29c-.1,0-.2-.04-.28-.12l-1.38-1.37c-.16-.16-.16-.41,0-.57.16-.16.41-.16.57,0l1.38,1.37c.16.16.16.41,0,.57-.08.08-.18.12-.28.12Z"/>
              </g>
              <g id="g1931">
                <path class="cls-1" d="M4.54,19.29c-.1,0-.21-.04-.28-.12-.16-.16-.16-.41,0-.57l3.21-3.2c.16-.16.41-.16.57,0,.16.16.16.41,0,.57l-3.21,3.2c-.08.08-.18.12-.28.12Z"/>
              </g>
            </g>
          </g>
        </g>
      </g>
    </g>
  </g>
</svg>