<?xml version="1.0" encoding="UTF-8"?>
<svg id="Layer_2" xmlns="http://www.w3.org/2000/svg" xmlns:xlink="http://www.w3.org/1999/xlink" viewBox="0 0 26.5 26.5">
  <defs>
    <style>
      .cls-1 {
        mask: url(#mask);
      }

      .cls-2 {
        fill: #fff;
      }
    </style>
    <mask id="mask" x="-.31" y="-.31" width="27.12" height="27.12" maskUnits="userSpaceOnUse">
      <g id="custom">
        <rect id="bg" class="cls-2" x="-.31" y="-.31" width="27.12" height="27.12"/>
      </g>
    </mask>
  </defs>
  <g id="INCARCARE_DOCUMENTE">
    <g id="note_x5F_wide_copy_3">
      <g class="cls-1">
        <g id="g441">
          <g id="g443">
            <path d="M11.39,17.55h0c-.2,0-.39-.08-.53-.22l-3.38-3.38c-.29-.29-.29-.77,0-1.06.29-.29.77-.29,1.06,0l2.85,2.85,6.58-6.58c.29-.29.77-.29,1.06,0,.29.29.29.77,0,1.06l-7.11,7.11c-.14.14-.33.22-.53.22Z"/>
          </g>
          <g id="g447">
            <g id="g449">
              <g id="g455">
                <path d="M13.25,26.5C5.94,26.5,0,20.56,0,13.25S5.94,0,13.25,0s13.25,5.94,13.25,13.25-5.94,13.25-13.25,13.25ZM13.25,1.5C6.77,1.5,1.5,6.77,1.5,13.25s5.27,11.75,11.75,11.75,11.75-5.27,11.75-11.75S19.73,1.5,13.25,1.5Z"/>
              </g>
            </g>
          </g>
        </g>
      </g>
    </g>
  </g>
</svg>