<?xml version="1.0" encoding="UTF-8"?>
<svg id="Layer_2" xmlns="http://www.w3.org/2000/svg" viewBox="0 0 51 51">
  <defs>
    <style>
      .cls-1 {
        fill: #f9be13;
      }
    </style>
  </defs>
  <g id="EXAM">
    <g id="exam_x5F_icon">
      <g id="g227">
        <g id="g229">
          <g id="g235">
            <path class="cls-1" d="M42.85,41.01H8.15c-4.5,0-8.15-3.59-8.15-8V8C0,3.59,3.66,0,8.15,0h34.69c4.5,0,8.15,3.59,8.15,8v12.5c0,.28-.22.5-.5.5s-.5-.22-.5-.5v-12.5c0-3.86-3.21-7-7.15-7H8.15c-3.94,0-7.15,3.14-7.15,7v25.01c0,3.86,3.21,7,7.15,7h34.69c3.94,0,7.15-3.14,7.15-7,0-.28.22-.5.5-.5s.5.22.5.5c0,4.41-3.66,8-8.15,8Z"/>
          </g>
          <g id="g239">
            <path class="cls-1" d="M36.98,51H14.02c-.28,0-.5-.22-.5-.5s.22-.5.5-.5h22.96c.28,0,.5.22.5.5s-.22.5-.5.5Z"/>
          </g>
          <g id="g243">
            <rect class="cls-1" x="25" y="40.5" width="1" height="10"/>
          </g>
          <g id="g247">
            <path class="cls-1" d="M42.59,14.63h-15.18c-.28,0-.5-.22-.5-.5s.22-.5.5-.5h15.18c.28,0,.5.22.5.5s-.22.5-.5.5Z"/>
          </g>
          <g id="g251">
            <path class="cls-1" d="M12.71,16.9c-.61,0-1.2-.23-1.65-.65l-2.75-2.77c-.2-.2-.19-.51,0-.71.2-.2.51-.19.71,0l2.74,2.76c.27.25.65.39,1.04.36.39-.03.75-.21.99-.51l5.97-7.08c.18-.21.5-.24.71-.06.21.18.24.49.06.7l-5.96,7.07c-.41.5-1.03.82-1.7.87-.05,0-.11,0-.16,0Z"/>
          </g>
          <g id="g255">
            <path class="cls-1" d="M42.59,30.01h-15.18c-.28,0-.5-.22-.5-.5s.22-.5.5-.5h15.18c.28,0,.5.22.5.5s-.22.5-.5.5Z"/>
          </g>
          <g id="g259">
            <path class="cls-1" d="M12.71,32.26c-.61,0-1.2-.23-1.65-.65l-2.75-2.75c-.2-.2-.2-.51,0-.71.2-.2.51-.2.71,0l2.74,2.74c.27.26.65.39,1.05.36.39-.03.75-.21.99-.51l5.97-7.08c.18-.21.5-.24.71-.06.21.18.24.49.06.7l-5.96,7.07c-.41.5-1.03.82-1.7.87-.05,0-.11,0-.16,0Z"/>
          </g>
        </g>
      </g>
    </g>
  </g>
</svg>