<?xml version="1.0" encoding="UTF-8"?>
<svg id="Layer_2" xmlns="http://www.w3.org/2000/svg" viewBox="0 0 46 46">
  <defs>
    <style>
      .cls-1 {
        fill: #efeeee;
      }
    </style>
  </defs>
  <g id="COURSE_x5F_01">
    <g id="info_x5F_wide">
      <path class="cls-1" d="M34.2,46H11.8c-.28,0-.5-.22-.5-.5s.22-.5.5-.5c2.81,0,5.1-2.29,5.1-5.1v-5.19H.5c-.28,0-.5-.22-.5-.5V.5C0,.22.22,0,.5,0h45c.28,0,.5.22.5.5v33.7c0,.28-.22.5-.5.5h-16.4v5.19c0,2.81,2.29,5.1,5.1,5.1.28,0,.5.22.5.5s-.22.5-.5.5ZM15.14,45h15.72c-1.66-1.09-2.76-2.97-2.76-5.1v-5.19h-10.2v5.19c0,2.13-1.1,4.01-2.76,5.1ZM1,33.7h44V1H1v32.7ZM39.9,26.3h-22.5c-.28,0-.5-.22-.5-.5s.22-.5.5-.5h22.5c.28,0,.5.22.5.5s-.22.5-.5.5ZM11.8,26.3h-5.6c-.28,0-.5-.22-.5-.5v-5.6c0-.28.22-.5.5-.5h5.6c.28,0,.5.22.5.5v5.6c0,.28-.22.5-.5.5ZM6.69,25.3h4.6v-4.6h-4.6v4.6ZM31.4,20.7h-14c-.28,0-.5-.22-.5-.5s.22-.5.5-.5h14c.28,0,.5.22.5.5s-.22.5-.5.5ZM39.9,15.1h-22.5c-.28,0-.5-.22-.5-.5s.22-.5.5-.5h22.5c.28,0,.5.22.5.5s-.22.5-.5.5ZM8.44,14.4c-.13,0-.26-.05-.35-.15l-2.1-2.1c-.2-.2-.2-.51,0-.71.2-.2.51-.2.71,0l1.75,1.75,3.85-3.85c.2-.2.51-.2.71,0,.2.2.2.51,0,.71l-4.2,4.2c-.1.1-.23.15-.35.15ZM31.4,9.5h-14c-.28,0-.5-.22-.5-.5s.22-.5.5-.5h14c.28,0,.5.22.5.5s-.22.5-.5.5Z"/>
    </g>
  </g>
</svg>