<?xml version="1.0" encoding="UTF-8"?>
<svg id="Layer_2" xmlns="http://www.w3.org/2000/svg" viewBox="0 0 46 46">
  <defs>
    <style>
      .cls-1 {
        fill: #5eb461;
      }
    </style>
  </defs>
  <g id="COURSE_x5F_01">
    <g id="info_x5F_wide">
      <path class="cls-1" d="M45.5,46c-.28,0-.5-.22-.5-.5v-11.79c0-1.5-1.03-2.71-2.3-2.71h-4.17v14.5c0,.28-.22.5-.5.5h-5.6c-.28,0-.5-.22-.5-.5v-16.64h-4.7v12.36c0,.28-.22.5-.5.5h-7.47c-.28,0-.5-.22-.5-.5v-12.36h-4.7v16.64c0,.28-.22.5-.5.5h-5.6c-.28,0-.5-.22-.5-.5v-14.5H3.3c-1.27,0-2.3,1.22-2.3,2.71v11.79c0,.28-.22.5-.5.5s-.5-.22-.5-.5v-11.79c0-1.54.83-2.86,2.02-3.42-1.21-.84-2.02-2.36-2.02-4.08v-12.86c0-1.87.96-3.5,2.35-4.28-1.39-.79-2.35-2.41-2.35-4.29C0,2.15,1.9,0,4.24,0s4.23,2.15,4.23,4.78c0,1.88-.96,3.5-2.35,4.29,1.39.78,2.35,2.41,2.35,4.28v3.79h2.3c1.67,0,3.05,1.4,3.27,3.21h3.79v-5.93c0-2.44,1.32-4.53,3.19-5.41-1.34-.8-2.26-2.4-2.26-4.23,0-2.64,1.9-4.78,4.23-4.78s4.23,2.15,4.23,4.78c0,1.83-.92,3.43-2.26,4.23,1.87.88,3.19,2.98,3.19,5.41v5.93h3.79c.22-1.81,1.6-3.21,3.27-3.21h2.3v-3.79c0-1.87.96-3.5,2.35-4.28-1.39-.79-2.35-2.41-2.35-4.29,0-2.64,1.9-4.78,4.23-4.78s4.24,2.15,4.24,4.78c0,1.88-.96,3.5-2.35,4.29,1.39.78,2.35,2.41,2.35,4.28v12.86c0,1.72-.81,3.23-2.02,4.08,1.19.56,2.02,1.89,2.02,3.42v11.79c0,.28-.22.5-.5.5ZM32.93,45h4.6v-14.5c0-.28.22-.5.5-.5h3.73c1.78,0,3.24-1.7,3.24-3.78v-3.34c-.78,1.04-1.94,1.7-3.24,1.7h-5.6c-1.78,0-3.23,1.7-3.23,3.78v16.64ZM8.47,45h4.6v-16.64c0-2.09-1.45-3.78-3.24-3.78h-5.6c-1.3,0-2.46-.66-3.24-1.7v3.34c0,2.09,1.45,3.78,3.24,3.78h3.73c.28,0,.5.22.5.5v14.5ZM19.77,40.72h6.47v-11.86h-6.47v11.86ZM14.05,27.86h17.91c.14-1.51.9-2.82,2-3.58-1.05-.5-1.83-1.6-1.99-2.92H14.04c-.16,1.32-.94,2.42-1.99,2.92,1.09.76,1.86,2.06,2,3.58ZM36.16,23.57h5.6c1.78,0,3.24-1.7,3.24-3.79v-6.43c0-2.09-1.45-3.78-3.24-3.78s-3.23,1.7-3.23,3.78v3.79h1.37c.28,0,.5.22.5.5s-.22.5-.5.5h-4.67c-1.27,0-2.3,1.22-2.3,2.71s1.03,2.71,2.3,2.71h.93ZM9.83,23.57h.93c1.27,0,2.3-1.22,2.3-2.71s-1.03-2.71-2.3-2.71h-4.67c-.28,0-.5-.22-.5-.5s.22-.5.5-.5h1.37v-3.79c0-2.09-1.45-3.78-3.23-3.78s-3.24,1.7-3.24,3.78v6.43c0,2.09,1.45,3.79,3.24,3.79h5.6ZM18.83,20.36h8.34v-5.93c0-2.68-1.87-4.86-4.17-4.86s-4.17,2.18-4.17,4.86v5.93ZM41.76,1c-1.78,0-3.23,1.7-3.23,3.78s1.45,3.79,3.23,3.79,3.24-1.7,3.24-3.79-1.45-3.78-3.24-3.78ZM23,1c-1.78,0-3.23,1.7-3.23,3.78s1.45,3.79,3.23,3.79,3.23-1.7,3.23-3.79-1.45-3.78-3.23-3.78ZM4.24,1c-1.78,0-3.24,1.7-3.24,3.78s1.45,3.79,3.24,3.79,3.23-1.7,3.23-3.79-1.45-3.78-3.23-3.78Z"/>
    </g>
  </g>
</svg>