<?xml version="1.0" encoding="UTF-8"?>
<svg id="Layer_2" xmlns="http://www.w3.org/2000/svg" viewBox="0 0 51 51">
  <defs>
    <style>
      .cls-1 {
        fill: #5eb461;
      }
    </style>
  </defs>
  <g id="LANDING_x5F_1">
    <g>
      <path class="cls-1" d="M33.61,51h-11.38c-.14,0-.27-.06-.37-.16l-3.76-4.05c-1.4-1.51-2.17-3.47-2.17-5.52,0-2.94,1.56-5.63,4.07-7.07l1.76-1.01v-13.48c0-2.01,1.63-3.64,3.64-3.64s3.64,1.63,3.64,3.64v11.37l5.39,2.93c2.59,1.42,4.2,4.15,4.2,7.1,0,1.52-.43,3.01-1.23,4.3l-3.35,5.35c-.09.15-.25.23-.42.23ZM22.45,50h10.88l3.2-5.12c.71-1.13,1.08-2.43,1.08-3.77,0-2.59-1.41-4.98-3.68-6.23l-5.65-3.07c-.16-.09-.26-.26-.26-.44v-11.66c0-1.45-1.18-2.64-2.64-2.64s-2.64,1.18-2.64,2.64v19.18c0,.28-.22.5-.5.5s-.5-.22-.5-.5v-4.55l-1.26.73c-2.2,1.26-3.56,3.62-3.56,6.16,0,1.85.68,3.57,1.9,4.89l3.62,3.89Z"/>
      <path class="cls-1" d="M22.25,32.44s-.1,0-.15-.02c-4.83-1.5-8.08-5.91-8.08-10.97,0-6.33,5.15-11.49,11.48-11.49s11.48,5.15,11.48,11.49c0,4.81-3.04,9.15-7.55,10.8-.26.09-.55-.04-.64-.3-.09-.26.04-.55.3-.64,4.12-1.5,6.9-5.46,6.9-9.86,0-5.78-4.7-10.49-10.48-10.49s-10.48,4.7-10.48,10.49c0,4.63,2.96,8.65,7.38,10.02.26.08.41.36.33.63-.07.21-.26.35-.48.35Z"/>
      <g>
        <path class="cls-1" d="M47.52,6.96c-1.92,0-3.48-1.56-3.48-3.48s1.56-3.48,3.48-3.48,3.48,1.56,3.48,3.48-1.56,3.48-3.48,3.48ZM47.52,1c-1.37,0-2.48,1.11-2.48,2.48s1.11,2.48,2.48,2.48,2.48-1.11,2.48-2.48-1.11-2.48-2.48-2.48Z"/>
        <path class="cls-1" d="M47.52,41.3c-1.92,0-3.48-1.56-3.48-3.48s1.56-3.48,3.48-3.48,3.48,1.56,3.48,3.48-1.56,3.48-3.48,3.48ZM47.52,35.34c-1.37,0-2.48,1.11-2.48,2.48s1.11,2.48,2.48,2.48,2.48-1.11,2.48-2.48-1.11-2.48-2.48-2.48Z"/>
        <path class="cls-1" d="M35.02,16.21c-.13,0-.26-.05-.36-.15-.19-.2-.19-.52.01-.71l10.43-10.09c.2-.19.52-.19.71.01.19.2.19.52-.01.71l-10.43,10.09c-.1.09-.22.14-.35.14Z"/>
        <path class="cls-1" d="M45.45,36.47c-.13,0-.26-.05-.36-.15l-9.83-9.92c-.19-.2-.19-.51,0-.71.19-.19.51-.19.71,0l9.83,9.92c.19.2.19.51,0,.71-.1.1-.22.14-.35.14Z"/>
        <path class="cls-1" d="M3.48,6.96c-1.92,0-3.48-1.56-3.48-3.48S1.56,0,3.48,0s3.48,1.56,3.48,3.48-1.56,3.48-3.48,3.48ZM3.48,1c-1.37,0-2.48,1.11-2.48,2.48s1.11,2.48,2.48,2.48,2.48-1.11,2.48-2.48-1.11-2.48-2.48-2.48Z"/>
        <path class="cls-1" d="M3.48,41.3c-1.92,0-3.48-1.56-3.48-3.48s1.56-3.48,3.48-3.48,3.48,1.56,3.48,3.48-1.56,3.48-3.48,3.48ZM3.48,35.34c-1.37,0-2.48,1.11-2.48,2.48s1.11,2.48,2.48,2.48,2.48-1.11,2.48-2.48-1.11-2.48-2.48-2.48Z"/>
        <path class="cls-1" d="M16.09,16.08c-.12,0-.25-.05-.34-.14L5.21,5.99c-.2-.19-.21-.51-.02-.71.19-.2.51-.21.71-.02l10.53,9.96c.2.19.21.51.02.71-.1.1-.23.16-.36.16Z"/>
        <path class="cls-1" d="M5.55,36.47c-.13,0-.25-.05-.35-.14-.2-.19-.2-.51,0-.71l9.81-9.92c.19-.2.51-.2.71,0,.2.19.2.51,0,.71l-9.81,9.92c-.1.1-.23.15-.36.15Z"/>
      </g>
    </g>
  </g>
</svg>