<?xml version="1.0" encoding="UTF-8"?>
<svg id="Layer_2" xmlns="http://www.w3.org/2000/svg" viewBox="0 0 51 51">
  <defs>
    <style>
      .cls-1 {
        fill: #fff;
      }
    </style>
  </defs>
  <g id="COURSE_x5F_01">
    <g id="sincron_x5F_button_medium_copy">
      <g id="sincron_x5F_button">
        <g id="join_x5F_icon">
          <path class="cls-1" d="M44.14,39.14h-10.17c-.28,0-.5-.22-.5-.5s.22-.5.5-.5h10.17c3.23,0,5.86-2.63,5.86-5.86V6.86c0-3.23-2.63-5.86-5.86-5.86H6.86C3.63,1,1,3.63,1,6.86v25.42c0,3.23,2.63,5.86,5.86,5.86h18.64c.28,0,.5.22.5.5s-.22.5-.5.5H6.86c-3.78,0-6.86-3.08-6.86-6.86V6.86C0,3.08,3.08,0,6.86,0h37.29c3.78,0,6.86,3.08,6.86,6.86v25.42c0,3.78-3.08,6.86-6.86,6.86Z"/>
          <path class="cls-1" d="M33.97,51h-16.95c-.28,0-.5-.22-.5-.5s.22-.5.5-.5h16.95c.28,0,.5.22.5.5s-.22.5-.5.5Z"/>
          <path class="cls-1" d="M14.91,17.95c-2.61,0-4.74-2.13-4.74-4.74s2.12-4.74,4.74-4.74,4.74,2.13,4.74,4.74-2.12,4.74-4.74,4.74ZM14.91,9.47c-2.06,0-3.74,1.68-3.74,3.74s1.68,3.74,3.74,3.74,3.74-1.68,3.74-3.74-1.68-3.74-3.74-3.74Z"/>
          <path class="cls-1" d="M31.86,26.42c-1.44,0-2.62-1.17-2.62-2.62v-12.71c0-1.44,1.17-2.62,2.62-2.62.57,0,1.11.18,1.57.52l8.47,6.36c.67.5,1.05,1.26,1.05,2.1s-.38,1.6-1.05,2.1l-8.47,6.36c-.46.34-1,.52-1.57.52ZM31.86,9.47c-.89,0-1.62.73-1.62,1.62v12.71c0,.89.73,1.62,1.62,1.62.35,0,.69-.11.97-.32l8.47-6.36c.41-.31.65-.78.65-1.3s-.24-.99-.65-1.3h0s-8.47-6.36-8.47-6.36c-.28-.21-.62-.32-.97-.32Z"/>
          <path class="cls-1" d="M25.5,51c-.28,0-.5-.22-.5-.5v-11.86c0-.28.22-.5.5-.5s.5.22.5.5v11.86c0,.28-.22.5-.5.5Z"/>
          <path class="cls-1" d="M21.26,30.66h-12.71c-.28,0-.5-.22-.5-.5v-2.12c0-3.78,3.08-6.86,6.86-6.86s6.86,3.08,6.86,6.86v2.12c0,.28-.22.5-.5.5ZM9.05,29.66h11.71v-1.62c0-3.23-2.63-5.86-5.86-5.86s-5.86,2.63-5.86,5.86v1.62Z"/>
        </g>
      </g>
    </g>
  </g>
</svg>