<?xml version="1.0" encoding="UTF-8"?>
<svg id="Layer_2" xmlns="http://www.w3.org/2000/svg" viewBox="0 0 18.05 23.8">
  <defs>
    <style>
      .cls-1 {
        fill: #ababab;
      }
    </style>
  </defs>
  <g id="COURSE_x5F_01">
    <g id="cursul_tau_x5F_wide">
      <g id="g441">
        <g id="g443">
          <g id="g445">
            <g id="g451">
              <path class="cls-1" d="M9.02,23.8c-4.98,0-9.02-3.93-9.02-8.75v-5.3c0-.22.18-.4.4-.4h17.25c.22,0,.4.18.4.4v5.3c0,4.83-4.05,8.75-9.02,8.75ZM.8,10.15v4.9c0,4.38,3.69,7.95,8.23,7.95s8.23-3.57,8.23-7.95v-4.9H.8Z"/>
            </g>
            <g id="g455">
              <path class="cls-1" d="M15.33,10.15c-.22,0-.4-.18-.4-.4v-3.24c0-3.15-2.65-5.71-5.91-5.71S3.12,3.36,3.12,6.51v3.24c0,.22-.18.4-.4.4s-.4-.18-.4-.4v-3.24C2.32,2.92,5.33,0,9.02,0s6.71,2.92,6.71,6.51v3.24c0,.22-.18.4-.4.4Z"/>
            </g>
            <g id="g459">
              <g>
                <path id="path461" class="cls-1" d="M11,15c0,1.05-.88,1.91-1.97,1.91s-1.97-.85-1.97-1.91.88-1.91,1.97-1.91,1.97.85,1.97,1.91Z"/>
                <path class="cls-1" d="M9.02,17.31c-1.31,0-2.37-1.04-2.37-2.31s1.06-2.31,2.37-2.31,2.37,1.04,2.37,2.31-1.06,2.31-2.37,2.31ZM9.02,13.49c-.87,0-1.57.68-1.57,1.51s.71,1.51,1.57,1.51,1.57-.68,1.57-1.51-.71-1.51-1.57-1.51Z"/>
              </g>
            </g>
            <g id="g463">
              <path class="cls-1" d="M9.02,19.44c-.22,0-.4-.18-.4-.4v-2.13c0-.22.18-.4.4-.4s.4.18.4.4v2.13c0,.22-.18.4-.4.4Z"/>
            </g>
          </g>
        </g>
      </g>
    </g>
  </g>
</svg>