<?xml version="1.0" encoding="UTF-8"?>
<svg id="Layer_2" xmlns="http://www.w3.org/2000/svg" viewBox="0 0 49.49 65">
  <defs>
    <style>
      .cls-1 {
        fill: #5eb461;
      }
    </style>
  </defs>
  <g id="COURSE_x5F_01">
    <g id="cursul_tau_x5F_wide">
      <g id="APSAP_x5F_LEARNING_x5F_logo">
        <path class="cls-1" d="M4.05,16.59L49.49,0v6.67c0,3.2-1.98,6.06-4.96,7.2l-18.08,6.87,23.04,5.1v16.79c0,2.59-1.62,4.9-4.05,5.78L0,65v-15.88c0-3.24,2.03-6.13,5.08-7.24l21.37-7.73L0,30.05v-7.68C0,19.79,1.62,17.48,4.05,16.59Z"/>
        <path class="cls-1" d="M9.04,4.6c0,2.57-1.97,4.63-4.5,4.63S0,7.17,0,4.6,2,0,4.56,0s4.48,2.06,4.48,4.6ZM.75,4.65c0,2.23,1.64,3.97,3.8,3.97,2.11.03,3.75-1.75,3.75-4.02S6.65.61,4.53.61.75,2.38.75,4.65ZM6.37,2.9c-.19-.1-.75-.34-1.45-.34-1.4,0-2.09.9-2.09,2.09s.73,2.11,2.11,2.11c.6,0,1.17-.17,1.51-.39l.18.57c-.52.34-1.21.46-1.84.46-1.73,0-2.73-1.2-2.73-2.71,0-1.7,1.34-2.78,2.85-2.78.78,0,1.44.22,1.64.4l-.18.58Z"/>
      </g>
    </g>
  </g>
</svg>