<?xml version="1.0" encoding="UTF-8"?>
<svg id="Layer_2" xmlns="http://www.w3.org/2000/svg" viewBox="0 0 22.8 22.8">
  <defs>
    <style>
      .cls-1 {
        fill: #597a97;
      }
    </style>
  </defs>
  <g id="MENU-USER">
    <g id="logout_x5F_icon">
      <g id="g12872">
        <g id="g12874">
          <g id="g12880">
            <path class="cls-1" d="M9.54,22.8H3.2c-1.76,0-3.2-1.43-3.2-3.2V3.2C0,1.43,1.43,0,3.2,0h6.34c1.76,0,3.2,1.43,3.2,3.2v2.61c0,.22-.18.4-.4.4s-.4-.18-.4-.4v-2.61c0-1.32-1.08-2.4-2.4-2.4H3.2C1.88.8.8,1.88.8,3.2v16.41c0,1.32,1.08,2.4,2.4,2.4h6.34c1.32,0,2.4-1.08,2.4-2.4v-2.56c0-.22.18-.4.4-.4s.4.18.4.4v2.56c0,1.76-1.43,3.2-3.2,3.2Z"/>
          </g>
          <g id="g12884">
            <path class="cls-1" d="M16.96,17.63c-.17,0-.34-.03-.5-.1-.49-.2-.79-.66-.79-1.19v-1.02c0-.22.18-.4.4-.4s.4.18.4.4v1.02c0,.3.23.42.3.45.07.03.32.11.54-.1l4.27-4.25c.28-.28.43-.64.43-1.04s-.15-.76-.43-1.04l-4.27-4.25c-.21-.21-.46-.13-.54-.1-.07.03-.3.15-.3.45v4.01c0,.73-.6,1.33-1.33,1.33H4.13c-.22,0-.4-.18-.4-.4s.18-.4.4-.4h11c.29,0,.53-.24.53-.53v-4.01c0-.53.3-.98.79-1.19.49-.2,1.03-.1,1.41.28l4.27,4.25c.43.43.67,1,.67,1.6s-.24,1.18-.67,1.6l-4.27,4.25c-.25.25-.57.38-.9.38Z"/>
          </g>
        </g>
      </g>
    </g>
  </g>
</svg>