<?xml version="1.0" encoding="UTF-8"?>
<svg id="Layer_2" xmlns="http://www.w3.org/2000/svg" xmlns:xlink="http://www.w3.org/1999/xlink" viewBox="0 0 1920 1061.58">
  <defs>
    <style>
      .cls-1 {
        fill: url(#radial-gradient);
      }
    </style>
    <radialGradient id="radial-gradient" cx="960" cy="530.79" fx="960" fy="530.79" r="775.67" gradientUnits="userSpaceOnUse">
      <stop offset="0" stop-color="#ababab" stop-opacity=".35"/>
      <stop offset="1" stop-color="#ababab" stop-opacity="0"/>
    </radialGradient>
  </defs>
  <g id="FOOTER">
    <g id="wide">
      <g id="neural_x5F_texture_x5F_wide_x5F_footer">
        <path id="neural_x5F_texture" class="cls-1" d="M1896.38,577.27c-3.9-1.24-8,.19-10.35,3.26l-185.02-116.42c.23-.45.43-.91.58-1.4,1.58-4.97-1.17-10.28-6.13-11.86-4.97-1.58-10.28,1.16-11.86,6.13-.25.8-.38,1.6-.42,2.39l-121.33,5.19c-.48-3.5-2.9-6.58-6.48-7.73-4.97-1.58-10.28,1.16-11.86,6.13-.7,2.2-.55,4.46.26,6.44l-118.24,61.73c-1.15-1.78-2.9-3.18-5.07-3.87-2.36-.75-4.78-.52-6.86.45l-159.28-272.03c1.6-1.14,2.86-2.78,3.5-4.8,1.58-4.97-1.17-10.28-6.13-11.86-4.97-1.58-10.28,1.16-11.86,6.13-.46,1.45-.54,2.92-.32,4.32l-369.44,93.49c.97-4.68-1.74-9.42-6.39-10.9-4.97-1.58-10.28,1.17-11.86,6.13-.14.45-.24.91-.31,1.37l-139.81-9.36c-.1-3.91-2.63-7.5-6.57-8.76-1.98-.63-4.01-.56-5.84.05l-71.24-162.28,2.39.12-3.08-1.68-.43-.98-.44.5L362.82,13.19c.12-.28.23-.58.33-.88,1.58-4.97-1.16-10.28-6.13-11.86-4.97-1.58-10.28,1.16-11.86,6.13-1.58,4.97,1.16,10.28,6.13,11.86,1.85.59,3.75.58,5.48.07l49.24,125.73c-.1.24-.19.47-.27.72-.39,1.24-.52,2.5-.41,3.72l-225.3,41.72c-.84-2.95-3.08-5.43-6.22-6.43-4.97-1.58-10.28,1.17-11.86,6.13-1.58,4.97,1.16,10.28,6.13,11.86,1.97.63,3.98.56,5.8-.03l63.26,145.75c-2.05,1.13-3.69,3-4.46,5.41-1.03,3.23-.22,6.59,1.82,8.99l-78.91,81.1c-.89-.72-1.91-1.29-3.06-1.66-4.97-1.58-10.28,1.16-11.86,6.13-1.58,4.97,1.17,10.28,6.13,11.86,3.02.96,6.15.32,8.51-1.44l84.05,93.14c-.91.98-1.62,2.17-2.06,3.53-1.42,4.46.65,9.18,4.68,11.25l-53.01,116.95c-4.94-1.51-10.18,1.23-11.75,6.16-1.58,4.97,1.17,10.28,6.13,11.86.87.28,1.74.41,2.61.44l8.94,95.85c-3.3.62-6.17,2.99-7.26,6.42-.28.89-.42,1.79-.44,2.68l-145.95,10.66c-.57-3.38-2.95-6.33-6.44-7.44-4.97-1.58-10.28,1.17-11.86,6.13s1.16,10.28,6.13,11.86c.36.12.73.2,1.09.27l-20.71,214.85c-4.02-.02-7.75,2.55-9.03,6.58-1.58,4.97,1.16,10.28,6.13,11.86,4.97,1.58,10.28-1.16,11.86-6.13.45-1.42.54-2.86.34-4.24l306.95-74.75c1.02,2.5,3.1,4.55,5.88,5.43,4.97,1.58,10.28-1.16,11.86-6.13,1.58-4.97-1.16-10.28-6.13-11.86-.49-.16-.99-.26-1.49-.33l-.15-111.11c3.75-.26,7.13-2.76,8.34-6.55.39-1.23.52-2.49.41-3.7l256.86-55.29c.89,2.83,3.1,5.2,6.14,6.17,4.97,1.58,10.28-1.16,11.86-6.13,1.58-4.97-1.16-10.28-6.13-11.86-1.14-.36-2.3-.49-3.43-.42l-18.41-120.12c3.07-.77,5.68-3.05,6.71-6.29l-.2.85,300.47,72.12c-.65,4.49,2.01,8.92,6.47,10.34,2.3.73,4.67.53,6.71-.39l63.37,112.59c-1.66,1.15-2.97,2.82-3.63,4.89-1.58,4.97,1.17,10.28,6.13,11.86,4.97,1.58,10.28-1.17,11.86-6.13.62-1.94.57-3.92,0-5.72l179.69-76.09c1.12,2.09,3.02,3.76,5.45,4.53,4.97,1.58,10.28-1.17,11.86-6.13.66-2.07.56-4.19-.13-6.08l108.06-50.99c1.14,1.93,2.96,3.47,5.26,4.2,4.97,1.58,10.28-1.17,11.86-6.13.17-.52.28-1.05.35-1.58l218.99,5.42c.33,3.68,2.81,6.98,6.54,8.17,2.81.9,5.74.4,8.03-1.1l95.68,115.97c-1.11,1.06-1.97,2.4-2.47,3.96-1.58,4.97,1.17,10.28,6.13,11.86,4.97,1.58,10.28-1.17,11.86-6.13.01-.04.02-.07.03-.11l114.96,12.45,60.77,6.58c.28,3.73,2.77,7.09,6.55,8.29,4.97,1.58,10.28-1.17,11.86-6.13,1.23-3.86-.16-7.92-3.17-10.28l59.91-120.58c.13.05.25.1.37.14,4.97,1.58,10.28-1.16,11.86-6.13,1.58-4.97-1.16-10.28-6.13-11.86-1.18-.37-2.37-.5-3.54-.42l-14.42-124.5c3.21-.68,5.98-3.02,7.05-6.37,1.58-4.97-1.16-10.28-6.13-11.86ZM1839.01,857.19c-2.95.84-5.43,3.08-6.43,6.22-.19.6-.32,1.22-.39,1.82l-68.9-7.46-106.5-11.53c.1-.92.07-1.83-.09-2.71l162.05-71.66,20.26,85.31ZM1170.94,760.62l-65.48-60.61,80.01-97.4c.73.5,1.54.9,2.43,1.18.42.13.84.22,1.26.3l-12.06,154.12c-2.3.03-4.48.91-6.17,2.42ZM985.54,843.25c-.73-.5-1.54-.9-2.43-1.18-.51-.16-1.03-.27-1.55-.34l11.26-235.75c2.19-.1,4.27-.96,5.88-2.4l104.37,96.61-117.53,143.07ZM254.44,341.99l54.99,96.99-61.18-76.23c1.09-1.05,1.94-2.38,2.43-3.92,1.11-3.48.09-7.12-2.32-9.53l6.07-7.3ZM179.95,195.83c.39-1.24.52-2.5.41-3.72l225.3-41.72c.44,1.54,1.27,2.96,2.41,4.1l-153.35,184.44-78.37-138.22c1.65-1.15,2.95-2.82,3.61-4.88ZM1242.78,255.29c.82.68,1.77,1.23,2.83,1.61l-39.19,150.94c-4.55-.75-9.08,1.92-10.52,6.45,0,0,0,0,0,0l-92.21-20.15,139.09-138.86ZM1903.34,723.32c-.13.15-.25.32-.37.48l-107.63-82.81c.42-.67.77-1.39,1.02-2.17.65-2.06.56-4.17-.12-6.06l24.91-11.66,82.19,102.22ZM1602.92,534.97l-35.95-19.49c.12-.28.23-.56.32-.85.58-1.84.57-3.72.08-5.44l28.35-10.96,180.29,130.58-173.09-93.84ZM1566.14,517.01l125.72,68.16,86.83,47.08c-.12.28-.23.56-.32.85-.52,1.64-.56,3.31-.22,4.88l-170.3,54.21-46.27-171.57c1.84-.68,3.44-1.93,4.56-3.6ZM1795.5,631.19c-1.14-1.94-2.96-3.49-5.27-4.23-2.24-.71-4.54-.54-6.55.31l-85.83-159.5,122.17,151.94-24.52,11.48ZM1689.73,468.85c2.24.71,4.54.54,6.55-.31l85.86,159.56c-.69.46-1.33,1.01-1.88,1.64l-182.6-132.26,86.48-33.43c1.1,2.21,3.05,3.99,5.59,4.8ZM1683.51,462.42l-87.53,33.84-35.37-25.62c.36-.6.66-1.25.88-1.94.25-.8.38-1.6.42-2.39l121.33-5.19c.06.44.14.88.27,1.3ZM1554.54,475.05c1.95-.43,3.73-1.48,5.06-2.99l34.45,24.95-27.3,10.56c-1.1-2.21-3.05-3.99-5.59-4.8-1.06-.34-2.13-.47-3.18-.43l-3.44-27.29ZM1550.32,516.82l-94.83,73.17-31.87-46.47c1.34-1.11,2.4-2.61,2.97-4.39.38-1.21.51-2.43.41-3.62l122.19-21.27c.25.91.63,1.78,1.13,2.58ZM1307.3,700.65c-.66-.41-1.37-.76-2.15-1-1.51-.48-3.06-.56-4.52-.3l-40.81-121.47,148.88-38.42c.58,1.62,1.59,3.06,2.95,4.16l-104.36,157.04ZM583.18,637.54l-66.29-75.52c1.03-1.03,1.84-2.31,2.31-3.79.23-.72.36-1.45.41-2.18l36.06-4.74,28.95,85.29c-.51.27-.99.58-1.45.94ZM205.97,808.1c.5-2.99-.47-5.97-2.48-8.07l41.2-47.37,82.87,84.16c-.66.85-1.19,1.82-1.53,2.9l-120.07-31.62ZM328.76,835.53l-82.92-84.2,128.19-147.39c.79.57,1.67,1.02,2.65,1.33.11.03.22.06.33.09l-41.32,227.81c-2.57-.18-5.06.7-6.94,2.37ZM1202.03,426.15c.42.13.83.22,1.25.3l-12.64,158.91c-2.69.03-5.23,1.22-6.99,3.23l-95.62-69.03,110.33-95.6c1.01.97,2.24,1.74,3.67,2.19ZM1182.64,590c-.35.6-.65,1.24-.87,1.93-.23.71-.35,1.43-.41,2.14l-179.53,2.91c.04-.86-.04-1.71-.23-2.53l85.08-73.72,95.96,69.27ZM1001,592.67c-.5-1.11-1.21-2.11-2.1-2.96l20.94-97.44,2.03-9.44c3.07.38,6.09-.79,8.12-3.02l55.24,39.88-84.23,72.98ZM1020.14,482.46s.01,0,.02,0l-2.02,9.4-20.77,96.67c-.65-.4-1.34-.74-2.1-.98-1.25-.4-2.52-.52-3.74-.41l-38.16-72.37,62.01-35.76c1.14,1.57,2.77,2.81,4.76,3.44ZM1197.23,422.64l-110.64,95.87-55.55-40.1c.4-.64.73-1.34.97-2.09.5-1.56.57-3.16.27-4.66l163.9-50.89c.28.66.63,1.29,1.05,1.87ZM867.52,347.7l147.56,120.64c-.44.69-.81,1.44-1.07,2.25-.76,2.38-.51,4.83.48,6.92l-61.93,35.72-86.6-164.25c.57-.37,1.09-.8,1.57-1.29ZM951.05,514.1l-72.06,41.55c-1.13-1.42-2.67-2.52-4.52-3.11-.73-.23-1.46-.36-2.18-.41l-6.16-122.48-3.98-79.23c.78-.11,1.55-.32,2.27-.62l86.63,164.31ZM420.09,155.6l54.81,67.16,33.87,41.51c-1.06,1.04-1.9,2.35-2.38,3.87-.95,2.99-.33,6.09,1.39,8.44l-34.99,30.98-53.94-151.24c.43-.21.84-.45,1.23-.72ZM629.39,532.81l-108.98-104.03c.69-.87,1.24-1.87,1.6-2.99.61-1.93.57-3.91,0-5.71l48.41-23.81,60.53,135.44c-.56.31-1.08.68-1.56,1.1ZM521.34,418.47c-1.12-2.09-3.02-3.77-5.46-4.55-.61-.19-1.23-.32-1.84-.39l2.09-133.12c.79-.06,1.57-.23,2.31-.48l51.28,114.75-48.38,23.79ZM508.94,277.88c1,.94,2.2,1.68,3.59,2.12.61.19,1.23.32,1.84.39l-.76,47.55-1.38,85.58c-.53.04-1.04.14-1.55.27l-37.25-104.46,35.51-31.45ZM509.04,414.37c-2.31,1.08-4.19,3.07-5.02,5.69-.34,1.06-.47,2.13-.43,3.18l-178.84,22.69c-.29-1.28-.83-2.48-1.6-3.53l148.87-131.83,37.02,103.8ZM324.54,450.85c.34-1.06.47-2.13.43-3.18l178.84-22.69c.42,1.86,1.39,3.56,2.79,4.86l-66.22,86.01-116.18-64.08c.13-.3.24-.6.34-.91ZM507.98,430.9c.67.42,1.39.77,2.18,1.02.24.08.48.13.71.19l-.91,113.82c-3.02.08-5.85,1.61-7.56,4.13l-60.48-33.36,66.06-85.8ZM513.07,546.36c-.46-.15-.91-.24-1.37-.32l.91-113.69c.89.04,1.76-.05,2.6-.25l39.9,117.52-35.52,4.67c-.41-3.58-2.86-6.76-6.51-7.93ZM516.86,431.54c.7-.31,1.36-.7,1.97-1.18l109.34,103.73c-.68.87-1.23,1.86-1.58,2.97-.34,1.07-.47,2.16-.43,3.22l-69.29,9.1-40.01-117.85ZM862.6,558.68c-.04.13-.07.27-.11.41l-128.72-11.36-88.74-7.83c0-2.01-.67-3.93-1.82-5.52l126.11-111.35,96.51,131.06c-1.47,1.13-2.62,2.7-3.22,4.6ZM637.6,530.71c-1.73-.38-3.47-.25-5.06.29l-60.56-135.5,122.21-60.11c1,1.64,2.5,2.97,4.36,3.76l-60.96,191.55ZM693.43,333.83l-122.15,60.08-51.26-114.69c1.77-1,3.23-2.56,4.06-4.54l168.94,53.77c-.41,1.85-.24,3.71.4,5.38ZM518.26,262c-2.86-.91-5.82-.38-8.13,1.17l-24.7-30.27-64-78.42c.27-.27.53-.57.77-.88l132.8,84.36-30.23,34.17c.54-4.41-2.11-8.73-6.51-10.13ZM412.8,157.07c1.5.32,3.01.25,4.42-.14l54.16,151.87-149.4,132.3c-.77-.72-1.66-1.33-2.67-1.77l93.48-282.26ZM323.35,453.28l115.95,63.96-54.71,71.06c-.67-.42-1.39-.77-2.18-1.02-1.96-.62-3.97-.57-5.79.03l-56.56-131.04c1.3-.71,2.43-1.72,3.29-2.98ZM385.97,589.36l54.87-71.27,60.71,33.49c-.13.3-.24.6-.34.91-.52,1.63-.56,3.28-.23,4.84l-112.72,35.3c-.52-1.23-1.3-2.35-2.29-3.27ZM586.24,635.92l-28.8-84.85,68.95-9.06c.58,2.54,2.2,4.8,4.54,6.12l-39.56,87.64c-1.74-.44-3.5-.37-5.12.14ZM593.01,636.36l39.5-87.51c.07.02.14.05.21.08,4.97,1.58,10.28-1.17,11.86-6.13.12-.39.21-.78.28-1.17l198.49,17.52,18.83,1.66c-.05.64-.03,1.28.05,1.91l-264.6,78.3c-.92-2.01-2.52-3.68-4.63-4.65ZM879.94,557.12l71.92-41.47,37.88,71.84c-2.77.82-5.1,2.89-6.17,5.76l-102.59-30.65c.22-1.93-.17-3.83-1.04-5.48ZM1193.63,585.8c-.42-.13-.83-.22-1.25-.3l12.64-158.91c.69,0,1.38-.1,2.04-.26l50.51,150.32-57.93,14.95c-.96-2.67-3.1-4.88-6.01-5.81ZM1408.58,533.4c-.47,1.46-.55,2.95-.32,4.37l-149,38.45-50.55-150.44c1.58-.7,2.96-1.82,3.96-3.27l196.28,109.93c-.14.31-.26.64-.37.97ZM1195.53,416c-.13,1.06-.08,2.1.13,3.11l-163.88,50.88c-.37-.92-.88-1.78-1.52-2.55l71.94-71.82,93.31,20.39ZM1029.04,466.2c-.91-.76-1.97-1.36-3.17-1.74-3.57-1.13-7.3-.03-9.71,2.51l-147.53-120.62c.33-.49.62-1.02.86-1.59l230.71,50.4-71.15,71.03ZM857.93,350.08c.82.26,1.65.39,2.46.43l10.14,201.66c-1.14.13-2.24.46-3.24.97l-96.67-131.28,83.71-73.91c1,.94,2.21,1.68,3.6,2.13ZM768.27,421.61l-126.23,111.45c-.8-.75-1.73-1.38-2.78-1.82l60.96-191.55c2.43.53,4.88.07,6.89-1.14l61.16,83.06ZM693.55,326.79l-167.62-53.35,30.56-34.53,137.36,87.26c-.1.2-.21.41-.3.62ZM423.14,152.13c.23-.46.44-.93.6-1.44.16-.51.27-1.02.34-1.53l200.73,9.91-68.64,77.56-133.03-84.51ZM409.4,155.62c.43.29.89.55,1.37.77l.23.59-93.34,281.81c-2.07-.48-4.17-.23-6,.59l-56.03-98.83,153.77-184.94ZM156.85,444.4l78.91-81.1c.89.72,1.91,1.29,3.06,1.66.74.23,1.48.36,2.22.41l2.02,82.85-84,1.29c-.21-1.89-.98-3.67-2.21-5.11ZM242.79,365.33c1.47-.17,2.88-.69,4.1-1.5l62.08,77.36c-1.09,1.05-1.94,2.38-2.43,3.93-.23.71-.35,1.43-.41,2.14l-61.32.94-2.02-82.87ZM306.15,449c.28,2.56,1.6,4.91,3.66,6.48l-58.87,93.91c-.55-.31-1.14-.57-1.77-.77-.64-.2-1.29-.33-1.94-.4l-2.39-98.28,61.3-.94ZM252.38,550.38l50.93-81.24-47.62,89.58c.38-3.19-.91-6.32-3.31-8.34ZM311.9,456.69c.25.11.51.21.78.29,1.96.62,3.97.57,5.79-.03l56.56,131.04c-2.06,1.12-3.71,3.01-4.47,5.42-.68,2.12-.56,4.31.18,6.24l-176.63,87.12c-.76-1.15-1.77-2.13-2.99-2.86l120.78-227.22ZM371.51,601.21c.35.57.75,1.1,1.21,1.58l-128.1,147.29-51.19-51.98c.79-.93,1.41-2.02,1.81-3.26.71-2.24.54-4.54-.31-6.54l176.58-87.09ZM192.18,699.32l51.29,52.09-41.29,47.48c-.79-.57-1.67-1.02-2.65-1.33-.95-.3-1.92-.44-2.87-.44l-8.94-95.8c1.64-.26,3.17-.95,4.46-1.98ZM193.8,815.55c4.84,1.54,10-1.03,11.72-5.76l119.58,31.49-281.74-22.65,143.99-10.51c.57,3.38,2.95,6.33,6.44,7.44ZM40.96,821.44c.13-.41.22-.83.29-1.24l284.36,22.87c.07,1.42.46,2.79,1.13,4.02l-104.68,67.31-181.33-92.33c.08-.2.16-.41.23-.62ZM337.9,833.58c-.16-.05-.32-.09-.48-.13l41.31-227.78c2.85.25,5.61-.81,7.56-2.8l62.81,50.99-109.93,180.23c-.41-.2-.83-.38-1.27-.52ZM387.39,601.52c.48-.72.88-1.52,1.15-2.38.52-1.62.56-3.28.23-4.84l112.72-35.3c.65,1.54,1.7,2.91,3.07,3.93l-54.55,89.44-62.63-50.84ZM506.06,563.83c.41.2.83.38,1.28.53,1.98.63,4.01.56,5.84-.05l92.56,211.06c-.8.44-1.53,1-2.17,1.65l-152.18-123.55,54.68-89.64ZM607.34,774.67l-92.56-211.06c.27-.15.52-.31.78-.48l66.37,75.61c-.82.94-1.46,2.06-1.86,3.32-1.58,4.97,1.17,10.28,6.13,11.86,1.14.36,2.3.49,3.43.42l18.41,120.12c-.23.06-.46.12-.69.2ZM598.22,642.66l264.4-78.24c.9,2.81,3.1,5.15,6.12,6.12,1.36.43,2.74.53,4.07.36l31.94,142.23c-2.74.89-5.03,3.01-6.02,5.93l-300.45-72.11c.32-1.45.28-2.92-.06-4.29ZM910.52,713.1c-1.36-.43-2.74-.53-4.07-.36l-31.24-139.09,47.02,125.3-10.04,14.87c-.52-.29-1.08-.53-1.67-.72ZM875.72,570.03c2.25-1.09,4.06-3.06,4.88-5.63,0-.03.01-.06.02-.09l102.49,30.62c-.59,3.4.73,6.79,3.32,8.91l-63,93.33-47.71-127.15ZM987.87,604.83c.52.29,1.08.53,1.67.72.51.16,1.03.27,1.54.34l-11.26,235.75c-.7.03-1.4.14-2.06.32l-53.58-142.78,63.69-94.35ZM999.89,602.29c.65-.84,1.17-1.81,1.51-2.88.07-.23.12-.45.18-.68l179.8-2.91c.24,2.15,1.21,4.16,2.75,5.68l-79.95,97.32-104.29-96.54ZM1197.98,600.89c.78-.92,1.4-2.01,1.78-3.23.47-1.46.55-2.95.32-4.37l58.04-14.98,40.82,121.5c-.86.32-1.66.77-2.39,1.33l-98.58-100.25ZM1308.69,701.71l104.42-157.13c.51.27,1.04.51,1.61.69,2.59.82,5.26.47,7.46-.76l31.93,46.55-144.56,111.55c-.26-.32-.55-.62-.86-.9ZM1456.48,591.43l94.91-73.23c1.07,1.15,2.44,2.06,4.04,2.57.38.12.77.21,1.15.28l-13.27,147-3.34,37.02c-1.66.01-3.26.47-4.67,1.28l-78.82-114.92ZM1542.9,705.51c-.4-.13-.8-.22-1.19-.29l16.61-184.01c.53,0,1.06-.05,1.58-.14l46.29,171.64-57.39,18.27c-1.02-2.52-3.1-4.58-5.89-5.47ZM1608.3,693.87l170.38-54.23c.6,1.42,1.56,2.69,2.78,3.68l-128.37,194.35c-.83-.62-1.77-1.13-2.81-1.46-1.23-.39-2.49-.52-3.7-.41l-38.27-141.93ZM1656.23,841.84c-.42-1.1-1.04-2.11-1.84-2.99l128.52-194.57c.5.27,1.03.5,1.59.68,1.4.45,2.82.54,4.19.34l29.65,124.85-162.11,71.69ZM1790.38,644.9c1.48-.5,2.82-1.36,3.9-2.52l107.79,82.93c-.19.4-.37.81-.51,1.25-.72,2.27-.53,4.62.36,6.64l-81.95,36.24-29.58-124.54ZM1904.6,722.1l-81.82-101.75,62.61-29.31c1.14,1.94,2.96,3.49,5.27,4.23,1.02.33,2.06.46,3.08.44l14.43,124.59c-1.3.34-2.52.96-3.56,1.81ZM1885.1,582.01c-.23.45-.43.91-.58,1.4-.65,2.06-.56,4.17.12,6.06l-62.99,29.49-122.48-152.32c.33-.32.63-.67.92-1.04l185.02,116.42ZM1544.56,470.96c1.15,1.78,2.9,3.18,5.07,3.87,1.06.34,2.13.47,3.18.43l3.44,27.29c-3.17.71-5.9,3.03-6.96,6.35-.38,1.21-.51,2.43-.41,3.62l-122.19,21.28c-.1-.38-.22-.75-.37-1.11l118.24-61.73ZM1412.08,528.6c-.88.63-1.65,1.4-2.28,2.31l-196.28-109.93c.14-.31.26-.63.37-.97,1.54-4.85-1.04-10.02-5.79-11.73l39.19-150.94c1.92.31,3.83.02,5.51-.76l159.28,272.03ZM1239.92,251.18c.37,1.04.92,2.02,1.63,2.87l-139.89,139.65-228.06-49.83,366.32-92.7ZM851.37,341.32c.05,1.93.7,3.79,1.81,5.32l-83.59,73.81-61.07-82.94c1.23-1.09,2.19-2.51,2.73-4.18.14-.45.24-.91.31-1.37l139.81,9.36ZM697.67,322.22c-1.11.62-2.1,1.45-2.89,2.48l-137.12-87.11,68.75-77.69,71.26,162.32ZM358.39,17.88c1.43-.72,2.67-1.8,3.59-3.16l260.92,142.52-198.74-9.81c-.17-3.85-2.68-7.36-6.56-8.59-3.98-1.27-8.16.24-10.49,3.44l-48.72-124.39ZM178.27,207.66l75.25,132.71-6.49,7.8c-.74-.51-1.57-.92-2.48-1.21-1.97-.63-3.98-.56-5.8.03l-60.48-139.34ZM156.62,456.92c.91-.98,1.63-2.17,2.06-3.53.23-.71.35-1.43.41-2.14l84.02-1.29,2.39,98.24c-1.76.15-3.43.81-4.83,1.85l-84.04-93.14ZM243.61,566.66c3.19.95,6.5.13,8.86-1.9l-54.31,102.18,45.45-100.28ZM31.93,828.02c3.23.01,6.28-1.65,8.01-4.41l180.43,91.87-203.48,130.84c-1.13-1.45-2.69-2.58-4.57-3.18-.36-.12-.73-.2-1.09-.27l20.71-214.85ZM18.37,1049.06c-.15-.44-.33-.87-.54-1.28l204.34-131.39,103.49,52.69c-.06.16-.13.32-.18.49-.51,1.6-.56,3.23-.25,4.76l-306.86,74.72ZM334.1,963.01c-3.13.12-6.03,1.8-7.68,4.51l-102.56-52.22,103.85-66.77c1.12,1.38,2.64,2.47,4.46,3.05.59.19,1.19.31,1.78.38l.15,111.06ZM344.12,840.03c-.56-1.99-1.77-3.77-3.46-5.02l109.8-180.03,152,123.4c-.48.72-.88,1.52-1.15,2.38-.42,1.33-.53,2.69-.37,3.99l-256.82,55.28ZM916.66,724.96c1.21-3.8-.11-7.79-3.02-10.17l9.34-13.84,52.47,139.81-62.42-110.9c1.66-1.15,2.97-2.82,3.63-4.89ZM988.56,846.6c-.44-.82-1.01-1.58-1.68-2.24l117.47-142.99,65.4,60.54c-.65.84-1.17,1.81-1.51,2.88-.62,1.94-.57,3.92,0,5.72l-179.69,76.09ZM1185.37,762.85c-1.14-1.93-2.96-3.47-5.26-4.2-.42-.13-.84-.22-1.26-.3l12.06-154.11c2.15-.03,4.2-.79,5.83-2.12l98.54,100.21c-.87.97-1.57,2.13-1.99,3.45-.66,2.07-.56,4.19.13,6.08l-108.06,50.99ZM1311.71,708.18c-.07-1.46-.48-2.87-1.18-4.13l144.56-111.55,78.79,114.86c-1.28,1.1-2.3,2.56-2.85,4.29-.21.65-.34,1.3-.4,1.95l-218.92-5.42ZM1546.57,721.33c1.1-1.06,1.97-2.4,2.47-3.96.5-1.58.56-3.2.26-4.72l57.35-18.25,38.22,141.72c-.92.26-1.8.66-2.6,1.18l-95.68-115.97ZM1845.93,857.9c-.47-.24-.96-.46-1.49-.63-1.24-.39-2.5-.52-3.72-.41l-20.36-85.71,82.38-36.43c.76,1.12,1.77,2.09,2.98,2.8l-59.81,120.37Z"/>
      </g>
    </g>
  </g>
</svg>