<?xml version="1.0" encoding="UTF-8"?>
<svg id="Layer_2" xmlns="http://www.w3.org/2000/svg" viewBox="0 0 46.5 46.5">
  <defs>
    <style>
      .cls-1 {
        fill: #5eb461;
      }
    </style>
  </defs>
  <g id="COURSE_x5F_01">
    <g id="tematica">
      <g id="tematica_x5F_icon">
        <path class="cls-1" d="M30.88,46.5h-15.25v-1.5h6.88v-6.13H4.56c-2.52,0-4.56-2.05-4.56-4.56V8.38C0,5.86,2.05,3.81,4.56,3.81h6.5V0h24.38v3.81h6.5c2.52,0,4.56,2.05,4.56,4.56v25.93c0,2.52-2.05,4.56-4.56,4.56h-17.94v6.13h6.88v1.5ZM4.56,5.31c-1.69,0-3.06,1.37-3.06,3.06v25.93c0,1.69,1.37,3.06,3.06,3.06h37.37c1.69,0,3.06-1.37,3.06-3.06V8.38c0-1.69-1.37-3.06-3.06-3.06h-6.5v25.93H11.06V5.31h-6.5ZM12.56,29.75h21.38V1.5H12.56v28.25ZM27.06,24h-7.63v-1.5h7.63v1.5ZM27.06,16.37h-7.63v-1.5h7.63v1.5ZM27.06,8.75h-7.63v-1.5h7.63v1.5Z"/>
      </g>
    </g>
  </g>
</svg>