<?xml version="1.0" encoding="UTF-8"?>
<svg id="Layer_2" xmlns="http://www.w3.org/2000/svg" viewBox="0 0 21.8 22.4">
  <defs>
    <style>
      .cls-1 {
        fill: #ababab;
      }
    </style>
  </defs>
  <g id="MENU-USER">
    <g id="notification_x5F_icon">
      <g>
        <path class="cls-1" d="M.4,9.72c-.22,0-.4-.18-.4-.4C0,6.28,1.64,3.37,4.38,1.54c.18-.12.43-.07.56.11.12.18.07.43-.11.55C2.27,3.91.8,6.5.8,9.32c0,.22-.18.4-.4.4Z"/>
        <path class="cls-1" d="M21.4,9.72c-.22,0-.4-.18-.4-.4,0-2.82-1.47-5.41-4.02-7.12-.18-.12-.23-.37-.11-.55.12-.18.37-.23.56-.11,2.74,1.83,4.38,4.74,4.38,7.79,0,.22-.18.4-.4.4Z"/>
        <path class="cls-1" d="M10.9,4.53c3.03,0,5.5,2.15,5.5,4.79v5.22c0,.44.36.8.8.8.7,0,1.3.49,1.3,1.06s-.6,1.06-1.3,1.06H4.6c-.7,0-1.3-.49-1.3-1.06s.6-1.06,1.3-1.06c.44,0,.8-.36.8-.8v-5.22c0-2.64,2.47-4.79,5.5-4.79M10.9,3.73c-3.49,0-6.3,2.5-6.3,5.59v5.22c-1.15,0-2.1.84-2.1,1.86s.95,1.86,2.1,1.86h12.6c1.16,0,2.1-.84,2.1-1.86s-.95-1.86-2.1-1.86v-5.22c0-3.08-2.83-5.59-6.3-5.59h0Z"/>
        <path class="cls-1" d="M10.9.8c.72,0,1.3.48,1.3,1.06s-.58,1.06-1.3,1.06-1.3-.48-1.3-1.06.58-1.06,1.3-1.06M10.9,0c-1.16,0-2.1.83-2.1,1.86s.94,1.86,2.1,1.86,2.1-.83,2.1-1.86-.94-1.86-2.1-1.86h0Z"/>
        <path class="cls-1" d="M10.9,22.4c-1.38,0-2.5-1.02-2.5-2.26v-1.86c0-.22.18-.4.4-.4s.4.18.4.4v1.86c0,.81.76,1.46,1.7,1.46s1.7-.66,1.7-1.46v-1.86c0-.22.18-.4.4-.4s.4.18.4.4v1.86c0,1.25-1.12,2.26-2.5,2.26Z"/>
      </g>
    </g>
  </g>
</svg>