<?xml version="1.0" encoding="UTF-8"?>
<svg id="Layer_2" xmlns="http://www.w3.org/2000/svg" viewBox="0 0 31.02 31">
  <defs>
    <style>
      .cls-1 {
        fill: #5eb461;
      }
    </style>
  </defs>
  <g id="MENU">
    <g id="wide">
      <g id="account_x5F_button">
        <g id="menu">
          <g>
            <g>
              <g>
                <path class="cls-1" d="M15.51,16.97c-2.44,0-4.43-2-4.43-4.46s1.99-4.46,4.43-4.46,4.43,2,4.43,4.46-1.99,4.46-4.43,4.46ZM15.51,9.06c-1.89,0-3.43,1.55-3.43,3.46s1.54,3.46,3.43,3.46,3.43-1.55,3.43-3.46-1.54-3.46-3.43-3.46Z"/>
                <path class="cls-1" d="M21.44,22.94h-11.86c-.28,0-.5-.22-.5-.5,0-3.57,2.88-6.47,6.43-6.47s6.43,2.9,6.43,6.47c0,.28-.22.5-.5.5ZM10.1,21.94h10.82c-.25-2.78-2.58-4.97-5.41-4.97s-5.16,2.19-5.41,4.97Z"/>
              </g>
              <g>
                <path class="cls-1" d="M27.52,7c-1.93,0-3.5-1.57-3.5-3.5s1.57-3.5,3.5-3.5,3.5,1.57,3.5,3.5-1.57,3.5-3.5,3.5ZM27.52,1c-1.38,0-2.5,1.12-2.5,2.5s1.12,2.5,2.5,2.5,2.5-1.12,2.5-2.5-1.12-2.5-2.5-2.5Z"/>
                <path class="cls-1" d="M3.5,31c-1.93,0-3.5-1.57-3.5-3.5s1.57-3.5,3.5-3.5,3.5,1.57,3.5,3.5-1.57,3.5-3.5,3.5ZM3.5,25c-1.38,0-2.5,1.12-2.5,2.5s1.12,2.5,2.5,2.5,2.5-1.12,2.5-2.5-1.12-2.5-2.5-2.5Z"/>
              </g>
              <g>
                <path class="cls-1" d="M3.5,7c-1.93,0-3.5-1.57-3.5-3.5S1.57,0,3.5,0s3.5,1.57,3.5,3.5-1.57,3.5-3.5,3.5ZM3.5,1c-1.38,0-2.5,1.12-2.5,2.5s1.12,2.5,2.5,2.5,2.5-1.12,2.5-2.5-1.12-2.5-2.5-2.5Z"/>
                <path class="cls-1" d="M27.52,31c-1.93,0-3.5-1.57-3.5-3.5s1.57-3.5,3.5-3.5,3.5,1.57,3.5,3.5-1.57,3.5-3.5,3.5ZM27.52,25c-1.38,0-2.5,1.12-2.5,2.5s1.12,2.5,2.5,2.5,2.5-1.12,2.5-2.5-1.12-2.5-2.5-2.5Z"/>
              </g>
            </g>
            <path class="cls-1" d="M15.51,29.97c-7.98,0-14.48-6.49-14.48-14.47S7.53,1.03,15.51,1.03c6.77,0,12.57,4.59,14.1,11.17.06.27-.1.54-.37.6-.27.06-.54-.11-.6-.37-1.43-6.12-6.83-10.4-13.13-10.4-7.43,0-13.48,6.04-13.48,13.47s6.05,13.47,13.48,13.47c6.3,0,11.7-4.28,13.13-10.4.06-.27.33-.44.6-.37.27.06.44.33.37.6-1.53,6.58-7.33,11.17-14.1,11.17Z"/>
          </g>
        </g>
      </g>
    </g>
  </g>
</svg>