<?xml version="1.0" encoding="UTF-8"?>
<svg id="Layer_2" xmlns="http://www.w3.org/2000/svg" viewBox="0 0 49.77 46.5">
  <defs>
    <style>
      .cls-1 {
        fill: #5eb461;
      }
    </style>
  </defs>
  <g id="COURSE_x5F_01">
    <g id="progres_x5F_wide">
      <g id="progress_x5F_icon">
        <g id="g2657">
          <g id="g2659">
            <g id="g2665">
              <path class="cls-1" d="M44.93,38.32H4.84c-2.67,0-4.84-2.17-4.84-4.84V8.93c0-2.67,2.17-4.84,4.84-4.84h7.77c.41,0,.75.34.75.75s-.34.75-.75.75h-7.77c-1.84,0-3.34,1.5-3.34,3.34v24.55c0,1.84,1.5,3.34,3.34,3.34h40.09c1.84,0,3.34-1.5,3.34-3.34V8.93c0-1.84-1.5-3.34-3.34-3.34h-7.77c-.41,0-.75-.34-.75-.75s.34-.75.75-.75h7.77c2.67,0,4.84,2.17,4.84,4.84v24.55c0,2.67-2.17,4.84-4.84,4.84Z"/>
            </g>
            <g id="g2669">
              <path class="cls-1" d="M24.89,30.14c-.41,0-.75-.34-.75-.75v-12.27c0-.41.34-.75.75-.75s.75.34.75.75v12.27c0,.41-.34.75-.75.75Z"/>
            </g>
            <g id="g2673">
              <path class="cls-1" d="M12.61,26.05c-2.67,0-4.84-2.17-4.84-4.84s2.17-4.84,4.84-4.84,4.84,2.17,4.84,4.84-2.17,4.84-4.84,4.84ZM12.61,17.86c-1.84,0-3.34,1.5-3.34,3.34s1.5,3.34,3.34,3.34,3.34-1.5,3.34-3.34-1.5-3.34-3.34-3.34Z"/>
            </g>
            <g id="g2677">
              <path class="cls-1" d="M24.89,9.68c-2.67,0-4.84-2.17-4.84-4.84S22.22,0,24.89,0s4.84,2.17,4.84,4.84-2.17,4.84-4.84,4.84ZM24.89,1.5c-1.84,0-3.34,1.5-3.34,3.34s1.5,3.34,3.34,3.34,3.34-1.5,3.34-3.34-1.5-3.34-3.34-3.34Z"/>
            </g>
            <g id="g2681">
              <path class="cls-1" d="M16.7,38.32h-8.18c-.41,0-.75-.34-.75-.75v-4.09c0-2.67,2.17-4.84,4.84-4.84s4.84,2.17,4.84,4.84v4.09c0,.41-.34.75-.75.75ZM9.27,36.82h6.68v-3.34c0-1.84-1.5-3.34-3.34-3.34s-3.34,1.5-3.34,3.34v3.34Z"/>
            </g>
            <g id="g2685">
              <path class="cls-1" d="M37.16,26.05c-2.67,0-4.84-2.17-4.84-4.84s2.17-4.84,4.84-4.84,4.84,2.17,4.84,4.84-2.17,4.84-4.84,4.84ZM37.16,17.86c-1.84,0-3.34,1.5-3.34,3.34s1.5,3.34,3.34,3.34,3.34-1.5,3.34-3.34-1.5-3.34-3.34-3.34Z"/>
            </g>
            <g id="g2689">
              <path class="cls-1" d="M41.25,38.32h-8.18c-.41,0-.75-.34-.75-.75v-4.09c0-2.67,2.17-4.84,4.84-4.84s4.84,2.17,4.84,4.84v4.09c0,.41-.34.75-.75.75ZM33.82,36.82h6.68v-3.34c0-1.84-1.5-3.34-3.34-3.34s-3.34,1.5-3.34,3.34v3.34Z"/>
            </g>
            <g id="g2693">
              <path class="cls-1" d="M16.7,46.5h-2.05c-.41,0-.75-.34-.75-.75s.34-.75.75-.75h2.05c1.84,0,3.34-1.5,3.34-3.34v-4.09c0-.41.34-.75.75-.75s.75.34.75.75v4.09c0,2.67-2.17,4.84-4.84,4.84Z"/>
            </g>
            <g id="g2697">
              <path class="cls-1" d="M35.11,46.5h-2.05c-2.67,0-4.84-2.17-4.84-4.84v-4.09c0-.41.34-.75.75-.75s.75.34.75.75v4.09c0,1.84,1.5,3.34,3.34,3.34h2.05c.41,0,.75.34.75.75s-.34.75-.75.75Z"/>
            </g>
            <g id="g2701">
              <path class="cls-1" d="M33.89,46.5h-17.18c-.41,0-.75-.34-.75-.75s.34-.75.75-.75h17.18c.41,0,.75.34.75.75s-.34.75-.75.75Z"/>
            </g>
          </g>
        </g>
      </g>
    </g>
  </g>
</svg>