<?xml version="1.0" encoding="UTF-8"?>
<svg id="Layer_2" xmlns="http://www.w3.org/2000/svg" viewBox="0 0 53.67 51">
  <defs>
    <style>
      .cls-1 {
        fill: #5eb461;
      }
    </style>
  </defs>
  <g id="QUIZ">
    <g id="quiz_x5F_icon">
      <g>
        <path class="cls-1" d="M26.83,24.64c-.28,0-.5-.22-.5-.5v-2.95c0-.28.22-.5.5-.5,1.17,0,2.27-.47,3.08-1.32.81-.85,1.22-1.97,1.16-3.15-.12-2.21-1.94-3.97-4.15-4.02-.03,0-.06,0-.09,0-2.11,0-3.91,1.56-4.2,3.65-.03.19-.04.39-.04.59,0,.28-.22.5-.5.5s-.5-.22-.5-.5c0-.25.02-.49.05-.73.37-2.63,2.62-4.56,5.3-4.51,2.73.06,4.99,2.24,5.13,4.96.08,1.45-.43,2.83-1.43,3.89-.88.93-2.04,1.49-3.3,1.61v2.47c0,.28-.22.5-.5.5Z"/>
        <path class="cls-1" d="M26.83,32.46c-.26,0-.52-.11-.7-.29-.05-.05-.09-.1-.13-.16-.03-.05-.07-.11-.09-.17-.03-.06-.04-.12-.06-.19,0-.06-.02-.13-.02-.19,0-.13.03-.26.08-.38.05-.13.12-.24.22-.33.37-.37,1.04-.37,1.41,0,.09.09.16.2.22.33.05.12.07.25.07.38,0,.26-.11.52-.29.71-.05.04-.1.08-.15.12-.06.04-.11.07-.17.09-.06.03-.13.05-.19.06-.07.01-.13.02-.2.02Z"/>
      </g>
      <g>
        <path class="cls-1" d="M31.44,51h-9.21c-.28,0-.5-.22-.5-.5v-8.6c0-.28.22-.5.5-.5h9.21c.28,0,.5.22.5.5v8.6c0,.28-.22.5-.5.5ZM22.73,50h8.21v-7.6h-8.21v7.6Z"/>
        <path class="cls-1" d="M37.46,51h-21.25c-.28,0-.5-.22-.5-.5s.22-.5.5-.5h21.25c.28,0,.5.22.5.5s-.22.5-.5.5Z"/>
      </g>
      <g>
        <path class="cls-1" d="M41.89,31.96h-3.62c-1.57,0-2.85-1.28-2.85-2.85v-3.61c0-1.57,1.28-2.85,2.85-2.85h3.62c1.57,0,2.85,1.28,2.85,2.85v3.61c0,1.57-1.28,2.85-2.85,2.85ZM38.28,23.65c-1.02,0-1.85.83-1.85,1.85v3.61c0,1.02.83,1.85,1.85,1.85h3.62c1.02,0,1.85-.83,1.85-1.85v-3.61c0-1.02-.83-1.85-1.85-1.85h-3.62Z"/>
        <path class="cls-1" d="M15.39,31.96h-3.62c-1.57,0-2.85-1.28-2.85-2.85v-3.61c0-1.57,1.28-2.85,2.85-2.85h3.62c1.57,0,2.85,1.28,2.85,2.85v3.61c0,1.57-1.28,2.85-2.85,2.85ZM11.78,23.65c-1.02,0-1.85.83-1.85,1.85v3.61c0,1.02.83,1.85,1.85,1.85h3.62c1.02,0,1.85-.83,1.85-1.85v-3.61c0-1.02-.83-1.85-1.85-1.85h-3.62Z"/>
      </g>
      <path class="cls-1" d="M46.47,42.4H7.19c-3.97,0-7.19-3.23-7.19-7.19V7.19C0,3.23,3.23,0,7.19,0h39.28c3.97,0,7.19,3.23,7.19,7.19v16.95c0,.28-.22.5-.5.5s-.5-.22-.5-.5V7.19c0-3.42-2.78-6.19-6.19-6.19H7.19C3.78,1,1,3.78,1,7.19v28.01c0,3.42,2.78,6.19,6.19,6.19h39.28c3.37,0,6.15-2.74,6.19-6.11,0-.28.2-.5.51-.49.28,0,.5.23.49.51-.05,3.91-3.28,7.09-7.19,7.09Z"/>
    </g>
  </g>
</svg>