<?xml version="1.0" encoding="UTF-8"?>
<svg id="Layer_2" xmlns="http://www.w3.org/2000/svg" viewBox="0 0 101.01 102">
  <defs>
    <style>
      .cls-1 {
        fill: #5eb461;
      }
    </style>
  </defs>
  <g id="NOTIFICARE-SUCCES_x5F_1">
    <g id="note_x5F_wide">
      <g id="success_x5F_icon_x5F_1">
        <g id="g1193">
          <g id="g1195">
            <g id="g1201">
              <path class="cls-1" d="M31.38,23.92c-3.04,0-5.92-1.32-7.92-3.62-.17-.2-.34-.41-.51-.63,0,0,0,0,0,0-1.33-1.81-2.03-3.95-2.03-6.2,0-5.77,4.69-10.46,10.46-10.46s10.46,4.69,10.46,10.46c0,2.25-.7,4.39-2.03,6.2-.17.23-.34.44-.52.65-1.98,2.29-4.87,3.61-7.91,3.61ZM25.36,17.87c.12.16.24.31.37.46,1.43,1.65,3.48,2.59,5.65,2.59s4.23-.94,5.65-2.58c.14-.16.26-.31.38-.47.94-1.28,1.44-2.81,1.44-4.41,0-4.12-3.35-7.46-7.46-7.46s-7.46,3.35-7.46,7.46c0,1.6.5,3.13,1.45,4.42Z"/>
            </g>
            <g id="g1205">
              <path class="cls-1" d="M43.33,33.48c-.33,0-.66-.11-.94-.33-.65-.52-.75-1.46-.23-2.11l16.62-20.77c.75-.93,1.09-2.1.95-3.29-.13-1.19-.72-2.25-1.65-3-.93-.75-2.1-1.09-3.29-.95-1.19.13-2.25.72-3,1.65l-12.46,15.57c-.52.65-1.46.75-2.11.23-.65-.52-.75-1.46-.23-2.11l12.46-15.57c1.25-1.56,3.03-2.54,5.01-2.76,1.98-.22,3.93.35,5.49,1.59,1.56,1.25,2.54,3.03,2.76,5.01.22,1.98-.34,3.94-1.59,5.5l-16.62,20.77c-.3.37-.73.56-1.17.56Z"/>
            </g>
            <g id="g1209">
              <path class="cls-1" d="M43.33,83.08c-.83,0-1.5-.67-1.5-1.5V31.97c0-.83.67-1.5,1.5-1.5s1.5.67,1.5,1.5v49.61c0,.83-.67,1.5-1.5,1.5Z"/>
            </g>
            <g id="g1213">
              <path class="cls-1" d="M19.43,83.08c-.83,0-1.5-.67-1.5-1.5v-49.07L1.64,12.15C.39,10.59-.17,8.63.05,6.65c.22-1.98,1.2-3.76,2.76-5.01C4.37.39,6.32-.17,8.3.05c1.99.22,3.77,1.2,5.01,2.76l12.46,15.57c.52.65.41,1.59-.23,2.11-.65.52-1.59.41-2.11-.23L10.97,4.68c-.75-.93-1.81-1.52-3-1.65-1.18-.13-2.36.21-3.29.95-.93.75-1.52,1.81-1.65,3-.13,1.19.21,2.36.96,3.29l16.62,20.77c.21.27.33.6.33.94v49.6c0,.83-.67,1.5-1.5,1.5Z"/>
            </g>
            <g id="g1217">
              <path class="cls-1" d="M31.38,83.08c-.83,0-1.5-.67-1.5-1.5v-26.3c0-.83.67-1.5,1.5-1.5s1.5.67,1.5,1.5v26.3c0,.83-.67,1.5-1.5,1.5Z"/>
            </g>
            <g id="g1221">
              <path class="cls-1" d="M87.56,101.01h-29.88c-.83,0-1.5-.67-1.5-1.5v-49.07l-13.99-17.49c-.42-.5-.48-1.23-.1-1.8.46-.69,1.39-.88,2.08-.42.13.09.25.19.34.31l14.34,17.93c.21.27.33.6.33.94v48.1h28.38c.83,0,1.5.67,1.5,1.5s-.67,1.5-1.5,1.5Z"/>
            </g>
            <g id="g1225">
              <path class="cls-1" d="M69.63,41.84c-3.04,0-5.93-1.32-7.92-3.62-.17-.2-.34-.41-.51-.63,0,0,0,0,0,0-1.33-1.81-2.03-3.95-2.03-6.2,0-5.77,4.69-10.46,10.46-10.46s10.46,4.69,10.46,10.46c0,2.25-.7,4.39-2.03,6.2-.17.23-.34.44-.52.65-1.98,2.29-4.87,3.61-7.91,3.61ZM63.61,35.8c.12.16.24.31.37.46,1.42,1.65,3.48,2.59,5.65,2.59s4.23-.94,5.65-2.58c.14-.16.26-.31.38-.47.94-1.28,1.44-2.81,1.44-4.41,0-4.12-3.35-7.46-7.46-7.46s-7.46,3.35-7.46,7.46c0,1.6.5,3.13,1.45,4.42Z"/>
            </g>
            <g id="g1229">
              <path class="cls-1" d="M81.58,51.41c-.33,0-.66-.11-.94-.33-.65-.52-.75-1.46-.23-2.11l16.62-20.77c.75-.93,1.09-2.1.96-3.29-.13-1.19-.72-2.25-1.65-3-.93-.75-2.11-1.09-3.29-.95-1.19.13-2.25.72-3,1.65l-12.46,15.57c-.52.65-1.46.75-2.11.23-.65-.52-.75-1.46-.23-2.11l12.46-15.57c1.25-1.56,3.03-2.54,5.01-2.76,1.98-.22,3.93.35,5.49,1.59,1.56,1.25,2.54,3.03,2.76,5.01.22,1.99-.35,3.94-1.59,5.5l-16.62,20.77c-.3.37-.73.56-1.17.56Z"/>
            </g>
            <g id="g1233">
              <path class="cls-1" d="M81.58,101.01c-.83,0-1.5-.67-1.5-1.5v-49.61c0-.83.67-1.5,1.5-1.5s1.5.67,1.5,1.5v49.61c0,.83-.67,1.5-1.5,1.5Z"/>
            </g>
            <g id="g1237">
              <path class="cls-1" d="M62.85,38.74c-.44,0-.88-.19-1.17-.56l-11.86-14.83c-.52-.65-.41-1.59.23-2.11.65-.52,1.59-.41,2.11.23l11.86,14.83c.52.65.41,1.59-.23,2.11-.28.22-.61.33-.94.33Z"/>
            </g>
            <g id="g1241">
              <path class="cls-1" d="M69.63,101.01c-.83,0-1.5-.67-1.5-1.5v-26.3c0-.83.67-1.5,1.5-1.5s1.5.67,1.5,1.5v26.3c0,.83-.67,1.5-1.5,1.5Z"/>
            </g>
            <g id="g1245">
              <path class="cls-1" d="M32.58,102c-1.37,0-2.49-1.12-2.49-2.49s1.12-2.49,2.49-2.49,2.49,1.12,2.49,2.49-1.12,2.49-2.49,2.49ZM32.58,98.02c-.82,0-1.49.67-1.49,1.49s.67,1.49,1.49,1.49,1.49-.67,1.49-1.49-.67-1.49-1.49-1.49Z"/>
            </g>
            <g id="g1249">
              <path class="cls-1" d="M57.68,101.01h-16.13c-.83,0-1.5-.67-1.5-1.5s.67-1.5,1.5-1.5h16.13c.83,0,1.5.67,1.5,1.5s-.67,1.5-1.5,1.5Z"/>
            </g>
            <g id="g1253">
              <path class="cls-1" d="M23.61,101.01H5.09c-.83,0-1.5-.67-1.5-1.5v-17.93c0-.83.67-1.5,1.5-1.5h52.59c.83,0,1.5.67,1.5,1.5s-.67,1.5-1.5,1.5H6.59v14.93h17.03c.83,0,1.5.67,1.5,1.5s-.67,1.5-1.5,1.5Z"/>
            </g>
          </g>
        </g>
      </g>
    </g>
  </g>
</svg>