<?xml version="1.0" encoding="UTF-8"?>
<svg id="Layer_2" xmlns="http://www.w3.org/2000/svg" viewBox="0 0 22.8 22.4">
  <defs>
    <style>
      .cls-1 {
        fill: #ababab;
      }
    </style>
  </defs>
  <g id="MENU-USER">
    <g id="courses_x5F_icon">
      <g id="g2201">
        <g id="g2203">
          <g id="g2209">
            <path id="path2211" class="cls-1" d="M2.26,8.07c.59,0,1.06.48,1.06,1.06s-.48,1.06-1.06,1.06-1.06-.48-1.06-1.06.48-1.06,1.06-1.06M2.26,7.27c-1.03,0-1.86.83-1.86,1.86s.83,1.86,1.86,1.86,1.86-.83,1.86-1.86-.83-1.86-1.86-1.86h0Z"/>
          </g>
          <g id="g2213">
            <path class="cls-1" d="M5.06,22.4h-.93c-2.28,0-4.13-1.85-4.13-4.13v-3.54c0-1.25,1.02-2.26,2.26-2.26s2.26,1.02,2.26,2.26v.93c0,.81.66,1.46,1.46,1.46h1.68c.22,0,.4.18.4.4s-.18.4-.4.4h-1.68c-1.25,0-2.26-1.02-2.26-2.26v-.93c0-.81-.66-1.46-1.46-1.46s-1.46.66-1.46,1.46v3.54c0,1.84,1.49,3.33,3.33,3.33h.93c.22,0,.4.18.4.4s-.18.4-.4.4Z"/>
          </g>
          <g id="g2217">
            <path id="path2219" class="cls-1" d="M20.54,8.07c.59,0,1.06.48,1.06,1.06s-.48,1.06-1.06,1.06-1.06-.48-1.06-1.06.48-1.06,1.06-1.06M20.54,7.27c-1.03,0-1.86.83-1.86,1.86s.83,1.86,1.86,1.86,1.86-.83,1.86-1.86-.83-1.86-1.86-1.86h0Z"/>
          </g>
          <g id="g2221">
            <path class="cls-1" d="M18.67,22.4h-.93c-.22,0-.4-.18-.4-.4s.18-.4.4-.4h.93c1.83,0,3.33-1.49,3.33-3.33v-3.54c0-.81-.66-1.46-1.46-1.46s-1.46.66-1.46,1.46v.93c0,1.25-1.02,2.26-2.26,2.26h-1.68c-.22,0-.4-.18-.4-.4s.18-.4.4-.4h1.68c.81,0,1.46-.66,1.46-1.46v-.93c0-1.25,1.02-2.26,2.26-2.26s2.26,1.02,2.26,2.26v3.54c0,2.28-1.85,4.13-4.13,4.13Z"/>
          </g>
          <path id="path2225" class="cls-1" d="M14.33,11.8v9.4h-5.86v-9.4h5.86M15.13,11h-7.46v11h7.46v-11h0Z"/>
          <g id="g2227">
            <path class="cls-1" d="M15.13,8.79c-.22,0-.4-.18-.4-.4v-.93c0-.81-.66-1.46-1.46-1.46h-3.73c-.81,0-1.46.66-1.46,1.46v.93c0,.22-.18.4-.4.4s-.4-.18-.4-.4v-.93c0-1.25,1.02-2.26,2.26-2.26h3.73c1.25,0,2.26,1.02,2.26,2.26v.93c0,.22-.18.4-.4.4Z"/>
          </g>
          <g id="g2231">
            <path id="path2233" class="cls-1" d="M11.4.8c.59,0,1.06.48,1.06,1.06s-.48,1.06-1.06,1.06-1.06-.48-1.06-1.06.48-1.06,1.06-1.06M11.4,0c-1.03,0-1.86.83-1.86,1.86s.83,1.86,1.86,1.86,1.86-.83,1.86-1.86-.83-1.86-1.86-1.86h0Z"/>
          </g>
        </g>
      </g>
    </g>
  </g>
</svg>