<?xml version="1.0" encoding="UTF-8"?>
<svg id="Layer_2" xmlns="http://www.w3.org/2000/svg" xmlns:xlink="http://www.w3.org/1999/xlink" viewBox="0 0 51 51">
  <defs>
    <style>
      .cls-1 {
        mask: url(#mask);
      }

      .cls-2 {
        fill: #f9be13;
      }

      .cls-3 {
        fill: #fff;
      }
    </style>
    <mask id="mask" x="-1.62" y="-1.62" width="54.22" height="54.24" maskUnits="userSpaceOnUse">
      <g id="custom">
        <rect id="bg" class="cls-3" x="-1.62" y="-1.62" width="54.22" height="54.24"/>
      </g>
    </mask>
  </defs>
  <g id="LANDING_x5F_1">
    <g class="cls-1">
      <g id="g2544">
        <g id="g2546">
          <g id="g2548">
            <g id="g2554">
              <path class="cls-2" d="M8.81,9.33c-2.57,0-4.67-2.09-4.67-4.67S6.24,0,8.81,0s4.67,2.09,4.67,4.67-2.09,4.67-4.67,4.67ZM8.81,1c-2.02,0-3.67,1.64-3.67,3.67s1.64,3.67,3.67,3.67,3.67-1.64,3.67-3.67-1.64-3.67-3.67-3.67Z"/>
            </g>
            <g id="g2558">
              <path class="cls-2" d="M31.69,15.53H8.83c-.28,0-.5-.22-.5-.5s.22-.5.5-.5h22.86c.28,0,.5.22.5.5s-.22.5-.5.5Z"/>
            </g>
            <path class="cls-2" d="M50.49,30.05h-24.99c-.28,0-.5-.22-.5-.5V.5c0-.28.22-.5.5-.5h24.99c.28,0,.5.22.5.5v29.05c0,.28-.22.5-.5.5ZM25.99,29.05h23.99V1h-23.99v28.05Z"/>
            <g id="g2564">
              <path class="cls-2" d="M17.12,30.05H.5c-.28,0-.5-.22-.5-.5v-6.21c0-4.86,3.95-8.81,8.81-8.81h8.31c.28,0,.5.22.5.5v14.53c0,.28-.22.5-.5.5ZM1,29.05h15.62v-13.53h-7.81c-4.31,0-7.81,3.5-7.81,7.81v5.71Z"/>
            </g>
            <g id="g2568">
              <path class="cls-2" d="M25.49,51c-3.78,0-6.85-3.08-6.85-6.86s3.08-6.86,6.85-6.86,6.85,3.08,6.85,6.86-3.08,6.86-6.85,6.86ZM25.49,38.29c-3.23,0-5.85,2.63-5.85,5.86s2.63,5.86,5.85,5.86,5.85-2.63,5.85-5.86-2.63-5.86-5.85-5.86Z"/>
            </g>
            <g id="g2572">
              <path class="cls-2" d="M44.15,51c-3.78,0-6.85-3.08-6.85-6.86s3.07-6.86,6.85-6.86,6.85,3.08,6.85,6.86-3.08,6.86-6.85,6.86ZM44.15,38.29c-3.23,0-5.85,2.63-5.85,5.86s2.63,5.86,5.85,5.86,5.85-2.63,5.85-5.86-2.63-5.86-5.85-5.86Z"/>
            </g>
            <g id="g2576">
              <path class="cls-2" d="M6.85,51c-3.78,0-6.85-3.08-6.85-6.86s3.08-6.86,6.85-6.86,6.85,3.08,6.85,6.86-3.07,6.86-6.85,6.86ZM6.85,38.29c-3.23,0-5.85,2.63-5.85,5.86s2.63,5.86,5.85,5.86,5.85-2.63,5.85-5.86-2.63-5.86-5.85-5.86Z"/>
            </g>
          </g>
        </g>
      </g>
    </g>
  </g>
</svg>