<?xml version="1.0" encoding="UTF-8"?>
<svg id="Layer_2" xmlns="http://www.w3.org/2000/svg" viewBox="0 0 46.5 46.27">
  <defs>
    <style>
      .cls-1 {
        fill: #efeeee;
      }
    </style>
  </defs>
  <g id="COURSE_x5F_01">
    <g id="beneficii">
      <g id="beneficii_x5F_icon">
        <g>
          <path class="cls-1" d="M46.5,46.27H0v-2.13c0-4.22,3.52-7.65,7.85-7.65,3.31,0,6.14,2.05,7.25,4.94,1.52-2.93,4.6-4.94,8.16-4.94s6.64,2.01,8.16,4.94c1.11-2.88,3.94-4.94,7.25-4.94,4.33,0,7.85,3.43,7.85,7.65v2.13ZM32.4,44.77h12.6v-.63c0-3.39-2.85-6.15-6.35-6.15s-6.25,2.76-6.25,6.15v.63ZM15.63,44.77h15.23c-.38-3.8-3.65-6.78-7.62-6.78s-7.23,2.98-7.62,6.78ZM1.5,44.77h12.6v-.63c0-3.39-2.8-6.15-6.25-6.15s-6.35,2.76-6.35,6.15v.63ZM38.65,35.23c-2.73,0-4.95-2.19-4.95-4.89s2.22-4.89,4.95-4.89,4.95,2.19,4.95,4.89-2.22,4.89-4.95,4.89ZM38.65,26.95c-1.9,0-3.45,1.52-3.45,3.39s1.55,3.39,3.45,3.39,3.45-1.52,3.45-3.39-1.55-3.39-3.45-3.39ZM23.25,35.23c-3.5,0-6.35-2.81-6.35-6.27s2.85-6.27,6.35-6.27,6.35,2.81,6.35,6.27-2.85,6.27-6.35,6.27ZM23.25,24.19c-2.67,0-4.85,2.14-4.85,4.77s2.18,4.77,4.85,4.77,4.85-2.14,4.85-4.77-2.18-4.77-4.85-4.77ZM7.85,35.23c-2.73,0-4.95-2.19-4.95-4.89s2.22-4.89,4.95-4.89,4.95,2.19,4.95,4.89-2.22,4.89-4.95,4.89ZM7.85,26.95c-1.9,0-3.45,1.52-3.45,3.39s1.55,3.39,3.45,3.39,3.45-1.52,3.45-3.39-1.55-3.39-3.45-3.39Z"/>
          <path class="cls-1" d="M34.1,9.77l-2.64-2.53-2.64,2.53-1.04-1.08,3.68-3.52,3.68,3.52-1.04,1.08ZM26.24,4.59l-2.65-2.52-2.65,2.52-1.03-1.09,3.68-3.51,3.68,3.51-1.03,1.09Z"/>
          <path class="cls-1" d="M39.28,25.89h-1.5v-7.84h-6.76V6.43h1.5v10.13h6.76v9.34ZM24.41,23.03h-1.5V.52h1.5v22.51Z"/>
        </g>
        <polygon class="cls-1" points="12.32 9.79 11.35 8.65 14.69 5.8 18.04 8.65 17.07 9.79 14.69 7.77 12.32 9.79"/>
        <polygon class="cls-1" points="8.72 25.89 7.22 25.89 7.22 16.55 13.54 16.55 13.54 6.43 15.04 6.43 15.04 18.05 8.72 18.05 8.72 25.89"/>
      </g>
    </g>
  </g>
</svg>