<?xml version="1.0" encoding="UTF-8"?>
<svg id="Layer_2" xmlns="http://www.w3.org/2000/svg" viewBox="0 0 26.5 26.5">
  <defs>
    <style>
      .cls-1 {
        fill: #101228;
      }
    </style>
  </defs>
  <g id="INCARCARE_DOCUMENTE">
    <g id="note_x5F_wide_copy_3">
      <g id="upload_x5F_icon">
        <g id="g2255">
          <path class="cls-1" d="M13.25,22.26c-.41,0-.75-.34-.75-.75v-12.29c0-.41.34-.75.75-.75s.75.34.75.75v12.29c0,.41-.34.75-.75.75Z"/>
        </g>
        <g id="g2259">
          <path class="cls-1" d="M16.43,13.15c-.19,0-.38-.07-.53-.22l-2.65-2.65-2.65,2.65c-.29.29-.77.29-1.06,0-.29-.29-.29-.77,0-1.06l3.18-3.18c.28-.28.78-.28,1.06,0l3.18,3.18c.29.29.29.77,0,1.06-.15.15-.34.22-.53.22Z"/>
        </g>
        <g id="g2263">
          <g id="g2265">
            <g id="g2271">
              <path class="cls-1" d="M20.67,18.45h-3.18c-.41,0-.75-.34-.75-.75s.34-.75.75-.75h3.18c2.47,0,4.33-1.95,4.33-4.55,0-2.25-1.38-4.04-3.43-4.46-.36-.07-.61-.39-.6-.76,0-.03,0-.11.01-.14,0-1.87-1.57-3.43-3.49-3.43-.38,0-.77.07-1.18.22-.3.11-.64.02-.84-.23-1.08-1.34-2.66-2.11-4.34-2.11-1.51,0-2.93.6-4,1.68-1.06,1.08-1.62,2.5-1.6,4.02,0,.36-.25.68-.6.75-2.05.41-3.43,2.2-3.43,4.46,0,2.59,1.86,4.55,4.33,4.55h3.18c.41,0,.75.34.75.75s-.34.75-.75.75h-3.18c-3.27,0-5.83-2.66-5.83-6.05,0-2.72,1.64-5.02,4.05-5.78.11-1.7.81-3.28,2.01-4.5,1.35-1.37,3.15-2.13,5.07-2.13s3.82.82,5.17,2.27c3.07-.79,5.88,1.45,6.15,4.35,2.41.76,4.05,3.05,4.05,5.77,0,3.39-2.56,6.05-5.83,6.05Z"/>
            </g>
            <g id="g2275">
              <path class="cls-1" d="M19.61,26.5H6.89c-.41,0-.75-.34-.75-.75v-2.12c0-.41.34-.75.75-.75s.75.34.75.75v1.37h11.21v-1.37c0-.41.34-.75.75-.75s.75.34.75.75v2.12c0,.41-.34.75-.75.75Z"/>
            </g>
          </g>
        </g>
      </g>
    </g>
  </g>
</svg>