<?xml version="1.0" encoding="UTF-8"?>
<svg id="Layer_2" xmlns="http://www.w3.org/2000/svg" viewBox="0 0 51 51">
  <defs>
    <style>
      .cls-1 {
        fill: #5eb461;
      }
    </style>
  </defs>
  <g id="INCARCA_LUCRARE_PRACTICA">
    <g id="note_x5F_wide_copy_10">
      <g id="upload_x5F_icon">
        <g id="g515">
          <g id="g517">
            <g id="g523">
              <path class="cls-1" d="M47.39,51H3.61c-1.99,0-3.61-1.62-3.61-3.61v-28.22c0-.28.22-.5.5-.5h50c.28,0,.5.22.5.5v28.22c0,1.99-1.62,3.61-3.61,3.61ZM1,19.67v27.72c0,1.44,1.17,2.61,2.61,2.61h43.78c1.44,0,2.61-1.17,2.61-2.61v-27.72H1Z"/>
            </g>
            <g id="g527">
              <path class="cls-1" d="M50.5,19.67c-.28,0-.5-.22-.5-.5v-9.34c0-1.44-1.17-2.61-2.61-2.61h-28.11c-.28,0-.5-.22-.5-.5,0-3.16-2.57-5.72-5.72-5.72H3.61c-1.44,0-2.61,1.17-2.61,2.61v15.56c0,.28-.22.5-.5.5s-.5-.22-.5-.5V3.61C0,1.62,1.62,0,3.61,0h9.44c3.54,0,6.45,2.75,6.71,6.22h27.63c1.99,0,3.61,1.62,3.61,3.61v9.34c0,.28-.22.5-.5.5Z"/>
            </g>
            <g id="g531">
              <path class="cls-1" d="M44.28,19.67c-.28,0-.5-.22-.5-.5v-5.72H7.22v5.72c0,.28-.22.5-.5.5s-.5-.22-.5-.5v-6.22c0-.28.22-.5.5-.5h37.55c.28,0,.5.22.5.5v6.22c0,.28-.22.5-.5.5Z"/>
            </g>
            <g id="g535">
              <path class="cls-1" d="M31.72,32.22c-.13,0-.26-.05-.35-.15l-5.87-5.87-5.87,5.87c-.2.2-.51.2-.71,0-.2-.2-.2-.51,0-.71l6.22-6.22c.19-.19.52-.19.71,0l6.22,6.22c.2.2.2.51,0,.71-.1.1-.23.15-.35.15Z"/>
            </g>
            <g id="g539">
              <path class="cls-1" d="M25.5,38.45c-.28,0-.5-.22-.5-.5v-12.45c0-.28.22-.5.5-.5s.5.22.5.5v12.45c0,.28-.22.5-.5.5Z"/>
            </g>
            <g id="g543">
              <path class="cls-1" d="M34.84,44.67h-18.67c-.28,0-.5-.22-.5-.5v-3.11c0-.28.22-.5.5-.5s.5.22.5.5v2.61h17.67v-2.61c0-.28.22-.5.5-.5s.5.22.5.5v3.11c0,.28-.22.5-.5.5Z"/>
            </g>
          </g>
        </g>
      </g>
    </g>
  </g>
</svg>