<?xml version="1.0" encoding="UTF-8"?>
<svg id="Layer_2" xmlns="http://www.w3.org/2000/svg" viewBox="0 0 54.99 50">
  <defs>
    <style>
      .cls-1 {
        fill: #ababab;
      }
    </style>
  </defs>
  <g id="INCARCA_LUCRARE_PRACTICA">
    <g id="note_x5F_wide_copy_10">
      <g id="attention_x5F_icon">
        <path class="cls-1" d="M.75,8.56l21.74,38.52c1.56,2.77,5.07,3.74,7.83,2.18.91-.51,1.67-1.27,2.18-2.18L54.24,8.56c1.57-2.75.61-6.24-2.14-7.81C51.23.26,50.25,0,49.26,0H5.73C2.57,0,0,2.55,0,5.71c0,1,.26,1.98.75,2.84ZM30.25,27.82c0,1.52-1.23,2.75-2.75,2.75s-2.75-1.23-2.75-2.75v-8.25c0-1.52,1.23-2.75,2.75-2.75,1.52,0,2.75,1.23,2.75,2.75v8.25ZM27.49,8.56c1.52,0,2.75,1.23,2.75,2.75s-1.23,2.75-2.75,2.75c-1.52,0-2.75-1.23-2.75-2.75s1.23-2.75,2.75-2.75Z"/>
      </g>
    </g>
  </g>
</svg>