<?xml version="1.0" encoding="UTF-8"?>
<svg id="Layer_2" xmlns="http://www.w3.org/2000/svg" xmlns:xlink="http://www.w3.org/1999/xlink" viewBox="0 0 1600 1400">
  <defs>
    <style>
      .cls-1 {
        fill: none;
      }

      .cls-2 {
        fill: url(#radial-gradient-7);
      }

      .cls-3 {
        fill: url(#radial-gradient-6);
      }

      .cls-4 {
        fill: url(#radial-gradient-5);
      }

      .cls-5 {
        fill: url(#radial-gradient-4);
      }

      .cls-6 {
        fill: url(#radial-gradient-9);
      }

      .cls-7 {
        fill: url(#radial-gradient-8);
      }

      .cls-8 {
        fill: url(#radial-gradient-3);
      }

      .cls-9 {
        fill: url(#radial-gradient-2);
      }

      .cls-10 {
        fill: url(#radial-gradient);
      }

      .cls-11 {
        fill: url(#radial-gradient-16);
      }

      .cls-12 {
        fill: url(#radial-gradient-12);
      }

      .cls-13 {
        fill: url(#radial-gradient-14);
      }

      .cls-14 {
        fill: url(#radial-gradient-13);
      }

      .cls-15 {
        fill: url(#radial-gradient-10);
      }

      .cls-16 {
        fill: url(#radial-gradient-17);
      }

      .cls-17 {
        fill: url(#radial-gradient-19);
      }

      .cls-18 {
        fill: url(#radial-gradient-11);
      }

      .cls-19 {
        fill: url(#radial-gradient-18);
      }

      .cls-20 {
        fill: url(#radial-gradient-15);
      }

      .cls-21 {
        fill: url(#radial-gradient-48);
      }

      .cls-22 {
        fill: url(#radial-gradient-47);
      }

      .cls-23 {
        fill: url(#radial-gradient-56);
      }

      .cls-24 {
        fill: url(#radial-gradient-58);
      }

      .cls-25 {
        fill: url(#radial-gradient-57);
      }

      .cls-26 {
        fill: url(#radial-gradient-44);
      }

      .cls-27 {
        fill: url(#radial-gradient-43);
      }

      .cls-28 {
        fill: url(#radial-gradient-49);
      }

      .cls-29 {
        fill: url(#radial-gradient-42);
      }

      .cls-30 {
        fill: url(#radial-gradient-40);
      }

      .cls-31 {
        fill: url(#radial-gradient-41);
      }

      .cls-32 {
        fill: url(#radial-gradient-46);
      }

      .cls-33 {
        fill: url(#radial-gradient-45);
      }

      .cls-34 {
        fill: url(#radial-gradient-25);
      }

      .cls-35 {
        fill: url(#radial-gradient-54);
      }

      .cls-36 {
        fill: url(#radial-gradient-59);
      }

      .cls-37 {
        fill: url(#radial-gradient-53);
      }

      .cls-38 {
        fill: url(#radial-gradient-52);
      }

      .cls-39 {
        fill: url(#radial-gradient-51);
      }

      .cls-40 {
        fill: url(#radial-gradient-50);
      }

      .cls-41 {
        fill: url(#radial-gradient-55);
      }

      .cls-42 {
        fill: url(#radial-gradient-35);
      }

      .cls-43 {
        fill: url(#radial-gradient-34);
      }

      .cls-44 {
        fill: url(#radial-gradient-22);
      }

      .cls-45 {
        fill: url(#radial-gradient-28);
      }

      .cls-46 {
        fill: url(#radial-gradient-23);
      }

      .cls-47 {
        fill: url(#radial-gradient-20);
      }

      .cls-48 {
        fill: url(#radial-gradient-24);
      }

      .cls-49 {
        fill: url(#radial-gradient-26);
      }

      .cls-50 {
        fill: url(#radial-gradient-29);
      }

      .cls-51 {
        fill: url(#radial-gradient-27);
      }

      .cls-52 {
        fill: url(#radial-gradient-21);
      }

      .cls-53 {
        fill: url(#radial-gradient-39);
      }

      .cls-54 {
        fill: url(#radial-gradient-38);
      }

      .cls-55 {
        fill: url(#radial-gradient-33);
      }

      .cls-56 {
        fill: url(#radial-gradient-32);
      }

      .cls-57 {
        fill: url(#radial-gradient-31);
      }

      .cls-58 {
        fill: url(#radial-gradient-30);
      }

      .cls-59 {
        fill: url(#radial-gradient-37);
      }

      .cls-60 {
        fill: url(#radial-gradient-36);
      }

      .cls-61 {
        fill: url(#radial-gradient-62);
      }

      .cls-62 {
        fill: url(#radial-gradient-64);
      }

      .cls-63 {
        fill: url(#radial-gradient-65);
      }

      .cls-64 {
        fill: url(#radial-gradient-63);
      }

      .cls-65 {
        fill: url(#radial-gradient-67);
      }

      .cls-66 {
        fill: url(#radial-gradient-68);
      }

      .cls-67 {
        fill: url(#radial-gradient-69);
      }

      .cls-68 {
        fill: url(#radial-gradient-70);
      }

      .cls-69 {
        fill: url(#radial-gradient-72);
      }

      .cls-70 {
        fill: url(#radial-gradient-75);
      }

      .cls-71 {
        fill: url(#radial-gradient-78);
      }

      .cls-72 {
        fill: url(#radial-gradient-77);
      }

      .cls-73 {
        fill: url(#radial-gradient-61);
      }

      .cls-74 {
        fill: url(#radial-gradient-66);
      }

      .cls-75 {
        fill: url(#radial-gradient-60);
      }

      .cls-76 {
        fill: url(#radial-gradient-71);
      }

      .cls-77 {
        fill: url(#radial-gradient-74);
      }

      .cls-78 {
        fill: url(#radial-gradient-73);
      }

      .cls-79 {
        fill: url(#radial-gradient-76);
      }

      .cls-80 {
        opacity: .06;
      }

      .cls-81 {
        clip-path: url(#clippath);
      }
    </style>
    <clipPath id="clippath">
      <rect class="cls-1" width="1600" height="1400"/>
    </clipPath>
    <radialGradient id="radial-gradient" cx="800" cy="1587.97" fx="800" fy="1587.97" r="579.06" gradientTransform="translate(0 -251.92) scale(1 .94)" gradientUnits="userSpaceOnUse">
      <stop offset="0" stop-color="#d2d2d2"/>
      <stop offset="1" stop-color="#ababab" stop-opacity="0"/>
    </radialGradient>
    <radialGradient id="radial-gradient-2" cy="1573.11" fy="1573.11" r="579.06" xlink:href="#radial-gradient"/>
    <radialGradient id="radial-gradient-3" cy="1558.25" fy="1558.25" r="579.06" xlink:href="#radial-gradient"/>
    <radialGradient id="radial-gradient-4" cy="1543.39" fy="1543.39" r="579.06" xlink:href="#radial-gradient"/>
    <radialGradient id="radial-gradient-5" cy="1528.54" fy="1528.54" r="579.06" xlink:href="#radial-gradient"/>
    <radialGradient id="radial-gradient-6" cy="1513.68" fy="1513.68" r="579.06" xlink:href="#radial-gradient"/>
    <radialGradient id="radial-gradient-7" cy="1498.82" fy="1498.82" r="579.06" xlink:href="#radial-gradient"/>
    <radialGradient id="radial-gradient-8" cy="1483.96" fy="1483.96" xlink:href="#radial-gradient"/>
    <radialGradient id="radial-gradient-9" cy="1469.1" fy="1469.1" r="579.06" xlink:href="#radial-gradient"/>
    <radialGradient id="radial-gradient-10" cy="1454.24" fy="1454.24" r="579.06" xlink:href="#radial-gradient"/>
    <radialGradient id="radial-gradient-11" cy="1439.38" fy="1439.38" r="579.06" xlink:href="#radial-gradient"/>
    <radialGradient id="radial-gradient-12" cy="1424.52" fy="1424.52" r="579.06" xlink:href="#radial-gradient"/>
    <radialGradient id="radial-gradient-13" cy="1409.66" fy="1409.66" r="579.06" xlink:href="#radial-gradient"/>
    <radialGradient id="radial-gradient-14" cy="1394.81" fy="1394.81" r="579.06" xlink:href="#radial-gradient"/>
    <radialGradient id="radial-gradient-15" cy="1379.95" fy="1379.95" r="579.06" xlink:href="#radial-gradient"/>
    <radialGradient id="radial-gradient-16" cy="1365.09" fy="1365.09" r="579.06" xlink:href="#radial-gradient"/>
    <radialGradient id="radial-gradient-17" cy="1350.23" fy="1350.23" r="579.06" xlink:href="#radial-gradient"/>
    <radialGradient id="radial-gradient-18" cy="1335.37" fy="1335.37" r="579.06" xlink:href="#radial-gradient"/>
    <radialGradient id="radial-gradient-19" cy="1320.51" fy="1320.51" r="579.06" xlink:href="#radial-gradient"/>
    <radialGradient id="radial-gradient-20" cy="1305.65" fy="1305.65" r="579.06" xlink:href="#radial-gradient"/>
    <radialGradient id="radial-gradient-21" cy="1290.79" fy="1290.79" r="579.06" xlink:href="#radial-gradient"/>
    <radialGradient id="radial-gradient-22" cy="1275.94" fy="1275.94" r="579.06" xlink:href="#radial-gradient"/>
    <radialGradient id="radial-gradient-23" cy="1261.08" fy="1261.08" r="579.06" xlink:href="#radial-gradient"/>
    <radialGradient id="radial-gradient-24" cy="1246.22" fy="1246.22" r="579.06" xlink:href="#radial-gradient"/>
    <radialGradient id="radial-gradient-25" cy="1231.36" fy="1231.36" r="579.06" xlink:href="#radial-gradient"/>
    <radialGradient id="radial-gradient-26" cy="1216.5" fy="1216.5" r="579.06" xlink:href="#radial-gradient"/>
    <radialGradient id="radial-gradient-27" cy="1201.64" fy="1201.64" r="579.06" xlink:href="#radial-gradient"/>
    <radialGradient id="radial-gradient-28" cy="1186.78" fy="1186.78" r="579.06" xlink:href="#radial-gradient"/>
    <radialGradient id="radial-gradient-29" cy="1171.92" fy="1171.92" r="579.06" xlink:href="#radial-gradient"/>
    <radialGradient id="radial-gradient-30" cy="1157.06" fy="1157.06" r="579.06" xlink:href="#radial-gradient"/>
    <radialGradient id="radial-gradient-31" cy="1142.21" fy="1142.21" r="579.06" xlink:href="#radial-gradient"/>
    <radialGradient id="radial-gradient-32" cy="1127.35" fy="1127.35" r="579.06" xlink:href="#radial-gradient"/>
    <radialGradient id="radial-gradient-33" cy="1112.49" fy="1112.49" r="579.06" xlink:href="#radial-gradient"/>
    <radialGradient id="radial-gradient-34" cy="1097.63" fy="1097.63" r="579.06" xlink:href="#radial-gradient"/>
    <radialGradient id="radial-gradient-35" cy="1082.77" fy="1082.77" r="579.06" xlink:href="#radial-gradient"/>
    <radialGradient id="radial-gradient-36" cy="1067.91" fy="1067.91" r="579.06" xlink:href="#radial-gradient"/>
    <radialGradient id="radial-gradient-37" cy="1053.05" fy="1053.05" r="579.06" xlink:href="#radial-gradient"/>
    <radialGradient id="radial-gradient-38" cy="1038.19" fy="1038.19" r="579.06" xlink:href="#radial-gradient"/>
    <radialGradient id="radial-gradient-39" cy="1023.33" fy="1023.33" r="579.06" xlink:href="#radial-gradient"/>
    <radialGradient id="radial-gradient-40" cy="1008.48" fy="1008.48" r="579.06" xlink:href="#radial-gradient"/>
    <radialGradient id="radial-gradient-41" cy="993.62" fy="993.62" r="579.06" xlink:href="#radial-gradient"/>
    <radialGradient id="radial-gradient-42" cy="978.76" fy="978.76" r="579.06" xlink:href="#radial-gradient"/>
    <radialGradient id="radial-gradient-43" cy="963.9" fy="963.9" r="579.06" xlink:href="#radial-gradient"/>
    <radialGradient id="radial-gradient-44" cy="949.04" fy="949.04" r="579.06" xlink:href="#radial-gradient"/>
    <radialGradient id="radial-gradient-45" cy="934.18" fy="934.18" r="579.06" xlink:href="#radial-gradient"/>
    <radialGradient id="radial-gradient-46" cy="919.32" fy="919.32" r="579.06" xlink:href="#radial-gradient"/>
    <radialGradient id="radial-gradient-47" cy="904.46" fy="904.46" r="579.06" xlink:href="#radial-gradient"/>
    <radialGradient id="radial-gradient-48" cy="889.61" fy="889.61" r="579.06" xlink:href="#radial-gradient"/>
    <radialGradient id="radial-gradient-49" cy="874.75" fy="874.75" r="579.06" xlink:href="#radial-gradient"/>
    <radialGradient id="radial-gradient-50" cy="859.89" fy="859.89" r="579.06" xlink:href="#radial-gradient"/>
    <radialGradient id="radial-gradient-51" cy="845.03" fy="845.03" r="579.06" xlink:href="#radial-gradient"/>
    <radialGradient id="radial-gradient-52" cy="830.17" fy="830.17" r="579.06" xlink:href="#radial-gradient"/>
    <radialGradient id="radial-gradient-53" cy="815.31" fy="815.31" r="579.06" xlink:href="#radial-gradient"/>
    <radialGradient id="radial-gradient-54" cy="800.45" fy="800.45" r="579.06" xlink:href="#radial-gradient"/>
    <radialGradient id="radial-gradient-55" cy="785.59" fy="785.59" r="579.06" xlink:href="#radial-gradient"/>
    <radialGradient id="radial-gradient-56" cy="770.73" fy="770.73" r="579.06" xlink:href="#radial-gradient"/>
    <radialGradient id="radial-gradient-57" cy="755.88" fy="755.88" r="579.06" xlink:href="#radial-gradient"/>
    <radialGradient id="radial-gradient-58" cy="741.02" fy="741.02" r="579.06" xlink:href="#radial-gradient"/>
    <radialGradient id="radial-gradient-59" cy="726.16" fy="726.16" r="579.06" xlink:href="#radial-gradient"/>
    <radialGradient id="radial-gradient-60" cy="711.3" fy="711.3" r="579.06" xlink:href="#radial-gradient"/>
    <radialGradient id="radial-gradient-61" cy="696.44" fy="696.44" r="579.06" xlink:href="#radial-gradient"/>
    <radialGradient id="radial-gradient-62" cy="681.58" fy="681.58" r="579.06" xlink:href="#radial-gradient"/>
    <radialGradient id="radial-gradient-63" cy="666.72" fy="666.72" r="579.06" xlink:href="#radial-gradient"/>
    <radialGradient id="radial-gradient-64" cy="651.86" fy="651.86" r="579.06" xlink:href="#radial-gradient"/>
    <radialGradient id="radial-gradient-65" cy="637.01" fy="637.01" r="579.06" xlink:href="#radial-gradient"/>
    <radialGradient id="radial-gradient-66" cy="622.15" fy="622.15" r="579.06" xlink:href="#radial-gradient"/>
    <radialGradient id="radial-gradient-67" cy="607.29" fy="607.29" r="579.06" xlink:href="#radial-gradient"/>
    <radialGradient id="radial-gradient-68" cy="592.43" fy="592.43" r="579.06" xlink:href="#radial-gradient"/>
    <radialGradient id="radial-gradient-69" cy="577.57" fy="577.57" r="579.06" xlink:href="#radial-gradient"/>
    <radialGradient id="radial-gradient-70" cy="562.71" fy="562.71" r="579.06" xlink:href="#radial-gradient"/>
    <radialGradient id="radial-gradient-71" cy="547.85" fy="547.85" r="579.06" xlink:href="#radial-gradient"/>
    <radialGradient id="radial-gradient-72" cy="532.99" fy="532.99" r="579.06" xlink:href="#radial-gradient"/>
    <radialGradient id="radial-gradient-73" cy="518.13" fy="518.13" r="579.06" xlink:href="#radial-gradient"/>
    <radialGradient id="radial-gradient-74" cy="503.28" fy="503.28" r="579.06" xlink:href="#radial-gradient"/>
    <radialGradient id="radial-gradient-75" cy="488.42" fy="488.42" r="579.06" xlink:href="#radial-gradient"/>
    <radialGradient id="radial-gradient-76" cy="473.56" fy="473.56" r="579.06" xlink:href="#radial-gradient"/>
    <radialGradient id="radial-gradient-77" cy="458.7" fy="458.7" r="579.06" xlink:href="#radial-gradient"/>
    <radialGradient id="radial-gradient-78" cy="443.84" fy="443.84" r="579.06" xlink:href="#radial-gradient"/>
  </defs>
  <g id="LANDING_x5F_1">
    <g id="back_x5F_texture-1_x5F_wide">
      <g class="cls-81">
        <g id="back_x5F_texture_x5F_01" class="cls-80">
          <g>
            <path class="cls-10" d="M1600,1238.37c-102.27-104.76-231.57-175.3-386.88-159.03-209.08,21.9-388.2,154.05-571.77,239.05-92.84,42.99-193.38,80.46-298.38,81.59-138.53,1.48-252.24-68.66-342.97-161.61v-4.93c90.73,92.95,204.44,163.09,342.97,161.61,105-1.13,205.54-38.6,298.38-81.59,183.57-85,362.69-217.16,571.77-239.05,155.31-16.26,284.62,54.27,386.88,159.03v4.93Z"/>
            <path class="cls-9" d="M1600,1224.44c-102.27-104.76-231.57-175.3-386.88-159.03-209.08,21.9-388.2,154.05-571.77,239.05-92.84,42.99-193.38,80.46-298.38,81.59-138.53,1.49-252.24-68.66-342.97-161.61v-4.93c90.73,92.95,204.44,163.09,342.97,161.61,105-1.13,205.54-38.6,298.38-81.59,183.57-85.01,362.69-217.16,571.77-239.05,155.31-16.26,284.62,54.27,386.88,159.03v4.93Z"/>
            <path class="cls-8" d="M1600,1210.52c-102.27-104.76-231.57-175.3-386.88-159.03-209.08,21.9-388.2,154.05-571.77,239.05-92.84,42.99-193.38,80.46-298.38,81.59-138.53,1.48-252.24-68.66-342.97-161.61v-4.93c90.73,92.95,204.44,163.09,342.97,161.61,105-1.13,205.54-38.6,298.38-81.59,183.57-85.01,362.69-217.16,571.77-239.05,155.31-16.26,284.62,54.27,386.88,159.03v4.93Z"/>
            <path class="cls-5" d="M1600,1196.6c-102.27-104.76-231.57-175.3-386.88-159.03-209.08,21.9-388.2,154.05-571.77,239.05-92.84,42.99-193.38,80.46-298.38,81.59-138.53,1.49-252.24-68.66-342.97-161.61v-4.93c90.73,92.95,204.44,163.1,342.97,161.61,105-1.13,205.54-38.6,298.38-81.59,183.57-85.01,362.69-217.16,571.77-239.05,155.31-16.26,284.62,54.27,386.88,159.03v4.93Z"/>
            <path class="cls-4" d="M1600,1182.68c-102.27-104.76-231.57-175.3-386.88-159.03-209.08,21.9-388.2,154.05-571.77,239.05-92.84,42.99-193.38,80.46-298.38,81.59-138.53,1.48-252.24-68.66-342.97-161.61v-4.93c90.73,92.95,204.44,163.09,342.97,161.61,105-1.13,205.54-38.6,298.38-81.59,183.57-85.01,362.69-217.16,571.77-239.05,155.31-16.26,284.62,54.27,386.88,159.03v4.93Z"/>
            <path class="cls-3" d="M1600,1168.75c-102.27-104.76-231.57-175.3-386.88-159.03-209.08,21.9-388.2,154.05-571.77,239.05-92.84,42.99-193.38,80.46-298.38,81.59-138.53,1.49-252.24-68.66-342.97-161.61v-4.93c90.73,92.95,204.44,163.09,342.97,161.61,105-1.13,205.54-38.6,298.38-81.59,183.57-85.01,362.69-217.16,571.77-239.05,155.31-16.26,284.62,54.27,386.88,159.03v4.93Z"/>
            <path class="cls-2" d="M1600,1154.83c-102.27-104.76-231.57-175.3-386.88-159.03-209.08,21.9-388.2,154.05-571.77,239.05-92.84,42.99-193.38,80.46-298.38,81.59-138.53,1.49-252.24-68.66-342.97-161.61v-4.93c90.73,92.95,204.44,163.09,342.97,161.61,105-1.13,205.54-38.6,298.38-81.59,183.57-85.01,362.69-217.16,571.77-239.05,155.31-16.26,284.62,54.27,386.88,159.03v4.93Z"/>
            <path class="cls-7" d="M1600,1140.91c-102.27-104.76-231.57-175.3-386.88-159.03-209.08,21.9-388.2,154.05-571.77,239.05-92.84,42.99-193.38,80.46-298.38,81.59-138.53,1.48-252.24-68.66-342.97-161.61v-4.93c90.73,92.95,204.44,163.09,342.97,161.61,105-1.13,205.54-38.6,298.38-81.59,183.57-85,362.69-217.16,571.77-239.05,155.31-16.26,284.62,54.27,386.88,159.03v4.93Z"/>
            <path class="cls-6" d="M1600,1126.98c-102.27-104.76-231.57-175.3-386.88-159.03-209.08,21.9-388.2,154.05-571.77,239.05-92.84,42.99-193.38,80.46-298.38,81.59-138.53,1.49-252.24-68.66-342.97-161.61v-4.93c90.73,92.95,204.44,163.1,342.97,161.61,105-1.13,205.54-38.6,298.38-81.59,183.57-85.01,362.69-217.16,571.77-239.05,155.31-16.26,284.62,54.27,386.88,159.03v4.93Z"/>
            <path class="cls-15" d="M1600,1113.06c-102.27-104.76-231.57-175.3-386.88-159.03-209.08,21.9-388.2,154.05-571.77,239.05-92.84,42.99-193.38,80.46-298.38,81.59-138.53,1.48-252.24-68.66-342.97-161.61v-4.93c90.73,92.95,204.44,163.09,342.97,161.61,105-1.13,205.54-38.6,298.38-81.59,183.57-85.01,362.69-217.16,571.77-239.05,155.31-16.26,284.62,54.27,386.88,159.03v4.93Z"/>
            <path class="cls-18" d="M1600,1099.14c-102.27-104.76-231.57-175.3-386.88-159.03-209.08,21.9-388.2,154.05-571.77,239.05-92.84,42.99-193.38,80.46-298.38,81.59-138.53,1.49-252.24-68.66-342.97-161.61v-4.93c90.73,92.95,204.44,163.1,342.97,161.61,105-1.13,205.54-38.6,298.38-81.59,183.57-85.01,362.69-217.16,571.77-239.05,155.31-16.26,284.62,54.27,386.88,159.03v4.93Z"/>
            <path class="cls-12" d="M1600,1085.21c-102.27-104.76-231.57-175.3-386.88-159.03-209.08,21.9-388.2,154.05-571.77,239.05-92.84,42.99-193.38,80.46-298.38,81.59-138.53,1.48-252.24-68.66-342.97-161.61v-4.93c90.73,92.95,204.44,163.09,342.97,161.61,105-1.13,205.54-38.6,298.38-81.59,183.57-85.01,362.69-217.16,571.77-239.05,155.31-16.26,284.62,54.27,386.88,159.03v4.93Z"/>
            <path class="cls-14" d="M1600,1071.29c-102.27-104.76-231.57-175.3-386.88-159.03-209.08,21.9-388.2,154.05-571.77,239.05-92.84,42.99-193.38,80.46-298.38,81.59-138.53,1.48-252.24-68.66-342.97-161.61v-4.93c90.73,92.95,204.44,163.09,342.97,161.61,105-1.13,205.54-38.6,298.38-81.59,183.57-85.01,362.69-217.16,571.77-239.05,155.31-16.26,284.62,54.27,386.88,159.03v4.93Z"/>
            <path class="cls-13" d="M1600,1057.37c-102.27-104.76-231.57-175.3-386.88-159.03-209.08,21.9-388.2,154.05-571.77,239.05-92.84,42.99-193.38,80.46-298.38,81.59-138.53,1.49-252.24-68.66-342.97-161.61v-4.93c90.73,92.95,204.44,163.09,342.97,161.61,105-1.13,205.54-38.6,298.38-81.59,183.57-85.01,362.69-217.16,571.77-239.05,155.31-16.26,284.62,54.27,386.88,159.03v4.93Z"/>
            <path class="cls-20" d="M1600,1043.45c-102.27-104.76-231.57-175.3-386.88-159.03-209.08,21.9-388.2,154.05-571.77,239.05-92.84,42.99-193.38,80.46-298.38,81.59-138.53,1.48-252.24-68.66-342.97-161.61v-4.93c90.73,92.95,204.44,163.09,342.97,161.61,105-1.13,205.54-38.6,298.38-81.59,183.57-85,362.69-217.16,571.77-239.05,155.31-16.26,284.62,54.27,386.88,159.03v4.93Z"/>
            <path class="cls-11" d="M1600,1029.52c-102.27-104.76-231.57-175.3-386.88-159.03-209.08,21.9-388.2,154.05-571.77,239.05-92.84,42.99-193.38,80.46-298.38,81.59-138.53,1.49-252.24-68.66-342.97-161.61v-4.93c90.73,92.95,204.44,163.09,342.97,161.61,105-1.13,205.54-38.6,298.38-81.59,183.57-85.01,362.69-217.16,571.77-239.05,155.31-16.26,284.62,54.27,386.88,159.03v4.93Z"/>
            <path class="cls-16" d="M1600,1015.6c-102.27-104.76-231.57-175.3-386.88-159.03-209.08,21.9-388.2,154.05-571.77,239.05-92.84,42.99-193.38,80.46-298.38,81.59-138.53,1.48-252.24-68.66-342.97-161.61v-4.93c90.73,92.95,204.44,163.09,342.97,161.61,105-1.13,205.54-38.6,298.38-81.59,183.57-85,362.69-217.16,571.77-239.05,155.31-16.26,284.62,54.27,386.88,159.03v4.93Z"/>
            <path class="cls-19" d="M1600,1001.68c-102.27-104.76-231.57-175.3-386.88-159.03-209.08,21.9-388.2,154.05-571.77,239.05-92.84,42.99-193.38,80.46-298.38,81.59-138.53,1.49-252.24-68.66-342.97-161.61v-4.93c90.73,92.95,204.44,163.1,342.97,161.61,105-1.13,205.54-38.6,298.38-81.59,183.57-85.01,362.69-217.16,571.77-239.05,155.31-16.26,284.62,54.27,386.88,159.03v4.93Z"/>
            <path class="cls-17" d="M1600,987.75c-102.27-104.76-231.57-175.3-386.88-159.03-209.08,21.9-388.2,154.05-571.77,239.05-92.84,42.99-193.38,80.46-298.38,81.59-138.53,1.48-252.24-68.66-342.97-161.61v-4.93c90.73,92.95,204.44,163.09,342.97,161.61,105-1.13,205.54-38.6,298.38-81.59,183.57-85.01,362.69-217.16,571.77-239.05,155.31-16.26,284.62,54.27,386.88,159.03v4.93Z"/>
            <path class="cls-47" d="M1600,973.83c-102.27-104.76-231.57-175.3-386.88-159.03-209.08,21.9-388.2,154.05-571.77,239.05-92.84,42.99-193.38,80.46-298.38,81.59-138.53,1.49-252.24-68.66-342.97-161.61v-4.93c90.73,92.95,204.44,163.1,342.97,161.61,105-1.13,205.54-38.6,298.38-81.59,183.57-85.01,362.69-217.16,571.77-239.05,155.31-16.26,284.62,54.27,386.88,159.03v4.93Z"/>
            <path class="cls-52" d="M1600,959.91c-102.27-104.76-231.57-175.3-386.88-159.03-209.08,21.9-388.2,154.05-571.77,239.05-92.84,42.99-193.38,80.46-298.38,81.59-138.53,1.48-252.24-68.66-342.97-161.61v-4.93c90.73,92.95,204.44,163.09,342.97,161.61,105-1.13,205.54-38.6,298.38-81.59,183.57-85.01,362.69-217.16,571.77-239.05,155.31-16.26,284.62,54.27,386.88,159.03v4.93Z"/>
            <path class="cls-44" d="M1600,945.98c-102.27-104.76-231.57-175.3-386.88-159.03-209.08,21.9-388.2,154.05-571.77,239.05-92.84,42.99-193.38,80.46-298.38,81.59-138.53,1.48-252.24-68.66-342.97-161.61v-4.93c90.73,92.95,204.44,163.09,342.97,161.61,105-1.13,205.54-38.6,298.38-81.59,183.57-85.01,362.69-217.16,571.77-239.05,155.31-16.26,284.62,54.27,386.88,159.03v4.93Z"/>
            <path class="cls-46" d="M1600,932.06c-102.27-104.76-231.57-175.3-386.88-159.03-209.08,21.9-388.2,154.05-571.77,239.05-92.84,42.99-193.38,80.46-298.38,81.59-138.53,1.49-252.24-68.66-342.97-161.61v-4.93c90.73,92.95,204.44,163.09,342.97,161.61,105-1.13,205.54-38.6,298.38-81.59,183.57-85.01,362.69-217.16,571.77-239.05,155.31-16.26,284.62,54.27,386.88,159.03v4.93Z"/>
            <path class="cls-48" d="M1600,918.14c-102.27-104.76-231.57-175.3-386.88-159.03-209.08,21.9-388.2,154.05-571.77,239.05-92.84,42.99-193.38,80.46-298.38,81.59-138.53,1.48-252.24-68.66-342.97-161.61v-4.93c90.73,92.95,204.44,163.09,342.97,161.61,105-1.13,205.54-38.6,298.38-81.59,183.57-85.01,362.69-217.16,571.77-239.05,155.31-16.26,284.62,54.27,386.88,159.03v4.93Z"/>
            <path class="cls-34" d="M1600,904.22c-102.27-104.76-231.57-175.3-386.88-159.03-209.08,21.9-388.2,154.05-571.77,239.05-92.84,42.99-193.38,80.46-298.38,81.59-138.53,1.49-252.24-68.66-342.97-161.61v-4.93c90.73,92.95,204.44,163.1,342.97,161.61,105-1.13,205.54-38.6,298.38-81.59,183.57-85.01,362.69-217.16,571.77-239.05,155.31-16.26,284.62,54.27,386.88,159.03v4.93Z"/>
            <path class="cls-49" d="M1600,890.29c-102.27-104.76-231.57-175.3-386.88-159.03-209.08,21.9-388.2,154.05-571.77,239.05-92.84,42.99-193.38,80.46-298.38,81.59-138.53,1.48-252.24-68.66-342.97-161.61v-4.93c90.73,92.95,204.44,163.09,342.97,161.61,105-1.13,205.54-38.6,298.38-81.59,183.57-85.01,362.69-217.16,571.77-239.05,155.31-16.26,284.62,54.27,386.88,159.03v4.93Z"/>
            <path class="cls-51" d="M1600,876.37c-102.27-104.76-231.57-175.3-386.88-159.03-209.08,21.9-388.2,154.05-571.77,239.05-92.84,42.99-193.38,80.46-298.38,81.59-138.53,1.49-252.24-68.66-342.97-161.61v-4.93c90.73,92.95,204.44,163.1,342.97,161.61,105-1.13,205.54-38.6,298.38-81.59,183.57-85.01,362.69-217.16,571.77-239.05,155.31-16.26,284.62,54.27,386.88,159.03v4.93Z"/>
            <path class="cls-45" d="M1600,862.45c-102.27-104.76-231.57-175.3-386.88-159.03-209.08,21.9-388.2,154.05-571.77,239.05-92.84,42.99-193.38,80.46-298.38,81.59-138.53,1.48-252.24-68.66-342.97-161.61v-4.93c90.73,92.95,204.44,163.09,342.97,161.61,105-1.13,205.54-38.6,298.38-81.59,183.57-85.01,362.69-217.16,571.77-239.05,155.31-16.26,284.62,54.27,386.88,159.03v4.93Z"/>
            <path class="cls-50" d="M1600,848.52c-102.27-104.76-231.57-175.3-386.88-159.03-209.08,21.9-388.2,154.05-571.77,239.05-92.84,42.99-193.38,80.46-298.38,81.59-138.53,1.48-252.24-68.66-342.97-161.61v-4.93c90.73,92.95,204.44,163.09,342.97,161.61,105-1.13,205.54-38.6,298.38-81.59,183.57-85.01,362.69-217.16,571.77-239.05,155.31-16.26,284.62,54.27,386.88,159.03v4.93Z"/>
            <path class="cls-58" d="M1600,834.6c-102.27-104.76-231.57-175.3-386.88-159.03-209.08,21.9-388.2,154.05-571.77,239.05-92.84,42.99-193.38,80.46-298.38,81.59-138.53,1.48-252.24-68.66-342.97-161.61v-4.93c90.73,92.95,204.44,163.09,342.97,161.61,105-1.13,205.54-38.6,298.38-81.59,183.57-85.01,362.69-217.16,571.77-239.05,155.31-16.26,284.62,54.27,386.88,159.03v4.93Z"/>
            <path class="cls-57" d="M1600,820.68c-102.27-104.76-231.57-175.3-386.88-159.03-209.08,21.9-388.2,154.05-571.77,239.05-92.84,42.99-193.38,80.46-298.38,81.59-138.53,1.48-252.24-68.66-342.97-161.61v-4.93c90.73,92.95,204.44,163.09,342.97,161.61,105-1.13,205.54-38.6,298.38-81.59,183.57-85.01,362.69-217.16,571.77-239.05,155.31-16.26,284.62,54.27,386.88,159.03v4.93Z"/>
            <path class="cls-56" d="M1600,806.75c-102.27-104.76-231.57-175.3-386.88-159.03-209.08,21.9-388.2,154.05-571.77,239.05-92.84,42.99-193.38,80.46-298.38,81.59-138.53,1.49-252.24-68.66-342.97-161.61v-4.93c90.73,92.95,204.44,163.09,342.97,161.61,105-1.13,205.54-38.6,298.38-81.59,183.57-85.01,362.69-217.16,571.77-239.05,155.31-16.26,284.62,54.27,386.88,159.03v4.93Z"/>
            <path class="cls-55" d="M1600,792.83c-102.27-104.76-231.57-175.3-386.88-159.03-209.08,21.9-388.2,154.05-571.77,239.05-92.84,42.99-193.38,80.46-298.38,81.59-138.53,1.48-252.24-68.66-342.97-161.61v-4.93c90.73,92.95,204.44,163.09,342.97,161.61,105-1.13,205.54-38.6,298.38-81.59,183.57-85.01,362.69-217.16,571.77-239.05,155.31-16.26,284.62,54.27,386.88,159.03v4.93Z"/>
            <path class="cls-43" d="M1600,778.91c-102.27-104.76-231.57-175.3-386.88-159.03-209.08,21.9-388.2,154.05-571.77,239.05-92.84,42.99-193.38,80.46-298.38,81.59-138.53,1.49-252.24-68.66-342.97-161.61v-4.93c90.73,92.95,204.44,163.1,342.97,161.61,105-1.13,205.54-38.6,298.38-81.59,183.57-85.01,362.69-217.16,571.77-239.05,155.31-16.26,284.62,54.27,386.88,159.03v4.93Z"/>
            <path class="cls-42" d="M1600,764.98c-102.27-104.76-231.57-175.3-386.88-159.03-209.08,21.9-388.2,154.05-571.77,239.05-92.84,42.99-193.38,80.46-298.38,81.59-138.53,1.48-252.24-68.66-342.97-161.61v-4.93c90.73,92.95,204.44,163.09,342.97,161.61,105-1.13,205.54-38.6,298.38-81.59,183.57-85.01,362.69-217.16,571.77-239.05,155.31-16.26,284.62,54.27,386.88,159.03v4.93Z"/>
            <path class="cls-60" d="M1600,751.06c-102.27-104.76-231.57-175.3-386.88-159.03-209.08,21.9-388.2,154.05-571.77,239.05-92.84,42.99-193.38,80.46-298.38,81.59-138.53,1.49-252.24-68.66-342.97-161.61v-4.93c90.73,92.95,204.44,163.09,342.97,161.61,105-1.13,205.54-38.6,298.38-81.59,183.57-85.01,362.69-217.16,571.77-239.05,155.31-16.26,284.62,54.27,386.88,159.03v4.93Z"/>
            <path class="cls-59" d="M1600,737.14c-102.27-104.76-231.57-175.3-386.88-159.03-209.08,21.9-388.2,154.05-571.77,239.05-92.84,42.99-193.38,80.46-298.38,81.59-138.53,1.48-252.24-68.66-342.97-161.61v-4.93c90.73,92.95,204.44,163.09,342.97,161.61,105-1.13,205.54-38.6,298.38-81.59,183.57-85.01,362.69-217.16,571.77-239.05,155.31-16.26,284.62,54.27,386.88,159.03v4.93Z"/>
            <path class="cls-54" d="M1600,723.22c-102.27-104.76-231.57-175.3-386.88-159.03-209.08,21.9-388.2,154.05-571.77,239.05-92.84,42.99-193.38,80.46-298.38,81.59-138.53,1.48-252.24-68.66-342.97-161.61v-4.93c90.73,92.95,204.44,163.09,342.97,161.61,105-1.13,205.54-38.6,298.38-81.59,183.57-85.01,362.69-217.16,571.77-239.05,155.31-16.26,284.62,54.27,386.88,159.03v4.93Z"/>
            <path class="cls-53" d="M1600,709.29c-102.27-104.76-231.57-175.3-386.88-159.03-209.08,21.9-388.2,154.05-571.77,239.05-92.84,42.99-193.38,80.46-298.38,81.59-138.53,1.49-252.24-68.66-342.97-161.61v-4.93c90.73,92.95,204.44,163.09,342.97,161.61,105-1.13,205.54-38.6,298.38-81.59,183.57-85.01,362.69-217.16,571.77-239.05,155.31-16.26,284.62,54.27,386.88,159.03v4.93Z"/>
            <path class="cls-30" d="M1600,695.37c-102.27-104.76-231.57-175.3-386.88-159.03-209.08,21.9-388.2,154.05-571.77,239.05-92.84,42.99-193.38,80.46-298.38,81.59-138.53,1.48-252.24-68.66-342.97-161.61v-4.93c90.73,92.95,204.44,163.09,342.97,161.61,105-1.13,205.54-38.6,298.38-81.59,183.57-85.01,362.69-217.16,571.77-239.05,155.31-16.26,284.62,54.27,386.88,159.03v4.93Z"/>
            <path class="cls-31" d="M1600,681.45c-102.27-104.76-231.57-175.3-386.88-159.03-209.08,21.9-388.2,154.05-571.77,239.05-92.84,42.99-193.38,80.46-298.38,81.59-138.53,1.49-252.24-68.66-342.97-161.61v-4.93c90.73,92.95,204.44,163.09,342.97,161.61,105-1.13,205.54-38.6,298.38-81.59,183.57-85.01,362.69-217.16,571.77-239.05,155.31-16.26,284.62,54.27,386.88,159.03v4.93Z"/>
            <path class="cls-29" d="M1600,667.52c-102.27-104.76-231.57-175.3-386.88-159.03-209.08,21.9-388.2,154.05-571.77,239.05-92.84,42.99-193.38,80.46-298.38,81.59-138.53,1.48-252.24-68.66-342.97-161.61v-4.93c90.73,92.95,204.44,163.09,342.97,161.61,105-1.13,205.54-38.6,298.38-81.59,183.57-85.01,362.69-217.16,571.77-239.05,155.31-16.26,284.62,54.27,386.88,159.03v4.93Z"/>
            <path class="cls-27" d="M1600,653.6c-102.27-104.76-231.57-175.3-386.88-159.03-209.08,21.9-388.2,154.05-571.77,239.05-92.84,42.99-193.38,80.46-298.38,81.59-138.53,1.49-252.24-68.66-342.97-161.61v-4.93c90.73,92.95,204.44,163.1,342.97,161.61,105-1.13,205.54-38.6,298.38-81.59,183.57-85.01,362.69-217.16,571.77-239.05,155.31-16.26,284.62,54.27,386.88,159.03v4.93Z"/>
            <path class="cls-26" d="M1600,639.68c-102.27-104.76-231.57-175.3-386.88-159.03-209.08,21.9-388.2,154.05-571.77,239.05-92.84,42.99-193.38,80.46-298.38,81.59-138.53,1.48-252.24-68.66-342.97-161.61v-4.93c90.73,92.95,204.44,163.09,342.97,161.61,105-1.13,205.54-38.6,298.38-81.59,183.57-85.01,362.69-217.16,571.77-239.05,155.31-16.26,284.62,54.27,386.88,159.03v4.93Z"/>
            <path class="cls-33" d="M1600,625.75c-102.27-104.76-231.57-175.3-386.88-159.03-209.08,21.9-388.2,154.05-571.77,239.05-92.84,42.99-193.38,80.46-298.38,81.59-138.53,1.49-252.24-68.66-342.97-161.61v-4.93c90.73,92.95,204.44,163.09,342.97,161.61,105-1.13,205.54-38.6,298.38-81.59,183.57-85.01,362.69-217.16,571.77-239.05,155.31-16.26,284.62,54.27,386.88,159.03v4.93Z"/>
            <path class="cls-32" d="M1600,611.83c-102.27-104.76-231.57-175.3-386.88-159.03-209.08,21.9-388.2,154.05-571.77,239.05-92.84,42.99-193.38,80.46-298.38,81.59-138.53,1.48-252.24-68.66-342.97-161.61v-4.93c90.73,92.95,204.44,163.09,342.97,161.61,105-1.13,205.54-38.6,298.38-81.59,183.57-85.01,362.69-217.16,571.77-239.05,155.31-16.26,284.62,54.27,386.88,159.03v4.93Z"/>
            <path class="cls-22" d="M1600,597.91c-102.27-104.76-231.57-175.3-386.88-159.03-209.08,21.9-388.2,154.05-571.77,239.05-92.84,42.99-193.38,80.46-298.38,81.59-138.53,1.48-252.24-68.66-342.97-161.61v-4.93c90.73,92.95,204.44,163.09,342.97,161.61,105-1.13,205.54-38.6,298.38-81.59,183.57-85,362.69-217.16,571.77-239.05,155.31-16.26,284.62,54.27,386.88,159.03v4.93Z"/>
            <path class="cls-21" d="M1600,583.99c-102.27-104.76-231.57-175.3-386.88-159.03-209.08,21.9-388.2,154.05-571.77,239.05-92.84,42.99-193.38,80.46-298.38,81.59-138.53,1.49-252.24-68.66-342.97-161.61v-4.93c90.73,92.95,204.44,163.09,342.97,161.61,105-1.13,205.54-38.6,298.38-81.59,183.57-85.01,362.69-217.16,571.77-239.05,155.31-16.26,284.62,54.27,386.88,159.03v4.93Z"/>
            <path class="cls-28" d="M1600,570.06c-102.27-104.76-231.57-175.3-386.88-159.03-209.08,21.9-388.2,154.05-571.77,239.05-92.84,42.99-193.38,80.46-298.38,81.59-138.53,1.48-252.24-68.66-342.97-161.61v-4.93c90.73,92.95,204.44,163.09,342.97,161.61,105-1.13,205.54-38.6,298.38-81.59,183.57-85.01,362.69-217.16,571.77-239.05,155.31-16.26,284.62,54.27,386.88,159.03v4.93Z"/>
            <path class="cls-40" d="M1600,556.14c-102.27-104.76-231.57-175.3-386.88-159.03-209.08,21.9-388.2,154.05-571.77,239.05-92.84,42.99-193.38,80.46-298.38,81.59-138.53,1.49-252.24-68.66-342.97-161.61v-4.93c90.73,92.95,204.44,163.09,342.97,161.61,105-1.13,205.54-38.6,298.38-81.59,183.57-85.01,362.69-217.16,571.77-239.05,155.31-16.26,284.62,54.27,386.88,159.03v4.93Z"/>
            <path class="cls-39" d="M1600,542.22c-102.27-104.76-231.57-175.3-386.88-159.03-209.08,21.9-388.2,154.05-571.77,239.05-92.84,42.99-193.38,80.46-298.38,81.59-138.53,1.48-252.24-68.66-342.97-161.61v-4.93c90.73,92.95,204.44,163.09,342.97,161.61,105-1.13,205.54-38.6,298.38-81.59,183.57-85.01,362.69-217.16,571.77-239.05,155.31-16.26,284.62,54.27,386.88,159.03v4.93Z"/>
            <path class="cls-38" d="M1600,528.29c-102.27-104.76-231.57-175.3-386.88-159.03-209.08,21.9-388.2,154.05-571.77,239.05-92.84,42.99-193.38,80.46-298.38,81.59-138.53,1.49-252.24-68.66-342.97-161.61v-4.93c90.73,92.95,204.44,163.1,342.97,161.61,105-1.13,205.54-38.6,298.38-81.59,183.57-85.01,362.69-217.16,571.77-239.05,155.31-16.26,284.62,54.27,386.88,159.03v4.93Z"/>
            <path class="cls-37" d="M1600,514.37c-102.27-104.76-231.57-175.3-386.88-159.03-209.08,21.9-388.2,154.05-571.77,239.05-92.84,42.99-193.38,80.46-298.38,81.59-138.53,1.48-252.24-68.66-342.97-161.61v-4.93c90.73,92.95,204.44,163.09,342.97,161.61,105-1.13,205.54-38.6,298.38-81.59,183.57-85.01,362.69-217.16,571.77-239.05,155.31-16.26,284.62,54.27,386.88,159.03v4.93Z"/>
            <path class="cls-35" d="M1600,500.45c-102.27-104.76-231.57-175.3-386.88-159.03-209.08,21.9-388.2,154.05-571.77,239.05-92.84,42.99-193.38,80.46-298.38,81.59-138.53,1.49-252.24-68.66-342.97-161.61v-4.93c90.73,92.95,204.44,163.09,342.97,161.61,105-1.13,205.54-38.6,298.38-81.59,183.57-85.01,362.69-217.16,571.77-239.05,155.31-16.26,284.62,54.27,386.88,159.03v4.93Z"/>
            <path class="cls-41" d="M1600,486.52c-102.27-104.76-231.57-175.3-386.88-159.03-209.08,21.9-388.2,154.05-571.77,239.05-92.84,42.99-193.38,80.46-298.38,81.59-138.53,1.48-252.24-68.66-342.97-161.61v-4.93c90.73,92.95,204.44,163.09,342.97,161.61,105-1.13,205.54-38.6,298.38-81.59,183.57-85.01,362.69-217.16,571.77-239.05,155.31-16.26,284.62,54.27,386.88,159.03v4.93Z"/>
            <path class="cls-23" d="M1600,472.6c-102.27-104.76-231.57-175.3-386.88-159.03-209.08,21.9-388.2,154.05-571.77,239.05-92.84,42.99-193.38,80.46-298.38,81.59-138.53,1.48-252.24-68.66-342.97-161.61v-4.93c90.73,92.95,204.44,163.09,342.97,161.61,105-1.13,205.54-38.6,298.38-81.59,183.57-85.01,362.69-217.16,571.77-239.05,155.31-16.26,284.62,54.27,386.88,159.03v4.93Z"/>
            <path class="cls-25" d="M1600,458.68c-102.27-104.76-231.57-175.3-386.88-159.03-209.08,21.9-388.2,154.05-571.77,239.05-92.84,42.99-193.38,80.46-298.38,81.59-138.53,1.49-252.24-68.66-342.97-161.61v-4.93c90.73,92.95,204.44,163.09,342.97,161.61,105-1.13,205.54-38.6,298.38-81.59,183.57-85.01,362.69-217.16,571.77-239.05,155.31-16.26,284.62,54.27,386.88,159.03v4.93Z"/>
            <path class="cls-24" d="M1600,444.76c-102.27-104.76-231.57-175.3-386.88-159.03-209.08,21.9-388.2,154.05-571.77,239.05-92.84,42.99-193.38,80.46-298.38,81.59-138.53,1.48-252.24-68.66-342.97-161.61v-4.93c90.73,92.95,204.44,163.09,342.97,161.61,105-1.13,205.54-38.6,298.38-81.59,183.57-85.01,362.69-217.16,571.77-239.05,155.31-16.26,284.62,54.27,386.88,159.03v4.93Z"/>
            <path class="cls-36" d="M1600,430.83c-102.27-104.76-231.57-175.3-386.88-159.03-209.08,21.9-388.2,154.05-571.77,239.05-92.84,42.99-193.38,80.46-298.38,81.59-138.53,1.49-252.24-68.66-342.97-161.61v-4.93c90.73,92.95,204.44,163.09,342.97,161.61,105-1.13,205.54-38.6,298.38-81.59,183.57-85.01,362.69-217.16,571.77-239.05,155.31-16.26,284.62,54.27,386.88,159.03v4.93Z"/>
            <path class="cls-75" d="M1600,416.91c-102.27-104.76-231.57-175.3-386.88-159.03-209.08,21.9-388.2,154.05-571.77,239.05-92.84,42.99-193.38,80.46-298.38,81.59-138.53,1.48-252.24-68.66-342.97-161.61v-4.93c90.73,92.95,204.44,163.09,342.97,161.61,105-1.13,205.54-38.6,298.38-81.59,183.57-85.01,362.69-217.16,571.77-239.05,155.31-16.26,284.62,54.27,386.88,159.03v4.93Z"/>
            <path class="cls-73" d="M1600,402.99c-102.27-104.76-231.57-175.3-386.88-159.03-209.08,21.9-388.2,154.05-571.77,239.05-92.84,42.99-193.38,80.46-298.38,81.59-138.53,1.49-252.24-68.66-342.97-161.61v-4.93c90.73,92.95,204.44,163.09,342.97,161.61,105-1.13,205.54-38.6,298.38-81.59,183.57-85.01,362.69-217.16,571.77-239.05,155.31-16.26,284.62,54.27,386.88,159.03v4.93Z"/>
            <path class="cls-61" d="M1600,389.06c-102.27-104.76-231.57-175.3-386.88-159.03-209.08,21.9-388.2,154.05-571.77,239.05-92.84,42.99-193.38,80.46-298.38,81.59-138.53,1.48-252.24-68.66-342.97-161.61v-4.93c90.73,92.95,204.44,163.09,342.97,161.61,105-1.13,205.54-38.6,298.38-81.59,183.57-85.01,362.69-217.16,571.77-239.05,155.31-16.26,284.62,54.27,386.88,159.03v4.93Z"/>
            <path class="cls-64" d="M1600,375.14c-102.27-104.76-231.57-175.3-386.88-159.03-209.08,21.9-388.2,154.05-571.77,239.05-92.84,42.99-193.38,80.46-298.38,81.59-138.53,1.48-252.24-68.66-342.97-161.61v-4.93c90.73,92.95,204.44,163.09,342.97,161.61,105-1.13,205.54-38.6,298.38-81.59,183.57-85,362.69-217.16,571.77-239.05,155.31-16.26,284.62,54.27,386.88,159.03v4.93Z"/>
            <path class="cls-62" d="M1600,361.22c-102.27-104.76-231.57-175.3-386.88-159.03-209.08,21.9-388.2,154.05-571.77,239.05-92.84,42.99-193.38,80.46-298.38,81.59-138.53,1.48-252.24-68.66-342.97-161.61v-4.93c90.73,92.95,204.44,163.09,342.97,161.61,105-1.13,205.54-38.6,298.38-81.59,183.57-85.01,362.69-217.16,571.77-239.05,155.31-16.26,284.62,54.27,386.88,159.03v4.93Z"/>
            <path class="cls-63" d="M1600,347.29c-102.27-104.76-231.57-175.3-386.88-159.03-209.08,21.9-388.2,154.05-571.77,239.05-92.84,42.99-193.38,80.46-298.38,81.59-138.53,1.48-252.24-68.66-342.97-161.61v-4.93c90.73,92.95,204.44,163.09,342.97,161.61,105-1.13,205.54-38.6,298.38-81.59,183.57-85.01,362.69-217.16,571.77-239.05,155.31-16.26,284.62,54.27,386.88,159.03v4.93Z"/>
            <path class="cls-74" d="M1600,333.37c-102.27-104.76-231.57-175.3-386.88-159.03-209.08,21.9-388.2,154.05-571.77,239.05-92.84,42.99-193.38,80.46-298.38,81.59-138.53,1.49-252.24-68.66-342.97-161.61v-4.93c90.73,92.95,204.44,163.09,342.97,161.61,105-1.13,205.54-38.6,298.38-81.59,183.57-85.01,362.69-217.16,571.77-239.05,155.31-16.26,284.62,54.27,386.88,159.03v4.93Z"/>
            <path class="cls-65" d="M1600,319.45c-102.27-104.76-231.57-175.3-386.88-159.03-209.08,21.9-388.2,154.05-571.77,239.05-92.84,42.99-193.38,80.46-298.38,81.59-138.53,1.48-252.24-68.66-342.97-161.61v-4.93c90.73,92.95,204.44,163.09,342.97,161.61,105-1.13,205.54-38.6,298.38-81.59,183.57-85.01,362.69-217.16,571.77-239.05,155.31-16.26,284.62,54.27,386.88,159.03v4.93Z"/>
            <path class="cls-66" d="M1600,305.53c-102.27-104.76-231.57-175.3-386.88-159.03-209.08,21.9-388.2,154.05-571.77,239.05-92.84,42.99-193.38,80.46-298.38,81.59-138.53,1.49-252.24-68.66-342.97-161.61v-4.93c90.73,92.95,204.44,163.1,342.97,161.61,105-1.13,205.54-38.6,298.38-81.59,183.57-85.01,362.69-217.16,571.77-239.05,155.31-16.26,284.62,54.27,386.88,159.03v4.93Z"/>
            <path class="cls-67" d="M1600,291.6c-102.27-104.76-231.57-175.3-386.88-159.03-209.08,21.9-388.2,154.05-571.77,239.05-92.84,42.99-193.38,80.46-298.38,81.59-138.53,1.48-252.24-68.66-342.97-161.61v-4.93c90.73,92.95,204.44,163.09,342.97,161.61,105-1.13,205.54-38.6,298.38-81.59,183.57-85.01,362.69-217.16,571.77-239.05,155.31-16.26,284.62,54.27,386.88,159.03v4.93Z"/>
            <path class="cls-68" d="M1600,277.68c-102.27-104.76-231.57-175.3-386.88-159.03-209.08,21.9-388.2,154.05-571.77,239.05-92.84,42.99-193.38,80.46-298.38,81.59-138.53,1.49-252.24-68.66-342.97-161.61v-4.93c90.73,92.95,204.44,163.09,342.97,161.61,105-1.13,205.54-38.6,298.38-81.59,183.57-85.01,362.69-217.16,571.77-239.05,155.31-16.26,284.62,54.27,386.88,159.03v4.93Z"/>
            <path class="cls-76" d="M1600,263.76c-102.27-104.76-231.57-175.3-386.88-159.03-209.08,21.9-388.2,154.05-571.77,239.05-92.84,42.99-193.38,80.46-298.38,81.59-138.53,1.48-252.24-68.66-342.97-161.61v-4.93c90.73,92.95,204.44,163.09,342.97,161.61,105-1.13,205.54-38.6,298.38-81.59,183.57-85.01,362.69-217.16,571.77-239.05,155.31-16.26,284.62,54.27,386.88,159.03v4.93Z"/>
            <path class="cls-69" d="M1600,249.83c-102.27-104.76-231.57-175.3-386.88-159.03-209.08,21.9-388.2,154.05-571.77,239.05-92.84,42.99-193.38,80.46-298.38,81.59-138.53,1.48-252.24-68.66-342.97-161.61v-4.93c90.73,92.95,204.44,163.09,342.97,161.61,105-1.13,205.54-38.6,298.38-81.59,183.57-85.01,362.69-217.16,571.77-239.05,155.31-16.26,284.62,54.27,386.88,159.03v4.93Z"/>
            <path class="cls-78" d="M1600,235.91c-102.27-104.76-231.57-175.3-386.88-159.03-209.08,21.9-388.2,154.05-571.77,239.05-92.84,42.99-193.38,80.46-298.38,81.59-138.53,1.49-252.24-68.66-342.97-161.61v-4.93c90.73,92.95,204.44,163.09,342.97,161.61,105-1.13,205.54-38.6,298.38-81.59,183.57-85.01,362.69-217.16,571.77-239.05,155.31-16.26,284.62,54.27,386.88,159.03v4.93Z"/>
            <path class="cls-77" d="M1600,221.99c-102.27-104.76-231.57-175.3-386.88-159.03-209.08,21.9-388.2,154.05-571.77,239.05-92.84,42.99-193.38,80.46-298.38,81.59-138.53,1.48-252.24-68.66-342.97-161.61v-4.93c90.73,92.95,204.44,163.09,342.97,161.61,105-1.13,205.54-38.6,298.38-81.59,183.57-85.01,362.69-217.16,571.77-239.05,155.31-16.26,284.62,54.27,386.88,159.03v4.93Z"/>
            <path class="cls-70" d="M1600,208.06c-102.27-104.76-231.57-175.3-386.88-159.03-209.08,21.9-388.2,154.05-571.77,239.05-92.84,42.99-193.38,80.46-298.38,81.59-138.53,1.49-252.24-68.66-342.97-161.61v-4.93c90.73,92.95,204.44,163.09,342.97,161.61,105-1.13,205.54-38.6,298.38-81.59,183.57-85.01,362.69-217.16,571.77-239.05,155.31-16.26,284.62,54.27,386.88,159.03v4.93Z"/>
            <path class="cls-79" d="M1600,194.14c-102.27-104.76-231.57-175.3-386.88-159.03-209.08,21.9-388.2,154.05-571.77,239.05-92.84,42.99-193.38,80.46-298.38,81.59-138.53,1.48-252.24-68.66-342.97-161.61v-4.93c90.73,92.95,204.44,163.09,342.97,161.61,105-1.13,205.54-38.6,298.38-81.59,183.57-85.01,362.69-217.16,571.77-239.05,155.31-16.26,284.62,54.27,386.88,159.03v4.93Z"/>
            <path class="cls-72" d="M1600,180.22c-102.27-104.76-231.57-175.3-386.88-159.03-209.08,21.9-388.2,154.05-571.77,239.05-92.84,42.99-193.38,80.46-298.38,81.59-138.53,1.49-252.24-68.66-342.97-161.61v-4.93c90.73,92.95,204.44,163.09,342.97,161.61,105-1.13,205.54-38.6,298.38-81.59,183.57-85.01,362.69-217.16,571.77-239.05C1368.43-.01,1497.73,70.52,1600,175.29v4.93Z"/>
            <path class="cls-71" d="M1600,166.29C1497.73,61.53,1368.43-9,1213.12,7.26c-209.08,21.9-388.2,154.05-571.77,239.05-92.84,42.99-193.38,80.46-298.38,81.59-138.53,1.48-252.24-68.66-342.97-161.61v-4.93c90.73,92.95,204.44,163.09,342.97,161.61,105-1.13,205.54-38.6,298.38-81.59C824.92,156.38,1004.04,24.23,1213.12,2.33c155.31-16.26,284.62,54.27,386.88,159.03v4.93Z"/>
          </g>
        </g>
      </g>
    </g>
  </g>
</svg>